<svg id="Группа_2_копия_3" data-name="Группа 2 копия 3" xmlns="http://www.w3.org/2000/svg" width="471" height="73" viewBox="0 0 471 73">
  <defs>
    <style>
      .cls-1 {
        fill: #3f881c;
      }

      .cls-1, .cls-2 {
        fill-rule: evenodd;
      }

      .cls-2 {
        fill: #222;
      }
    </style>
  </defs>
  <path id="_." data-name="." class="cls-1" d="M450,56.516a7.5,7.5,0,0,0,5.52-2.24,7.6,7.6,0,0,0,2.24-5.6,7.306,7.306,0,0,0-2.24-5.56,8.246,8.246,0,0,0-11.04,0,7.3,7.3,0,0,0-2.24,5.56,7.594,7.594,0,0,0,2.24,5.6,7.5,7.5,0,0,0,5.52,2.24h0Z"/>
  <path id="Про_центос_" data-name="Про центос " class="cls-2" d="M1,1V56H13l0.195-45.031L39,11V56H51V1H1ZM80.074,12.729q-8.88,0-13.52,5.6v-4.96H54.634v58.56h12.48V51.849q4.719,5.2,12.96,5.2a21.934,21.934,0,0,0,10.92-2.76,19.821,19.821,0,0,0,7.72-7.76,23.423,23.423,0,0,0,2.8-11.64,23.429,23.429,0,0,0-2.8-11.64,19.829,19.829,0,0,0-7.72-7.76,21.934,21.934,0,0,0-10.92-2.76h0Zm-2.16,34.08a10.393,10.393,0,0,1-7.88-3.24,12.075,12.075,0,0,1-3.08-8.68,12.077,12.077,0,0,1,3.08-8.68,11.2,11.2,0,0,1,15.76,0,12.082,12.082,0,0,1,3.08,8.68,12.08,12.08,0,0,1-3.08,8.68,10.4,10.4,0,0,1-7.88,3.24h0Zm50.879,10.24a25.569,25.569,0,0,0,12.16-2.84,21.177,21.177,0,0,0,8.4-7.88,21.716,21.716,0,0,0,3.04-11.44,21.719,21.719,0,0,0-3.04-11.44,21.185,21.185,0,0,0-8.4-7.88,27.538,27.538,0,0,0-24.36,0,21.111,21.111,0,0,0-8.44,7.88,21.71,21.71,0,0,0-3.04,11.44,21.707,21.707,0,0,0,3.04,11.44,21.1,21.1,0,0,0,8.44,7.88,25.8,25.8,0,0,0,12.2,2.84h0Zm0-10.24a10.523,10.523,0,0,1-7.92-3.24,11.985,11.985,0,0,1-3.12-8.68,11.987,11.987,0,0,1,3.12-8.68,10.523,10.523,0,0,1,7.92-3.24,10.4,10.4,0,0,1,7.88,3.24,12.08,12.08,0,0,1,3.08,8.68,12.078,12.078,0,0,1-3.08,8.68,10.4,10.4,0,0,1-7.88,3.24h0Zm69.839-.64v-32.8h-12.48v32.8h-17.36v-32.8h-12.4v43.04h36.88v9.44h11.6V46.169h-6.24Zm52.719-11.12a23.268,23.268,0,0,0-2.92-11.8,19.862,19.862,0,0,0-8.04-7.8,25.511,25.511,0,0,0-23.16.12,21.018,21.018,0,0,0-8.24,7.92,22,22,0,0,0-3,11.4,21.707,21.707,0,0,0,3.04,11.44,20.805,20.805,0,0,0,8.64,7.88,28.087,28.087,0,0,0,12.88,2.84q11.679,0,17.76-6.96l-6.64-7.2a14.44,14.44,0,0,1-4.84,3.16,16.508,16.508,0,0,1-5.96,1,13.77,13.77,0,0,1-8.16-2.32,10.133,10.133,0,0,1-4.16-6.32h32.56q0.24-3.12.24-3.36h0Zm-22.32-12.88a10.523,10.523,0,0,1,7.04,2.44,10.323,10.323,0,0,1,3.52,6.52h-21.2a10.216,10.216,0,0,1,3.52-6.56,10.747,10.747,0,0,1,7.12-2.4h0Zm25.519,34.24h12.4V40.329h18.72v16.08h12.48V13.369H285.67v16.8H266.95v-16.8h-12.4v43.04Zm90.079-43.04h-41.52v10.24h14.56v32.8h12.4v-32.8h14.56V13.369Zm24,43.68a25.569,25.569,0,0,0,12.16-2.84,21.177,21.177,0,0,0,8.4-7.88,21.716,21.716,0,0,0,3.04-11.44,21.719,21.719,0,0,0-3.04-11.44,21.185,21.185,0,0,0-8.4-7.88,27.538,27.538,0,0,0-24.36,0,21.117,21.117,0,0,0-8.44,7.88,21.71,21.71,0,0,0-3.04,11.44,21.707,21.707,0,0,0,3.04,11.44,21.109,21.109,0,0,0,8.44,7.88,25.8,25.8,0,0,0,12.2,2.84h0Zm0-10.24a10.523,10.523,0,0,1-7.92-3.24,11.985,11.985,0,0,1-3.12-8.68,11.987,11.987,0,0,1,3.12-8.68,10.523,10.523,0,0,1,7.92-3.24,10.4,10.4,0,0,1,7.88,3.24,12.08,12.08,0,0,1,3.08,8.68,12.078,12.078,0,0,1-3.08,8.68,10.4,10.4,0,0,1-7.88,3.24h0Zm51.04,10.24a23.688,23.688,0,0,0,11.88-2.88,17.19,17.19,0,0,0,7.4-8l-9.68-5.28q-3.282,5.921-9.68,5.92a10.948,10.948,0,0,1-8.08-3.2q-3.2-3.2-3.2-8.72t3.2-8.72a10.953,10.953,0,0,1,8.08-3.2q6.318,0,9.68,5.92l9.68-5.2a16.855,16.855,0,0,0-7.4-8.12,23.964,23.964,0,0,0-11.88-2.84,26.465,26.465,0,0,0-12.36,2.84,21.256,21.256,0,0,0-8.56,7.88,21.491,21.491,0,0,0-3.08,11.44,21.488,21.488,0,0,0,3.08,11.44,21.248,21.248,0,0,0,8.56,7.88,26.45,26.45,0,0,0,12.36,2.84h0Z"/>
  <path id="Фигура_2" data-name="Фигура 2" class="cls-1" d="M1,56H13L51,1H38Z"/>
</svg>
