<?xml version="1.0" encoding="utf-8"?><svg xmlns="http://www.w3.org/2000/svg" xmlns:xlink="http://www.w3.org/1999/xlink"><symbol viewBox="0 0 533.5 544.3" id="google-logo" xmlns="http://www.w3.org/2000/svg"><g xmlns="http://www.w3.org/2000/svg"><path d="M533.5 278.4c0-18.5-1.5-37.1-4.7-55.3H272.1v104.8h147c-6.1 33.8-25.7 63.7-54.4 82.7v68h87.7c51.5-47.4 81.1-117.4 81.1-200.2z" fill="#4285f4"/><path d="M272.1 544.3c73.4 0 135.3-24.1 180.4-65.7l-87.7-68c-24.4 16.6-55.9 26-92.6 26-71 0-131.2-47.9-152.8-112.3H28.9v70.1c46.2 91.9 140.3 149.9 243.2 149.9z" fill="#34a853"/><path d="M119.3 324.3c-11.4-33.8-11.4-70.4 0-104.2V150H28.9c-38.6 76.9-38.6 167.5 0 244.4l90.4-70.1z" fill="#fbbc04"/><path d="M272.1 107.7c38.8-.6 76.3 14 104.4 40.8l77.7-77.7C405 24.6 339.7-.8 272.1 0 169.2 0 75.1 58 28.9 150l90.4 70.1c21.5-64.5 81.8-112.4 152.8-112.4z" fill="#ea4335"/></g></symbol><symbol viewBox="0 0 471 73" id="logo" xmlns="http://www.w3.org/2000/svg"><path data-name="." d="M450 56.516a7.5 7.5 0 0 0 5.52-2.24 7.6 7.6 0 0 0 2.24-5.6 7.306 7.306 0 0 0-2.24-5.56 8.246 8.246 0 0 0-11.04 0 7.3 7.3 0 0 0-2.24 5.56 7.594 7.594 0 0 0 2.24 5.6 7.5 7.5 0 0 0 5.52 2.24z" fill="#3f881c" fill-rule="evenodd"/><path data-name="Про центос" d="M1 1v55h12l.195-45.031L39 11v45h12V1H1zm79.074 11.729q-8.88 0-13.52 5.6v-4.96h-11.92v58.56h12.48v-20.08q4.719 5.2 12.96 5.2a21.934 21.934 0 0 0 10.92-2.76 19.821 19.821 0 0 0 7.72-7.76 23.423 23.423 0 0 0 2.8-11.64 23.429 23.429 0 0 0-2.8-11.64 19.829 19.829 0 0 0-7.72-7.76 21.934 21.934 0 0 0-10.92-2.76zm-2.16 34.08a10.393 10.393 0 0 1-7.88-3.24 12.075 12.075 0 0 1-3.08-8.68 12.077 12.077 0 0 1 3.08-8.68 11.2 11.2 0 0 1 15.76 0 12.082 12.082 0 0 1 3.08 8.68 12.08 12.08 0 0 1-3.08 8.68 10.4 10.4 0 0 1-7.88 3.24zm50.879 10.24a25.569 25.569 0 0 0 12.16-2.84 21.177 21.177 0 0 0 8.4-7.88 21.716 21.716 0 0 0 3.04-11.44 21.719 21.719 0 0 0-3.04-11.44 21.185 21.185 0 0 0-8.4-7.88 27.538 27.538 0 0 0-24.36 0 21.111 21.111 0 0 0-8.44 7.88 21.71 21.71 0 0 0-3.04 11.44 21.707 21.707 0 0 0 3.04 11.44 21.1 21.1 0 0 0 8.44 7.88 25.8 25.8 0 0 0 12.2 2.84zm0-10.24a10.523 10.523 0 0 1-7.92-3.24 11.985 11.985 0 0 1-3.12-8.68 11.987 11.987 0 0 1 3.12-8.68 10.523 10.523 0 0 1 7.92-3.24 10.4 10.4 0 0 1 7.88 3.24 12.08 12.08 0 0 1 3.08 8.68 12.078 12.078 0 0 1-3.08 8.68 10.4 10.4 0 0 1-7.88 3.24zm69.839-.64v-32.8h-12.48v32.8h-17.36v-32.8h-12.4v43.04h36.88v9.44h11.6v-19.68h-6.24zm52.719-11.12a23.268 23.268 0 0 0-2.92-11.8 19.862 19.862 0 0 0-8.04-7.8 25.511 25.511 0 0 0-23.16.12 21.018 21.018 0 0 0-8.24 7.92 22 22 0 0 0-3 11.4 21.707 21.707 0 0 0 3.04 11.44 20.805 20.805 0 0 0 8.64 7.88 28.087 28.087 0 0 0 12.88 2.84q11.679 0 17.76-6.96l-6.64-7.2a14.44 14.44 0 0 1-4.84 3.16 16.508 16.508 0 0 1-5.96 1 13.77 13.77 0 0 1-8.16-2.32 10.133 10.133 0 0 1-4.16-6.32h32.56q.24-3.12.24-3.36zm-22.32-12.88a10.523 10.523 0 0 1 7.04 2.44 10.323 10.323 0 0 1 3.52 6.52h-21.2a10.216 10.216 0 0 1 3.52-6.56 10.747 10.747 0 0 1 7.12-2.4zm25.519 34.24h12.4v-16.08h18.72v16.08h12.48v-43.04h-12.48v16.8h-18.72v-16.8h-12.4v43.04zm90.079-43.04h-41.52v10.24h14.56v32.8h12.4v-32.8h14.56v-10.24zm24 43.68a25.569 25.569 0 0 0 12.16-2.84 21.177 21.177 0 0 0 8.4-7.88 21.716 21.716 0 0 0 3.04-11.44 21.719 21.719 0 0 0-3.04-11.44 21.185 21.185 0 0 0-8.4-7.88 27.538 27.538 0 0 0-24.36 0 21.117 21.117 0 0 0-8.44 7.88 21.71 21.71 0 0 0-3.04 11.44 21.707 21.707 0 0 0 3.04 11.44 21.109 21.109 0 0 0 8.44 7.88 25.8 25.8 0 0 0 12.2 2.84zm0-10.24a10.523 10.523 0 0 1-7.92-3.24 11.985 11.985 0 0 1-3.12-8.68 11.987 11.987 0 0 1 3.12-8.68 10.523 10.523 0 0 1 7.92-3.24 10.4 10.4 0 0 1 7.88 3.24 12.08 12.08 0 0 1 3.08 8.68 12.078 12.078 0 0 1-3.08 8.68 10.4 10.4 0 0 1-7.88 3.24zm51.04 10.24a23.688 23.688 0 0 0 11.88-2.88 17.19 17.19 0 0 0 7.4-8l-9.68-5.28q-3.282 5.921-9.68 5.92a10.948 10.948 0 0 1-8.08-3.2q-3.2-3.2-3.2-8.72t3.2-8.72a10.953 10.953 0 0 1 8.08-3.2q6.318 0 9.68 5.92l9.68-5.2a16.855 16.855 0 0 0-7.4-8.12 23.964 23.964 0 0 0-11.88-2.84 26.465 26.465 0 0 0-12.36 2.84 21.256 21.256 0 0 0-8.56 7.88 21.491 21.491 0 0 0-3.08 11.44 21.488 21.488 0 0 0 3.08 11.44 21.248 21.248 0 0 0 8.56 7.88 26.45 26.45 0 0 0 12.36 2.84z" fill="#222" fill-rule="evenodd"/><path data-name="Фигура 2" d="M1 56h12L51 1H38z" fill="#3f881c" fill-rule="evenodd"/></symbol><symbol viewBox="0 0 512 512" id="yandex-logo" xmlns="http://www.w3.org/2000/svg"><path d="M363.493 0h-72.744C217.05 0 142.684 54.422 142.684 176.006c0 62.978 26.691 112.027 75.619 139.922l-89.552 162.091c-4.246 7.666-4.357 16.354-.298 23.24 3.963 6.725 11.21 10.741 19.378 10.741h45.301c10.291 0 18.315-4.974 22.163-13.688L299.26 334.08h6.128v157.451c0 11.096 9.363 20.469 20.446 20.469h39.574c12.429 0 21.106-8.678 21.106-21.104V22.403C386.516 9.213 377.05 0 363.493 0zm-58.105 261.126h-10.81c-41.915 0-66.938-34.214-66.938-91.523 0-71.259 31.61-96.648 61.194-96.648h16.554v188.171z" fill="#d7143a"/></symbol></svg>