<?xml version="1.0" encoding="utf-8"?><svg xmlns="http://www.w3.org/2000/svg" xmlns:xlink="http://www.w3.org/1999/xlink" style="display:none"><symbol viewBox="0 0 24 24" id="angle-down" xmlns="http://www.w3.org/2000/svg"><path d="M17 9.17a1 1 0 0 0-1.41 0L12 12.71 8.46 9.17a1 1 0 0 0-1.41 0 1 1 0 0 0 0 1.42l4.24 4.24a1 1 0 0 0 1.42 0L17 10.59a1 1 0 0 0 0-1.42z"/></symbol><symbol viewBox="0 0 24 24" id="bell" xmlns="http://www.w3.org/2000/svg"><path d="M18 13.18V10a6 6 0 0 0-5-5.91V3a1 1 0 0 0-2 0v1.09A6 6 0 0 0 6 10v3.18A3 3 0 0 0 4 16v2a1 1 0 0 0 1 1h3.14a4 4 0 0 0 7.72 0H19a1 1 0 0 0 1-1v-2a3 3 0 0 0-2-2.82zM8 10a4 4 0 0 1 8 0v3H8zm4 10a2 2 0 0 1-1.72-1h3.44A2 2 0 0 1 12 20zm6-3H6v-1a1 1 0 0 1 1-1h10a1 1 0 0 1 1 1z"/></symbol><symbol viewBox="0 0 24 24" id="bookmark" xmlns="http://www.w3.org/2000/svg"><path d="M16 2H8a3 3 0 0 0-3 3v16a1 1 0 0 0 .5.87 1 1 0 0 0 1 0l5.5-3.18 5.5 3.18a1 1 0 0 0 .5.13 1 1 0 0 0 .5-.13A1 1 0 0 0 19 21V5a3 3 0 0 0-3-3zm1 17.27l-4.5-2.6a1 1 0 0 0-1 0L7 19.27V5a1 1 0 0 1 1-1h8a1 1 0 0 1 1 1z"/></symbol><symbol viewBox="0 0 24 24" id="comment" xmlns="http://www.w3.org/2000/svg"><path d="M8 11a1 1 0 1 0 1 1 1 1 0 0 0-1-1zm4 0a1 1 0 1 0 1 1 1 1 0 0 0-1-1zm4 0a1 1 0 1 0 1 1 1 1 0 0 0-1-1zm-4-9A10 10 0 0 0 2 12a9.89 9.89 0 0 0 2.26 6.33l-2 2a1 1 0 0 0-.21 1.09A1 1 0 0 0 3 22h9a10 10 0 0 0 0-20zm0 18H5.41l.93-.93a1 1 0 0 0 .3-.71 1 1 0 0 0-.3-.7A8 8 0 1 1 12 20z"/></symbol><symbol viewBox="0 0 24 24" id="comment-dots" xmlns="http://www.w3.org/2000/svg"><path d="M8 11a1 1 0 1 0 1 1 1 1 0 0 0-1-1zm4 0a1 1 0 1 0 1 1 1 1 0 0 0-1-1zm4 0a1 1 0 1 0 1 1 1 1 0 0 0-1-1zm-4-9A10 10 0 0 0 2 12a9.89 9.89 0 0 0 2.26 6.33l-2 2a1 1 0 0 0-.21 1.09A1 1 0 0 0 3 22h9a10 10 0 0 0 0-20zm0 18H5.41l.93-.93a1 1 0 0 0 .3-.71 1 1 0 0 0-.3-.7A8 8 0 1 1 12 20z"/></symbol><symbol viewBox="0 0 24 24" id="edit" xmlns="http://www.w3.org/2000/svg"><path d="M21 12a1 1 0 0 0-1 1v6a1 1 0 0 1-1 1H5a1 1 0 0 1-1-1V5a1 1 0 0 1 1-1h6a1 1 0 0 0 0-2H5a3 3 0 0 0-3 3v14a3 3 0 0 0 3 3h14a3 3 0 0 0 3-3v-6a1 1 0 0 0-1-1zm-15 .76V17a1 1 0 0 0 1 1h4.24a1 1 0 0 0 .71-.29l6.92-6.93L21.71 8a1 1 0 0 0 0-1.42l-4.24-4.29a1 1 0 0 0-1.42 0l-2.82 2.83-6.94 6.93a1 1 0 0 0-.29.71zm10.76-8.35l2.83 2.83-1.42 1.42-2.83-2.83zM8 13.17l5.93-5.93 2.83 2.83L10.83 16H8z"/></symbol><symbol viewBox="0 0 24 24" id="exit" xmlns="http://www.w3.org/2000/svg"><path d="M4 12a1 1 0 0 0 1 1h7.59l-2.3 2.29a1 1 0 0 0 0 1.42 1 1 0 0 0 1.42 0l4-4a1 1 0 0 0 .21-.33 1 1 0 0 0 0-.76 1 1 0 0 0-.21-.33l-4-4a1 1 0 1 0-1.42 1.42l2.3 2.29H5a1 1 0 0 0-1 1zM17 2H7a3 3 0 0 0-3 3v3a1 1 0 0 0 2 0V5a1 1 0 0 1 1-1h10a1 1 0 0 1 1 1v14a1 1 0 0 1-1 1H7a1 1 0 0 1-1-1v-3a1 1 0 0 0-2 0v3a3 3 0 0 0 3 3h10a3 3 0 0 0 3-3V5a3 3 0 0 0-3-3z"/></symbol><symbol viewBox="0 0 24 24" id="eye" xmlns="http://www.w3.org/2000/svg"><path d="M21.92 11.6C19.9 6.91 16.1 4 12 4s-7.9 2.91-9.92 7.6a1 1 0 0 0 0 .8C4.1 17.09 7.9 20 12 20s7.9-2.91 9.92-7.6a1 1 0 0 0 0-.8zM12 18c-3.17 0-6.17-2.29-7.9-6C5.83 8.29 8.83 6 12 6s6.17 2.29 7.9 6c-1.73 3.71-4.73 6-7.9 6zm0-10a4 4 0 1 0 4 4 4 4 0 0 0-4-4zm0 6a2 2 0 1 1 2-2 2 2 0 0 1-2 2z"/></symbol><symbol viewBox="0 0 9.148 18.295" id="icon-facebook" xmlns="http://www.w3.org/2000/svg"><path d="M2.287 6.1H0v3.048h2.287V18.3H6.1V9.148h2.776L9.148 6.1H6.1V4.828c0-.728.146-1.016.85-1.016h2.2V0h-2.9C3.5 0 2.287 1.207 2.287 3.518z"/></symbol><symbol viewBox="0 0 17 14.461" id="icon-twitter" xmlns="http://www.w3.org/2000/svg"><path d="M16.995 1.011a.772.772 0 0 0-1.167-.664 5.778 5.778 0 0 1-1.447.613A3.98 3.98 0 0 0 11.775 0a4.042 4.042 0 0 0-4.036 3.911A8.522 8.522 0 0 1 2.476.88a.781.781 0 0 0-.662-.281.771.771 0 0 0-.607.386 4.075 4.075 0 0 0-.187 3.684.8.8 0 0 0-.382.686 2.35 2.35 0 0 0 .02.339A4.006 4.006 0 0 0 1.87 8.253a.771.771 0 0 0-.051.594 4.02 4.02 0 0 0 1.825 2.257 5.766 5.766 0 0 1-2.773.346.772.772 0 0 0-.514 1.416 10 10 0 0 0 5.415 1.592 9.878 9.878 0 0 0 9.629-7.233 9.9 9.9 0 0 0 .413-2.817v-.155a4.457 4.457 0 0 0 1.181-3.242zM14.44 3.492a.769.769 0 0 0-.18.542c.008.127.007.256.007.376a8.361 8.361 0 0 1-.351 2.38 8.254 8.254 0 0 1-8.146 6.125 8.449 8.449 0 0 1-1.97-.232 7.323 7.323 0 0 0 2.273-1.208.773.773 0 0 0-.465-1.38 2.478 2.478 0 0 1-1.71-.722q.173-.033.344-.081a.773.773 0 0 0-.062-1.5 2.471 2.471 0 0 1-1.738-1.333 4.093 4.093 0 0 0 .421.035.789.789 0 0 0 .76-.538.772.772 0 0 0-.309-.878 2.469 2.469 0 0 1-1.1-2.065V2.86a10.053 10.053 0 0 0 6.344 2.688.788.788 0 0 0 .631-.277.773.773 0 0 0 .16-.672 2.438 2.438 0 0 1-.067-.563 2.5 2.5 0 0 1 2.492-2.492 2.46 2.46 0 0 1 1.811.788.767.767 0 0 0 .711.23 7.162 7.162 0 0 0 .936-.249 5.161 5.161 0 0 1-.792 1.179z"/></symbol><symbol viewBox="0 0 17.5 9.483" id="icon-vk" xmlns="http://www.w3.org/2000/svg"><path d="M9.6 9.479a.585.585 0 0 0 .62-.667c-.023-1.4.521-2.15 1.5-1.17 1.085 1.085 1.31 1.837 2.627 1.837h2.333c.589 0 .821-.19.821-.487 0-.629-1.036-1.74-1.914-2.555-1.229-1.141-1.287-1.168-.228-2.542 1.312-1.705 3.03-3.892 1.51-3.892h-2.9c-.563 0-.6.317-.8.79-.725 1.711-2.1 3.928-2.628 3.589-.548-.354-.359-1.587-.317-3.668.011-.55-.717-.71-1.131-.71-1.657 0-3.759-.034-3.109.087 1.145.214 1.035 2.692.769 3.762C6.281 5.717 4.532 2.378 3.8.715c-.176-.4-.23-.71-.857-.71H.574C.215.003 0 .121 0 .381a25.191 25.191 0 0 0 4.219 7.122A6.189 6.189 0 0 0 9.6 9.479z"/></symbol><symbol viewBox="0 0 24 24" id="list-ul" xmlns="http://www.w3.org/2000/svg"><path d="M3.71 16.29a1 1 0 0 0-.33-.21 1 1 0 0 0-.76 0 1 1 0 0 0-.33.21 1 1 0 0 0-.21.33 1 1 0 0 0 .21 1.09 1.15 1.15 0 0 0 .33.21.94.94 0 0 0 .76 0 1.15 1.15 0 0 0 .33-.21 1 1 0 0 0 .21-1.09 1 1 0 0 0-.21-.33zM7 8h14a1 1 0 0 0 0-2H7a1 1 0 0 0 0 2zm-3.29 3.29a1 1 0 0 0-1.09-.21 1.15 1.15 0 0 0-.33.21 1 1 0 0 0-.21.33.94.94 0 0 0 0 .76 1.15 1.15 0 0 0 .21.33 1.15 1.15 0 0 0 .33.21.94.94 0 0 0 .76 0 1.15 1.15 0 0 0 .33-.21 1.15 1.15 0 0 0 .21-.33.94.94 0 0 0 0-.76 1 1 0 0 0-.21-.33zM21 11H7a1 1 0 0 0 0 2h14a1 1 0 0 0 0-2zM3.71 6.29a1 1 0 0 0-.33-.21 1 1 0 0 0-1.09.21 1.15 1.15 0 0 0-.21.33.94.94 0 0 0 0 .76 1.15 1.15 0 0 0 .21.33 1.15 1.15 0 0 0 .33.21 1 1 0 0 0 1.09-.21 1.15 1.15 0 0 0 .21-.33.94.94 0 0 0 0-.76 1.15 1.15 0 0 0-.21-.33zM21 16H7a1 1 0 0 0 0 2h14a1 1 0 0 0 0-2z"/></symbol><symbol viewBox="0 0 24 24" id="menu" xmlns="http://www.w3.org/2000/svg"><title>menu</title><path d="M3 13h18a1 1 0 0 0 0-2H3a1 1 0 0 0 0 2zm0-6h18a1 1 0 0 0 0-2H3a1 1 0 0 0 0 2zm0 12h18a1 1 0 0 0 0-2H3a1 1 0 0 0 0 2z"/></symbol><symbol viewBox="0 0 24 24" id="microphone" xmlns="http://www.w3.org/2000/svg"><path d="M12 15a4 4 0 0 0 4-4V5a4 4 0 0 0-8 0v6a4 4 0 0 0 4 4zM10 5a2 2 0 0 1 4 0v6a2 2 0 0 1-4 0zm10 6a1 1 0 0 0-2 0 6 6 0 0 1-12 0 1 1 0 0 0-2 0 8 8 0 0 0 7 7.93V21H9a1 1 0 0 0 0 2h6a1 1 0 0 0 0-2h-2v-2.07A8 8 0 0 0 20 11z"/></symbol><symbol viewBox="0 0 24 24" id="multiply" xmlns="http://www.w3.org/2000/svg"><path d="M13.41 12l6.3-6.29a1 1 0 1 0-1.42-1.42L12 10.59l-6.29-6.3a1 1 0 0 0-1.42 1.42l6.3 6.29-6.3 6.29a1 1 0 0 0 0 1.42 1 1 0 0 0 1.42 0l6.29-6.3 6.29 6.3a1 1 0 0 0 1.42 0 1 1 0 0 0 0-1.42z"/></symbol><symbol viewBox="0 0 24 24" id="paperclip" xmlns="http://www.w3.org/2000/svg"><path d="M18.08 12.42l-6.18 6.19a4.25 4.25 0 0 1-6-6l8-8a2.57 2.57 0 0 1 3.54 0 2.52 2.52 0 0 1 0 3.54l-6.9 6.89A.75.75 0 1 1 9.42 14l5.13-5.12a1 1 0 0 0-1.42-1.42L8 12.6a2.74 2.74 0 0 0 0 3.89 2.82 2.82 0 0 0 3.89 0l6.89-6.9a4.5 4.5 0 0 0-6.36-6.36l-8 8A6.25 6.25 0 0 0 13.31 20l6.19-6.18a1 1 0 1 0-1.42-1.42z"/></symbol><symbol viewBox="0 0 24 24" id="presentation-lines-alt" xmlns="http://www.w3.org/2000/svg"><path d="M10.17 10.55a1 1 0 0 0 .73.45 1 1 0 0 0 .81-.29l1.13-1.14 1.33 2A1 1 0 0 0 15 12a.94.94 0 0 0 .55-.17 1 1 0 0 0 .28-1.38l-2-3A1 1 0 0 0 13.1 7a1 1 0 0 0-.81.29l-1.13 1.14-1.33-2a1 1 0 1 0-1.66 1.1zM21 14h-1V4h1a1 1 0 0 0 0-2H3a1 1 0 0 0 0 2h1v10H3a1 1 0 0 0 0 2h8v1.15l-4.55 3A1 1 0 0 0 7 22a.94.94 0 0 0 .55-.17L11 19.55V21a1 1 0 0 0 2 0v-1.45l3.45 2.28A.94.94 0 0 0 17 22a1 1 0 0 0 .55-1.83l-4.55-3V16h8a1 1 0 0 0 0-2zm-3 0H6V4h12z"/></symbol><symbol viewBox="0 0 24 24" id="save-3-line" xmlns="http://www.w3.org/2000/svg"><path d="M18 19h1V6.828L17.172 5H16v4H7V5H5v14h1v-7h12v7zM4 3h14l2.707 2.707a1 1 0 0 1 .293.707V20a1 1 0 0 1-1 1H4a1 1 0 0 1-1-1V4a1 1 0 0 1 1-1zm4 11v5h8v-5H8z"/></symbol><symbol viewBox="0 0 24 24" id="search" xmlns="http://www.w3.org/2000/svg"><path d="M21.71 20.29L18 16.61A9 9 0 1 0 16.61 18l3.68 3.68a1 1 0 0 0 1.42 0 1 1 0 0 0 0-1.39zM11 18a7 7 0 1 1 7-7 7 7 0 0 1-7 7z"/></symbol><symbol viewBox="0 0 24 24" id="share-forward-line" xmlns="http://www.w3.org/2000/svg"><path d="M13 14h-2a8.999 8.999 0 0 0-7.968 4.81A10.136 10.136 0 0 1 3 18C3 12.477 7.477 8 13 8V2.5L23.5 11 13 19.5V14zm-2-2h4v3.308L20.321 11 15 6.692V10h-2a7.982 7.982 0 0 0-6.057 2.773A10.988 10.988 0 0 1 11 12z"/></symbol><symbol viewBox="0 0 24 24" id="signal" xmlns="http://www.w3.org/2000/svg"><path d="M6 15a1 1 0 0 0-1 1v3a1 1 0 0 0 2 0v-3a1 1 0 0 0-1-1zm4-3a1 1 0 0 0-1 1v6a1 1 0 0 0 2 0v-6a1 1 0 0 0-1-1zm8-8a1 1 0 0 0-1 1v14a1 1 0 0 0 2 0V5a1 1 0 0 0-1-1zm-4 4a1 1 0 0 0-1 1v10a1 1 0 0 0 2 0V9a1 1 0 0 0-1-1z"/></symbol><symbol viewBox="0 0 24 24" id="square" xmlns="http://www.w3.org/2000/svg"><path d="M17 2H7a5 5 0 0 0-5 5v10a5 5 0 0 0 5 5h10a5 5 0 0 0 5-5V7a5 5 0 0 0-5-5zm3 15a3 3 0 0 1-3 3H7a3 3 0 0 1-3-3V7a3 3 0 0 1 3-3h10a3 3 0 0 1 3 3z"/></symbol><symbol viewBox="0 0 24 24" id="thumbs-down" xmlns="http://www.w3.org/2000/svg"><path d="M19 2H6.27a3 3 0 0 0-2.95 2.46l-1.27 7A3 3 0 0 0 5 15h4.56L9 16.43A4.13 4.13 0 0 0 12.89 22a1 1 0 0 0 .91-.59L16.65 15H19a3 3 0 0 0 3-3V5a3 3 0 0 0-3-3zm-4 11.79l-2.72 6.12a2.13 2.13 0 0 1-1.38-2.78l.53-1.43A2 2 0 0 0 9.56 13H5a1 1 0 0 1-.77-.36 1 1 0 0 1-.23-.82l1.27-7a1 1 0 0 1 1-.82H15zM20 12a1 1 0 0 1-1 1h-2V4h2a1 1 0 0 1 1 1z"/></symbol><symbol viewBox="0 0 24 24" id="thumbs-up" xmlns="http://www.w3.org/2000/svg"><path d="M21.3 10.08A3 3 0 0 0 19 9h-4.56L15 7.57A4.13 4.13 0 0 0 11.11 2a1 1 0 0 0-.91.59L7.35 9H5a3 3 0 0 0-3 3v7a3 3 0 0 0 3 3h12.73a3 3 0 0 0 2.95-2.46l1.27-7a3 3 0 0 0-.65-2.46zM7 20H5a1 1 0 0 1-1-1v-7a1 1 0 0 1 1-1h2zm13-7.82l-1.27 7a1 1 0 0 1-1 .82H9v-9.79l2.72-6.12a2.11 2.11 0 0 1 1.38 2.78l-.53 1.43a2 2 0 0 0 1.87 2.7H19a1 1 0 0 1 .77.36 1 1 0 0 1 .23.82z"/></symbol><symbol viewBox="0 0 24 24" id="user" xmlns="http://www.w3.org/2000/svg"><path d="M15.71 12.71a6 6 0 1 0-7.42 0 10 10 0 0 0-6.22 8.18 1 1 0 0 0 2 .22 8 8 0 0 1 15.9 0 1 1 0 0 0 1 .89h.11a1 1 0 0 0 .88-1.1 10 10 0 0 0-6.25-8.19zM12 12a4 4 0 1 1 4-4 4 4 0 0 1-4 4z"/></symbol><symbol viewBox="0 0 24 24" id="user-circle" xmlns="http://www.w3.org/2000/svg"><path d="M12 2a10 10 0 0 0-7.35 16.76 10 10 0 0 0 14.7 0A10 10 0 0 0 12 2zm0 18a8 8 0 0 1-5.55-2.25 6 6 0 0 1 11.1 0A8 8 0 0 1 12 20zm-2-10a2 2 0 1 1 2 2 2 2 0 0 1-2-2zm8.91 6A8 8 0 0 0 15 12.62a4 4 0 1 0-6 0A8 8 0 0 0 5.09 16 7.92 7.92 0 0 1 4 12a8 8 0 0 1 16 0 7.92 7.92 0 0 1-1.09 4z"/></symbol></svg>