<svg width="58.001" height="17mm" viewBox="0 0 15.346 17" xmlns="http://www.w3.org/2000/svg"><defs><filter id="filter0_d" x=".233" y="0" width="196.18" height="90" filterUnits="userSpaceOnUse" color-interpolation-filters="sRGB"><feFlood flood-opacity="0" result="BackgroundImageFix"/><feColorMatrix in="SourceAlpha" values="0 0 0 0 0 0 0 0 0 0 0 0 0 0 0 0 0 0 127 0"/><feOffset dy="2"/><feGaussianBlur stdDeviation="12.5"/><feColorMatrix values="0 0 0 0 0 0 0 0 0 0 0 0 0 0 0 0 0 0 0.12 0"/><feBlend in2="BackgroundImageFix" result="effect1_dropShadow"/><feBlend in="SourceGraphic" in2="effect1_dropShadow" result="shape"/></filter><filter id="filter0_d-1" x="0" y="0" width="58" height="58" filterUnits="userSpaceOnUse" color-interpolation-filters="sRGB"><feFlood flood-opacity="0" result="BackgroundImageFix"/><feColorMatrix in="SourceAlpha" values="0 0 0 0 0 0 0 0 0 0 0 0 0 0 0 0 0 0 127 0"/><feOffset dy="4"/><feGaussianBlur stdDeviation="3.5"/><feColorMatrix values="0 0 0 0 0 0 0 0 0 0 0 0 0 0 0 0 0 0 0.25 0"/><feBlend in2="BackgroundImageFix" result="effect1_dropShadow"/><feBlend in="SourceGraphic" in2="effect1_dropShadow" result="shape"/></filter><style></style></defs><g fill="none"><path d="M421.04-617.63a2 2 0 011.789-2.894h131.67a5 5 0 014.472 2.763l7.5 15a4.999 4.999 0 010 4.473l-7.5 15a5 5 0 01-4.472 2.764h-131.67a2 2 0 01-1.789-2.895l7.435-14.87a5 5 0 000-4.472z" fill="#fff" filter="url(#filter0_d)" transform="translate(62.244 22.68) scale(.26458)"/><g filter="url(#filter0_d-1)" transform="translate(-.001 1.658) scale(.26458)"><circle cx="29" cy="25" r="19" fill="#fff"/><circle cx="29" cy="25" r="20.5" stroke-width="3" stroke="#f36639"/></g></g></svg>