<svg width="42.104" height="46.76" viewBox="0 0 11.14 12.372" xmlns="http://www.w3.org/2000/svg"><defs><filter id="a" x=".233" y="0" width="196.18" height="90" filterUnits="userSpaceOnUse" color-interpolation-filters="sRGB"><feFlood flood-opacity="0" result="BackgroundImageFix"/><feColorMatrix in="SourceAlpha" values="0 0 0 0 0 0 0 0 0 0 0 0 0 0 0 0 0 0 127 0"/><feOffset dy="2"/><feGaussianBlur stdDeviation="12.5"/><feColorMatrix values="0 0 0 0 0 0 0 0 0 0 0 0 0 0 0 0 0 0 0.12 0"/><feBlend in2="BackgroundImageFix" result="effect1_dropShadow"/><feBlend in="SourceGraphic" in2="effect1_dropShadow" result="shape"/></filter></defs><g fill="none"><path d="M421.04-617.63a2 2 0 011.789-2.894h131.67a5 5 0 014.472 2.763l7.5 15a4.999 4.999 0 010 4.473l-7.5 15a5 5 0 01-4.472 2.764h-131.67a2 2 0 01-1.789-2.895l7.435-14.87a5 5 0 000-4.472z" fill="#fff" filter="url(#a)" transform="translate(42.884 17.4) scale(.26458)"/><path d="M5.576 12.114a.53.53 0 01-.474-.294l-.53-1.058a5.292 5.292 0 112.012 0l-.53 1.058a.53.53 0 01-.478.294z" fill="#f36639"/><path d="M5.576.533a5.027 5.027 0 01.828 9.988L5.81 11.7a.265.265 0 01-.47 0l-.594-1.18A5.027 5.027 0 015.576.533m0-.53a5.556 5.556 0 00-1.183 10.989l.473.947a.794.794 0 001.419 0l.473-.947A5.556 5.556 0 005.576.004z" fill="#fff"/><g fill="#fff"><path d="M6.685 7.18c.173.588-.142.863-.142.863l-.288-.892a1.752 1.752 0 01-.629.107c-.292 0-.541-.053-.75-.138l-.279.948s-.314-.428-.167-.894c.022-.066.05-.158.082-.265a1.26 1.26 0 01-.473-.754l.29-.14c.055.189.156.36.302.5.142-.475.308-1.04.388-1.311-.404-.385-.27-1.177.344-1.328l-.13-.526.52-.038.021.56c.644.142.746.994.32 1.367l.308 1.006-.353.272-.358-1.109a1.012 1.012 0 01-.307-.017l-.398 1.354c.177.075.386.117.627.117.664 0 1.08-.388 1.204-.882l.295.132a1.422 1.422 0 01-.497.835l.07.234zM5.58 4.973c.437 0 .44-.68-.007-.68-.45 0-.471.68.007.68z" clip-rule="evenodd" fill-rule="evenodd"/></g></g></svg>