<svg width="41.998" height="46.7" viewBox="0 0 11.112 12.356" xmlns="http://www.w3.org/2000/svg"><defs><filter id="filter0_d" x=".233" y="0" width="196.18" height="90" filterUnits="userSpaceOnUse" color-interpolation-filters="sRGB"><feFlood flood-opacity="0" result="BackgroundImageFix"/><feColorMatrix in="SourceAlpha" values="0 0 0 0 0 0 0 0 0 0 0 0 0 0 0 0 0 0 127 0"/><feOffset dy="2"/><feGaussianBlur stdDeviation="12.5"/><feColorMatrix values="0 0 0 0 0 0 0 0 0 0 0 0 0 0 0 0 0 0 0.12 0"/><feBlend in2="BackgroundImageFix" result="effect1_dropShadow"/><feBlend in="SourceGraphic" in2="effect1_dropShadow" result="shape"/></filter><style></style></defs><g fill="none"><path d="M421.04-617.63a2 2 0 011.789-2.894h131.67a5 5 0 014.472 2.763l7.5 15a4.999 4.999 0 010 4.473l-7.5 15a5 5 0 01-4.472 2.764h-131.67a2 2 0 01-1.789-2.895l7.435-14.87a5 5 0 000-4.472z" fill="#fff" filter="url(#filter0_d)" transform="translate(50.924 16.88) scale(.26458)"/><path d="M6.469 10.903c2.633-.431 4.641-2.692 4.641-5.416 0-3.032-2.487-5.49-5.556-5.49S-.002 2.455-.002 5.487c0 2.724 2.008 4.985 4.641 5.416l.653 1.29a.294.294 0 00.524 0z" clip-rule="evenodd" fill-rule="evenodd" fill="#f36639"/><path d="M6.663 6.966c.173.587-.141.862-.141.862l-.29-.892a1.752 1.752 0 01-.627.106c-.293 0-.542-.052-.75-.138l-.28.95s-.314-.429-.166-.895l.082-.266a1.26 1.26 0 01-.474-.753l.29-.14c.056.189.157.36.302.5.142-.475.308-1.04.388-1.311-.404-.385-.27-1.177.344-1.328l-.13-.526.52-.038.022.559c.643.143.745.995.319 1.367L6.38 6.03l-.352.271-.359-1.108a1.012 1.012 0 01-.307-.017L4.964 6.53c.177.075.386.118.627.118.664 0 1.08-.388 1.204-.882l.295.132a1.422 1.422 0 01-.497.835l.07.234zm-1.104-2.21c.437 0 .44-.68-.007-.68-.45 0-.471.68.007.68z" clip-rule="evenodd" fill-rule="evenodd" fill="#fff"/></g></svg>