<?xml version="1.0" encoding="UTF-8"?>
<!-- Created with Inkscape (http://www.inkscape.org/) -->
<svg width="11.112mm" height="12.356mm" version="1.1" viewBox="0 0 11.112 12.356" xmlns="http://www.w3.org/2000/svg" xmlns:cc="http://creativecommons.org/ns#" xmlns:dc="http://purl.org/dc/elements/1.1/" xmlns:rdf="http://www.w3.org/1999/02/22-rdf-syntax-ns#">
 <defs>
  <filter id="filter0_d" x=".2334" y="0" width="196.18" height="90" style="color-interpolation-filters:sRGB" filterUnits="userSpaceOnUse">
   <feFlood flood-opacity="0" result="BackgroundImageFix"/>
   <feColorMatrix in="SourceAlpha" values="0 0 0 0 0 0 0 0 0 0 0 0 0 0 0 0 0 0 127 0"/>
   <feOffset dy="2"/>
   <feGaussianBlur stdDeviation="12.5"/>
   <feColorMatrix values="0 0 0 0 0 0 0 0 0 0 0 0 0 0 0 0 0 0 0.12 0"/>
   <feBlend in2="BackgroundImageFix" result="effect1_dropShadow"/>
   <feBlend in="SourceGraphic" in2="effect1_dropShadow" result="shape"/>
  </filter>
  <style>.cls-1{fill:#f36639;}.cls-2{fill:#fff;}</style>
 </defs>
 <metadata>
  <rdf:RDF>
   <cc:Work rdf:about="">
    <dc:format>image/svg+xml</dc:format>
    <dc:type rdf:resource="http://purl.org/dc/dcmitype/StillImage"/>
    <dc:title/>
   </cc:Work>
  </rdf:RDF>
 </metadata>
 <g transform="translate(141.43 -112.77)">
  <g transform="matrix(.26458 0 0 .26458 -90.506 129.65)" style="fill:none">
   <path d="m421.04-617.63c-0.6649-1.3298 0.3021-2.8944 1.7889-2.8944h131.67c1.894 0 3.625 1.07 4.472 2.7639l7.5 15c0.704 1.4077 0.704 3.0645 0 4.4722l-7.5 15c-0.847 1.6939-2.578 2.7639-4.472 2.7639h-131.67c-1.4868 0-2.4538-1.5646-1.7889-2.8944l7.4348-14.87c0.7038-1.4077 0.7038-3.0645 0-4.4722z" style="fill:#fff;filter:url(#filter0_d)"/>
   <g transform="matrix(1.1053 0 0 1.0921 -192.48 -63.815)" style="fill:none">
    <path d="m22.128 37.747c9.0051-1.4917 15.872-9.3158 15.872-18.744 0-10.493-8.5066-19-19-19-10.493 0-19 8.5066-19 19 0 9.428 6.8668 17.252 15.872 18.744l2.2337 4.4674c0.3685 0.737 1.4203 0.737 1.7888 0z" style="clip-rule:evenodd;fill-rule:evenodd;fill:#f36639"/>
   </g>
   <g transform="translate(-179.74 -50.576)" style="fill:#fff">
    <path d="m0.038258 11.034h6.9421l0.20144-4.6848 2.7088 0.02613 0.25973 4.6586h1.8592l0.1826-3.7389 2.7451 0.02674 0.2341 3.7122h1.3622v7.3134l-16.534-0.0385zm14.2 1.963-2.6903 0.0165-0.0448 0.9995 2.7351-0.0299zm0 3.2936v-0.8908l-2.7962-0.0304-0.0418 0.93zm-9.6752-3.2343-2.7034 0.0167-0.04704 1.0458 2.7962-0.0306zm4.7668-0.0294-2.5516 0.0157-0.04584 1.0223 2.6423-0.029zm0.14575 3.2784-0.04262-0.9578-2.7568-0.0299-0.04483 0.9965zm-4.7674 0.0146-0.04564-1.0243-2.9016-0.0315-0.04785 1.0651zm7.6015-11.432 2.4697-0.07197 0.0867 1.3745-2.6212 0.02453zm0.1644-3.3684 2.0874-0.16364 0.1542 2.4466-2.352-0.02191zm-5.1884 2.4221 2.4656-0.07177 0.07659 1.3745-2.5992 0.02413zm0.16244-3.7775 2.0874-0.16365 0.15922 2.8562-2.3614-0.02211z" style="clip-rule:evenodd;fill-rule:evenodd;fill:#fff"/>
   </g>
  </g>
 </g>
</svg>
