<svg width="41.998" height="46.7" viewBox="0 0 11.112 12.356" xmlns="http://www.w3.org/2000/svg"><defs><filter id="filter0_d" x=".233" y="0" width="196.18" height="90" filterUnits="userSpaceOnUse" color-interpolation-filters="sRGB"><feFlood flood-opacity="0" result="BackgroundImageFix"/><feColorMatrix in="SourceAlpha" values="0 0 0 0 0 0 0 0 0 0 0 0 0 0 0 0 0 0 127 0"/><feOffset dy="2"/><feGaussianBlur stdDeviation="12.5"/><feColorMatrix values="0 0 0 0 0 0 0 0 0 0 0 0 0 0 0 0 0 0 0.12 0"/><feBlend in2="BackgroundImageFix" result="effect1_dropShadow"/><feBlend in="SourceGraphic" in2="effect1_dropShadow" result="shape"/></filter><style></style></defs><g fill="none"><path d="M421.04-617.63a2 2 0 011.789-2.894h131.67a5 5 0 014.472 2.763l7.5 15a4.999 4.999 0 010 4.473l-7.5 15a5 5 0 01-4.472 2.764h-131.67a2 2 0 01-1.789-2.895l7.435-14.87a5 5 0 000-4.472z" fill="#fff" filter="url(#filter0_d)" transform="translate(50.924 16.88) scale(.26458)"/><path d="M6.469 10.903c2.633-.431 4.641-2.692 4.641-5.416 0-3.032-2.487-5.49-5.556-5.49S-.002 2.455-.002 5.487c0 2.724 2.008 4.985 4.641 5.416l.653 1.29a.294.294 0 00.524 0z" clip-rule="evenodd" fill-rule="evenodd" fill="#f36639"/><path d="M3.379 6.418h1.836l.054-1.24.716.007.069 1.233h.492l.048-.99.726.008.062.982h.36v1.935l-4.374-.01zm3.757.52l-.712.004-.012.264.724-.008zm0 .87v-.235l-.74-.008-.011.246zm-2.56-.855l-.716.004-.012.277.74-.008zm1.26-.008l-.674.004-.012.27.699-.007zm.04.868l-.012-.254-.73-.008-.011.264zm-1.262.004l-.012-.271-.768-.009-.012.282zm2.011-3.025l.654-.02.023.364-.694.007zM6.67 3.9l.552-.044.04.648-.621-.006zm-1.373.64l.652-.019.02.364-.687.007zm.043-.999l.552-.043.042.755-.624-.005z" clip-rule="evenodd" fill-rule="evenodd" fill="#fff"/></g></svg>