<svg width="42.104" height="46.76" viewBox="0 0 11.14 12.372" xmlns="http://www.w3.org/2000/svg"><defs><filter id="a" x=".233" y="0" width="196.18" height="90" filterUnits="userSpaceOnUse" color-interpolation-filters="sRGB"><feFlood flood-opacity="0" result="BackgroundImageFix"/><feColorMatrix in="SourceAlpha" values="0 0 0 0 0 0 0 0 0 0 0 0 0 0 0 0 0 0 127 0"/><feOffset dy="2"/><feGaussianBlur stdDeviation="12.5"/><feColorMatrix values="0 0 0 0 0 0 0 0 0 0 0 0 0 0 0 0 0 0 0.12 0"/><feBlend in2="BackgroundImageFix" result="effect1_dropShadow"/><feBlend in="SourceGraphic" in2="effect1_dropShadow" result="shape"/></filter></defs><g fill="none"><path d="M421.04-617.63a2 2 0 011.789-2.894h131.67a5 5 0 014.472 2.763l7.5 15a4.999 4.999 0 010 4.473l-7.5 15a5 5 0 01-4.472 2.764h-131.67a2 2 0 01-1.789-2.895l7.435-14.87a5 5 0 000-4.472z" fill="#fff" filter="url(#a)" transform="translate(50.874 17.3) scale(.26458)"/><path d="M5.573 12.107a.53.53 0 01-.474-.293l-.53-1.059a5.292 5.292 0 112.012 0l-.53 1.059a.53.53 0 01-.478.293z" fill="#f36639"/><path d="M5.573.527a5.027 5.027 0 01.828 9.988l-.593 1.18a.265.265 0 01-.47 0l-.594-1.18A5.027 5.027 0 015.573.527m0-.53A5.556 5.556 0 004.39 10.987l.474.947a.794.794 0 001.418 0l.473-.947A5.556 5.556 0 005.573-.002z" fill="#fff"/><g fill="#fff"><path d="M3.395 6.476H5.23l.054-1.24.716.007.07 1.233h.491l.048-.99.727.008.062.982h.36v1.935l-4.375-.01zm3.757.52L6.44 7l-.012.264.724-.008zm0 .87v-.235l-.74-.008-.011.246zm-2.56-.855l-.715.005-.013.276.74-.008zm1.261-.008l-.675.004-.012.27.699-.007zm.039.868l-.012-.254-.73-.008-.01.264zm-1.262.004l-.012-.271-.768-.009-.012.282zM6.641 4.85l.654-.02.023.365-.694.006zm.044-.891l.552-.044.041.648-.622-.006zm-1.373.64l.653-.018.02.363-.688.007zm.043-.999l.552-.043.043.755-.625-.005z" clip-rule="evenodd" fill-rule="evenodd"/></g></g></svg>