<svg width="42.104" height="46.76" viewBox="0 0 11.14 12.372" xmlns="http://www.w3.org/2000/svg"><defs><filter id="a" x=".233" y="0" width="196.18" height="90" filterUnits="userSpaceOnUse" color-interpolation-filters="sRGB"><feFlood flood-opacity="0" result="BackgroundImageFix"/><feColorMatrix in="SourceAlpha" values="0 0 0 0 0 0 0 0 0 0 0 0 0 0 0 0 0 0 127 0"/><feOffset dy="2"/><feGaussianBlur stdDeviation="12.5"/><feColorMatrix values="0 0 0 0 0 0 0 0 0 0 0 0 0 0 0 0 0 0 0.12 0"/><feBlend in2="BackgroundImageFix" result="effect1_dropShadow"/><feBlend in="SourceGraphic" in2="effect1_dropShadow" result="shape"/></filter></defs><g fill="none"><path d="M421.04-617.63a2 2 0 011.789-2.894h131.67a5 5 0 014.472 2.763l7.5 15a4.999 4.999 0 010 4.473l-7.5 15a5 5 0 01-4.472 2.764h-131.67a2 2 0 01-1.789-2.895l7.435-14.87a5 5 0 000-4.472z" fill="#fff" filter="url(#a)" transform="translate(51.484 17.4) scale(.26458)"/><path d="M5.574 12.114a.53.53 0 01-.474-.294l-.529-1.058a5.292 5.292 0 112.011 0l-.529 1.058a.53.53 0 01-.479.294z" fill="#f36639"/><path d="M5.574.533a5.027 5.027 0 01.828 9.988L5.81 11.7a.265.265 0 01-.471 0l-.593-1.18A5.027 5.027 0 015.574.533m0-.53a5.556 5.556 0 00-1.183 10.989l.474.947a.794.794 0 001.418 0l.474-.947A5.556 5.556 0 005.574.004z" fill="#fff"/><g fill="#fff"><path d="M6.97 8.104l-2.822.002s-.214-.176-.062-.49c.133-.275.854-2.132.854-2.132l-.022-.87H4.77l-.077-.727 1.82-.014-.097.734h-.16l-.039.89s.736 1.873.864 2.14c.127.261-.112.467-.112.467zM5.716 5.526l.034-.917-.476.003.006.918-.81 2.086.056.1h1.729l.077-.11z" clip-rule="evenodd" fill-rule="evenodd"/></g></g></svg>