<svg width="41.998" height="46.7" viewBox="0 0 11.112 12.356" xmlns="http://www.w3.org/2000/svg"><defs><filter id="filter0_d" x=".233" y="0" width="196.18" height="90" filterUnits="userSpaceOnUse" color-interpolation-filters="sRGB"><feFlood flood-opacity="0" result="BackgroundImageFix"/><feColorMatrix in="SourceAlpha" values="0 0 0 0 0 0 0 0 0 0 0 0 0 0 0 0 0 0 127 0"/><feOffset dy="2"/><feGaussianBlur stdDeviation="12.5"/><feColorMatrix values="0 0 0 0 0 0 0 0 0 0 0 0 0 0 0 0 0 0 0.12 0"/><feBlend in2="BackgroundImageFix" result="effect1_dropShadow"/><feBlend in="SourceGraphic" in2="effect1_dropShadow" result="shape"/></filter><style></style></defs><g fill="none"><path d="M421.04-617.63a2 2 0 011.789-2.894h131.67a5 5 0 014.472 2.763l7.5 15a4.999 4.999 0 010 4.473l-7.5 15a5 5 0 01-4.472 2.764h-131.67a2 2 0 01-1.789-2.895l7.435-14.87a5 5 0 000-4.472z" fill="#fff" filter="url(#filter0_d)" transform="translate(50.924 16.88) scale(.26458)"/><path d="M6.469 10.903c2.633-.431 4.641-2.692 4.641-5.416 0-3.032-2.487-5.49-5.556-5.49S-.002 2.455-.002 5.487c0 2.724 2.008 4.985 4.641 5.416l.653 1.29a.294.294 0 00.524 0z" clip-rule="evenodd" fill-rule="evenodd" fill="#f36639"/><path d="M6.95 8.088l-2.822.003s-.214-.176-.063-.49c.133-.275.855-2.133.855-2.133l-.022-.87-.148.001-.077-.728 1.82-.013-.097.733-.16.001-.039.89s.736 1.872.864 2.139c.126.262-.112.467-.112.467zM5.696 5.51l.034-.916-.476.003.006.917-.81 2.087.056.099h1.728l.077-.109z" clip-rule="evenodd" fill-rule="evenodd" fill="#fff"/></g></svg>