<?xml version="1.0" encoding="utf-8"?><svg xmlns="http://www.w3.org/2000/svg" xmlns:xlink="http://www.w3.org/1999/xlink" style="display:none"><symbol viewBox="0 0 89 60" id="20procent" xmlns="http://www.w3.org/2000/svg"><path d="M31.882 46.461c-3.444.323-6.888.668-10.332.926-1.906.15-3.834.344-5.718.15-3.249-.344-4.527-2.432-3.639-5.575.845-2.95 2.513-5.468 4.31-7.9 3.596-4.887 7.993-9.042 12.195-13.39 3.076-3.187 5.978-6.502 8.88-9.839.65-.732 1.062-1.722 1.408-2.648.759-2.023.152-3.4-1.819-4.305-2.23-1.012-4.57-1.012-6.91-.538-4.83.969-8.793 3.25-10.981 7.857-1.17 2.476-1.278 5.06 0 7.578.498.969.346 1.744-.39 2.153-.715.387-1.581.107-2.08-.797-1.71-3.121-1.667-6.35-.367-9.558 1.58-3.918 4.505-6.609 8.274-8.417 3.573-1.7 7.32-2.39 11.263-1.615 1.018.194 2.014.581 2.924 1.077 2.816 1.463 3.855 4.197 2.88 7.19-.78 2.41-2.187 4.477-3.877 6.286-4.007 4.262-8.144 8.439-12.194 12.658-3.422 3.552-6.736 7.19-9.206 11.496-.671 1.162-1.17 2.454-1.602 3.745-.369 1.12-.044 1.637 1.126 1.68 1.798.064 3.595.021 5.393-.151 4.354-.452 8.686-.926 13.061-.56.368.022.715.043 1.083.13.758.172 1.235.602 1.192 1.42-.044.818-.585 1.249-1.343 1.27-1.148.065-2.296.022-3.466.022-.065-.108-.065-.237-.065-.345zM38.597 37.592c.368-4.413 1.516-8.546 3.12-12.572.844-2.131 1.819-4.22 2.685-6.35.195-.474.26-1.034.238-1.55-.195-6.287 5.61-10.743 9.964-11.367 3.314-.474 6.455 1.313 7.992 4.499 1.56 3.25 1.668 6.695.932 10.096-1.95 8.999-6.065 16.835-13.213 22.884-1.234 1.033-2.772 1.852-4.31 2.39-2.773.947-5.264-.28-6.26-3.036-.585-1.593-.78-3.315-1.148-4.994zm10.765-25.618c.108.065.195.108.303.172 0 .69.195 1.464-.043 2.045-.715 1.766-1.603 3.445-2.383 5.167-2.165 4.844-4.418 9.666-5.241 14.962-.347 2.282-.542 4.564.195 6.802.585 1.787 1.668 2.368 3.4 1.658 1.105-.452 2.231-1.098 3.12-1.873C55.47 34.944 59.39 27.41 60.906 18.605c.412-2.412.238-4.866-.888-7.148-1.148-2.324-3.27-3.38-5.697-2.734-2.014.517-3.617 1.701-4.96 3.251zM88.134 17.464c-.39.56-.65 1.076-1.04 1.442C77.11 28.787 67.947 39.4 59.066 50.25c-2.187 2.67-4.202 5.468-6.303 8.224-.498.667-1.018 1.27-1.97.925-.932-.322-1.192-1.377-.52-2.325 1.494-2.066 3.053-4.09 4.613-6.113 7.776-10.054 16.332-19.418 24.909-28.783 1.711-1.873 3.574-3.66 5.458-5.381.412-.388 1.235-.517 1.841-.474.347.043.629.667 1.04 1.14z"/><path d="M14.511 32.275c-.043.926-.693 1.227-1.538 1.464-2.945.797-5.891 1.614-8.859 2.433-.411.107-.801.323-1.213.452-.8.258-1.537.193-1.927-.668-.368-.84 0-1.528.78-1.873 1.147-.516 2.317-1.011 3.53-1.356a159.243 159.243 0 017.018-1.765c1.321-.28 2.166.28 2.21 1.313zM74.618 13.804c.26-.861.736-1.42 1.646-1.313.931.107 1.538.71 1.754 1.55.152.56.152 1.248-.022 1.787-.541 1.614-1.559 2.906-3.119 3.702-1.56.797-2.989.108-3.4-1.571-.52-2.196.996-4.241 3.14-4.155zM69.484 51.52c.109-1.571.824-2.992 2.145-4.068.671-.538 1.386-.538 2.058.021.173.13.303.302.498.41 1.69.99 2.036 2.303.801 3.831-.628.797-1.451 1.529-2.34 1.98-1.645.862-3.162-.215-3.162-2.174z"/></symbol><symbol viewBox="0 0 66 66" id="4-7" xmlns="http://www.w3.org/2000/svg"><path d="M10.92 57.116c-.121 0-.219-.024-.34-.049a1.344 1.344 0 01-.97-1.617l9.8-37.358a1.352 1.352 0 011.626-.966c.728.193 1.14.918.97 1.618L12.23 56.102a1.34 1.34 0 01-1.31 1.014z"/><path d="M11.55 35.455c-3.226 0-6.161-.604-8.199-1.835C1.047 32.218.586 30.432.61 29.176c.073-4.37 5.167-15.068 10.383-25.67l.68-1.352a1.332 1.332 0 011.794-.603 1.32 1.32 0 01.607 1.787l-.68 1.352C9.878 11.814 3.352 25.095 3.279 29.225c0 .313-.024 1.231 1.456 2.125 3.518 2.149 12.154 2.028 18.413-1.329a1.376 1.376 0 011.82.532c.339.652.096 1.449-.534 1.81-3.81 2.03-8.588 3.092-12.882 3.092zM19.531 64.843c-.194 0-.388-.048-.582-.145a1.32 1.32 0 01-.607-1.787l4.27-8.645a1.332 1.332 0 011.795-.603 1.32 1.32 0 01.607 1.787l-4.27 8.644a1.358 1.358 0 01-1.213.75zM34.67 56.754c-.194 0-.388-.049-.558-.121-.679-.314-.97-1.11-.654-1.763 6.089-13.16 13.827-23.713 20.038-32.19 6.113-8.33 10.94-14.899 8.466-17.072-1.553-1.329-4.39-1.087-10.65-.556-3.444.29-7.738.652-13.367.894-.752.024-1.358-.532-1.382-1.28a1.327 1.327 0 011.285-1.377c5.58-.241 9.825-.603 13.246-.893 7.035-.604 10.237-.87 12.639 1.207 2.79 2.415 1.383 6.037.097 8.549-1.65 3.236-4.536 7.148-8.151 12.098-6.138 8.38-13.804 18.787-19.771 31.73-.267.484-.752.774-1.238.774z"/><path d="M41.196 32.243c-.63 0-1.189-.459-1.31-1.087a1.307 1.307 0 011.067-1.545l22.295-4.154A1.312 1.312 0 0164.8 26.52a1.307 1.307 0 01-1.067 1.545L41.439 32.22c-.073.024-.17.024-.243.024z"/></symbol><symbol viewBox="0 0 132 191" id="7" xmlns="http://www.w3.org/2000/svg"><path d="M27.112 191h42.996L132 33.658V0H0v68.41h19.992V39.95h86.265L27.112 191z"/></symbol><symbol viewBox="0 0 13 10" id="arrow-down" xmlns="http://www.w3.org/2000/svg"><path d="M1.51 1.511l5.267 6.046 5.269-6.046" stroke-width="2"/></symbol><symbol viewBox="0 0 13 18" id="arrow-white" xmlns="http://www.w3.org/2000/svg"><path d="M11.313 16.244L3 9l8.313-7.244" stroke-width="3"/></symbol><symbol viewBox="0 0 10 11" id="bublik-blue" xmlns="http://www.w3.org/2000/svg"><circle cx="5" cy="5.596" r="3.5" stroke-width="3"/></symbol><symbol viewBox="0 0 10 10" id="bublik-pink" xmlns="http://www.w3.org/2000/svg"><circle cx="5" cy="5" r="3.5" stroke-width="3"/></symbol><symbol viewBox="0 0 10 10" id="bublik-purple" xmlns="http://www.w3.org/2000/svg"><circle cx="5" cy="5" r="3.5" stroke-width="3"/></symbol><symbol viewBox="0 0 18 18" id="close" xmlns="http://www.w3.org/2000/svg"><path d="M16.556 1L1 16.556M16.556 16.556L1 1" stroke-width="2"/></symbol><symbol viewBox="0 0 50 28" id="connector" xmlns="http://www.w3.org/2000/svg"><path d="M16.72 5.97C12.866 1.442.02.207.02.207L13.014.132 12.866 0l11.726.067L36.32 0l-.147.132 12.992.074S36.32 1.44 32.466 5.97c-4.41 5.183-4.41 10.463 0 15.647 3.853 4.53 16.698 5.764 16.698 5.764l-12.992.074.147.132-11.727-.066-11.726.066.148-.132L.02 27.382s12.845-1.235 16.699-5.764c4.41-5.184 4.41-10.464 0-15.647z"/></symbol><symbol viewBox="0 0 8 8" id="error" xmlns="http://www.w3.org/2000/svg"><path d="M2.293 3.707L0 6l1.414 1.414 2.293-2.292L6 7.415 7.414 6 5.121 3.707l2.294-2.293L6 0 3.707 2.293 1.414 0 0 1.414l2.293 2.293z"/></symbol><symbol viewBox="0 0 21 22" id="instagram" xmlns="http://www.w3.org/2000/svg"><path d="M10.5 5.61c.938 0 1.828.28 2.672.75a4.972 4.972 0 011.969 1.968c.468.844.75 1.735.75 2.672 0 .984-.282 1.875-.75 2.719a4.972 4.972 0 01-1.97 1.969 5.422 5.422 0 01-2.671.703 5.467 5.467 0 01-2.719-.703 4.972 4.972 0 01-1.968-1.97A5.467 5.467 0 015.109 11c0-.938.235-1.828.704-2.672A4.972 4.972 0 017.78 6.36c.844-.468 1.735-.75 2.719-.75zm0 8.906a3.4 3.4 0 002.484-1.032A3.432 3.432 0 0014.016 11c0-.938-.375-1.781-1.032-2.484-.703-.657-1.546-1.032-2.484-1.032-.984 0-1.828.375-2.484 1.032A3.4 3.4 0 006.984 11c0 .984.329 1.828 1.032 2.484.656.704 1.5 1.032 2.484 1.032zm6.89-9.141c0-.328-.14-.61-.374-.89-.282-.235-.563-.376-.891-.376a1.2 1.2 0 00-.89.375 1.171 1.171 0 00-.376.891c0 .375.094.656.375.89.235.282.516.376.891.376.328 0 .61-.094.844-.375a1.45 1.45 0 00.422-.891zm3.563 1.266c0 .89.047 2.343.047 4.359 0 2.063-.047 3.516-.094 4.406-.047.89-.187 1.64-.375 2.297-.281.797-.75 1.5-1.312 2.063-.563.562-1.266.984-2.016 1.265-.656.235-1.453.375-2.344.422-.89.047-2.343.047-4.359.047-2.063 0-3.516 0-4.406-.047-.89-.047-1.64-.187-2.297-.469a4.837 4.837 0 01-2.063-1.218C1.172 19.203.75 18.5.47 17.703c-.235-.656-.375-1.406-.422-2.297C0 14.516 0 13.062 0 11c0-2.016 0-3.469.047-4.36.047-.89.187-1.687.422-2.343.281-.75.703-1.453 1.265-2.016A5.553 5.553 0 013.797.97 10.213 10.213 0 016.094.594C6.984.547 8.437.5 10.5.5c2.016 0 3.469.047 4.36.094.89.047 1.687.187 2.343.375A5.77 5.77 0 0119.22 2.28a5.77 5.77 0 011.312 2.016c.188.656.328 1.453.422 2.344zm-2.25 10.546c.188-.515.281-1.359.375-2.53 0-.657.047-1.641.047-2.907v-1.5c0-1.266-.047-2.25-.047-2.906-.094-1.172-.187-2.016-.375-2.532a3.554 3.554 0 00-2.015-2.015c-.516-.188-1.36-.281-2.532-.375-.703 0-1.687-.047-2.906-.047h-1.5c-1.266 0-2.25.047-2.906.047-1.172.094-2.016.187-2.532.375-.984.375-1.64 1.078-2.015 2.015-.188.516-.328 1.36-.375 2.532-.047.703-.047 1.687-.047 2.906v1.5c0 1.266 0 2.25.047 2.906.047 1.172.187 2.016.375 2.531.375.985 1.078 1.641 2.015 2.016.516.188 1.36.328 2.532.375.656.047 1.64.047 2.906.047h1.5c1.266 0 2.25 0 2.906-.047 1.172-.047 2.016-.187 2.531-.375a3.554 3.554 0 002.016-2.015z"/></symbol><symbol viewBox="0 0 38 43" id="location" xmlns="http://www.w3.org/2000/svg"><path fill-rule="evenodd" clip-rule="evenodd" d="M32.532 30.998a18.388 18.388 0 004.92-12.545C37.452 8.262 29.191 0 19 0 8.808 0 .547 8.262.547 18.453c0 4.844 1.867 9.253 4.92 12.545 2.863 3.086 10.626 9.63 12.9 11.53a.983.983 0 001.266 0c2.273-1.9 10.036-8.444 12.899-11.53zM19 23.066a4.613 4.613 0 100-9.227 4.613 4.613 0 000 9.227z"/></symbol><symbol viewBox="0 0 16 19" id="location-header" xmlns="http://www.w3.org/2000/svg"><path fill-rule="evenodd" clip-rule="evenodd" d="M13.867 13.439a8 8 0 10-11.733 0c1.117 1.205 3.959 3.627 5.232 4.697.368.31.9.31 1.268 0 1.273-1.07 4.115-3.492 5.233-4.697zM8 10a2 2 0 100-4 2 2 0 000 4z"/></symbol><symbol viewBox="0 0 9 6" id="metro" xmlns="http://www.w3.org/2000/svg"><path d="M0 5.97v-.804h.6L2.716 0l1.788 3.015L6.263 0l2.098 5.166H9v.805H5.814v-.805h.479l-.48-1.28L4.506 6 3.156 3.887l-.459 1.28h.48v.804H0z"/></symbol><symbol viewBox="0 0 11 11" id="ok" xmlns="http://www.w3.org/2000/svg"><path d="M10.867.956L8.629.133 6.126 5.76 4.78 9.078h-.062L3.435 5.76 2.308 3.09l-2.175.953 3.192 6.824h2.879L10.867.956z"/></symbol><symbol viewBox="0 0 6 7" id="parking" xmlns="http://www.w3.org/2000/svg"><path d="M1.683 7V4.473h1.97C5.093 4.473 6 3.56 6 2.236 6 .913 5.092 0 3.653 0H0v7h1.683zm0-5.676h1.77c.499 0 .809.24.809.692v.441c0 .451-.31.692-.808.692H1.683V1.324z"/></symbol><symbol viewBox="0 0 28 27" id="quotation" xmlns="http://www.w3.org/2000/svg"><path d="M25.514 27l2.04-2.52-5.7-10.8 5.7-10.8-2.04-2.52-11.76 11.34v3.96L25.514 27zm-13.56 0l2.04-2.52-5.7-10.8 5.7-10.8-2.04-2.52L.194 11.7v3.96L11.954 27z"/></symbol><symbol viewBox="0 0 12 11" id="star" xmlns="http://www.w3.org/2000/svg"><path d="M11.984 4.171a.318.318 0 00-.092-.137.335.335 0 00-.15-.075l-3.584-.775L6.285.145a.355.355 0 00-.57 0L3.843 3.184l-3.583.775a.335.335 0 00-.15.075.307.307 0 00-.025.446l2.424 2.653-.341 3.518a.308.308 0 00.028.161c.023.05.06.094.107.127a.338.338 0 00.326.034L6 9.575l3.372 1.399a.343.343 0 00.326-.035.321.321 0 00.107-.126.308.308 0 00.028-.161l-.341-3.518 2.425-2.654a.313.313 0 00.067-.309z"/></symbol><symbol viewBox="0 0 12 11" id="star-null" xmlns="http://www.w3.org/2000/svg"><path d="M11.984 4.171a.318.318 0 00-.092-.137.335.335 0 00-.15-.075l-3.584-.775L6.285.145a.355.355 0 00-.57 0L3.843 3.184l-3.583.775a.335.335 0 00-.15.075.307.307 0 00-.025.446l2.424 2.653-.341 3.518a.308.308 0 00.028.161c.023.05.06.094.107.127a.338.338 0 00.326.034L6 9.575l3.372 1.399a.343.343 0 00.326-.035.321.321 0 00.107-.126.308.308 0 00.028-.161l-.341-3.518 2.425-2.654a.313.313 0 00.067-.309z"/></symbol><symbol viewBox="0 0 33 31" id="stroke-blue-bottom" xmlns="http://www.w3.org/2000/svg"><path d="M32.357.566c.236-.359-.3-.715-.537-.357-4.077 5.022-6.17 15.227-23.397 22.46-13.402 5.525-6.826 8.22-3.919 7.318C26.814 23.425 30.738 4 32.357.566z"/></symbol><symbol viewBox="0 0 99 58" id="stroke-blue-top-big" xmlns="http://www.w3.org/2000/svg"><path d="M86.24 3.81c26-1.452 1.532-3.055-.347-3.04C66.57.804 38.2 5.49 16.5 29.665c-36.582 40.674-2.14 29.75 10.548 8.518C39.736 16.952 60.238 5.261 86.24 3.81z"/></symbol><symbol viewBox="0 0 44 42" id="stroke-blue-top-right" xmlns="http://www.w3.org/2000/svg"><path d="M2.7 41.089C7.192 30.587 16.93 13.354 34.278 7.008c25.662-9.389-7.813-8.475-19.886 4.319-7.054 7.475-11.48 19.8-13.51 29.302-.25 1.169 1.35 1.558 1.82.46z"/></symbol><symbol viewBox="0 0 63 72" id="stroke-blue-top-small" xmlns="http://www.w3.org/2000/svg"><path d="M54.69 18.51c16.597-2.258.826-2.036-.378-1.93-12.388 1.008-30.338 5.462-43.018 22.071-21.379 27.949.147 19.185 7.198 4.923 7.051-14.261 19.6-22.804 36.197-25.063z"/></symbol><symbol viewBox="0 0 32 49" id="stroke-pink" xmlns="http://www.w3.org/2000/svg"><path d="M.831 47.5C2.331 33.024 7.062 9.87 25.08 1.34 28.453-.2 31.61-.216 31.553 3.875c-.007 7.103-7.773 6.62-14.097 13.122-9.469 9.678-13.244 21.858-15.25 30.682-.07.93-1.445.75-1.375-.18z"/></symbol><symbol viewBox="0 0 79 82" id="stroke-purple-bottom" xmlns="http://www.w3.org/2000/svg"><path d="M73.857 11.151c8.124-24.742 3.347-.691 2.847 1.12-5.028 18.657-16.888 44.851-45.851 59.566C-17.897 96.66 1.56 66.213 25.35 59.444c23.79-6.768 40.383-23.551 48.507-48.293z"/></symbol><symbol viewBox="0 0 54 61" id="stroke-purple-small" xmlns="http://www.w3.org/2000/svg"><path d="M1.396 43.45c11.305-1.623 30.47-6.576 41.085-21.692 15.703-22.363 6.167 9.737-9.313 18.093-9.045 4.882-22.096 5.971-31.799 5.476-1.193-.061-1.156-1.707.027-1.877z"/></symbol><symbol viewBox="0 0 51 33" id="stroke-yellow" xmlns="http://www.w3.org/2000/svg"><path d="M.993 30.207C12.3 28.585 31.463 23.631 42.08 8.515c15.702-22.363 6.167 9.738-9.313 18.093C23.72 31.49 10.67 32.58.966 32.084c-1.192-.06-1.155-1.707.027-1.877z"/></symbol><symbol viewBox="0 0 13 13" id="time" xmlns="http://www.w3.org/2000/svg"><path d="M0 6.981h6.981V0A6.5 6.5 0 110 6.981z"/><path d="M.155 4.981A6.51 6.51 0 014.981.155v4.826H.155z"/></symbol><symbol viewBox="0 0 24 15" id="vk" xmlns="http://www.w3.org/2000/svg"><path d="M23.418 1.82c-.086.43-.43 1.16-1.031 2.149-.43.73-.946 1.547-1.547 2.492-.516.773-.817 1.16-.817 1.16-.171.258-.257.473-.257.602 0 .172.086.343.257.515l.387.43c2.063 2.148 3.223 3.61 3.48 4.383.087.344.044.644-.128.816-.172.172-.387.258-.73.258h-2.536c-.344 0-.601-.086-.86-.3-.171-.087-.515-.387-.945-.903-.43-.516-.816-.945-1.16-1.29-1.16-1.073-2.02-1.632-2.535-1.632-.258 0-.43.043-.516.129-.085.086-.128.3-.128.559-.043.214-.043.644-.043 1.332v1.117c0 .343-.086.601-.258.73-.258.172-.774.258-1.547.258-1.375 0-2.707-.387-4.082-1.203-1.375-.774-2.578-1.934-3.61-3.438a21.722 21.722 0 01-2.449-3.996c-.515-1.031-.945-1.976-1.246-2.879-.215-.687-.3-1.203-.3-1.504 0-.472.257-.73.859-.73H4.21c.3 0 .516.086.687.215.172.172.301.43.43.773.387 1.16.86 2.278 1.461 3.352.516 1.031 1.031 1.848 1.547 2.45.516.644.902.944 1.203.944.172 0 .258-.043.344-.171.086-.13.129-.387.129-.774V3.926c-.043-.43-.13-.86-.301-1.203-.086-.172-.258-.387-.43-.645-.215-.258-.3-.43-.3-.601 0-.172.042-.301.171-.43.13-.086.301-.172.473-.172h3.996c.258 0 .43.086.516.215.086.172.172.387.172.73v4.985c0 .258.043.472.129.558.085.13.171.172.3.172.13 0 .301-.043.473-.129.172-.086.387-.3.687-.644a17.796 17.796 0 001.633-2.235c.344-.601.73-1.289 1.075-2.062l.43-.86c.171-.472.558-.73 1.073-.73h2.535c.688 0 .946.344.774.945z"/></symbol></svg>