<?xml version="1.0" encoding="utf-8"?><svg xmlns="http://www.w3.org/2000/svg" xmlns:xlink="http://www.w3.org/1999/xlink"><symbol fill="none" viewBox="0 0 125 125" id="icon_01" xmlns="http://www.w3.org/2000/svg"><path fill="#fff" d="M0 0h125v125H0z"/><circle cx="54" cy="68" r="42" fill="#DAF4FA"/><rect x="31" y="18" width="38" height="69" rx="2" fill="#6C8FEB"/><path fill="#E7D8E5" d="M31 21h38v59H31z"/><path d="M39.467 51.636L31 60v20h38V52.5l-7.438-8.264a2 2 0 00-3.037.074L49 56l-7.03-4.613a2 2 0 00-2.503.25z" fill="#fff"/><circle cx="43" cy="34" r="5" fill="#fff"/><circle cx="106" cy="46" r="3.5" stroke="#FEBE41" stroke-width="3"/><circle cx="110" cy="63" r="3" fill="#E7D8E5"/><g clip-path="url(#aclip0)"><path d="M79.256 90.15c.446-.376 1.041.227.67.68-3.793 4.68-10.485 10.642-20.598 11.17-17.028.906-3.049-4.453 0-4.226 2.38.075 12.79-1.736 19.928-7.623z" fill="#fff"/></g><defs><clipPath id="aclip0"><path fill="#fff" d="M51 90h29v12H51z"/></clipPath></defs></symbol><symbol fill="none" viewBox="0 0 125 125" id="icon_02" xmlns="http://www.w3.org/2000/svg"><path fill="#fff" d="M0 0h125v125H0z"/><path d="M66.293 110c23.365 0 42.305-18.966 42.305-42.362s-18.94-42.362-42.305-42.362c-23.364 0-42.304 18.966-42.304 42.362S42.929 110 66.293 110z" fill="#FEE9E8"/><path d="M57.964 64.83V50.132c10.061-.413 15.174-3.056 15.174-10.157v-1.322c0-4.872-3.134-7.514-7.752-7.514-4.948 0-8.329 3.468-9.483 8.175l-11.71-4.872C46.337 26.68 52.769 19 65.799 19c13.441 0 22.348 8.093 22.348 19.819 0 10.734-7.752 17.671-16.74 19.075v6.936H57.963zm-1.649 16.185v-2.312c0-4.129 2.474-7.267 8.494-7.267s8.494 3.138 8.494 7.267v2.312c0 4.13-2.474 7.267-8.494 7.267s-8.494-3.138-8.494-7.267z" fill="#FEBE41"/><path d="M76.107 26.762c4.04 1.487 5.855 5.946 5.937 9.91 0 .908 2.31 1.32 2.31.165-.083-4.625-2.64-9.58-7.258-11.23-1.154-.414-2.391.66-.99 1.155zM100.104 62.683c1.072 7.763 1.567 20.48-6.762 27.25-1.567 1.24-3.216 1.652-3.71-.495-.908-3.716 3.215-4.459 5.69-8.67 3.71-6.276 4.123-13.13 4.04-18.002-.082-.495.66-.578.742-.083z" fill="#fff"/><path d="M26.53 25.524a5.02 5.02 0 01-5.015 5.023 5.02 5.02 0 01-5.015-5.023 5.02 5.02 0 015.015-5.024 5.02 5.02 0 015.014 5.024z" stroke="#DAF4FA" stroke-width="3"/><path d="M107.114 110a2.888 2.888 0 002.886-2.89 2.888 2.888 0 00-2.886-2.89 2.889 2.889 0 00-2.887 2.89 2.889 2.889 0 002.887 2.89z" fill="#6C8FEB"/></symbol><symbol fill="none" viewBox="0 0 125 125" id="icon_03" xmlns="http://www.w3.org/2000/svg"><path fill="#fff" d="M0 0h125v125H0z"/><g clip-path="url(#cclip0)"><path d="M28.014 88.166l-5.936 18.37a1.91 1.91 0 002.67 2.315l18.106-8.737c1.261-.598 1.484-2.39.371-3.286l-12.169-9.633c-1.113-.82-2.671-.298-3.042.971z" fill="#6C8FEB"/><path d="M60.292 105.117c22.252 0 40.291-17.15 40.291-38.307 0-21.157-18.039-38.307-40.291-38.307C38.039 28.503 20 45.653 20 66.81c0 21.156 18.04 38.307 40.292 38.307z" fill="#E7D8E5"/><path d="M44.635 74.8h31.832s10.24 0 11.724-8.96c0 0 2.746-16.802-16.176-15.085 0 0-3.932-11.649-16.843-8.96C42.26 44.483 43.448 55.46 43.448 55.46s-9.72.149-11.205 8.064C30.76 71.44 39.59 74.8 44.635 74.8z" fill="#fff"/><path d="M60.143 68.08h13.653c2.004 0 7.717 0 9.053-3.734 1.187-3.286-3.19-5.003-2.968-3.585.445 2.838-.223 3.883-2.894 4.63-4.6 1.419-12.614 2.166-16.844 2.688zM103.997 38.285A2.01 2.01 0 00106 36.269a2.01 2.01 0 00-2.003-2.017 2.01 2.01 0 00-2.004 2.017 2.01 2.01 0 002.004 2.016z" fill="#6C8FEB"/><path d="M97.022 27.681c1.926 0 3.487-1.571 3.487-3.51 0-1.938-1.561-3.509-3.487-3.509-1.926 0-3.488 1.571-3.488 3.51 0 1.938 1.562 3.51 3.488 3.51z" fill="#DAF4FA"/><path d="M86.766 17.675c0 2.315-1.863 4.175-4.14 4.175-2.277 0-4.14-1.86-4.14-4.175 0-2.315 1.863-4.175 4.14-4.175 2.277 0 4.14 1.86 4.14 4.175z" stroke="#E7D8E5" stroke-width="3"/><path d="M83.962 87.494c.148-.15-.074-.373-.222-.224-2.45 2.016-4.453 6.72-13.431 8.513-6.975 1.344-4.081 3.285-2.597 3.136 11.353-.97 15.137-9.931 16.25-11.425z" fill="#fff"/></g><defs><clipPath id="cclip0"><path fill="#fff" d="M20 12h86v97H20z"/></clipPath></defs></symbol><symbol fill="none" viewBox="0 0 125 125" id="icon_04" xmlns="http://www.w3.org/2000/svg"><path fill="#fff" d="M0 0h125v125H0z"/><circle cx="22" cy="19" r="5.5" stroke="#FEE9E8" stroke-width="3"/><circle cx="6.5" cy="39.5" r="3.5" fill="#6C8FEB"/><circle cx="62" cy="68" r="42" fill="#E7D8E5"/><path fill-rule="evenodd" clip-rule="evenodd" d="M62 110c23.196 0 42-18.804 42-42a41.803 41.803 0 00-7.263-23.615A42.062 42.062 0 0086 43c-23.196 0-42 18.804-42 42 0 8.756 2.68 16.886 7.263 23.615A42.048 42.048 0 0062 110z" fill="#FEE9E8"/><path d="M82.904 64.905a20.83 20.83 0 01-5.574 14.213c-3.281 3.537-12.243 11.082-14.7 13.136a.975.975 0 01-1.261 0c-2.458-2.054-11.42-9.599-14.7-13.136a20.831 20.831 0 01-5.575-14.213C41.094 53.36 50.454 44 61.999 44c11.546 0 20.905 9.36 20.905 20.905z" fill="#fff"/><path d="M54 67.947v-1.475h1.066L58.83 57l3.179 5.527L65.134 57l3.73 9.472H70v1.475h-5.665v-1.475h.853l-.853-2.346L62.01 68l-2.398-3.874-.816 2.346h.852v1.475H54z" fill="#6C8FEB"/></symbol><symbol fill="none" viewBox="0 0 125 125" id="icon_05" xmlns="http://www.w3.org/2000/svg"><path fill="#fff" d="M0 0h125v125H0z"/><circle cx="61" cy="68" r="42" fill="#FEE9E8"/><path fill-rule="evenodd" clip-rule="evenodd" d="M30.427 96.799C54.861 94.564 74 74.017 74 49a47.79 47.79 0 00-5.5-22.331A42.247 42.247 0 0061 26c-23.196 0-42 18.804-42 42 0 11.146 4.342 21.279 11.427 28.798z" fill="#FFD76F"/><circle cx="111" cy="34" r="4.5" stroke="#FFD76E" stroke-width="3"/><circle cx="117.5" cy="51.5" r="3.5" fill="#6C8FEB"/><circle cx="61" cy="68" r="20" fill="#fff"/><path fill-rule="evenodd" clip-rule="evenodd" d="M61 52a1.5 1.5 0 011.5 1.5v16H51a1.5 1.5 0 010-3h8.5v-13A1.5 1.5 0 0161 52z" fill="#6C8FEB"/></symbol><symbol fill="none" viewBox="0 0 125 125" id="icon_06" xmlns="http://www.w3.org/2000/svg"><path fill="#fff" d="M0 0h125v125H0z"/><circle cx="63" cy="68" r="42" fill="#DAF4FA"/><path fill-rule="evenodd" clip-rule="evenodd" d="M24.098 83.864C32.547 70.146 47.704 61 64.998 61c15.618 0 29.493 7.459 38.259 19.009C98.091 97.354 82.022 110 62.999 110c-17.583 0-32.643-10.805-38.901-26.137z" fill="#E6CED7"/><circle cx="40" cy="13" r="4.5" stroke="#E6CED7" stroke-width="3"/><circle cx="59.5" cy="8.5" r="3.5" fill="#F8B93E"/><circle cx="63" cy="68" r="25" fill="#fff"/><path d="M49.876 76.31l8.333-1.401a1 1 0 011.12 1.285l-.853 2.717a12.11 12.11 0 008.941-.229c5.441-2.32 8.228-8.144 6.806-13.605l3.303-.827c1.829 7.025-1.75 14.511-8.749 17.497-6.329 2.7-13.497.885-17.766-3.999-.433-.496-.765-.88-1.135-1.437zM76.124 59.69l-8.332 1.401a1 1 0 01-1.12-1.285l.852-2.717a12.11 12.11 0 00-8.941.229c-5.441 2.32-8.228 8.144-6.806 13.605l-3.303.827c-1.829-7.025 1.75-14.511 8.749-17.497 6.329-2.7 13.497-.885 17.766 3.999.433.496.765.88 1.135 1.437z" fill="#5380F8"/></symbol></svg>