<svg xmlns="http://www.w3.org/2000/svg" width="52" height="52" viewBox="0 0 52 52"><g><g><path fill="#fff" d="M49.562 18.687H39a2.437 2.437 0 1 1 0-4.875h4.198C39.381 8.413 33.118 4.874 26 4.874 14.333 4.874 4.875 14.333 4.875 26a2.437 2.437 0 1 1-4.875 0c0-14.36 11.64-26 26-26 8.72 0 16.416 4.305 21.125 10.897V6.499A2.438 2.438 0 0 1 52 6.5v9.75a2.437 2.437 0 0 1-2.438 2.438zM2.437 33.312H13a2.437 2.437 0 1 1 0 4.875H8.769c3.82 5.405 10.107 8.937 17.231 8.937 11.667 0 21.125-9.458 21.125-21.125a2.437 2.437 0 0 1 4.875 0c0 14.36-11.64 26-26 26-8.731 0-16.422-4.324-21.125-10.932V45.5A2.438 2.438 0 1 1 0 45.5v-9.75a2.437 2.437 0 0 1 2.437-2.437z"/></g></g></svg>