<svg xmlns="http://www.w3.org/2000/svg" width="58" height="44" viewBox="0 0 58 44"><g><g><path fill="#fff" d="M56.943 6.08l-5.088-5.036C51.157.353 50.31.007 49.312.007c-.998 0-1.846.346-2.544 1.037l-24.539 24.33-10.997-10.925c-.699-.691-1.547-1.037-2.544-1.037-.998 0-1.846.346-2.543 1.037l-5.088 5.036A3.413 3.413 0 0 0 .01 22.003c0 .988.349 1.828 1.047 2.518l13.541 13.406 5.088 5.036c.698.691 1.546 1.037 2.543 1.037.997 0 1.846-.346 2.544-1.037l5.087-5.036 27.083-26.81a3.412 3.412 0 0 0 1.047-2.519c0-.987-.35-1.826-1.047-2.518z"/></g></g></svg>