<svg xmlns="http://www.w3.org/2000/svg" width="185" height="136" viewBox="0 0 185 136"><defs><clipPath id="k0nma"><path fill="#fff" d="M93.062 57c7.957 0 14.407 4.7 14.407 10.5 0 5.799-6.45 10.5-14.407 10.5-7.956 0-14.406-4.701-14.406-10.5 0-5.8 6.45-10.5 14.406-10.5z"/></clipPath><clipPath id="k0nmb"><path fill="#fff" d="M93.047 38c22.635 0 40.984 13.431 40.984 30 0 16.568-18.35 30-40.984 30-22.635 0-40.985-13.432-40.985-30 0-16.569 18.35-30 40.985-30z"/></clipPath><clipPath id="k0nmc"><path fill="#fff" d="M92.5 0C143.586 0 185 30.444 185 68c0 37.555-41.414 68-92.5 68S0 105.555 0 68C0 30.444 41.414 0 92.5 0z"/></clipPath><linearGradient id="k0nmd" x1="110" x2="76" y1="54" y2="30.99" gradientUnits="userSpaceOnUse"><stop offset="0" stop-color="#4c3e86"/><stop offset="1" stop-color="#8972e9"/></linearGradient><clipPath id="k0nme"><path fill="#fff" d="M93.5 37a3.5 3.5 0 1 1 0 7 3.5 3.5 0 0 1 0-7z"/></clipPath><clipPath id="k0nmf"><path fill="#fff" d="M93 66a2 2 0 1 1 0 4 2 2 0 0 1 0-4z"/></clipPath></defs><g><g><g opacity=".6"><path fill="none" stroke="#4c3e86" stroke-miterlimit="20" stroke-width="2" d="M93.062 57c7.957 0 14.407 4.7 14.407 10.5 0 5.799-6.45 10.5-14.407 10.5-7.956 0-14.406-4.701-14.406-10.5 0-5.8 6.45-10.5 14.406-10.5z" clip-path="url(&quot;#k0nma&quot;)"/></g><g opacity=".33"><path fill="none" stroke="#4c3e86" stroke-miterlimit="20" stroke-width="2" d="M93.047 38c22.635 0 40.984 13.431 40.984 30 0 16.568-18.35 30-40.984 30-22.635 0-40.985-13.432-40.985-30 0-16.569 18.35-30 40.985-30z" clip-path="url(&quot;#k0nmb&quot;)"/></g><g opacity=".25"><path fill="none" stroke="#4c3e86" stroke-miterlimit="20" stroke-width="2" d="M92.5 0C143.586 0 185 30.444 185 68c0 37.555-41.414 68-92.5 68S0 105.555 0 68C0 30.444 41.414 0 92.5 0z" clip-path="url(&quot;#k0nmc&quot;)"/></g><g><path fill="#ffcb5a" d="M93 23c9.389 0 17 7.61 17 17 0 8.38-6.065 15.345-14.045 16.744-.059.202-.181.446-.368.731a19.53 19.53 0 0 0-1.842 3.57c-.498 1.266-.995 1.266-1.492 0a19.53 19.53 0 0 0-1.843-3.57c-.187-.285-.31-.529-.368-.732C82.063 55.343 76 48.38 76 40c0-9.39 7.611-17 17-17z"/><path fill="url(#k0nmd)" d="M93 23c9.389 0 17 7.61 17 17 0 8.38-6.065 15.345-14.045 16.744-.059.202-.181.446-.368.731a19.53 19.53 0 0 0-1.842 3.57c-.498 1.266-.995 1.266-1.492 0a19.53 19.53 0 0 0-1.843-3.57c-.187-.285-.31-.529-.368-.732C82.063 55.343 76 48.38 76 40c0-9.39 7.611-17 17-17z"/></g><g><path fill="none" stroke="#4c3e86" stroke-miterlimit="20" stroke-width="2" d="M93.5 37a3.5 3.5 0 1 1 0 7 3.5 3.5 0 0 1 0-7z" clip-path="url(&quot;#k0nme&quot;)"/></g><g><path fill="none" stroke="#4c3e86" stroke-miterlimit="20" stroke-width="28" d="M93 66a2 2 0 1 1 0 4 2 2 0 0 1 0-4z" clip-path="url(&quot;#k0nmf&quot;)"/></g></g></g></svg>