<svg xmlns="http://www.w3.org/2000/svg" width="485" height="323"><defs><filter id="a" width="511" height="349" x="-13" y="-13" filterUnits="userSpaceOnUse"><feOffset in="SourceGraphic" result="FeOffset1060Out"/><feGaussianBlur in="FeOffset1060Out" result="FeGaussianBlur1061Out" stdDeviation="12.16 12.16"/></filter><filter id="c" width="527" height="365" x="-21" y="-21" filterUnits="userSpaceOnUse"><feOffset in="SourceGraphic" result="FeOffset1077Out"/><feGaussianBlur in="FeOffset1077Out" result="FeGaussianBlur1078Out" stdDeviation="14.4 14.4"/></filter><mask id="b" width="2.01" height="2.01" x="-1" y="-1.01"><path fill="#fff" d="M27.4 27.4h430.2v268.2H27.4z"/><path d="M455.235 36.998V285.18a8 8 0 01-8 8H37a8 8 0 01-8-8V36.998a8 8 0 018-8h15.002l14.001 13.996 14.001-13.996h367.23a8 8 0 018 8z"/></mask><mask id="d" width="2.02" height="2.03" x="-1.01" y="-1.02"><path fill="#fff" d="M25 25h435v273H25z"/><path d="M455.235 36.998V285.18a8 8 0 01-8 8H37a8 8 0 01-8-8V36.998a8 8 0 018-8h15.002l14.001 13.996 14.001-13.996h367.23a8 8 0 018 8z"/></mask><clipPath id="e"><path fill="#fff" d="M450.235 41.998V280.18a8 8 0 01-8 8H42a8 8 0 01-8-8V41.999a8 8 0 018-8h9.003l15 14.996 15-14.996h361.232a8 8 0 018 7.999z"/></clipPath></defs><g filter="url(#a)"><path fill="none" stroke="#fff" stroke-opacity=".35" stroke-width="3.2" d="M455.235 36.998V285.18a8 8 0 01-8 8H37a8 8 0 01-8-8V36.998a8 8 0 018-8h15.002l14.001 13.996 14.001-13.996h367.23a8 8 0 018 8z" mask="url(&quot;#b&quot;)"/><path fill="#fff" fill-opacity=".35" d="M455.235 36.998V285.18a8 8 0 01-8 8H37a8 8 0 01-8-8V36.998a8 8 0 018-8h15.002l14.001 13.996 14.001-13.996h367.23a8 8 0 018 8z"/></g><g filter="url(#a)"><path fill="none" stroke="#fff" stroke-opacity=".35" stroke-width="3.2" d="M455.235 36.998V285.18a8 8 0 01-8 8H37a8 8 0 01-8-8V36.998a8 8 0 018-8h15.002l14.001 13.996 14.001-13.996h367.23a8 8 0 018 8z" mask="url(&quot;#b&quot;)"/><path fill="#fff" fill-opacity=".35" d="M455.235 36.998V285.18a8 8 0 01-8 8H37a8 8 0 01-8-8V36.998a8 8 0 018-8h15.002l14.001 13.996 14.001-13.996h367.23a8 8 0 018 8z"/></g><g filter="url(#c)"><path fill="none" stroke="#1a1b2c" stroke-opacity=".07" stroke-width="8" d="M455.235 36.998V285.18a8 8 0 01-8 8H37a8 8 0 01-8-8V36.998a8 8 0 018-8h15.002l14.001 13.996 14.001-13.996h367.23a8 8 0 018 8z" mask="url(&quot;#d&quot;)"/><path fill="#1a1b2c" fill-opacity=".07" d="M455.235 36.998V285.18a8 8 0 01-8 8H37a8 8 0 01-8-8V36.998a8 8 0 018-8h15.002l14.001 13.996 14.001-13.996h367.23a8 8 0 018 8z"/></g><path fill="#eeecf2" d="M455.235 36.998V285.18a8 8 0 01-8 8H37a8 8 0 01-8-8V36.998a8 8 0 018-8h15.002l14.001 13.996 14.001-13.996h367.23a8 8 0 018 8z"/><g opacity=".5"><path fill="none" stroke="#bababa" stroke-dasharray="4 2" stroke-miterlimit="20" stroke-width="2" d="M450.235 41.998V280.18a8 8 0 01-8 8H42a8 8 0 01-8-8V41.999a8 8 0 018-8h9.003l15 14.996 15-14.996h361.232a8 8 0 018 7.999z" clip-path="url(&quot;#e&quot;)"/></g></svg>