<svg xmlns="http://www.w3.org/2000/svg" width="427" height="439"><defs><filter id="a" width="453" height="465" x="-13" y="-13" filterUnits="userSpaceOnUse"><feOffset in="SourceGraphic" result="FeOffset1023Out"/><feGaussianBlur in="FeOffset1023Out" result="FeGaussianBlur1024Out" stdDeviation="12.16 12.16"/></filter><filter id="c" width="469" height="481" x="-21" y="-21" filterUnits="userSpaceOnUse"><feOffset in="SourceGraphic" result="FeOffset1040Out"/><feGaussianBlur in="FeOffset1040Out" result="FeGaussianBlur1041Out" stdDeviation="14.4 14.4"/></filter><mask id="b" width="2.01" height="2.01" x="-1" y="-1"><path fill="#fff" d="M27.4 27.4h372.2v384.2H27.4z"/><path d="M397.235 36.998v365a8 8 0 01-8 8H37a8 8 0 01-8-8v-365a8 8 0 018-8h12.002l14.001 13.996 14.001-13.996h312.23a8 8 0 018 8z"/></mask><mask id="d" width="2.02" height="2.02" x="-1.01" y="-1.01"><path fill="#fff" d="M25 25h377v389H25z"/><path d="M397.235 36.998v365a8 8 0 01-8 8H37a8 8 0 01-8-8v-365a8 8 0 018-8h12.002l14.001 13.996 14.001-13.996h312.23a8 8 0 018 8z"/></mask><clipPath id="e"><path fill="#fff" d="M392.235 41.998v355a8 8 0 01-8 8H42a8 8 0 01-8-8v-355a8 8 0 018-8h6.003l15 14.997 15-14.997h306.232a8 8 0 018 8z"/></clipPath></defs><g filter="url(#a)"><path fill="none" stroke="#fff" stroke-opacity=".35" stroke-width="3.2" d="M397.235 36.998v365a8 8 0 01-8 8H37a8 8 0 01-8-8v-365a8 8 0 018-8h12.002l14.001 13.996 14.001-13.996h312.23a8 8 0 018 8z" mask="url(&quot;#b&quot;)"/><path fill="#fff" fill-opacity=".35" d="M397.235 36.998v365a8 8 0 01-8 8H37a8 8 0 01-8-8v-365a8 8 0 018-8h12.002l14.001 13.996 14.001-13.996h312.23a8 8 0 018 8z"/></g><g filter="url(#a)"><path fill="none" stroke="#fff" stroke-opacity=".35" stroke-width="3.2" d="M397.235 36.998v365a8 8 0 01-8 8H37a8 8 0 01-8-8v-365a8 8 0 018-8h12.002l14.001 13.996 14.001-13.996h312.23a8 8 0 018 8z" mask="url(&quot;#b&quot;)"/><path fill="#fff" fill-opacity=".35" d="M397.235 36.998v365a8 8 0 01-8 8H37a8 8 0 01-8-8v-365a8 8 0 018-8h12.002l14.001 13.996 14.001-13.996h312.23a8 8 0 018 8z"/></g><g filter="url(#c)"><path fill="none" stroke="#1a1b2c" stroke-opacity=".07" stroke-width="8" d="M397.235 36.998v365a8 8 0 01-8 8H37a8 8 0 01-8-8v-365a8 8 0 018-8h12.002l14.001 13.996 14.001-13.996h312.23a8 8 0 018 8z" mask="url(&quot;#d&quot;)"/><path fill="#1a1b2c" fill-opacity=".07" d="M397.235 36.998v365a8 8 0 01-8 8H37a8 8 0 01-8-8v-365a8 8 0 018-8h12.002l14.001 13.996 14.001-13.996h312.23a8 8 0 018 8z"/></g><path fill="#fff" d="M397.235 36.998v365a8 8 0 01-8 8H37a8 8 0 01-8-8v-365a8 8 0 018-8h12.002l14.001 13.996 14.001-13.996h312.23a8 8 0 018 8z"/><g><path fill="none" stroke="#e8e8e8" stroke-dasharray="4 2" stroke-miterlimit="20" stroke-width="2" d="M392.235 41.998v355a8 8 0 01-8 8H42a8 8 0 01-8-8v-355a8 8 0 018-8h6.003l15 14.997 15-14.997h306.232a8 8 0 018 8z" clip-path="url(&quot;#e&quot;)"/></g></svg>