<svg xmlns="http://www.w3.org/2000/svg" width="393" height="155" viewBox="0 0 393 155"><defs><mask id="zdvcb" width="2.01" height="2.03" x="-1" y="-1.02"><path fill="#fff" d="M29.4 29.4h334.2v96.2H29.4z"/><path d="M361.235 38.998v77a8 8 0 0 1-8 8H39a8 8 0 0 1-8-8V66.995l8.994-8.997L31 48.999V38.998a8 8 0 0 1 8-8h314.235a8 8 0 0 1 8 8z"/></mask><filter id="zdvca" width="415" height="177" x="-11" y="-11" filterUnits="userSpaceOnUse"><feOffset in="SourceGraphic" result="FeOffset1104Out"/><feGaussianBlur in="FeOffset1104Out" result="FeGaussianBlur1105Out" stdDeviation="12.16 12.16"/></filter><mask id="zdvcd" width="2.02" height="2.09" x="-1.01" y="-1.04"><path fill="#fff" d="M27 27h339v101H27z"/><path d="M361.235 38.998v77a8 8 0 0 1-8 8H39a8 8 0 0 1-8-8V66.995l8.994-8.997L31 48.999V38.998a8 8 0 0 1 8-8h314.235a8 8 0 0 1 8 8z"/></mask><filter id="zdvcc" width="431" height="193" x="-19" y="-19" filterUnits="userSpaceOnUse"><feOffset in="SourceGraphic" result="FeOffset1121Out"/><feGaussianBlur in="FeOffset1121Out" result="FeGaussianBlur1122Out" stdDeviation="14.4 14.4"/></filter><clipPath id="zdvce"><path fill="#fff" d="M356.235 43.998v67a8 8 0 0 1-8 8H44a8 8 0 0 1-8-8V68.995l10.995-10.998-10.995-11V44a8 8 0 0 1 8-8h304.235a8 8 0 0 1 8 7.999z"/></clipPath></defs><g><g><g filter="url(#zdvca)"><path fill="none" stroke="#fff" stroke-opacity=".35" stroke-width="3.2" d="M361.235 38.998v77a8 8 0 0 1-8 8H39a8 8 0 0 1-8-8V66.995l8.994-8.997L31 48.999V38.998a8 8 0 0 1 8-8h314.235a8 8 0 0 1 8 8z" mask="url(&quot;#zdvcb&quot;)"/><path fill="#fff" fill-opacity=".35" d="M361.235 38.998v77a8 8 0 0 1-8 8H39a8 8 0 0 1-8-8V66.995l8.994-8.997L31 48.999V38.998a8 8 0 0 1 8-8h314.235a8 8 0 0 1 8 8z"/></g><g filter="url(#zdvca)"><path fill="none" stroke="#fff" stroke-opacity=".35" stroke-width="3.2" d="M361.235 38.998v77a8 8 0 0 1-8 8H39a8 8 0 0 1-8-8V66.995l8.994-8.997L31 48.999V38.998a8 8 0 0 1 8-8h314.235a8 8 0 0 1 8 8z" mask="url(&quot;#zdvcb&quot;)"/><path fill="#fff" fill-opacity=".35" d="M361.235 38.998v77a8 8 0 0 1-8 8H39a8 8 0 0 1-8-8V66.995l8.994-8.997L31 48.999V38.998a8 8 0 0 1 8-8h314.235a8 8 0 0 1 8 8z"/></g><g filter="url(#zdvcc)"><path fill="none" stroke="#1a1b2c" stroke-opacity=".1" stroke-width="8" d="M361.235 38.998v77a8 8 0 0 1-8 8H39a8 8 0 0 1-8-8V66.995l8.994-8.997L31 48.999V38.998a8 8 0 0 1 8-8h314.235a8 8 0 0 1 8 8z" mask="url(&quot;#zdvcd&quot;)"/><path fill="#1a1b2c" fill-opacity=".1" d="M361.235 38.998v77a8 8 0 0 1-8 8H39a8 8 0 0 1-8-8V66.995l8.994-8.997L31 48.999V38.998a8 8 0 0 1 8-8h314.235a8 8 0 0 1 8 8z"/></g><path fill="#fff" d="M361.235 38.998v77a8 8 0 0 1-8 8H39a8 8 0 0 1-8-8V66.995l8.994-8.997L31 48.999V38.998a8 8 0 0 1 8-8h314.235a8 8 0 0 1 8 8z"/></g><g><path fill="none" stroke="#dcdcdc" stroke-dasharray="4 2" stroke-miterlimit="20" stroke-width="2" d="M356.235 43.998v67a8 8 0 0 1-8 8H44a8 8 0 0 1-8-8V68.995l10.995-10.998-10.995-11V44a8 8 0 0 1 8-8h304.235a8 8 0 0 1 8 7.999z" clip-path="url(&quot;#zdvce&quot;)"/></g></g></svg>