<svg xmlns="http://www.w3.org/2000/svg" width="666" height="384" viewBox="0 0 666 384"><defs><mask id="4wdlb" width="2.01" height="2.01" x="-1" y="-1"><path fill="#fff" d="M27.4 27.4h611.2v329.2H27.4z"/><path d="M636.235 36.998v310a8 8 0 0 1-8 8H37a8 8 0 0 1-8-8v-310a8 8 0 0 1 8-8h12.002l14.001 13.995 14.001-13.995h551.23a8 8 0 0 1 8 8z"/></mask><filter id="4wdla" width="692" height="410" x="-13" y="-13" filterUnits="userSpaceOnUse"><feOffset in="SourceGraphic" result="FeOffset1067Out"/><feGaussianBlur in="FeOffset1067Out" result="FeGaussianBlur1068Out" stdDeviation="12.16 12.16"/></filter><mask id="4wdld" width="2.01" height="2.02" x="-1.01" y="-1.01"><path fill="#fff" d="M25 25h616v334H25z"/><path d="M636.235 36.998v310a8 8 0 0 1-8 8H37a8 8 0 0 1-8-8v-310a8 8 0 0 1 8-8h12.002l14.001 13.995 14.001-13.995h551.23a8 8 0 0 1 8 8z"/></mask><filter id="4wdlc" width="708" height="426" x="-21" y="-21" filterUnits="userSpaceOnUse"><feOffset in="SourceGraphic" result="FeOffset1084Out"/><feGaussianBlur in="FeOffset1084Out" result="FeGaussianBlur1085Out" stdDeviation="14.4 14.4"/></filter><clipPath id="4wdle"><path fill="#fff" d="M631.235 41.998v300a8 8 0 0 1-8 8H42a8 8 0 0 1-8-8v-300a8 8 0 0 1 8-8h6.003l15 14.996 15-14.995h545.232a8 8 0 0 1 8 7.999z"/></clipPath></defs><g><g><g filter="url(#4wdla)"><path fill="none" stroke="#fff" stroke-opacity=".35" stroke-width="3.2" d="M636.235 36.998v310a8 8 0 0 1-8 8H37a8 8 0 0 1-8-8v-310a8 8 0 0 1 8-8h12.002l14.001 13.995 14.001-13.995h551.23a8 8 0 0 1 8 8z" mask="url(&quot;#4wdlb&quot;)"/><path fill="#fff" fill-opacity=".35" d="M636.235 36.998v310a8 8 0 0 1-8 8H37a8 8 0 0 1-8-8v-310a8 8 0 0 1 8-8h12.002l14.001 13.995 14.001-13.995h551.23a8 8 0 0 1 8 8z"/></g><g filter="url(#4wdla)"><path fill="none" stroke="#fff" stroke-opacity=".35" stroke-width="3.2" d="M636.235 36.998v310a8 8 0 0 1-8 8H37a8 8 0 0 1-8-8v-310a8 8 0 0 1 8-8h12.002l14.001 13.995 14.001-13.995h551.23a8 8 0 0 1 8 8z" mask="url(&quot;#4wdlb&quot;)"/><path fill="#fff" fill-opacity=".35" d="M636.235 36.998v310a8 8 0 0 1-8 8H37a8 8 0 0 1-8-8v-310a8 8 0 0 1 8-8h12.002l14.001 13.995 14.001-13.995h551.23a8 8 0 0 1 8 8z"/></g><g filter="url(#4wdlc)"><path fill="none" stroke="#1a1b2c" stroke-opacity=".07" stroke-width="8" d="M636.235 36.998v310a8 8 0 0 1-8 8H37a8 8 0 0 1-8-8v-310a8 8 0 0 1 8-8h12.002l14.001 13.995 14.001-13.995h551.23a8 8 0 0 1 8 8z" mask="url(&quot;#4wdld&quot;)"/><path fill="#1a1b2c" fill-opacity=".07" d="M636.235 36.998v310a8 8 0 0 1-8 8H37a8 8 0 0 1-8-8v-310a8 8 0 0 1 8-8h12.002l14.001 13.995 14.001-13.995h551.23a8 8 0 0 1 8 8z"/></g><path fill="#fff" d="M636.235 36.998v310a8 8 0 0 1-8 8H37a8 8 0 0 1-8-8v-310a8 8 0 0 1 8-8h12.002l14.001 13.995 14.001-13.995h551.23a8 8 0 0 1 8 8z"/></g><g><path fill="none" stroke="#e8e8e8" stroke-dasharray="4 2" stroke-miterlimit="20" stroke-width="2" d="M631.235 41.998v300a8 8 0 0 1-8 8H42a8 8 0 0 1-8-8v-300a8 8 0 0 1 8-8h6.003l15 14.996 15-14.995h545.232a8 8 0 0 1 8 7.999z" clip-path="url(&quot;#4wdle&quot;)"/></g></g></svg>