<svg xmlns="http://www.w3.org/2000/svg" width="1250" height="1347" viewBox="0 0 1250 1347"><defs><mask id="uhe4b" width="2.01" height="2.01" x="-1" y="-1"><path fill="#fff" d="M68.2 68.2h1113.6v1210.6H68.2z"/><path d="M1176.235 80.998V1265.18a8 8 0 0 1-8 8H81a8 8 0 0 1-8-8V80.998a8 8 0 0 1 8-8H96l14.002 13.995 14.002-13.996h1044.23c4.418 0 8 3.583 8 8z"/></mask><filter id="uhe4a" width="1314.2" height="1411.2" x="-32.1" y="-32.1" filterUnits="userSpaceOnUse"><feOffset in="SourceGraphic" result="FeOffset1023Out"/><feGaussianBlur in="FeOffset1023Out" result="FeGaussianBlur1024Out" stdDeviation="36.12 36.12"/></filter><mask id="uhe4d" width="2.01" height="2.01" x="-1" y="-1"><path fill="#fff" d="M69 69h1112v1209H69z"/><path d="M1176.235 80.998V1265.18a8 8 0 0 1-8 8H81a8 8 0 0 1-8-8V80.998a8 8 0 0 1 8-8H96l14.002 13.995 14.002-13.996h1044.23c4.418 0 8 3.583 8 8z"/></mask><filter id="uhe4c" width="1204" height="1301" x="23" y="23" filterUnits="userSpaceOnUse"><feOffset in="SourceGraphic" result="FeOffset1040Out"/><feGaussianBlur in="FeOffset1040Out" result="FeGaussianBlur1041Out" stdDeviation="14.4 14.4"/></filter><clipPath id="uhe4e"><path fill="#fff" d="M1171.235 85.998V1260.18a8 8 0 0 1-8 8H86a8 8 0 0 1-8-8V85.999a8 8 0 0 1 8-8h9.002l15.001 14.995 15.001-14.996h1038.23a8 8 0 0 1 8 8z"/></clipPath></defs><g><g><g filter="url(#uhe4a)"><path fill="none" stroke="#fff" stroke-opacity=".35" stroke-width="9.6" d="M1176.235 80.998V1265.18a8 8 0 0 1-8 8H81a8 8 0 0 1-8-8V80.998a8 8 0 0 1 8-8H96l14.002 13.995 14.002-13.996h1044.23c4.418 0 8 3.583 8 8z" mask="url(&quot;#uhe4b&quot;)"/><path fill="#fff" fill-opacity=".35" d="M1176.235 80.998V1265.18a8 8 0 0 1-8 8H81a8 8 0 0 1-8-8V80.998a8 8 0 0 1 8-8H96l14.002 13.995 14.002-13.996h1044.23c4.418 0 8 3.583 8 8z"/></g><g filter="url(#uhe4a)"><path fill="none" stroke="#fff" stroke-opacity=".35" stroke-width="9.6" d="M1176.235 80.998V1265.18a8 8 0 0 1-8 8H81a8 8 0 0 1-8-8V80.998a8 8 0 0 1 8-8H96l14.002 13.995 14.002-13.996h1044.23c4.418 0 8 3.583 8 8z" mask="url(&quot;#uhe4b&quot;)"/><path fill="#fff" fill-opacity=".35" d="M1176.235 80.998V1265.18a8 8 0 0 1-8 8H81a8 8 0 0 1-8-8V80.998a8 8 0 0 1 8-8H96l14.002 13.995 14.002-13.996h1044.23c4.418 0 8 3.583 8 8z"/></g><g filter="url(#uhe4c)"><path fill="none" stroke="#1a1b2c" stroke-opacity=".07" stroke-width="8" d="M1176.235 80.998V1265.18a8 8 0 0 1-8 8H81a8 8 0 0 1-8-8V80.998a8 8 0 0 1 8-8H96l14.002 13.995 14.002-13.996h1044.23c4.418 0 8 3.583 8 8z" mask="url(&quot;#uhe4d&quot;)"/><path fill="#1a1b2c" fill-opacity=".07" d="M1176.235 80.998V1265.18a8 8 0 0 1-8 8H81a8 8 0 0 1-8-8V80.998a8 8 0 0 1 8-8H96l14.002 13.995 14.002-13.996h1044.23c4.418 0 8 3.583 8 8z"/></g><path fill="#fff" d="M1176.235 80.998V1265.18a8 8 0 0 1-8 8H81a8 8 0 0 1-8-8V80.998a8 8 0 0 1 8-8H96l14.002 13.995 14.002-13.996h1044.23c4.418 0 8 3.583 8 8z"/></g><g opacity=".5"><path fill="none" stroke="#bababa" stroke-dasharray="4 2" stroke-miterlimit="20" stroke-width="2" d="M1171.235 85.998V1260.18a8 8 0 0 1-8 8H86a8 8 0 0 1-8-8V85.999a8 8 0 0 1 8-8h9.002l15.001 14.995 15.001-14.996h1038.23a8 8 0 0 1 8 8z" clip-path="url(&quot;#uhe4e&quot;)"/></g></g></svg>