<svg xmlns="http://www.w3.org/2000/svg" width="1162" height="1037"><defs><filter id="a" width="1188" height="1063" x="-13" y="-13" filterUnits="userSpaceOnUse"><feOffset in="SourceGraphic" result="FeOffset1148Out"/><feGaussianBlur in="FeOffset1148Out" result="FeGaussianBlur1149Out" stdDeviation="12.16 12.16"/></filter><filter id="c" width="1204" height="1079" x="-21" y="-21" filterUnits="userSpaceOnUse"><feOffset in="SourceGraphic" result="FeOffset1165Out"/><feGaussianBlur in="FeOffset1165Out" result="FeGaussianBlur1166Out" stdDeviation="14.4 14.4"/></filter><mask id="b" width="2" height="2" x="-1" y="-1"><path fill="#fff" d="M27.4 27.4h1107.2v982.2H27.4z"/><path d="M1132.235 36.998v962.183a8 8 0 01-8 8H37a8 8 0 01-8-8V36.998a8 8 0 018-8h15.002l14.001 13.996 14.002-13.996h1044.23a8 8 0 018 8z"/></mask><mask id="d" width="2.01" height="2.01" x="-1" y="-1"><path fill="#fff" d="M25 25h1112v987H25z"/><path d="M1132.235 36.998v962.183a8 8 0 01-8 8H37a8 8 0 01-8-8V36.998a8 8 0 018-8h15.002l14.001 13.996 14.002-13.996h1044.23a8 8 0 018 8z"/></mask><clipPath id="e"><path fill="#fff" d="M1127.235 41.998V994.18a8 8 0 01-8 8H42a8 8 0 01-8-8V42a8 8 0 018-8h9.003l15 14.995 15-14.996h1038.232a8 8 0 018 8z"/></clipPath></defs><g filter="url(#a)"><path fill="none" stroke="#fff" stroke-opacity=".35" stroke-width="3.2" d="M1132.235 36.998v962.183a8 8 0 01-8 8H37a8 8 0 01-8-8V36.998a8 8 0 018-8h15.002l14.001 13.996 14.002-13.996h1044.23a8 8 0 018 8z" mask="url(&quot;#b&quot;)"/><path fill="#fff" fill-opacity=".35" d="M1132.235 36.998v962.183a8 8 0 01-8 8H37a8 8 0 01-8-8V36.998a8 8 0 018-8h15.002l14.001 13.996 14.002-13.996h1044.23a8 8 0 018 8z"/></g><g filter="url(#a)"><path fill="none" stroke="#fff" stroke-opacity=".35" stroke-width="3.2" d="M1132.235 36.998v962.183a8 8 0 01-8 8H37a8 8 0 01-8-8V36.998a8 8 0 018-8h15.002l14.001 13.996 14.002-13.996h1044.23a8 8 0 018 8z" mask="url(&quot;#b&quot;)"/><path fill="#fff" fill-opacity=".35" d="M1132.235 36.998v962.183a8 8 0 01-8 8H37a8 8 0 01-8-8V36.998a8 8 0 018-8h15.002l14.001 13.996 14.002-13.996h1044.23a8 8 0 018 8z"/></g><g filter="url(#c)"><path fill="none" stroke="#1a1b2c" stroke-opacity=".07" stroke-width="8" d="M1132.235 36.998v962.183a8 8 0 01-8 8H37a8 8 0 01-8-8V36.998a8 8 0 018-8h15.002l14.001 13.996 14.002-13.996h1044.23a8 8 0 018 8z" mask="url(&quot;#d&quot;)"/><path fill="#1a1b2c" fill-opacity=".07" d="M1132.235 36.998v962.183a8 8 0 01-8 8H37a8 8 0 01-8-8V36.998a8 8 0 018-8h15.002l14.001 13.996 14.002-13.996h1044.23a8 8 0 018 8z"/></g><path fill="#fff" d="M1132.235 36.998v962.183a8 8 0 01-8 8H37a8 8 0 01-8-8V36.998a8 8 0 018-8h15.002l14.001 13.996 14.002-13.996h1044.23a8 8 0 018 8z"/><g opacity=".5"><path fill="none" stroke="#bababa" stroke-dasharray="4 2" stroke-miterlimit="20" stroke-width="2" d="M1127.235 41.998V994.18a8 8 0 01-8 8H42a8 8 0 01-8-8V42a8 8 0 018-8h9.003l15 14.995 15-14.996h1038.232a8 8 0 018 8z" clip-path="url(&quot;#e&quot;)"/></g></svg>