<svg xmlns="http://www.w3.org/2000/svg" width="485" height="323" viewBox="0 0 485 323"><defs><mask id="e4bjb" width="2.01" height="2.01" x="-1" y="-1.01"><path fill="#fff" d="M27.4 27.4h430.2v268.2H27.4z"/><path d="M455.235 36.998V285.18a8 8 0 0 1-8 8H37a8 8 0 0 1-8-8V36.998a8 8 0 0 1 8-8h15.002l14.001 13.996 14.001-13.996h367.23a8 8 0 0 1 8 8z"/></mask><filter id="e4bja" width="511" height="349" x="-13" y="-13" filterUnits="userSpaceOnUse"><feOffset in="SourceGraphic" result="FeOffset1060Out"/><feGaussianBlur in="FeOffset1060Out" result="FeGaussianBlur1061Out" stdDeviation="12.16 12.16"/></filter><mask id="e4bjd" width="2.02" height="2.03" x="-1.01" y="-1.02"><path fill="#fff" d="M25 25h435v273H25z"/><path d="M455.235 36.998V285.18a8 8 0 0 1-8 8H37a8 8 0 0 1-8-8V36.998a8 8 0 0 1 8-8h15.002l14.001 13.996 14.001-13.996h367.23a8 8 0 0 1 8 8z"/></mask><filter id="e4bjc" width="527" height="365" x="-21" y="-21" filterUnits="userSpaceOnUse"><feOffset in="SourceGraphic" result="FeOffset1077Out"/><feGaussianBlur in="FeOffset1077Out" result="FeGaussianBlur1078Out" stdDeviation="14.4 14.4"/></filter><clipPath id="e4bje"><path fill="#fff" d="M450.235 41.998V280.18a8 8 0 0 1-8 8H42a8 8 0 0 1-8-8V41.999a8 8 0 0 1 8-8h9.003l15 14.996 15-14.996h361.232a8 8 0 0 1 8 7.999z"/></clipPath></defs><g><g><g filter="url(#e4bja)"><path fill="none" stroke="#fff" stroke-opacity=".35" stroke-width="3.2" d="M455.235 36.998V285.18a8 8 0 0 1-8 8H37a8 8 0 0 1-8-8V36.998a8 8 0 0 1 8-8h15.002l14.001 13.996 14.001-13.996h367.23a8 8 0 0 1 8 8z" mask="url(&quot;#e4bjb&quot;)"/><path fill="#fff" fill-opacity=".35" d="M455.235 36.998V285.18a8 8 0 0 1-8 8H37a8 8 0 0 1-8-8V36.998a8 8 0 0 1 8-8h15.002l14.001 13.996 14.001-13.996h367.23a8 8 0 0 1 8 8z"/></g><g filter="url(#e4bja)"><path fill="none" stroke="#fff" stroke-opacity=".35" stroke-width="3.2" d="M455.235 36.998V285.18a8 8 0 0 1-8 8H37a8 8 0 0 1-8-8V36.998a8 8 0 0 1 8-8h15.002l14.001 13.996 14.001-13.996h367.23a8 8 0 0 1 8 8z" mask="url(&quot;#e4bjb&quot;)"/><path fill="#fff" fill-opacity=".35" d="M455.235 36.998V285.18a8 8 0 0 1-8 8H37a8 8 0 0 1-8-8V36.998a8 8 0 0 1 8-8h15.002l14.001 13.996 14.001-13.996h367.23a8 8 0 0 1 8 8z"/></g><g filter="url(#e4bjc)"><path fill="none" stroke="#1a1b2c" stroke-opacity=".07" stroke-width="8" d="M455.235 36.998V285.18a8 8 0 0 1-8 8H37a8 8 0 0 1-8-8V36.998a8 8 0 0 1 8-8h15.002l14.001 13.996 14.001-13.996h367.23a8 8 0 0 1 8 8z" mask="url(&quot;#e4bjd&quot;)"/><path fill="#1a1b2c" fill-opacity=".07" d="M455.235 36.998V285.18a8 8 0 0 1-8 8H37a8 8 0 0 1-8-8V36.998a8 8 0 0 1 8-8h15.002l14.001 13.996 14.001-13.996h367.23a8 8 0 0 1 8 8z"/></g><path fill="#eeecf2" d="M455.235 36.998V285.18a8 8 0 0 1-8 8H37a8 8 0 0 1-8-8V36.998a8 8 0 0 1 8-8h15.002l14.001 13.996 14.001-13.996h367.23a8 8 0 0 1 8 8z"/></g><g opacity=".5"><path fill="none" stroke="#bababa" stroke-dasharray="4 2" stroke-miterlimit="20" stroke-width="2" d="M450.235 41.998V280.18a8 8 0 0 1-8 8H42a8 8 0 0 1-8-8V41.999a8 8 0 0 1 8-8h9.003l15 14.996 15-14.996h361.232a8 8 0 0 1 8 7.999z" clip-path="url(&quot;#e4bje&quot;)"/></g></g></svg>