<svg xmlns="http://www.w3.org/2000/svg" width="393" height="155"><defs><filter id="a" width="415" height="177" x="-11" y="-11" filterUnits="userSpaceOnUse"><feOffset in="SourceGraphic" result="FeOffset1104Out"/><feGaussianBlur in="FeOffset1104Out" result="FeGaussianBlur1105Out" stdDeviation="12.16 12.16"/></filter><filter id="c" width="431" height="193" x="-19" y="-19" filterUnits="userSpaceOnUse"><feOffset in="SourceGraphic" result="FeOffset1121Out"/><feGaussianBlur in="FeOffset1121Out" result="FeGaussianBlur1122Out" stdDeviation="14.4 14.4"/></filter><mask id="b" width="2.01" height="2.03" x="-1" y="-1.02"><path fill="#fff" d="M29.4 29.4h334.2v96.2H29.4z"/><path d="M361.235 38.998v77a8 8 0 01-8 8H39a8 8 0 01-8-8V66.995l8.994-8.997L31 48.999V38.998a8 8 0 018-8h314.235a8 8 0 018 8z"/></mask><mask id="d" width="2.02" height="2.09" x="-1.01" y="-1.04"><path fill="#fff" d="M27 27h339v101H27z"/><path d="M361.235 38.998v77a8 8 0 01-8 8H39a8 8 0 01-8-8V66.995l8.994-8.997L31 48.999V38.998a8 8 0 018-8h314.235a8 8 0 018 8z"/></mask><clipPath id="e"><path fill="#fff" d="M356.235 43.998v67a8 8 0 01-8 8H44a8 8 0 01-8-8V68.995l10.995-10.998-10.995-11V44a8 8 0 018-8h304.235a8 8 0 018 7.999z"/></clipPath></defs><g filter="url(#a)"><path fill="none" stroke="#fff" stroke-opacity=".35" stroke-width="3.2" d="M361.235 38.998v77a8 8 0 01-8 8H39a8 8 0 01-8-8V66.995l8.994-8.997L31 48.999V38.998a8 8 0 018-8h314.235a8 8 0 018 8z" mask="url(&quot;#b&quot;)"/><path fill="#fff" fill-opacity=".35" d="M361.235 38.998v77a8 8 0 01-8 8H39a8 8 0 01-8-8V66.995l8.994-8.997L31 48.999V38.998a8 8 0 018-8h314.235a8 8 0 018 8z"/></g><g filter="url(#a)"><path fill="none" stroke="#fff" stroke-opacity=".35" stroke-width="3.2" d="M361.235 38.998v77a8 8 0 01-8 8H39a8 8 0 01-8-8V66.995l8.994-8.997L31 48.999V38.998a8 8 0 018-8h314.235a8 8 0 018 8z" mask="url(&quot;#b&quot;)"/><path fill="#fff" fill-opacity=".35" d="M361.235 38.998v77a8 8 0 01-8 8H39a8 8 0 01-8-8V66.995l8.994-8.997L31 48.999V38.998a8 8 0 018-8h314.235a8 8 0 018 8z"/></g><g filter="url(#c)"><path fill="none" stroke="#1a1b2c" stroke-opacity=".1" stroke-width="8" d="M361.235 38.998v77a8 8 0 01-8 8H39a8 8 0 01-8-8V66.995l8.994-8.997L31 48.999V38.998a8 8 0 018-8h314.235a8 8 0 018 8z" mask="url(&quot;#d&quot;)"/><path fill="#1a1b2c" fill-opacity=".1" d="M361.235 38.998v77a8 8 0 01-8 8H39a8 8 0 01-8-8V66.995l8.994-8.997L31 48.999V38.998a8 8 0 018-8h314.235a8 8 0 018 8z"/></g><path fill="#fff" d="M361.235 38.998v77a8 8 0 01-8 8H39a8 8 0 01-8-8V66.995l8.994-8.997L31 48.999V38.998a8 8 0 018-8h314.235a8 8 0 018 8z"/><g><path fill="none" stroke="#dcdcdc" stroke-dasharray="4 2" stroke-miterlimit="20" stroke-width="2" d="M356.235 43.998v67a8 8 0 01-8 8H44a8 8 0 01-8-8V68.995l10.995-10.998-10.995-11V44a8 8 0 018-8h304.235a8 8 0 018 7.999z" clip-path="url(&quot;#e&quot;)"/></g></svg>