<?xml version="1.0" encoding="utf-8"?><svg xmlns="http://www.w3.org/2000/svg" xmlns:xlink="http://www.w3.org/1999/xlink" style="display:none"><symbol viewBox="0 0 24 62.2" id="arrow-large" xmlns="http://www.w3.org/2000/svg"><path stroke-width="2" d="M.8 61.6l22-28.8L.8.6"/></symbol><symbol viewBox="0 0 33 33" id="desktop-close" xmlns="http://www.w3.org/2000/svg"><path d="M32.053 2.143L1 31.886m31.234.27L1 1" stroke-width="2"/></symbol><symbol viewBox="0 0 8 16" id="fb" xmlns="http://www.w3.org/2000/svg"><path d="M8 2.656H6.55c-1.138 0-1.357.562-1.357 1.385v1.816h2.711l-.001 2.844h-2.71V16H2.364V8.701H0V5.857h2.364V3.76C2.364 1.326 3.796 0 5.887 0L8 .003v2.653z"/></symbol><symbol viewBox="0 0 18 23" id="food-menu" xmlns="http://www.w3.org/2000/svg"><g transform="translate(0 -1)" fill-rule="evenodd"><path d="M6 16H4a2 2 0 00-2 2v3a2 2 0 104 0v-5z" stroke-width="2"/><rect stroke-width="2" x="12" y="9" width="4" height="14" rx="2"/><path d="M17 1.97h-6V6a2 2 0 002 2h2a2 2 0 002-2V1.97z" stroke-width="2"/><path d="M13 1h2v6h-2z"/><path d="M6 2.083A6.002 6.002 0 001 8v6a2 2 0 002 2h3V2.083z" stroke-width="2"/></g></symbol><symbol viewBox="0 0 27 19.6" id="forum" xmlns="http://www.w3.org/2000/svg"><g data-name="&#x421;&#x43B;&#x43E;&#x439; 2"><path d="M27 13.09V9a3 3 0 00-3-3H14a3 3 0 00-3 3v4a3 3 0 003 3h4.48l4 3.39a1 1 0 001.41-.12 1 1 0 00.24-.64V16A2.88 2.88 0 0027 13.09zm-2 0a.88.88 0 01-.88.88h-2v2.47L19.21 14H14a1 1 0 01-1-1V9a1 1 0 011-1h10a1 1 0 011 1zm-9-8.93h-2V3a1 1 0 00-1-1H3a1 1 0 00-1 1v4.09a.88.88 0 00.88.91h2v2.47L7.79 8H9v2h-.48l-4 3.39a1 1 0 01-1.41-.12 1 1 0 01-.24-.64V10A2.88 2.88 0 010 7.09V3a3 3 0 013-3h10a3 3 0 013 3z" fill-rule="evenodd" data-name="&#x421;&#x43B;&#x43E;&#x439; 1"/></g></symbol><symbol viewBox="0 0 16 16" id="instagram" xmlns="http://www.w3.org/2000/svg"><path d="M13.946 16H2.054C.924 16 0 15.164 0 13.947V2.054C0 .836.924 0 2.054 0h11.892C15.076 0 16 .836 16 2.054v11.893C16 15.164 15.076 16 13.946 16zm-5.93-4.921c1.774 0 3.212-1.394 3.212-3.114S9.79 4.852 8.015 4.852c-1.774 0-3.213 1.394-3.213 3.113 0 1.72 1.439 3.114 3.213 3.114zm4.972-2.94c0 2.661-2.226 4.818-4.973 4.818-2.746 0-4.973-2.157-4.973-4.818 0-.477.072-.938.205-1.373h-1.47v6.759c0 .35.287.636.637.636h11.141c.35 0 .637-.286.637-.636V6.766h-1.409c.133.435.205.896.205 1.373zm-1.333-3.197h1.809c.396 0 .72-.324.72-.72V2.498a.722.722 0 00-.72-.72h-1.809a.722.722 0 00-.72.72v1.724c0 .396.324.72.72.72z"/></symbol><symbol viewBox="0 0 111 34" id="logo" xmlns="http://www.w3.org/2000/svg"><path d="M38.622 28.549v2.093c.37.034.725.057 1.068.057 1.121 0 1.688-.385 1.688-1.143 0-.668-.593-1.007-1.609-1.007h-1.147zm0-3.214v2.003h1.095c.804 0 1.371-.362 1.371-1.052 0-.634-.554-.985-1.45-.985-.383 0-.726.012-1.016.034zM37 24.057A67.371 67.371 0 0139.664 24c2.097 0 3.033.78 3.033 1.958 0 .848-.435 1.448-1.319 1.799v.022c.963.215 1.622.838 1.622 1.845C43 31.197 41.629 32 39.572 32c-1.121 0-1.979-.023-2.572-.057v-7.886zM48.765 27l-1.935 2.378L49 32h-1.678l-1.991-2.522L47.143 27h1.622zM44 32h1.286v-5H44v5zm10.892-.28c0 .774-.23 1.347-.702 1.718-.46.371-1.048.562-1.75.562-.795 0-1.497-.202-2.108-.594l.588-.965a2.49 2.49 0 001.427.424c.818 0 1.22-.339 1.22-1.018v-.636c-.414.467-.966.7-1.657.7-1.071 0-1.82-.668-1.82-1.973v-2.916h1.325v2.662c0 .731.334 1.092.99 1.092.449 0 .84-.19 1.163-.583v-3.171h1.324v4.698zm6.108.289c-.437.648-1.23.991-2.116.991-.863 0-1.56-.28-2.092-.826C56.26 31.627 56 30.903 56 30c0-.852.26-1.564.78-2.136.52-.571 1.182-.864 1.974-.864.946 0 1.655.254 2.14.775l-.639 1.157a1.761 1.761 0 00-1.323-.559c-.39 0-.745.153-1.04.457-.296.293-.438.687-.438 1.17 0 .496.154.89.45 1.195.307.292.673.445 1.087.445.52 0 .98-.229 1.37-.7L61 32.01zM65.653 32v-1.911h-2.306V32H62v-5h1.347v1.889h2.306V27H67v5zm5.339-1.337c1.175 0 1.789-.27 1.789-1.169 0-.875-.586-1.289-1.746-1.289-1.126 0-1.745.408-1.745 1.295 0 .876.184 1.163 1.343 1.163h.359zM68.82 27.71c.551-.477 1.286-.71 2.18-.71.894 0 1.617.233 2.167.71.551.466.833 1.06.833 1.79 0 .731-.282 1.324-.833 1.801-.55.466-1.273.699-2.167.699-.894 0-1.629-.233-2.18-.699-.55-.477-.82-1.07-.82-1.8 0-.732.27-1.325.82-1.791zM76.046 30c.536 0 .954.48.954.961 0 .558-.418 1.039-.954 1.039A1.02 1.02 0 0175 30.961c0-.48.418-.961 1.046-.961M48.329 9.595c-1.045 1.195-2.322 3.21-2.328 5.386-.017 1.356.263 3.412 1.872 4.31 2.005 1.113 3.833.816 5.64-.201 2.055-1.19 3.663-3.005 3.663-3.005s-.287-.55-1.266-.174c-.962.373-2.167 1.091-3.135 1.253-1.735.274-3.3-.795-3.074-2.975.234-2.185 1.189-4.431 2.382-5.296.706-.526 1.551-.861 2.393-.519.582.254.848.51 1.11 1.122.326.777.286 1.554-.277 2.196-.506.581-1.303.97-2.088.854-1.646-.243-2.145 1.488-2.145 1.488s.378.495 2.234.241c1.201-.184 2.54-.925 3.35-1.617 3.77-3.3 2.385-5.848.035-6.522-2.354-.682-6.512 1.313-8.366 3.46M62.19 13.37c1.268-1.68 2.682-4.523 3.142-5.359.467-.824 2.292-2.46 2.666-.545.362 1.889.204 6.369.126 7.165 1.698-1.74 3.856-7.075 5.56-8.219 1.698-1.126 2.123-.212 3.055 6.117.919 6.362-.747 6.707-2.516 7.281-1.747.571-1.902-.755-1.904-1.674.009-.664-.132-7.816-.641-6.969-.074.162-2.239 3.816-2.975 5.025-.162.288-.52.795-.888 1.318-1.376 1.992-2.588 2.962-2.774 1.315-.133-1.315.011-6.359.028-6.821.05-.912-.162-.465-.439-.045-.118.176-4.093 7.72-6.33 8.008-1.205.168-1.402-.328-1.26-1.096.128-.636.385-1.481 1.677-2.322 1.886-1.21 2.822-2.31 3.474-3.18M35.736 5.015c-.815-.165-3.377 1.06-4.185 2.866-.65 1.416-3.5 9.818-4.88 13.935-.367 1.095-.612 1.84-.655 1.987-.204.702 1.566 1.262 2.154 1.19 1.444-.174 2.607-.976 3.523-4.044 1.35-4.442 2.065-8.11 2.516-9.157.466-1.047 4.248-4.085 5.818-2.855 2.073 1.607.134 8.065-3.424 8.892-2.29.55-2.21-.626-3.162-.322-.38 1.213 1.318 2.407 3.74 2.131 1.754-.203 5.483-1.718 7.045-5.481 2.12-5.11-.476-8.197-3.418-8.362-2.931-.2-6.197 3.858-6.197 3.858s1.563-4.556 1.125-4.638M17.328 8.596c-1.046 1.193-2.319 3.208-2.327 5.383-.015 1.358.26 3.414 1.868 4.31 2.007 1.116 3.838.818 5.643-.202 2.055-1.187 3.667-3 3.667-3s-.291-.551-1.268-.178c-.961.373-2.168 1.091-3.136 1.253-1.734.274-3.302-.793-3.08-2.975.24-2.184 1.191-4.43 2.388-5.294.707-.526 1.552-.862 2.395-.518.58.258.845.51 1.105 1.123.33.774.291 1.55-.274 2.193-.509.58-1.305.97-2.088.854-1.649-.241-2.147 1.487-2.147 1.487s.377.496 2.236.246c1.201-.188 2.537-.93 3.35-1.621 3.77-3.3 2.386-5.847.035-6.521-2.354-.681-6.514 1.313-8.367 3.46m72.267 5.808c-.77 1.966-2.114 3.618-4.223 3.534-1.092-.062-2.145-.631-2.217-2.386-.041-1.226.46-2.907.97-4.157.654-1.658 2.104-4.18 4.756-3.038 1.722.727 1.643 3.783.714 6.047m3.777-5.635c-1.777-3.88-6.183-2.98-9.202-1.518 0 0-4.072 1.518-5.024 5.89-.568 2.582.503 5.586 3.57 6.52.962.279 2.672.532 3.956.13 3.48-1.088 5.034-2.067 6.366-4.834 1.253-2.587 1.192-4.303.334-6.188M109.31 18.88c-3.312-2.585-4.854-5.802-7.139-7.208 2.615-2.427 3.898-3.216 5.914-3.122 1.772.091 2.572-1.553 2.24-2.482-.494-1.383-1.935-1.522-4.789.172-2.325 1.38-4.917 4.876-5.553 5.388.616-3.324 1.582-6.198 1.582-6.198-.702-.165-1.058-.258-1.642-.178-.699.074-1.602.227-2.045 1.174-.424.926-2.858 9.789-3.444 11.763-.567 1.968-.564 2.388-.076 2.592.461.204 2.085.67 3.462-.636 1.397-1.317 1.874-6.567 2.01-6.548.025 0 .056-.073.09-.17.28.163.94.73 1.577 2.043.219.46.382.747.747 1.41.871 1.583 1.413 2.775 4.093 4.393 2.123 1.268 4.097.658 4.563-.17.37-.632-.312-1.235-1.59-2.224M20.397.68c-.283-.405.038-.747-2.763-.436-2.795.315-13.432 1.765-14.377 1.9C2.123 2.3.973 2.913.378 3.781-.214 4.64.066 5.026.066 5.026s.282.331 3.484.008c3.165-.307 5.326-.356 5.326-.356l.423-.019c-1.63 4.596-4.515 13.286-4.672 13.83a.492.492 0 00-.018.117l-.027.09c-.2.701 1.533 1.261 2.108 1.19a1.87 1.87 0 00.128-.017 2.16 2.16 0 00.945-.287c.933-.458 1.72-1.487 2.377-3.73.044-.15.089-.299.13-.445h-.01c1.07-3.618 2.224-8.694 2.838-10.955 1.368-.073 3.16-.14 4.26-.08 1.991.105 2.671-.386 3.19-1.23.515-.828.15-2.06-.151-2.462" fill-rule="evenodd"/></symbol><symbol viewBox="0 0 10 15" id="menu" xmlns="http://www.w3.org/2000/svg"><path d="M9.824 6.321l-.138.359-.101.319a5 5 0 01-.72 1.173L5 14.477 1.135 8.172A5 5 0 01.415 7l-.078-.32-.16-.358V3.679a5.002 5.002 0 019.647 0v2.642zM5.05 7a1.75 1.75 0 100-3.5 1.75 1.75 0 000 3.5z"/></symbol><symbol viewBox="0 0 160 132" id="nashe_menu" xmlns="http://www.w3.org/2000/svg"><g fill-rule="evenodd"><path d="M27.064 109.6v19.25l1.819 1.23v1.428H22v-1.428l1.77-1.23v-25.847l-1.672-1.23v-1.33h4.327c3.44 0 4.473-.295 5.063 2.166 1.573 8.714 2.458 14.376 3.343 23.04h.098l3.737-23.286c.344-1.723.934-1.87 2.654-1.87 2.606 0 4.032-.05 6.637-.05v1.33l-1.671 1.23V128.8l1.868 1.378v1.33h-8.505v-1.33l1.868-1.378v-20.825c0 .05 0 .099.147-4.332h-.196l-4.67 27.52h-3.884c-.983 0-1.426-.394-1.573-1.28-1.377-8.812-2.704-17.132-4.277-25.895h-.148l.148 5.612zm42.376 21.908H52.726v-1.33l1.917-1.378v-25.945l-1.622-1.23v-1.182h15.83v6.942H66.54l-1.278-4.185H59.46v11.47h4.031l1.229-2.412h1.377v7.484H64.72l-1.229-2.265H59.46v9.6c0 .738-.197 1.132-.983 1.378v.247h7.325l1.573-4.136h2.064v6.942zm25.958-2.462v-26.043l-1.574-1.23v-1.33h7.866v1.33l-1.573 1.23v11.323H107v-11.323l-1.574-1.23v-1.33h7.817v1.33l-1.573 1.23v26.043l1.917 1.132v1.33h-8.406v-1.33l1.819-1.132v-12.061h-6.883v12.061l1.868 1.132v1.33H93.53v-1.33l1.869-1.132zm39.525-20.824v15.556c0 3.397 1.278 5.17 4.13 5.17 2.802 0 4.13-2.314 4.13-5.17v-15.556c0-2.856-1.279-5.12-4.13-5.12-2.852 0-4.13 1.723-4.13 5.12zm13.077 0v15.556c0 5.022-3.54 8.222-8.947 8.222-5.457 0-8.948-3.25-8.948-8.222v-6.744h-5.31V128.8l1.82 1.378v1.33h-8.407v-1.33l1.868-1.378v-25.797l-1.573-1.23v-1.33h7.866v1.33l-1.573 1.23v11.175h5.31v-5.956c0-4.924 3.49-8.222 8.947-8.222 5.407 0 8.947 3.25 8.947 8.222z"/><path d="M13 88c12.046-41.333 34.785-62 68.215-62 33.43 0 55.36 20.667 65.785 62"/><path d="M19.919 65.893l-1.546 3.9c-.117.295-.34.428-.67.398a8.847 8.847 0 01-1.188-.198c-.17-.027-.303-.135-.4-.323-.095-.188-.113-.36-.05-.516a4.65 4.65 0 00.309-1.276c.042-.435.08-.875.117-1.322.02-.152-.004-.257-.072-.314a1.038 1.038 0 00-.284-.157c-.723-.305-1.435-.6-2.135-.887a66.02 66.02 0 00-2.156-.835c-1.144-.41-2.272-.82-3.386-1.23a611.36 611.36 0 00-3.386-1.229 1.497 1.497 0 00-.323-.097 5.263 5.263 0 00-.584-.2.708.708 0 00-.372-.012.725.725 0 00-.304.196c-.1.101-.23.25-.389.448l-1.222 1.563a1.161 1.161 0 01-.347.269c-.125.06-.278.066-.458.014a.879.879 0 00-.232-.06 3.098 3.098 0 01-.242-.036c-.303-.1-.49-.223-.561-.372-.072-.148-.041-.367.093-.654.365-.819.723-1.634 1.075-2.447.353-.814.711-1.63 1.076-2.448.027-.069.057-.132.09-.19.033-.057.063-.12.09-.19.169-.474.347-.95.536-1.427.189-.476.367-.952.535-1.427.162-.457.315-.718.46-.78.146-.063.448-.014.907.146.295.117.496.256.603.418.106.163.136.405.089.727-.04.305-.094.604-.16.899-.067.294-.12.594-.16.899a21.5 21.5 0 00-.156.885c-.029.2-.012.347.051.442.063.094.177.174.342.24l3.559 1.402c.087.035.18.066.278.095.1.03.192.061.28.095.225.09.383.021.472-.204.29-.628.542-1.265.758-1.911.216-.647.463-1.296.741-1.948.179-.45.368-.902.567-1.354.2-.453.375-.92.526-1.402.113-.336.23-.67.352-1.003.122-.333.23-.67.326-1.014.251-.582.461-1.086.63-1.51.168-.425.313-.819.437-1.18l.345-1.022c.106-.32.23-.681.37-1.087.13-.229.177-.396.138-.501-.038-.106-.188-.21-.449-.313a161.222 161.222 0 00-3.968-1.624c-.312-.124-.523-.162-.633-.114-.109.047-.26.213-.453.497-.162.257-.308.51-.437.76s-.266.506-.41.77c-.17.274-.352.457-.55.55-.197.093-.45.098-.76.016a3.35 3.35 0 01-.923-.334c-.26-.102-.31-.282-.148-.539a4.68 4.68 0 00.57-1.173c.136-.418.266-.833.389-1.245.068-.274.167-.535.296-.785.129-.25.25-.493.364-.729.048-.12.103-.234.165-.34.062-.106.108-.223.14-.351l.854-2.158c.11-.278.221-.545.333-.801.112-.257.238-.538.38-.843.102-.26.194-.404.276-.432.081-.028.261.013.54.123.138.054.275.114.411.177.136.064.273.123.412.177.289.134.475.273.559.416.084.143.084.37.002.678-.085.367-.178.716-.279 1.047-.101.33-.203.677-.305 1.037-.059.197-.076.33-.053.4.022.069.126.15.31.243a28.341 28.341 0 001.674.72 296.71 296.71 0 015.224 1.879c.684.25 1.362.517 2.033.801.671.285 1.354.564 2.05.838.19.076.392.15.604.224.212.073.422.151.63.233.314.123.57.034.77-.268.252-.381.514-.764.787-1.148.272-.383.534-.766.786-1.148.117-.194.25-.327.4-.398.148-.072.334-.084.556-.036.104.04.214.069.328.084.115.015.216.04.303.074.34.154.545.31.613.467.069.157.043.413-.077.766a48.598 48.598 0 01-1.216 3.068l-1.134 2.71c-.375.894-.744 1.801-1.108 2.72a1.095 1.095 0 01-.22.364c-.085.087-.224.122-.419.106a18.37 18.37 0 00-.549-.022 3.45 3.45 0 01-.591-.067c-.455-.12-.621-.436-.498-.948.05-.28.107-.564.17-.85.063-.286.13-.565.197-.84.041-.204.077-.42.107-.649.03-.228.057-.448.08-.66.038-.245-.065-.416-.309-.512a4.712 4.712 0 01-.591-.218 4.712 4.712 0 00-.592-.218c-.51-.182-1.029-.37-1.554-.568a31.778 31.778 0 00-1.563-.541 10.962 10.962 0 00-.555-.159c-.138-.034-.25-.028-.339.017-.088.045-.164.136-.228.271a4.869 4.869 0 00-.213.577c-.103.36-.217.711-.342 1.053-.125.341-.24.692-.342 1.053-.127.37-.248.739-.362 1.104-.115.366-.236.734-.363 1.105-.285.77-.575 1.527-.87 2.272l-.897 2.262-.252.788c-.082.258-.175.517-.278.777a69.801 69.801 0 01-1.082 2.58c-.076.19-.104.325-.084.402.019.078.124.155.315.23a178.611 178.611 0 004.192 1.593c.296.116.49.147.58.093.093-.054.232-.214.418-.482.245-.364.485-.716.72-1.054.234-.338.474-.69.718-1.054a.616.616 0 01.19-.136c.088-.045.167-.054.237-.027.257.061.508.125.753.192.245.066.489.147.732.243.052.02.097.074.133.158a.806.806 0 01.066.252 2.45 2.45 0 01-.158.629l-1.556 3.926-.026-.01zm18.5-51.903c-.432.23-.837.44-1.215.632-.378.192-.76.387-1.145.585a.792.792 0 00-.216.131.792.792 0 01-.216.131c-.236.118-.416.162-.538.133-.122-.029-.27-.153-.445-.373a15.13 15.13 0 00-.386-.532 15.13 15.13 0 01-.386-.533c-.116-.169-.075-.322.125-.46a32.054 32.054 0 012.381-1.554 17.037 17.037 0 002.318-1.647c.41-.327.822-.633 1.237-.92l1.246-.857c.369-.254.742-.494 1.12-.72.377-.226.75-.466 1.12-.72l2.182-1.57c.728-.524 1.45-1.055 2.167-1.594.123-.085.238-.198.344-.34.158-.198.27-.298.338-.3.067 0 .164.091.292.275.133.226.274.446.423.66.148.215.29.435.422.66.102.18.063.354-.115.522-.23.226-.45.45-.658.674-.21.223-.423.455-.642.696a2.897 2.897 0 01-.207.194.97.97 0 00-.19.216c-.087.105-.178.212-.272.322a.76.76 0 00-.177.36c-.01.052.053.117.186.195a3.606 3.606 0 01.622.455c.092.084.19.169.296.255.2.157.392.313.579.468.186.154.374.302.563.444l.65.47c.206.152.417.301.632.448.346.237.699.476 1.058.716.359.24.721.46 1.087.66.838.489 1.64 1 2.408 1.536a23.52 23.52 0 012.226 1.764c.2.157.4.307.602.451.202.144.402.295.602.452.373.31.783.344 1.23.104a90.365 90.365 0 00.94-.511c.226-.133.447-.274.662-.422.216-.148.442-.281.678-.399a.456.456 0 01.264-.062c.114 0 .194.019.241.054.19.142.37.295.54.46.172.166.313.346.425.54a.596.596 0 01.094.53 1.82 1.82 0 01-.27.544.784.784 0 01-.211.213l-.242.166a90.97 90.97 0 01-2.627 2.012 6.88 6.88 0 01-.815.545c-.293.167-.57.341-.832.521l-1.375 1.015c-.45.333-.896.674-1.336 1.022-.344.259-.662.308-.955.147a3.643 3.643 0 01-.436-.31 3.159 3.159 0 01-.383-.382c-.212-.24-.306-.441-.282-.605.023-.163.15-.357.379-.583.102-.116.206-.227.313-.335.107-.108.212-.22.314-.335.152-.173.308-.342.466-.507.158-.166.32-.34.489-.524.086-.105.178-.202.275-.291.097-.09.197-.192.298-.308.143-.188.207-.34.195-.457-.012-.116-.107-.237-.286-.363a32.283 32.283 0 00-1.25-.872c-.42-.278-.844-.563-1.274-.856-.24-.151-.463-.145-.668.019-.2.137-.393.276-.58.416-.187.14-.373.274-.558.4-.286.243-.58.474-.883.694-.302.22-.596.45-.882.692a45.552 45.552 0 01-2.63 1.811 45.552 45.552 0 00-2.63 1.81c-.22.175-.442.339-.665.492a12.43 12.43 0 00-.665.492c-.204.163-.279.384-.222.662.11.423.233.87.368 1.344.134.473.257.921.367 1.343.078.31.26.376.548.2a72.54 72.54 0 002.53-1.265c.195-.112.359-.089.49.07l.381.45c.122.144.236.292.342.445.206.266.298.463.274.593-.024.13-.161.292-.412.487a25.793 25.793 0 01-1.33.983 83.788 83.788 0 01-2.73 2.084 33.249 33.249 0 01-3.035 1.988c-.414.353-.8.37-1.158.05a3.824 3.824 0 01-.376-.421c-.114-.148-.23-.307-.346-.475-.032-.046-.04-.115-.023-.205.017-.091.038-.168.063-.23.136-.23.3-.428.492-.594l.575-.497c.191-.166.372-.348.543-.544a2.13 2.13 0 00.403-.77 1.79 1.79 0 00.235-1.385 43.51 43.51 0 00-.679-2.285 26.742 26.742 0 01-.64-2.277c-.116-.463-.23-.923-.34-1.379a31.99 31.99 0 00-.365-1.363c-.1-.474-.23-.973-.39-1.498a43.33 43.33 0 01-.445-1.579 49.448 49.448 0 01-.375-1.525c-.111-.49-.189-.946-.232-1.37zm10.648 2.147a53.697 53.697 0 012.021-1.46c.19-.153.184-.308-.015-.465a2.062 2.062 0 01-.197-.136c-.88-.617-1.753-1.222-2.618-1.815a343.951 343.951 0 01-2.62-1.815 7.675 7.675 0 00-.243-.155c-.078-.048-.16-.1-.243-.155-.262-.182-.54-.173-.832.028-.517.402-1.031.79-1.544 1.165l-1.56 1.142a.66.66 0 00-.253.718c.083.283.169.563.26.84.09.279.17.551.242.82.194.771.384 1.546.57 2.324.186.778.376 1.553.57 2.325.05.237.106.448.166.634.07.2.157.316.258.348.102.032.24-.023.414-.165a347.553 347.553 0 012.988-2.278c.88-.663 1.76-1.296 2.636-1.9zm68.951 12.237a669.28 669.28 0 00-8.923-5.714l-8.968-5.644c-.43-.23-.648-.556-.655-.98a1.672 1.672 0 01.407-1.134c.112-.105.227-.148.347-.127.12.021.237.046.351.075a164.284 164.284 0 002.05.642c.09.035.168.068.236.1.068.033.152.058.25.077.271.062.477-.017.617-.237l1.984-3.112c.29-.456.577-.898.86-1.325.284-.427.563-.874.838-1.34.49-.837 1.012-1.719 1.57-2.646.557-.926 1.086-1.816 1.585-2.67.155-.277.228-.462.221-.555-.007-.093-.132-.26-.376-.504a35.324 35.324 0 00-.662-.604c-.22-.195-.448-.401-.686-.62a5.696 5.696 0 00-.361-.345c-.135-.12-.168-.267-.1-.444.073-.22.173-.427.298-.623a8.58 8.58 0 01.407-.586c.02-.032.104-.034.252-.005.148.028.267.059.356.093 1.232.675 2.38 1.36 3.441 2.059a92.688 92.688 0 003.326 2.084c.362.23.567.439.616.624.048.186-.051.454-.298.805-.216.305-.394.49-.535.554-.141.065-.392.05-.751-.047-.22-.073-.437-.14-.654-.2a5.635 5.635 0 01-.614-.21 11.23 11.23 0 00-.467-.18.483.483 0 00-.3-.026.455.455 0 00-.225.172c-.068.089-.157.22-.267.393a329.54 329.54 0 01-1.748 2.715l-1.594 2.45a272.06 272.06 0 00-1.477 2.29l-1.405 2.205a13.509 13.509 0 00-.614 1.067c-.094.183-.128.305-.1.367.027.061.117.163.27.305 1.273.854 2.506 1.684 3.7 2.488a67.69 67.69 0 003.287 2.093c.3.19.525.323.677.398.152.074.28.1.382.077.103-.022.199-.11.286-.265.087-.155.216-.365.386-.633a247.845 247.845 0 015.68-8.912 7.296 7.296 0 00.795-1.35c.139-.287.203-.484.193-.59-.01-.106-.121-.27-.333-.494L121 9.822a12.936 12.936 0 00-.587-.54c-.28-.221-.437-.41-.471-.564-.035-.155.022-.383.171-.686.045-.105.095-.21.153-.318.057-.107.128-.21.214-.31.202-.247.366-.375.493-.383.127-.007.3.06.521.2a69.925 69.925 0 003.763 2.362c1.22.71 2.392 1.49 3.514 2.337.063.04.115.106.156.198.04.093.046.162.016.21-.143.328-.356.68-.638 1.052-.11.173-.303.216-.58.128a21.208 21.208 0 00-1.361-.42 48.068 48.068 0 01-1.377-.395c-.286-.072-.52.033-.7.316a210.46 210.46 0 00-3.25 4.941 622.275 622.275 0 00-3.139 4.978c-.12.189-.235.387-.344.593a1.47 1.47 0 00-.182.597.374.374 0 00.089.305c.071.079.154.148.25.209.094.06.19.116.29.168.1.053.197.11.292.17a82.499 82.499 0 003.373 2.164 80.067 80.067 0 013.327 2.134c.173.11.305.156.395.136.09-.02.196-.124.316-.313.246-.351.48-.71.703-1.077a59.1 59.1 0 00.656-1.107 30.1 30.1 0 011.116-1.725 22.07 22.07 0 001.108-1.764c.225-.387.478-.811.761-1.272.283-.461.566-.932.851-1.414.285-.481.569-.953.851-1.413.283-.461.537-.885.761-1.273a.641.641 0 00.121-.32c.001-.088-.052-.188-.158-.3a25.01 25.01 0 00-1.636-1.605c-.226-.166-.28-.344-.16-.532.095-.183.189-.356.281-.518.092-.162.189-.322.289-.479.09-.141.168-.246.234-.315.066-.068.128-.106.188-.112.06-.007.137.01.234.05.097.039.224.109.381.21.694.44 1.342.859 1.944 1.253.602.394 1.182.77 1.742 1.126l3.322 2.115c.174.11.271.2.294.27.022.07-.006.2-.085.393a4.66 4.66 0 00-.169.29c-.052.1-.108.197-.168.291-.08.126-.151.263-.213.412-.061.148-.138.226-.231.233-.17.024-.342.015-.514-.028a5.092 5.092 0 01-.5-.154 17.872 17.872 0 01-1.05-.386c-.335-.136-.68-.273-1.036-.41-.235-.084-.422-.016-.562.205a234.727 234.727 0 01-3.578 5.743c-1.21 1.88-2.3 3.65-3.268 5.31-.16.252-.15.479.03.682.138.132.266.27.386.412.12.142.261.277.425.403.38.308.662.664.847 1.07.115.271.107.51-.023.714a1.324 1.324 0 00-.19.244 5.827 5.827 0 01-.404.505.7.7 0 01-.298.207c-.096.028-.211.01-.348-.055a5.59 5.59 0 01-.558-.323 86.344 86.344 0 01-2.278-1.433 271.4 271.4 0 00-2.262-1.457 95.34 95.34 0 00-2.903-1.782 85.46 85.46 0 01-2.62-1.601zM141.5 62.257l2.263 4.966.101.23c.174.352.312.551.414.599.102.047.343.039.723-.025l1.191-.212c.397-.07.786-.138 1.166-.201.27-.036.453-.024.55.035.098.06.19.213.278.46.095.263.163.467.206.611a.557.557 0 01.006.364.626.626 0 01-.247.275 5.853 5.853 0 01-.563.32 39.9 39.9 0 01-1.757.84 39.9 39.9 0 00-1.758.84l-.513.223a3.04 3.04 0 00-.505.28c-.165.112-.313.157-.446.133-.108-.014-.177-.055-.207-.124a1.294 1.294 0 01-.075-.242 3.058 3.058 0 01-.048-.284.884.884 0 00-.062-.247 36.4 36.4 0 01-1.404-3.036 44.437 44.437 0 00-1.378-3.047 59.833 59.833 0 01-1.338-2.85c-.415-.949-.84-1.898-1.275-2.848-.204-.42-.383-.84-.537-1.261a53.84 53.84 0 00-.485-1.284c-.287-.75-.59-1.488-.907-2.215a11.25 11.25 0 00-1.178-2.065c-.233-.347-.314-.627-.245-.84.07-.213.29-.41.659-.591l.385-.167c.189-.082.34-.143.456-.183a.553.553 0 01.309-.027c.09.021.186.076.286.165.1.089.217.216.35.382.26.314.521.633.785.955.263.323.525.642.784.956.198.22.334.343.408.372.074.03.239-.012.496-.124a87.7 87.7 0 001.471-.654c.485-.22.975-.439 1.472-.655.644-.3 1.297-.599 1.962-.897a54.322 54.322 0 001.95-.924c.584-.294 1.175-.587 1.772-.876.597-.29 1.187-.582 1.772-.877.051-.022.1-.049.148-.08a.367.367 0 01.16-.054c.662-.165.947-.584.857-1.256a1.287 1.287 0 01.008-.4c.024-.133.035-.27.034-.412a6.096 6.096 0 01.033-.73 1.155 1.155 0 00-.182-.73.375.375 0 01.02-.375c.31-.501.745-.812 1.304-.933a.522.522 0 01.179.06c.077.037.115.077.113.119a36.792 36.792 0 001.777 4.414c.686 1.43 1.339 2.875 1.957 4.335a118.59 118.59 0 002.085 4.769c.276.632.563 1.255.862 1.867.298.613.594 1.232.888 1.857a26.161 26.161 0 01.861 2.25c.117.314.139.549.064.704-.076.154-.276.302-.601.444a191.126 191.126 0 01-4.165 1.87l-.283.123a.796.796 0 01-.344-.019c-.095-.03-.151-.112-.17-.247a2.417 2.417 0 00-.5-1.216c-.033-.026-.035-.091-.01-.194a.429.429 0 01.106-.214 6.35 6.35 0 001.03-.966c.303-.355.618-.695.945-1.02.229-.222.275-.465.139-.731-.152-.3-.284-.579-.396-.835a12.598 12.598 0 01-.31-.78 13.476 13.476 0 00-.334-.832 26.06 26.06 0 00-.474-1.014 13.534 13.534 0 01-.493-1.128 27.072 27.072 0 00-.467-1.14c-.346-.744-.686-1.486-1.02-2.226-.333-.74-.673-1.482-1.019-2.226a.728.728 0 01-.115-.194c-.169-.293-.292-.458-.37-.496-.077-.037-.266.02-.567.17l-1.763.827c-.584.274-1.168.558-1.752.853-.189.082-.295.164-.32.246-.026.082.003.217.085.405a57.25 57.25 0 001.071 2.31c.217.496.424.981.62 1.455.198.473.413.954.647 1.443.216.495.44.983.67 1.463l.696 1.451c.15.342.197.58.144.715-.053.135-.235.29-.545.466l-.466.263c-.147.084-.298.18-.454.29-.286.185-.512.252-.676.201-.165-.05-.327-.234-.486-.551-.443-.967-.868-1.926-1.274-2.879-.406-.952-.83-1.911-1.274-2.878a19.723 19.723 0 01-.528-1.174c-.163-.397-.34-.788-.528-1.174-.152-.3-.271-.467-.357-.5-.086-.034-.275.012-.566.138a153.555 153.555 0 00-3.78 1.703 2.805 2.805 0 00-.413.21.365.365 0 00-.16.192.47.47 0 00.03.277c.04.115.1.266.182.454.384.83.752 1.661 1.106 2.494.354.833.714 1.668 1.08 2.505l-.026.011z"/><g><path d="M69.948 53.758l-.024-.026.519-.658-8.105-8.493.381-.441 8.645 8.073.45-.732-8.1-8.332.309-.375c6.228 5.269 9.81 8.416 10.745 9.44 1.402 1.535 1.763 3.09 1.763 4.713 0 1.083.274 1.874.82 2.374l1.196 1.203-.592.634.048.045-1.273 1.19-1.202-1.196c-.5-.547-1.292-.82-2.374-.82-1.624 0-3.18-.362-4.714-1.764-1.024-.935-4.17-4.516-9.44-10.745l.375-.308 8.332 8.099.733-.45-8.074-8.645.441-.38 8.493 8.104.648-.51z"/><path d="M77.64 59.468l-2.194 1.943 19.706 20.152c1.295 1.487 2.565 1.571 3.812.253 1.246-1.317 1.246-2.428 0-3.332L77.639 59.468zm.2 8.564l2.193 1.943-11.613 12.72c-1.295 1.486-2.565 1.571-3.811.253s-1.246-2.428 0-3.332L77.84 68.032zm8.326-4.528l-1.459-1.602c1.251-1.521 1.876-2.995 1.876-4.42 0-2.139.216-8.07 5.03-11.568 4.814-3.499 9.097-.488 10.004.43.906.919 3.319 5.61.356 10.15-2.963 4.539-9.006 4.933-11.2 4.933-1.462 0-2.998.693-4.607 2.077z"/></g><path d="M43.567 67.113c0 1.75-2.59 3.169-5.783 3.169-3.195 0-5.784-1.419-5.784-3.17m11.567 1.058c0-1.751 2.59-3.17 5.784-3.17s5.783 1.419 5.783 3.17m11.568-1.057c0 1.75-2.59 3.169-5.784 3.169s-5.784-1.419-5.784-3.17" stroke-width="1.18"/><g stroke-width="1.18"><path d="M106.567 67.113c0 1.75-2.59 3.169-5.783 3.169-3.195 0-5.784-1.419-5.784-3.17m11.567 1.058c0-1.751 2.59-3.17 5.784-3.17s5.783 1.419 5.783 3.17M129.702 67.113c0 1.75-2.59 3.169-5.784 3.169s-5.784-1.419-5.784-3.17"/></g><path d="M83.387 25.067c-1.75 0-3.169-2.59-3.169-5.783 0-3.195 1.419-5.784 3.17-5.784M82.33 25.067c1.751 0 3.17 2.59 3.17 5.784s-1.419 5.783-3.17 5.783m1.057 11.568c-1.75 0-3.169-2.59-3.169-5.784s1.419-5.784 3.17-5.784" stroke-width="1.18"/><g stroke-width="1.18"><path d="M83.387 101.067c-1.75 0-3.169-2.59-3.169-5.783 0-3.195 1.419-5.784 3.17-5.784m-1.058 11.567c1.751 0 3.17 2.59 3.17 5.784s-1.419 5.783-3.17 5.783M83.387 124.202c-1.75 0-3.169-2.59-3.169-5.784s1.419-5.784 3.17-5.784"/></g></g></symbol><symbol viewBox="0 0 176 131" id="nashi_akcii" xmlns="http://www.w3.org/2000/svg"><g fill-rule="evenodd"><path d="M30.547 116.984l-1.438 6.096 1.487.843v1.437H24.5v-1.437l1.586-.892c2.18-9.169 4.659-19.973 6.939-29.092h4.807l7.137 28.943 1.586 1.04v1.438h-7.831v-1.19l1.289-1.04-1.438-6.146h-8.028zm4.014-17.346h-.05c-.941 3.866-2.23 9.516-3.37 14.67h6.79l-3.37-14.67zm34.196-5.55v1.784c-1.536 0-1.932.793-2.478 2.23-.842 2.23-2.478 9.516-4.212 10.11v.1c2.23.198 3.469 3.023 4.064 5.847l1.387 6.493c.298 1.387 1.24 2.874 2.528 2.577l-.05 1.834c-.842.495-2.18.594-2.973.594-2.924.05-3.965-1.784-4.46-4.311l-1.29-6.245c-.544-2.726-1.486-4.956-4.212-4.956h-1.338v12.49l1.933 1.387v1.338h-8.524v-1.338l1.883-1.388v-25.97l-1.636-1.238v-1.338h7.93v1.338l-1.586 1.239v10.853c5.898 0 3.42-12.191 9.516-13.331 1.14-.198 2.428-.05 3.518-.1zm18.09 2.478l-1.883-1.14v-1.338h8.524v1.338l-1.933 1.14v25.92h2.676l.397 7.582h-2.429l-1.387-4.708H73.565v-1.338l1.586-1.24V96.567l-1.884-1.14v-1.338h8.475v1.338l-1.834 1.14v26.019h6.939v-26.02zm23.937-1.14v-1.289h7.88v1.289l-1.536 1.239v25.97l1.834 1.436v1.289h-8.475v-1.289l1.883-1.437c0-6.294-.05-13.58-.05-19.824l-1.734 5.7-5.402 14.174 1.784 1.387v1.289h-8.475v-1.289l1.834-1.437v-25.97l-1.536-1.238v-1.289h7.88v1.289l-1.537 1.239v20.418l1.685-5.6 5.551-14.72a44.905 44.905 0 00-1.586-1.337zm25.226 0v-1.289h7.88v1.289l-1.536 1.239v25.97l1.834 1.436v1.289h-8.475v-1.289l1.883-1.437c0-6.294-.05-13.58-.05-19.824l-1.734 5.7-5.402 14.174 1.784 1.387v1.289h-8.475v-1.289l1.834-1.437v-25.97l-1.536-1.238v-1.289h7.88v1.289l-1.537 1.239v20.418l1.686-5.6 5.55-14.72a44.67 44.67 0 00-1.586-1.337z"/><path d="M16.92 81.9C29.013 39.42 51.84 18.18 85.4 18.18s55.574 21.24 66.04 63.72"/><path d="M22.483 67.596l-1.86 3.82c-.14.288-.375.404-.705.349a8.916 8.916 0 01-1.18-.292c-.17-.04-.296-.159-.378-.356-.082-.198-.086-.373-.012-.526a4.72 4.72 0 00.41-1.265c.076-.435.15-.877.22-1.326.033-.152.017-.26-.047-.322a1.048 1.048 0 00-.274-.18 203.96 203.96 0 00-2.083-1.061 64.646 64.646 0 00-2.107-1.01 509.79 509.79 0 01-3.315-1.503c-1.09-.5-2.196-1-3.316-1.504a1.51 1.51 0 00-.318-.123 5.308 5.308 0 00-.572-.247.713.713 0 00-.374-.04.732.732 0 00-.321.174c-.11.094-.251.235-.427.423L4.472 64.09c-.117.111-.24.193-.37.245-.13.052-.285.045-.463-.02a.886.886 0 00-.229-.08 3.122 3.122 0 01-.241-.055c-.297-.123-.476-.263-.537-.418-.06-.156-.012-.374.145-.654.43-.798.855-1.595 1.273-2.389.418-.794.842-1.59 1.273-2.388.033-.068.068-.13.105-.185.038-.055.073-.117.106-.185a41.7 41.7 0 01.65-1.4 41.7 41.7 0 00.65-1.4c.198-.45.372-.7.524-.753.151-.052.452.02.901.218.289.14.48.297.575.47.095.171.106.418.034.74a10.86 10.86 0 01-.231.895c-.09.292-.167.59-.232.896-.105.39-.18.683-.224.882-.045.2-.039.349.017.45.056.1.165.19.326.269L12 60.919c.085.041.176.08.273.118.098.036.19.076.274.117.22.107.385.05.492-.17.34-.612.643-1.236.911-1.872.268-.636.567-1.272.898-1.91.215-.44.44-.882.676-1.324.236-.441.448-.9.637-1.374.14-.331.285-.66.433-.987.149-.326.284-.66.407-.998a57.5 57.5 0 00.75-1.478c.203-.415.38-.802.533-1.158.152-.356.295-.691.426-1.005.132-.314.284-.67.457-1.069.15-.221.21-.386.179-.496-.03-.11-.174-.226-.428-.35a162.641 162.641 0 00-3.872-1.947c-.305-.149-.515-.203-.628-.164-.114.04-.279.195-.496.468-.183.246-.349.49-.498.733-.15.242-.307.491-.474.746-.191.264-.39.435-.596.513-.206.078-.461.064-.766-.042a3.38 3.38 0 01-.904-.408c-.255-.124-.29-.31-.107-.557.274-.349.496-.729.665-1.14.169-.412.331-.82.487-1.228.09-.271.21-.528.36-.77.149-.242.29-.478.422-.707.058-.12.122-.23.193-.332.07-.102.126-.217.167-.344l1.029-2.113c.132-.272.264-.533.397-.783.132-.25.281-.525.447-.822.124-.255.228-.393.312-.415.084-.022.262.033.534.165.136.066.27.137.401.211.132.075.266.145.401.211.28.158.458.312.53.463.074.151.058.38-.049.685-.114.364-.235.71-.362 1.036-.128.326-.257.667-.388 1.024-.074.195-.102.328-.085.4.018.071.116.16.295.269a28.59 28.59 0 001.63.856 299.236 299.236 0 015.116 2.301c.67.305 1.333.627 1.987.967.653.339 1.32.674 1.999 1.004.187.091.384.182.592.272.208.091.413.186.617.285.306.149.57.078.796-.211.283-.366.577-.732.88-1.099.305-.366.599-.732.882-1.098.133-.188.278-.312.433-.372.156-.061.344-.059.564.006.102.05.21.087.324.11.114.025.214.058.299.099.33.182.525.355.581.52.057.163.011.42-.137.767a49.305 49.305 0 01-1.462 3.005l-1.352 2.649c-.447.874-.89 1.761-1.327 2.661a1.11 1.11 0 01-.25.351c-.092.081-.235.106-.43.074a17.79 17.79 0 00-.551-.063 3.476 3.476 0 01-.59-.114c-.45-.156-.592-.488-.429-.996.073-.28.152-.561.238-.845.086-.284.173-.561.263-.833.057-.203.11-.419.158-.647.048-.229.092-.449.132-.66.057-.246-.034-.426-.272-.542a4.752 4.752 0 01-.579-.266 4.752 4.752 0 00-.579-.266c-.5-.223-1.007-.454-1.52-.693a32.047 32.047 0 00-1.534-.668c-.23-.09-.411-.158-.547-.203-.136-.045-.25-.048-.342-.009-.093.04-.176.125-.25.256a4.94 4.94 0 00-.26.567 15.14 15.14 0 01-.426 1.036c-.153.336-.295.681-.426 1.037-.157.365-.307.728-.45 1.088-.145.36-.295.723-.452 1.088-.346.755-.697 1.498-1.052 2.228l-1.078 2.215-.315.776c-.103.254-.216.509-.34.764a70.812 70.812 0 01-1.29 2.521c-.091.187-.13.32-.116.4.013.08.113.166.3.257a180.16 180.16 0 004.1 1.932c.288.14.48.187.577.14.096-.048.249-.2.457-.455.275-.35.544-.686.806-1.01.263-.323.532-.66.807-1.009a.623.623 0 01.2-.122c.093-.04.174-.042.241-.01.255.083.503.166.744.253.242.086.481.186.719.302.05.025.092.081.122.17.03.088.046.175.047.259-.04.211-.11.42-.208.623l-1.872 3.845-.025-.012zM53.409 9.11a78.6 78.6 0 01-1.352.296l-1.272.268a.8.8 0 00-.245.071.8.8 0 01-.245.072c-.262.052-.448.048-.56-.013-.111-.06-.223-.222-.335-.483a15.324 15.324 0 00-.235-.623c-.08-.201-.159-.409-.234-.622-.07-.196.012-.335.244-.417a32.374 32.374 0 012.734-.888c.921-.255 1.82-.587 2.697-.996.486-.211.97-.401 1.45-.57l1.443-.51c.427-.15.855-.286 1.283-.406.427-.121.855-.257 1.282-.407l2.546-.957c.848-.32 1.693-.647 2.536-.984.142-.05.284-.13.425-.24.207-.153.343-.221.409-.204.066.016.137.132.212.345.07.256.149.508.237.758.088.249.167.501.237.757.05.202-.033.362-.252.479-.284.16-.557.321-.82.484-.263.163-.533.333-.811.511a2.93 2.93 0 01-.253.134 1.04 1.04 0 00-.244.161c-.112.08-.228.16-.35.244a.77.77 0 00-.267.304c-.023.048.02.128.13.24a3.642 3.642 0 01.484.61c.068.106.141.215.221.327.153.207.3.41.44.61.141.201.285.396.431.585.177.217.346.428.508.631.162.204.328.405.499.605.274.324.554.65.84.98.287.33.582.641.885.934a35.496 35.496 0 011.94 2.14 23.746 23.746 0 011.701 2.313c.153.206.309.406.467.6.159.195.314.395.467.602.282.401.672.544 1.172.428a91.205 91.205 0 001.052-.251c.256-.07.508-.15.758-.237a5.6 5.6 0 01.766-.21.46.46 0 01.274.009c.11.03.185.07.221.117.147.188.282.386.404.593.123.207.214.42.271.64a.605.605 0 01-.049.543 1.845 1.845 0 01-.408.46.793.793 0 01-.262.151l-.28.1a91.939 91.939 0 01-3.096 1.27c-.296.125-.61.23-.94.316-.33.087-.646.183-.948.29l-1.61.627a51.17 51.17 0 00-1.575.645c-.403.162-.727.126-.97-.109a3.68 3.68 0 01-.342-.42 3.196 3.196 0 01-.273-.474c-.142-.29-.18-.512-.114-.665.066-.153.24-.31.525-.47.13-.086.261-.167.394-.244.133-.077.265-.159.395-.245.194-.128.39-.252.589-.372.198-.12.403-.248.616-.383.112-.08.227-.15.346-.211a4.22 4.22 0 00.372-.222c.189-.146.292-.278.311-.395.02-.116-.042-.26-.182-.431a31.364 31.364 0 00-.987-1.183c-.335-.383-.673-.774-1.015-1.174-.194-.212-.413-.265-.656-.16a19.59 19.59 0 00-.677.254c-.22.087-.436.169-.65.244-.343.161-.691.309-1.044.443a15.66 15.66 0 00-1.045.444c-1.02.4-2.035.757-3.045 1.073-1.01.316-2.025.673-3.045 1.073-.26.112-.52.213-.778.304a12.56 12.56 0 00-.779.305c-.243.105-.374.302-.393.588-.004.442-.004.913.002 1.411.005.499.006.969.001 1.41-.006.323.154.437.481.342a73.205 73.205 0 002.803-.567c.22-.058.373.008.46.198.087.19.17.37.251.542.08.172.152.347.215.525.13.314.167.531.11.652-.058.12-.235.242-.531.367a26.066 26.066 0 01-1.558.609c-.972.422-2.043.86-3.215 1.313a33.582 33.582 0 01-3.487 1.139c-.498.235-.878.15-1.142-.258a3.87 3.87 0 01-.255-.51 11.953 11.953 0 01-.211-.557c-.019-.054-.008-.122.032-.207.04-.084.081-.153.122-.208a2.42 2.42 0 01.637-.45l.693-.334c.231-.111.456-.24.674-.388.219-.147.418-.362.598-.646a1.81 1.81 0 00.596-1.29 44.161 44.161 0 00-.054-2.414 27.144 27.144 0 01-.019-2.395c.01-.484.02-.963.034-1.438.013-.475.015-.952.007-1.43.027-.49.033-1.012.018-1.567a43.98 43.98 0 01-.015-1.661c.005-.553.019-1.083.04-1.59.021-.509.067-.975.137-1.4zm9.811 4.92a54.249 54.249 0 012.358-.891c.226-.1.262-.253.11-.46a2.083 2.083 0 01-.156-.185 347.463 347.463 0 00-2.071-2.468 308.21 308.21 0 01-2.07-2.468 7.75 7.75 0 00-.197-.216 7.751 7.751 0 01-.196-.216c-.208-.247-.48-.311-.819-.192a70.68 70.68 0 01-1.815.73l-1.824.703a.67.67 0 00-.437.634c.005.298.015.595.029.89.014.296.02.584.02.865a222.17 222.17 0 01-.062 2.424c-.025.81-.046 1.617-.062 2.424a6.472 6.472 0 00-.007.662c.016.215.069.352.16.41.09.058.24.04.447-.053a351.22 351.22 0 013.517-1.435 77.608 77.608 0 013.075-1.158zm45.48 11.39a674.425 674.425 0 00-10.225-3.171l-10.249-3.09c-.48-.108-.78-.369-.9-.78a1.7 1.7 0 01.091-1.217c.08-.133.182-.206.304-.218a4.97 4.97 0 01.363-.022 165.543 165.543 0 002.17.075c.095.01.18.02.255.034.075.013.163.015.265.007.28-.013.46-.145.537-.398l1.098-3.573c.16-.524.322-1.032.483-1.526.162-.493.314-1.004.457-1.533.252-.95.525-1.952.82-3.007.295-1.055.57-2.066.829-3.034.076-.312.098-.513.066-.602-.032-.089-.2-.22-.502-.391a34.3 34.3 0 00-.807-.411c-.266-.131-.544-.27-.834-.42a5.743 5.743 0 00-.445-.24c-.163-.08-.235-.215-.215-.407a2.85 2.85 0 01.122-.688c.07-.225.15-.453.24-.682.01-.036.092-.06.244-.073a2.11 2.11 0 01.372-.004c1.381.326 2.683.686 3.904 1.081a93.4 93.4 0 003.798 1.138c.416.127.671.275.768.443.096.168.072.457-.074.866-.129.356-.253.584-.373.685-.12.102-.368.154-.744.157a13.685 13.685 0 00-.69-.02c-.228 0-.446-.013-.656-.038a9.827 9.827 0 00-.502-.05.487.487 0 00-.3.055.461.461 0 00-.173.228 6.199 6.199 0 00-.155.457 368.55 368.55 0 01-.974 3.122l-.897 2.82c-.286.9-.56 1.779-.824 2.636l-.778 2.531a13.72 13.72 0 00-.312 1.208c-.043.204-.043.332 0 .385.044.053.159.128.346.225 1.469.49 2.893.967 4.271 1.43a67.01 67.01 0 003.763 1.157c.343.105.598.174.766.206.168.032.3.022.394-.028.094-.05.163-.162.207-.336a14.6 14.6 0 01.207-.721 251.702 251.702 0 013.144-10.233 7.41 7.41 0 00.412-1.533c.058-.318.068-.527.03-.628-.039-.1-.19-.231-.457-.392l-.709-.395a11.64 11.64 0 00-.716-.369c-.332-.141-.535-.282-.61-.424-.075-.142-.08-.38-.017-.716.015-.114.036-.231.063-.351.027-.12.07-.24.126-.361.13-.296.256-.465.378-.507.121-.041.308-.023.56.054 1.488.497 2.92.927 4.3 1.292a35.65 35.65 0 014.05 1.333c.071.022.14.073.204.152.065.079.089.145.072.2a5.32 5.32 0 01-.339 1.2c-.06.198-.238.291-.53.28-.485-.03-.965-.044-1.44-.042-.474.002-.956-.003-1.446-.015-.299.007-.498.173-.598.498a213.727 213.727 0 00-1.84 5.7 631.953 631.953 0 00-1.724 5.707 8.7 8.7 0 00-.177.672 1.485 1.485 0 00-.016.632c.02.125.076.216.167.273.091.058.191.103.3.137.108.033.217.062.328.086.111.024.221.053.33.086 1.324.447 2.613.848 3.866 1.203a80.21 80.21 0 013.813 1.187c.199.06.34.07.422.026.082-.044.157-.174.223-.39.146-.41.278-.824.397-1.242.118-.418.232-.837.342-1.258.187-.673.395-1.335.625-1.985.229-.65.431-1.324.606-2.021.115-.439.248-.921.4-1.447.152-.527.302-1.063.45-1.61.148-.547.298-1.084.45-1.61.152-.526.285-1.008.4-1.447.045-.144.056-.26.033-.346-.023-.086-.101-.169-.235-.25a25.22 25.22 0 00-2.024-1.125c-.265-.101-.364-.26-.298-.477a12.205 12.205 0 01.287-1.126 2.07 2.07 0 01.144-.37c.045-.086.096-.14.153-.161a.516.516 0 01.241-.015c.105.012.248.046.428.102.794.244 1.537.477 2.23.7.691.222 1.358.432 1.998.629l3.804 1.168c.198.061.318.123.358.185.04.061.048.197.023.407a4.09 4.09 0 00-.086.329 4.09 4.09 0 01-.087.329 2.687 2.687 0 00-.096.459c-.02.162-.075.258-.164.29a1.34 1.34 0 01-.508.11c-.179.005-.355 0-.528-.014a18.01 18.01 0 01-1.127-.094 73.9 73.9 0 00-1.118-.121c-.251-.018-.416.1-.493.352a238.384 238.384 0 01-1.946 6.572 147.582 147.582 0 00-1.76 6.066c-.089.288-.018.508.213.658.17.091.331.19.486.297.155.107.329.2.522.279.452.198.823.47 1.112.816.185.234.24.469.169.703-.04.067-.08.164-.119.29a5.917 5.917 0 01-.259.602.71.71 0 01-.235.283c-.085.053-.203.066-.353.04a5.633 5.633 0 01-.63-.165c-.873-.248-1.74-.51-2.604-.785a259.64 259.64 0 00-2.594-.812 96.07 96.07 0 00-3.306-.956 86.115 86.115 0 01-2.981-.857zm42.069 46.14c.254 1.262.49 2.533.71 3.81l-1.991.819a236.162 236.162 0 01-1.5-3.425c-.373-.806-.735-1.612-1.086-2.417l-1.07-2.453a3.006 3.006 0 01-.243-.666c-.059-.241-.12-.491-.186-.75.282-.157.556-.31.821-.46l.795-.45c.426.54.834 1.06 1.225 1.564.39.502.81 1.029 1.261 1.578a490.35 490.35 0 016.028-2.432 60.037 60.037 0 005.882-2.71 1.708 1.708 0 01-.312-.239.627.627 0 00-.28-.16 62.374 62.374 0 00-.972-.351c-.334-.118-.774-.269-1.319-.453l-2.044-.69a611.31 611.31 0 00-3.124-1.043 2900.335 2900.335 0 01-10.871-3.614 3.609 3.609 0 01-.943-.47c-.274-.193-.495-.47-.663-.83-.402-.977-.81-1.942-1.222-2.896l-1.248-2.885a.878.878 0 01-.063-.342 4.97 4.97 0 00-.012-.362 6.38 6.38 0 01.768-.592c.258-.167.593-.244 1.007-.23.33.456.667.925 1.008 1.408.341.482.7.982 1.077 1.501.286-.097.56-.19.82-.276.26-.087.51-.189.746-.307l4.885-2.009c1.615-.664 3.24-1.342 4.874-2.034a4.45 4.45 0 01.346-.127c.109-.035.212-.082.31-.143.254-.125.446-.23.575-.313a.723.723 0 00.268-.278.841.841 0 00.067-.396 8.567 8.567 0 00-.054-.651c-.064-.504-.125-1-.182-1.487-.057-.487-.117-1.003-.178-1.55a96.117 96.117 0 001.72-.584 168.248 168.248 0 012.097 4.879 496.534 496.534 0 011.983 4.895c-.143.1-.274.18-.393.238a8.076 8.076 0 00-.376.201 5.649 5.649 0 01-.712.354.89.89 0 01-.475-.187 1.92 1.92 0 01-.324-.342 3.714 3.714 0 01-.257-.4 1.577 1.577 0 00-.271-.363 4.802 4.802 0 01-.625-.661 81.892 81.892 0 00-.604-.763 785.589 785.589 0 00-6.24 2.474 910.262 910.262 0 01-6.423 2.55c.535.208 1.024.405 1.468.59.443.185.883.362 1.32.53 2.695.994 5.53 1.941 8.502 2.842 2.973.9 5.967 1.864 8.982 2.89.323.092.56.245.709.459.15.214.278.452.385.714.276.621.548 1.245.815 1.87.267.625.521 1.255.762 1.89.173.42.33.84.473 1.261.142.421.275.831.398 1.23-.231.38-.505.62-.821.72-.317.1-.682.142-1.096.129-.298-.429-.607-.868-.925-1.32a79.312 79.312 0 00-.962-1.334 3.71 3.71 0 00-1.285.115 7.626 7.626 0 00-1.155.43c-.936.405-1.87.789-2.803 1.152-.932.363-1.867.747-2.802 1.152-.838.345-1.662.7-2.472 1.063s-1.645.742-2.503 1.136zM85.29 69.941l-9.187 5.733a2.36 2.36 0 01-3.535-2.592l2.66-10.306a2.36 2.36 0 00-.79-2.414l-8.26-6.773a2.36 2.36 0 011.346-4.18l10.775-.69a2.36 2.36 0 002.038-1.473l4.014-9.956a2.36 2.36 0 014.378 0l4.014 9.956a2.36 2.36 0 002.038 1.473l10.775.69a2.36 2.36 0 011.346 4.18l-8.26 6.773a2.36 2.36 0 00-.79 2.414l2.66 10.306a2.36 2.36 0 01-3.535 2.592l-9.188-5.733a2.36 2.36 0 00-2.498 0z"/><path stroke-width="1.18" d="M63.253 66.95l-10.833-.56-4.933 9.661-10.834-.558-4.933 9.661-10.833-.558-4.934 9.661L5.12 93.7m105.02-25.57l10.833-.559 4.934 9.661 10.833-.558 4.933 9.661 10.834-.558 4.933 9.661 10.833-.558m-51.395-49.362l6.536-8.658 10.572 2.431 6.536-8.658 10.571 2.431 6.536-8.657 10.572 2.43 6.536-8.657M59.097 44.338l-6.536-8.658-10.572 2.431-6.536-8.658-10.571 2.431-6.536-8.657-10.572 2.43L1.238 17"/></g></symbol><symbol viewBox="0 0 237 85" id="o_teremke" xmlns="http://www.w3.org/2000/svg"><g fill-rule="evenodd"><path d="M14 51.04c-.17-.02-.344-.038-.524-.057-.18-.019-.373-.038-.58-.057a64.399 64.399 0 00-1.784-.198 64.399 64.399 0 01-1.785-.198 19.11 19.11 0 01-1.968-.58c-.67-.237-1.307-.52-1.911-.85a11.6 11.6 0 01-1.686-1.119 6.758 6.758 0 01-1.316-1.388c-.265-.415-.52-.83-.765-1.246-.245-.415-.472-.84-.68-1.274a7.705 7.705 0 01-.538-2.04 9.172 9.172 0 01.496-4.347c.255-.688.6-1.316 1.033-1.882.699-.85 1.35-1.558 1.955-2.124a11.505 11.505 0 011.883-1.445 12.82 12.82 0 012.138-1.033c.774-.293 1.67-.581 2.69-.864.114-.038.232-.062.354-.071.123-.01.25-.024.383-.043a48.3 48.3 0 011.076-.099c.359-.028.717-.061 1.076-.099a3.963 3.963 0 011.076.029c1.87.245 3.535.585 4.999 1.02 1.463.433 2.704 1.042 3.724 1.826a7.996 7.996 0 012.379 2.973c.566 1.2.887 2.677.963 4.432.037 1.001-.038 1.912-.227 2.733a10.313 10.313 0 01-.75 2.195 8.441 8.441 0 01-1.02 1.643 8.907 8.907 0 01-1.005 1.076 12.03 12.03 0 01-.397.325 2.483 2.483 0 01-.425.27c-.34.207-.68.4-1.02.58-.339.18-.679.364-1.019.552a9.304 9.304 0 01-2.322.807 22.58 22.58 0 01-2.435.354c-.34.038-.675.071-1.006.1-.33.028-.684.06-1.062.099zm.652-17.7a9.05 9.05 0 01-.907.099c-.396.028-.812.061-1.246.099a20.99 20.99 0 00-1.53.297c-.433.104-.82.213-1.16.326a9.95 9.95 0 00-.92.354c-.274.123-.534.25-.78.382a9.58 9.58 0 01-.622.312 5.069 5.069 0 00-.623.34 7.014 7.014 0 00-1.077.793 3.924 3.924 0 00-.82 1.147c-.227.462-.435.892-.624 1.288-.378.85-.505 1.685-.382 2.506.122.822.325 1.648.609 2.478.075.227.23.468.467.723.236.254.495.495.779.722.283.226.576.43.878.609.302.179.557.316.764.41.416.17.911.34 1.487.51.576.17 1.175.316 1.798.439s1.251.222 1.884.297a8.967 8.967 0 001.713.057c.453-.019.868-.033 1.246-.042.378-.01.746-.038 1.105-.085.358-.048.708-.104 1.047-.17.34-.066.699-.166 1.077-.298a8.864 8.864 0 001.741-.92 7.987 7.987 0 001.53-1.331c.443-.5.788-1.043 1.033-1.629.246-.585.34-1.198.283-1.84v-.58c0-.18-.018-.364-.056-.553-.132-1.02-.364-1.874-.694-2.563a6.265 6.265 0 00-1.204-1.742 6.65 6.65 0 00-1.586-1.175 17.515 17.515 0 00-1.812-.836 4.245 4.245 0 00-1.515-.297 21.96 21.96 0 01-1.883-.127zm35.116 17.02h-3.823c-.245.019-.49.028-.736.028s-.491.02-.737.057c-.283.038-.476.019-.58-.057-.104-.075-.165-.255-.184-.538v-1.16c0-.303.17-.482.51-.539a67.797 67.797 0 001.557-.24c.51-.086 1.03-.175 1.558-.27l.425-.085c.207-.056.33-.108.368-.155.038-.048.066-.203.085-.468.056-2.077.085-4.101.085-6.074 0-1.973-.02-3.96-.057-5.962v-.17a16.225 16.225 0 01-.07-.82c-.01-.19-.057-.322-.142-.397-.085-.076-.232-.114-.44-.114h-.934a2.484 2.484 0 00-.595.014 4.008 4.008 0 01-.594.043c-.85.038-1.7.061-2.55.07-.849.01-1.698.034-2.548.072-.264 0-.434.033-.51.099-.075.066-.15.231-.226.495l-.425 1.784c-.057.303-.127.491-.212.567-.085.075-.288.123-.61.141h-.452a3.65 3.65 0 01-.454-.028c-.358-.019-.547-.217-.566-.595v-.085c-.038-.698-.07-1.392-.1-2.081-.027-.69-.06-1.383-.098-2.082v-.623c0-.15.033-.26.099-.325.066-.066.175-.109.326-.128.15-.019.358-.028.623-.028.51-.019 1.024-.047 1.543-.085.52-.038 1.024-.047 1.515-.028 2.436.056 4.8.075 7.094.056a277.39 277.39 0 016.868.029c.868 0 1.732-.005 2.591-.015a80.14 80.14 0 012.592.015c.32.018.637.047.948.085l.949.113a.64.64 0 01.283.113c.076.057.095.151.057.283a3.618 3.618 0 00-.1 1.445c.067.472.09.953.071 1.444 0 .245.005.486.015.722.01.236.014.477.014.722-.02.19-.062.312-.128.368-.066.057-.203.076-.41.057-.321 0-.652.028-.991.085-.284.057-.472-.057-.567-.34a4.725 4.725 0 01-.226-.595 10.964 10.964 0 00-.199-.594 3.574 3.574 0 01-.042-.255.7.7 0 00-.071-.227c-.113-.302-.212-.476-.297-.524-.085-.047-.288-.07-.61-.07a97.602 97.602 0 00-2.321-.029c-.756 0-1.52-.01-2.294-.028l-1.119-.057a21.84 21.84 0 00-1.119-.028c-.226 0-.373.028-.439.085-.066.057-.099.189-.099.396a535.423 535.423 0 00-.042 3.526c-.01 1.105-.014 2.18-.014 3.229v3.115c0 1.029-.01 2.081-.029 3.158-.037.32.095.49.397.51.642.094 1.241.235 1.798.424a6.217 6.217 0 001.827.312c.283 0 .425.132.425.396.018.095.028.236.028.425 0 .302-.005.538-.014.708-.01.17-.057.297-.142.382a.683.683 0 01-.382.17 4.46 4.46 0 01-.708.043c-.378 0-.755.004-1.133.014s-.755.014-1.133.014c-.377.019-.76.033-1.147.043-.387.009-.797.023-1.232.042zm28.66-3.172l5.523-.085h.254c.397-.019.638-.066.723-.141.085-.076.174-.302.269-.68l.283-1.19c.094-.396.189-.783.283-1.16.076-.265.16-.43.255-.496.094-.066.274-.09.538-.071.283.019.5.038.651.057a.566.566 0 01.34.141.635.635 0 01.156.34c.028.151.052.368.07.651.039.605.062 1.26.072 1.969.009.708.033 1.364.07 1.968v.566c0 .19.02.383.057.58.038.2.019.355-.057.468-.056.095-.122.142-.198.142-.075 0-.16-.01-.255-.029a3.103 3.103 0 01-.283-.07.897.897 0 00-.255-.043c-1.133.076-2.26.1-3.384.07a45.024 45.024 0 00-3.384.043 60.617 60.617 0 01-3.186.085c-1.048 0-2.1.01-3.158.029-.472.019-.935.014-1.388-.014a61.937 61.937 0 00-1.387-.071 52.11 52.11 0 00-2.422-.057c-.802 0-1.6.085-2.393.255-.415.075-.708.038-.878-.113-.17-.151-.264-.435-.283-.85v-.425c0-.207.005-.373.014-.495a.557.557 0 01.1-.298.689.689 0 01.268-.198c.123-.057.288-.113.496-.17l1.204-.34c.406-.113.807-.226 1.203-.34.283-.094.453-.17.51-.226.057-.057.085-.227.085-.51 0-.547-.005-1.09-.014-1.628a87.71 87.71 0 01-.014-1.629c-.02-.717-.033-1.444-.043-2.18a54.874 54.874 0 00-.07-2.18c-.038-.662-.071-1.327-.1-1.997-.028-.67-.061-1.336-.099-1.997 0-.057-.005-.113-.014-.17a.349.349 0 01.014-.17c.113-.68-.16-1.114-.821-1.303a1.307 1.307 0 01-.368-.17 2.283 2.283 0 00-.368-.198 6.19 6.19 0 01-.666-.325 1.171 1.171 0 00-.75-.128.381.381 0 01-.34-.17c-.34-.49-.453-1.02-.34-1.586a.526.526 0 01.127-.141c.066-.057.118-.076.156-.057a37.29 37.29 0 004.814.142 102.34 102.34 0 014.815-.057c1.756.038 3.512.038 5.267 0 .699 0 1.393-.014 2.082-.042.689-.029 1.383-.052 2.081-.071a26.513 26.513 0 012.436.113c.34.019.566.094.68.227.113.132.17.377.17.736a193.045 193.045 0 01.056 4.616v.312a.802.802 0 01-.156.311c-.066.076-.165.094-.297.057a2.45 2.45 0 00-1.331-.029c-.038.02-.1-.004-.184-.07a.435.435 0 01-.156-.184 6.513 6.513 0 00-.481-1.346 17.22 17.22 0 01-.567-1.288c-.113-.302-.32-.444-.623-.425-.34.019-.651.028-.934.028-.283 0-.567-.01-.85-.028a13.658 13.658 0 00-.906-.028c-.321 0-.699.01-1.133.028-.415.019-.83.019-1.246 0a27.23 27.23 0 00-1.246-.028c-.83.019-1.657.033-2.478.042a232 232 0 00-2.478.043.737.737 0 01-.227.028c-.34.038-.542.085-.609.142-.066.056-.09.254-.07.594l.056 1.968c.02.652.048 1.308.085 1.969 0 .207.033.34.1.396.065.057.202.085.41.085a58.003 58.003 0 002.577-.056c.548 0 1.081.004 1.6.014.52.01 1.053.004 1.6-.014.548 0 1.09-.01 1.629-.029l1.628-.056c.378 0 .618.051.722.155.104.104.175.335.213.694.019.189.037.368.056.538.02.17.048.35.085.538.057.34.029.576-.085.708-.113.132-.349.208-.708.227-1.076.019-2.138.023-3.186.014-1.048-.01-2.11-.005-3.186.014-.434.02-.868.024-1.302.014-.435-.01-.869-.004-1.303.015-.34.018-.543.06-.609.127-.066.066-.1.26-.1.58A155.093 155.093 0 0072 46.368c0 .208.009.363.028.467a.37.37 0 00.113.227.477.477 0 00.27.085c.122.01.287.014.495.014a89.9 89.9 0 012.761-.014c.916.01 1.836.014 2.761.014v.028zm16.68-10.28c0-.434-.014-.864-.042-1.289a64.079 64.079 0 00-.099-1.288c-.019-.302-.052-.491-.1-.567-.046-.075-.259-.132-.636-.17a25.514 25.514 0 01-1.19-.141l-1.19-.17c-.245 0-.377-.113-.396-.34l-.056-.665a7.68 7.68 0 01-.029-.666c0-.226.048-.387.142-.481.094-.095.245-.16.453-.199a.975.975 0 00.17-.014.975.975 0 01.17-.014c1.34-.189 2.68-.25 4.021-.184 1.34.066 2.681.1 4.022.1.472.037.934.046 1.388.028a33.34 33.34 0 011.387-.029c1.039.02 2.072.024 3.101.014a27.03 27.03 0 013.13.156c1.359.227 2.544.633 3.554 1.218 1.01.585 1.77 1.454 2.28 2.605.226.586.349 1.213.368 1.884a8.624 8.624 0 01-.142 1.883 5.938 5.938 0 01-.722 1.798 5.618 5.618 0 01-1.317 1.459c-.963.736-1.982 1.213-3.059 1.43a14.45 14.45 0 01-3.341.269c-.491 0-.968.005-1.43.014-.463.01-.94.005-1.43-.014a63.924 63.924 0 01-2.663-.057 24.708 24.708 0 00-1.175-.028c-.387 0-.77-.01-1.147-.028-.094 0-.18.009-.255.028a5.2 5.2 0 01-.255.057c-.283.056-.415.207-.396.453.019.49.033.967.042 1.43.01.462.033.93.071 1.402a.74.74 0 00.227.495.972.972 0 00.481.241c.415.057.807.175 1.175.354.369.18.76.316 1.176.41.302.057.453.265.453.624 0 .15-.005.302-.014.453-.01.15-.005.302.014.453 0 .151-.038.255-.113.311a.673.673 0 01-.312.114h-1.034c-.349 0-.694.01-1.033.028-.453 0-.902.01-1.346.028-.443.02-.892.038-1.345.057-.49.019-.977.028-1.458.028h-1.459c-.264 0-.528.005-.793.014a7.41 7.41 0 01-.793-.014c-.226-.019-.377-.061-.453-.127-.075-.066-.132-.203-.17-.41a2.765 2.765 0 01-.042-.312 4.09 4.09 0 01-.014-.34c-.038-.51.198-.84.708-.991.377-.132.75-.255 1.118-.368.368-.114.741-.236 1.119-.369.132-.037.24-.07.326-.099a.385.385 0 00.184-.113.38.38 0 00.07-.198 3.4 3.4 0 00.015-.354 84.186 84.186 0 01.042-5.197c.066-1.558.08-3.092.043-4.602zm12.15 3.852c.396-.038.788-.08 1.175-.128a9.45 9.45 0 001.147-.212c.604-.151 1.114-.387 1.53-.708.415-.321.783-.774 1.104-1.36.189-.32.32-.637.396-.948.076-.312.01-.628-.198-.95a2.965 2.965 0 01-.24-.396 2.965 2.965 0 00-.241-.396 7.15 7.15 0 00-.298-.439 1.834 1.834 0 00-.382-.382 4.865 4.865 0 00-1.204-.666 5.72 5.72 0 00-1.316-.326 20.606 20.606 0 00-1.714-.099 34.175 34.175 0 01-1.713-.07 22.3 22.3 0 00-.793-.043 7.41 7.41 0 00-.793.014 35.086 35.086 0 00-2.832.113 21.2 21.2 0 00-.836.128 2.264 2.264 0 01-.835-.014.642.642 0 00-.354-.014 7.68 7.68 0 00-.382.099.446.446 0 00-.17.113c-.057.057-.085.104-.085.142a15.42 15.42 0 00-.085 1.586 141.774 141.774 0 00.057 4.021c0 .378.033.604.099.68.066.075.288.122.665.141h.68c1.038.02 1.935.029 2.69.029.755 0 1.426.004 2.011.014l1.572.028c.462.01.91.024 1.345.043zm24.497 6.428l5.522-.085h.255c.396-.019.637-.066.722-.141.085-.076.175-.302.27-.68l.282-1.19c.095-.396.19-.783.284-1.16.075-.265.16-.43.254-.496.095-.066.274-.09.539-.071.283.019.5.038.65.057a.566.566 0 01.34.141.635.635 0 01.157.34c.028.151.051.368.07.651.038.605.062 1.26.071 1.969.01.708.033 1.364.07 1.968v.566c0 .19.02.383.058.58.037.2.018.355-.057.468-.057.095-.123.142-.198.142-.076 0-.16-.01-.255-.029a3.103 3.103 0 01-.283-.07.897.897 0 00-.255-.043c-1.133.076-2.261.1-3.385.07a45.024 45.024 0 00-3.384.043 60.617 60.617 0 01-3.186.085c-1.048 0-2.1.01-3.157.029-.472.019-.935.014-1.388-.014a61.937 61.937 0 00-1.388-.071 52.11 52.11 0 00-2.421-.057c-.803 0-1.6.085-2.393.255-.416.075-.708.038-.878-.113-.17-.151-.264-.435-.283-.85v-.425c0-.207.004-.373.014-.495a.557.557 0 01.099-.298.689.689 0 01.269-.198c.123-.057.288-.113.496-.17.396-.113.797-.226 1.203-.34.406-.113.807-.226 1.204-.34.283-.094.453-.17.51-.226.056-.057.085-.227.085-.51 0-.547-.005-1.09-.015-1.628a87.71 87.71 0 01-.014-1.629 161.7 161.7 0 01-.042-2.18 54.874 54.874 0 00-.071-2.18c-.038-.662-.07-1.327-.1-1.997-.028-.67-.06-1.336-.098-1.997 0-.057-.005-.113-.014-.17a.349.349 0 01.014-.17c.113-.68-.16-1.114-.822-1.303a1.307 1.307 0 01-.368-.17 2.283 2.283 0 00-.368-.198 6.19 6.19 0 01-.665-.325 1.171 1.171 0 00-.75-.128.381.381 0 01-.34-.17c-.34-.49-.454-1.02-.34-1.586a.526.526 0 01.127-.141c.066-.057.118-.076.156-.057a37.29 37.29 0 004.814.142 102.34 102.34 0 014.814-.057c1.756.038 3.512.038 5.268 0 .698 0 1.392-.014 2.081-.042.69-.029 1.383-.052 2.082-.071a26.513 26.513 0 012.435.113c.34.019.567.094.68.227.113.132.17.377.17.736a193.047 193.047 0 01.057 4.616v.312a.802.802 0 01-.156.311c-.066.076-.165.094-.297.057a2.45 2.45 0 00-1.331-.029c-.038.02-.1-.004-.185-.07a.435.435 0 01-.155-.184 6.513 6.513 0 00-.482-1.346 17.22 17.22 0 01-.566-1.288c-.113-.302-.321-.444-.623-.425-.34.019-.652.028-.935.028-.283 0-.566-.01-.85-.028a13.658 13.658 0 00-.906-.028c-.32 0-.698.01-1.132.028-.416.019-.831.019-1.246 0a27.305 27.305 0 00-1.247-.028c-.83.019-1.656.033-2.478.042-.82.01-1.647.024-2.478.043a.737.737 0 01-.226.028c-.34.038-.543.085-.609.142-.066.056-.09.254-.07.594l.056 1.968c.019.652.047 1.308.085 1.969 0 .207.033.34.099.396.066.057.203.085.41.085a58.003 58.003 0 002.578-.056c.547 0 1.08.004 1.6.014.519.01 1.052.004 1.6-.014.547 0 1.09-.01 1.628-.029l1.629-.056c.377 0 .618.051.722.155.104.104.174.335.212.694l.057.538c.019.17.047.35.085.538.056.34.028.576-.085.708s-.35.208-.708.227c-1.076.019-2.138.023-3.186.014-1.048-.01-2.11-.005-3.186.014-.434.02-.869.024-1.303.014-.434-.01-.868-.004-1.303.015-.34.018-.542.06-.608.127-.067.066-.1.26-.1.58a155.093 155.093 0 00.057 4.192c0 .208.01.363.028.467a.37.37 0 00.114.227.477.477 0 00.269.085c.122.01.288.014.495.014a89.9 89.9 0 012.762-.014c.915.01 1.836.014 2.76.014v.028zm20.362-2.832c.019.472.038.864.056 1.175.02.312.048.704.085 1.176 0 .207.104.34.312.396.49.151 1.043.293 1.657.425.613.132 1.165.264 1.656.396.151.038.26.09.326.156s.09.184.07.354c0 .208.01.425.03.652l.056.68c.019.226-.005.382-.071.467-.066.085-.231.118-.496.099a92.886 92.886 0 00-4.587 0c-1.473.037-2.974.094-4.503.17a3.785 3.785 0 01-.567.014 4.236 4.236 0 00-.594.014c-.34.038-.557-.104-.652-.425a12.2 12.2 0 00-.127-.566 1.644 1.644 0 01-.043-.567c.038-.283.109-.462.213-.538.104-.075.306-.122.609-.141.056 0 .113.004.17.014.056.01.113.005.17-.014.434-.095.877-.194 1.33-.298a45.83 45.83 0 001.331-.325c.246-.057.392-.118.44-.184.047-.067.08-.213.099-.44v-3.71c0-.924-.01-1.859-.029-2.803 0-.321-.01-.642-.028-.963a16.394 16.394 0 01-.028-.963c0-.774.009-1.458.028-2.053.019-.595.028-1.166.028-1.713-.019-.321-.066-.538-.141-.652-.076-.113-.265-.217-.567-.311-.377-.151-.76-.293-1.147-.425s-.77-.264-1.147-.397c-.283-.075-.453-.264-.51-.566a29.036 29.036 0 00-.113-.439 29.036 29.036 0 01-.113-.439c-.151-.49.028-.755.538-.793a554.2 554.2 0 003.993-.127c1.322-.047 2.662-.09 4.022-.128a7.65 7.65 0 011.317 0c.481.038.882.123 1.203.255.057 0 .061.02.014.057-.047.038-.07.075-.07.113a2.3 2.3 0 01.467.807c.085.274.203.562.354.864l2.634 6.627c.51 1.265 1.019 2.525 1.529 3.78a835.49 835.49 0 001.557 3.81c.038.094.08.207.128.34.047.132.146.198.297.198.189 0 .298-.071.326-.213.028-.141.061-.278.099-.41a163.76 163.76 0 011.473-4.744c.51-1.558 1.057-3.12 1.642-4.687.321-.83.623-1.657.906-2.478.284-.821.567-1.647.85-2.478.094-.264.16-.495.198-.694.038-.198.095-.43.17-.694.057-.226.128-.372.213-.439.085-.066.24-.09.467-.07h1.062c.35 0 .694.01 1.034.028.188.019.368.014.538-.014.17-.028.349-.033.538-.014h2.874c.708 0 1.26-.005 1.657-.014.396-.01.68-.015.85-.015h.453a9.273 9.273 0 011.02-.056c.49 0 .82.236.99.708.095.245.128.481.1.708-.029.226-.1.443-.213.651-.057.076-.18.132-.368.17a30.19 30.19 0 01-1.515.439c-.538.142-1.053.288-1.544.439-.226.057-.349.189-.368.396-.056.944-.099 1.766-.127 2.464a79.128 79.128 0 00-.057 1.94c-.01.595-.014 1.17-.014 1.728v4.276c0 .802.01 1.61.028 2.421 0 .321.029.515.085.58.057.067.246.128.567.185.377.057.76.109 1.147.156s.769.099 1.147.156c.094 0 .179.004.254.014.076.01.16.023.255.042.227.057.359.217.397.482 0 .226.01.448.028.665.019.217.028.44.028.666-.018.226-.07.382-.155.467-.085.085-.241.137-.468.156a38 38 0 01-1.472.028h-1.473c-.906.019-1.798.024-2.676.014-.878-.01-1.77-.005-2.676.014-.208 0-.425-.01-.652-.028a2.478 2.478 0 00-.651.028c-.283.057-.444-.019-.482-.226a2.857 2.857 0 00-.212-.75 1.43 1.43 0 01-.099-.78c0-.226.113-.387.34-.481.32-.075.632-.123.934-.142.302-.018.614-.066.935-.141.245-.076.486-.142.722-.198.236-.057.486-.114.75-.17.208-.057.312-.199.312-.425.019-.113.028-.222.028-.326v-.325c0-.907.005-1.799.015-2.677.009-.878.014-1.77.014-2.676 0-.264-.014-.529-.043-.793a7.438 7.438 0 01-.042-.793 56.69 56.69 0 01-.029-1.77v-2.393c0-.208-.018-.415-.056-.623-.038-.283-.071-.5-.1-.651-.028-.151-.084-.26-.17-.326a.63.63 0 00-.353-.113c-.151-.01-.378-.014-.68-.014-.32 0-.538.17-.651.51a327.356 327.356 0 01-1.43 3.653 44.086 44.086 0 00-1.289 3.71c-.057.207-.123.42-.198.637-.076.217-.151.43-.227.637l-1.36 4.191c-.17.491-.339.968-.509 1.43-.17.463-.34.93-.51 1.402-.113.321-.288.553-.524.694a1.757 1.757 0 01-.807.24c-.49.039-.977.053-1.458.043-.482-.01-.968-.023-1.459-.042a.844.844 0 01-.524-.184c-.16-.123-.26-.26-.297-.41-.17-.473-.33-.945-.481-1.417-.151-.472-.33-.934-.538-1.388a74.072 74.072 0 01-1.742-3.993c-.538-1.34-1.081-2.68-1.629-4.021a40.648 40.648 0 01-.92-2.421 40.648 40.648 0 00-.92-2.422c-.133-.283-.288-.49-.468-.623-.179-.132-.43-.18-.75-.141a.16.16 0 01-.113.014.466.466 0 00-.114-.014c-.34-.02-.613.009-.821.084-.208.076-.311.274-.311.595v5.494c.056.755.084 1.506.084 2.252 0 .745.01 1.496.029 2.251zm48.285-4.22c.19.114.364.213.524.298.16.085.307.184.44.297.415.34.82.694 1.217 1.062.397.368.708.817.935 1.345.056.151.132.298.226.44.095.141.189.278.283.41.265.434.534.859.807 1.274.274.416.562.822.864 1.218.642.925 1.51 1.416 2.606 1.473.283.019.561.005.835-.043.274-.047.552-.09.836-.127.226-.038.4-.057.523-.057s.222.029.298.085a.394.394 0 01.141.27c.02.122.038.297.057.523a5.36 5.36 0 010 .779 11.5 11.5 0 01-.085.779.542.542 0 01-.226.311c-.151.076-.307.151-.468.227-.16.075-.316.123-.467.141a8.867 8.867 0 01-2.294-.014 6.317 6.317 0 01-2.18-.75 2.866 2.866 0 01-.794-.58 7.682 7.682 0 01-.65-.78c-.284-.415-.563-.83-.836-1.246-.274-.415-.543-.84-.807-1.274a37.248 37.248 0 01-.907-1.303 19.68 19.68 0 00-.269-.368 1.582 1.582 0 01-.212-.396 1.907 1.907 0 00-.85-.992 8.612 8.612 0 01-.51-.368 3.222 3.222 0 00-.538-.34 8.744 8.744 0 00-.665-.325 1.777 1.777 0 00-.722-.156 5.75 5.75 0 01-1.218-.142 9.07 9.07 0 00-2.096-.155c-.717.028-1.406.061-2.067.099-.189 0-.368.01-.538.028l-.538.057c-.208.037-.312.15-.312.34v1.416c.02.51.014 1.014-.014 1.515a11.8 11.8 0 00.014 1.515c0 .49.066.807.199.948.132.142.368.241.708.298.34.056.698.123 1.076.198.377.076.736.151 1.076.227.32.056.472.255.453.594 0 .17.01.345.028.524.02.18.029.364.029.553 0 .226-.123.33-.369.311a7.347 7.347 0 00-.453-.042 2.425 2.425 0 00-.453.014l-2.719.056c-.906.02-1.812.048-2.718.085l-1.246.057c-.416.019-.831.028-1.246.028-.284.02-.472-.023-.567-.127-.094-.104-.15-.307-.17-.609a1.313 1.313 0 01-.028-.255v-.255c.038-.264.104-.458.198-.58.095-.123.274-.222.538-.298.283-.075.567-.137.85-.184.283-.047.566-.108.85-.184a2.48 2.48 0 00.566-.141c.208-.076.335-.152.382-.227.047-.076.071-.227.071-.453v-6.528c0-1.029-.005-2.063-.014-3.101a84.667 84.667 0 00-.1-3.313c-.018-.208-.075-.345-.17-.411a1.119 1.119 0 00-.396-.156c-.434-.094-.859-.189-1.274-.283l-1.246-.283c-.189-.038-.321-.118-.397-.24a1.013 1.013 0 01-.141-.412v-.382c0-.123.019-.25.056-.382.038-.359.1-.571.184-.637.085-.066.317-.118.694-.156.321-.019.652-.024.992-.014.34.01.67.014.99.014.945-.038 1.875-.066 2.79-.085l2.733-.057a3.84 3.84 0 01.736.014c.246.029.5.043.765.043.264 0 .406.132.425.396l.113.567c.019.226.033.41.043.552a.537.537 0 01-.071.34.546.546 0 01-.27.198c-.122.047-.306.1-.551.156a15.55 15.55 0 00-1.077.326 4.015 4.015 0 01-1.104.212c-.34.038-.552.104-.637.198-.085.095-.128.312-.128.652 0 .472.005.944.014 1.416.01.472.015.944.015 1.416 0 .226-.005.453-.015.68a17.05 17.05 0 00-.014.679c0 .226.114.35.34.368.246.038.486.07.722.1.236.027.486.023.75-.015a28.667 28.667 0 012.196-.028c.708.019 1.401.028 2.081.028.038 0 .066-.01.085-.028.019-.02.047-.02.085 0 .227.075.42.094.58.056.161-.037.312-.104.454-.198.141-.094.269-.208.382-.34a7 7 0 01.368-.396l.935-.935c.472-.528.934-1.048 1.387-1.557.454-.51.907-1.03 1.36-1.558a.71.71 0 00.17-.283c.056-.17 0-.274-.17-.312h-.383c-.122 0-.25-.01-.382-.028a27.72 27.72 0 00-.864-.1c-.292-.027-.58-.06-.863-.098-.265-.057-.406-.208-.425-.453l-.057-.68a87.08 87.08 0 00-.056-.651c-.02-.208.004-.345.07-.411s.194-.1.383-.1c.585-.018 1.17-.028 1.755-.028h1.756a57.573 57.573 0 011.799-.028h4.715c.283 0 .467.043.552.128.085.085.109.269.071.552 0 .15-.01.264-.028.34a2.57 2.57 0 00-.071.481c-.01.17-.033.33-.071.482a16.166 16.166 0 01-1.246.396c-.17.038-.34.057-.51.057-.17 0-.33.019-.481.056-1.02.151-1.841.576-2.464 1.275-.548.66-1.11 1.302-1.685 1.925-.576.624-1.147 1.256-1.713 1.898a9.336 9.336 0 00-.425.453 9.336 9.336 0 01-.425.453 4.13 4.13 0 01-.467.354c-.16.104-.345.231-.553.382zm26.763 7.052l5.522-.085h.255c.397-.019.637-.066.722-.141.085-.076.175-.302.27-.68l.282-1.19c.095-.396.19-.783.284-1.16.075-.265.16-.43.255-.496.094-.066.273-.09.538-.071.283.019.5.038.651.057a.566.566 0 01.34.141.635.635 0 01.156.34c.028.151.052.368.07.651.038.605.062 1.26.071 1.969.01.708.033 1.364.071 1.968v.566c0 .19.019.383.057.58.037.2.019.355-.057.468-.057.095-.123.142-.198.142-.076 0-.16-.01-.255-.029a3.103 3.103 0 01-.283-.07.897.897 0 00-.255-.043c-1.133.076-2.261.1-3.384.07a45.024 45.024 0 00-3.385.043 60.617 60.617 0 01-3.186.085c-1.048 0-2.1.01-3.157.029-.472.019-.935.014-1.388-.014a61.937 61.937 0 00-1.388-.071 52.11 52.11 0 00-2.421-.057c-.802 0-1.6.085-2.393.255-.415.075-.708.038-.878-.113-.17-.151-.264-.435-.283-.85v-.425c0-.207.004-.373.014-.495a.557.557 0 01.099-.298.689.689 0 01.27-.198 3.23 3.23 0 01.495-.17c.396-.113.797-.226 1.203-.34.406-.113.807-.226 1.204-.34.283-.094.453-.17.51-.226.056-.057.085-.227.085-.51 0-.547-.005-1.09-.015-1.628a97.364 97.364 0 01-.014-1.629 161.7 161.7 0 01-.042-2.18 54.874 54.874 0 00-.071-2.18c-.038-.662-.07-1.327-.1-1.997-.027-.67-.06-1.336-.098-1.997 0-.057-.005-.113-.014-.17a.349.349 0 01.014-.17c.113-.68-.16-1.114-.822-1.303a1.307 1.307 0 01-.368-.17 2.283 2.283 0 00-.368-.198 6.19 6.19 0 01-.665-.325 1.171 1.171 0 00-.75-.128.381.381 0 01-.34-.17c-.34-.49-.454-1.02-.34-1.586a.526.526 0 01.127-.141c.066-.057.118-.076.156-.057a37.29 37.29 0 004.814.142 102.34 102.34 0 014.814-.057c1.756.038 3.512.038 5.268 0 .699 0 1.392-.014 2.082-.042.689-.029 1.382-.052 2.081-.071a26.513 26.513 0 012.436.113c.34.019.566.094.68.227.113.132.17.377.17.736a193.047 193.047 0 01.056 4.616v.312a.802.802 0 01-.156.311c-.066.076-.165.094-.297.057a2.45 2.45 0 00-1.331-.029c-.038.02-.1-.004-.184-.07a.435.435 0 01-.156-.184 6.513 6.513 0 00-.482-1.346 17.22 17.22 0 01-.566-1.288c-.113-.302-.321-.444-.623-.425-.34.019-.651.028-.935.028-.283 0-.566-.01-.85-.028a13.658 13.658 0 00-.905-.028c-.321 0-.699.01-1.133.028-.416.019-.831.019-1.246 0a27.294 27.294 0 00-1.246-.028c-.831.019-1.657.033-2.478.042-.822.01-1.648.024-2.478.043a.737.737 0 01-.227.028c-.34.038-.543.085-.609.142-.066.056-.09.254-.07.594l.056 1.968c.019.652.047 1.308.085 1.969 0 .207.033.34.099.396.066.057.203.085.41.085a58.003 58.003 0 002.578-.056c.547 0 1.08.004 1.6.014s1.052.004 1.6-.014c.547 0 1.09-.01 1.628-.029l1.629-.056c.377 0 .618.051.722.155.104.104.175.335.212.694l.057.538c.019.17.047.35.085.538.057.34.028.576-.085.708s-.35.208-.708.227c-1.076.019-2.138.023-3.186.014-1.048-.01-2.11-.005-3.186.014-.434.02-.869.024-1.303.014-.434-.01-.868-.004-1.302.015-.34.018-.543.06-.61.127-.065.066-.098.26-.098.58a155.093 155.093 0 00.056 4.192c0 .208.01.363.028.467a.37.37 0 00.114.227.477.477 0 00.269.085c.123.01.288.014.495.014a89.9 89.9 0 012.762-.014c.915.01 1.836.014 2.76.014v.028z"/><g stroke-width="1.18"><path d="M203.32 1l-11.514 9.44L180.293 1l-11.514 9.44L157.265 1l-11.513 9.44L134.238 1l-11.513 9.44L111.21 1l-11.514 9.44L88.184 1 76.67 10.44 65.156 1l-11.513 9.44L42.129 1l-6.136 4.72"/><path d="M203.32 10.44L191.806 1l-11.513 9.44L168.779 1l-11.514 9.44L145.752 1l-11.514 9.44L122.725 1l-11.514 9.44L99.697 1l-11.513 9.44L76.67 1l-11.514 9.44L53.643 1l-11.514 9.44-6.11-4.72"/></g><g stroke-width="1.18"><path d="M203.32 74.16l-11.514 9.44-11.513-9.44-11.514 9.44-11.514-9.44-11.513 9.44-11.514-9.44-11.513 9.44-11.514-9.44-11.514 9.44-11.513-9.44L76.67 83.6l-11.514-9.44-11.513 9.44-11.514-9.44-6.136 4.72"/><path d="M203.32 83.6l-11.514-9.44-11.513 9.44-11.514-9.44-11.514 9.44-11.513-9.44-11.514 9.44-11.513-9.44-11.514 9.44-11.514-9.44-11.513 9.44-11.514-9.44-11.514 9.44-11.513-9.44-11.514 9.44-6.11-4.72"/></g></g></symbol><symbol viewBox="0 0 9 7" id="open-menu" xmlns="http://www.w3.org/2000/svg"><path d="M8 1L4.292 5 1 1.448" stroke-width="2"/></symbol><symbol viewBox="0 0 360 72" id="pointer-animate" xmlns="http://www.w3.org/2000/svg"><g fill-rule="evenodd" stroke-width="2"><path d="M42.046 5.247c-7.353-1.098-4.772-1.43-15.042-1.43C16.735 3.816 1 16.221 1 35s15.222 34 34 34 34-15.222 34-34S53.778 1 35 1m122.058 7.613C149.019 13.686 145 22.482 145 35c0 18.778 15.222 34 34 34s34-15.222 34-34-15.222-34-34-34m93.942 60.387C280.981 56.314 285 47.518 285 35c0-18.778-15.222-34-34-34s-34 15.222-34 34 15.222 34 34 34m106-34c0 18.778-15.222 34-34 34s-34-15.222-34-34 15.222-34 34-34M134.707 21.349c-2.12-4.85-13.308-15.004-20.661-16.102-7.353-1.098-4.772-1.43-15.042-1.43C88.735 3.816 73 16.221 73 35s15.222 34 34 34 34-15.222 34-34m20.162-28.336c6.147-2.684 10.194-4.026 12.139-4.026M281.914 36c-1.025 17.557-12.07 27.133-33.134 28.727m-111.862-23.42c1.537-4.804.96-9.446-1.734-13.927"/><path d="M353.125 40.923c.9-7.72-.638-15.13-4.615-22.228-5.965-10.647-16.49-15.187-21.522-15.187"/></g></symbol><symbol viewBox="0 0 24 24" id="static" xmlns="http://www.w3.org/2000/svg"><path d="M18 10l-6.05 5L6 10" stroke-width="2"/></symbol><symbol viewBox="0 0 24 24" id="static-mobile" xmlns="http://www.w3.org/2000/svg"><path d="M7 10l4.959-4 4.702 4M17 14l-5.041 4L7 14" fill-rule="evenodd"/></symbol><symbol viewBox="0 0 112 8" id="teremok_slogan_small" xmlns="http://www.w3.org/2000/svg"><g><path d="M1.323.608l-.622.784 7.87 6.246 7.558-6 7.559 6 7.558-6 7.559 6 7.558-6 7.559 6 7.558-6 7.559 6 7.558-6 7.558 6 7.559-6 7.558 6 7.569-6.007 3.72 2.77.597-.802-4.337-3.23-7.549 5.993-7.558-6-7.559 6-7.558-6-7.558 6-7.559-6-7.558 6-7.559-6-7.558 6-7.559-6-7.558 6-7.559-6-7.558 6z"/><path d="M1.322 7.392l-.621-.784L8.57.362l7.558 6 7.559-6 7.558 6 7.559-6 7.558 6 7.559-6 7.558 6 7.559-6 7.558 6 7.559-6 7.558 6 7.559-6 7.567 6.007 3.703-2.77.599.801-4.32 3.231-7.55-5.993-7.558 6-7.558-6-7.559 6-7.558-6-7.559 6-7.558-6-7.559 6-7.558-6-7.559 6-7.558-6-7.559 6-7.558-6z"/></g></symbol><symbol viewBox="0 0 18 15" id="tw" xmlns="http://www.w3.org/2000/svg"><path d="M16.178 3.827c.006.146.009.292.009.439C16.187 9.542 12.262 15 5.694 15a10.28 10.28 0 01-5.653-1.695.092.092 0 01-.036-.108.09.09 0 01.095-.06c.284.034.574.052.861.052a7.09 7.09 0 004.292-1.432c-1.5-.13-2.788-1.167-3.251-2.648a.094.094 0 01.018-.089.089.089 0 01.083-.029c.416.08.838.086 1.245.018C1.802 8.518.716 7.036.716 5.35V5.3a.09.09 0 01.045-.077.086.086 0 01.088-.001c.403.229.849.376 1.307.432a3.86 3.86 0 01-1.41-2.998c0-.677.175-1.344.507-1.926a.089.089 0 01.146-.012C3.218 3 5.893 4.406 8.754 4.586a3.964 3.964 0 01-.072-.754C8.682 1.719 10.362 0 12.428 0c1.015 0 1.996.427 2.7 1.173a7.124 7.124 0 002.245-.887.088.088 0 01.101.007c.029.024.04.064.03.1a3.825 3.825 0 01-1.317 1.893 7.081 7.081 0 001.687-.524.088.088 0 01.105.025.093.093 0 01.006.11c-.49.75-1.098 1.4-1.807 1.93z"/></symbol><symbol viewBox="0 0 159 128" id="vashe_mnenie" xmlns="http://www.w3.org/2000/svg"><g fill-rule="evenodd"><path d="M12.627 105.186v19.378l1.834 1.239v1.437H7.523v-1.437l1.784-1.24V98.546l-1.685-1.24v-1.337h4.361c3.47 0 4.51-.298 5.105 2.18 1.586 8.772 2.478 14.472 3.37 23.194h.1L24.323 97.9c.347-1.734.941-1.883 2.676-1.883 2.627 0 4.064-.05 6.69-.05v1.339l-1.685 1.239v25.97l1.884 1.387v1.338h-8.574v-1.338l1.883-1.388V103.55c0 .05 0 .1.149-4.361h-.198l-4.709 27.704h-3.915c-.991 0-1.437-.396-1.586-1.288-1.387-8.872-2.726-17.247-4.312-26.069h-.148l.148 5.65zm27.804 19.576V98.545l-1.586-1.24v-1.337h7.93v1.338l-1.587 1.239v11.399h6.939v-11.4l-1.586-1.238v-1.338h7.88v1.338l-1.586 1.239v26.217l1.933 1.14v1.338h-8.475v-1.338l1.834-1.14V112.62h-6.939v12.142l1.884 1.14v1.338h-8.525v-1.338l1.884-1.14zm39.747 2.478h-16.85v-1.338l1.932-1.388V98.396l-1.635-1.239v-1.19h15.958v6.989h-2.33l-1.288-4.213h-5.848v11.547h4.064l1.239-2.428h1.388v7.533H75.42l-1.239-2.28h-4.064v9.665c0 .743-.198 1.14-.991 1.387v.248h7.384l1.586-4.163h2.082v6.988zm6.343-2.478V98.545l-1.585-1.24v-1.337h7.93v1.338l-1.587 1.239v11.399h6.939v-11.4l-1.586-1.238v-1.338h7.88v1.338l-1.586 1.239v26.217l1.933 1.14v1.338h-8.475v-1.338l1.834-1.14V112.62h-6.939v12.142l1.883 1.14v1.338h-8.524v-1.338l1.883-1.14zm35.287-27.456v-1.289h7.88v1.289l-1.536 1.239v25.97l1.834 1.436v1.289h-8.475v-1.289l1.883-1.437c0-6.294-.05-13.58-.05-19.824l-1.734 5.7-5.402 14.174 1.784 1.387v1.289h-8.475v-1.289l1.834-1.437v-25.97l-1.536-1.238v-1.289h7.88v1.289l-1.537 1.239v20.418l1.685-5.6 5.551-14.72a44.905 44.905 0 00-1.586-1.337zm29.687 29.934h-16.85v-1.338l1.932-1.388V98.396l-1.635-1.239v-1.19H150.9v6.989h-2.33l-1.288-4.213h-5.848v11.547h4.064l1.239-2.428h1.388v7.533h-1.388l-1.24-2.28h-4.063v9.665c0 .743-.198 1.14-.991 1.387v.248h7.384l1.586-4.163h2.082v6.988zM77.43 37.76h5.157c1.955.147 2.933 1.135 2.933 2.964 0 1.828-.955 2.861-2.864 3.098v2.094c.863 0 2.45.336 4.76 1.01 3.466 1.009 6.723 2.674 12.425 8.083 3.8 3.606 6.02 8.476 6.659 14.611H52.22c.639-6.135 2.859-11.005 6.66-14.611 5.7-5.41 8.958-7.074 12.423-8.084 2.31-.673 3.898-1.01 4.76-1.01v-2.093c-1.908-.237-2.863-1.27-2.863-3.098 0-1.83.978-2.817 2.933-2.964h1.296zM53.4 71.98h53.1a3.54 3.54 0 010 7.08H53.4a3.54 3.54 0 010-7.08z"/><path d="M10.92 83.357C22.99 41.159 45.771 20.06 79.265 20.06s55.464 21.099 65.91 63.297"/><path d="M22.88 56.013c-.2.342-.393.683-.58 1.022-.186.34-.387.675-.603 1.008l-1.383 2.26a130.47 130.47 0 01-1.421 2.269 8.18 8.18 0 00-.318.601l-.279.592c-.171.293-.358.474-.561.541-.204.067-.453.037-.75-.092a.551.551 0 01-.19-.095.551.551 0 00-.19-.095c-.342-.09-.53-.171-.563-.245-.033-.074-.005-.282.085-.623.145-.55.293-1.102.443-1.66.15-.557.297-1.11.443-1.66.06-.291-.04-.514-.3-.666a158.99 158.99 0 01-1.897-.99c-.626-.333-1.259-.663-1.898-.992a4.488 4.488 0 01-.442-.225l-.428-.25a417.152 417.152 0 01-5.933-3.261 4.388 4.388 0 01-.612-.357c-.154-.111-.33-.072-.528.118a11.9 11.9 0 00-.904.932c-.324.369-.622.692-.893.971a45.6 45.6 0 01-.38.37.802.802 0 01-.29.19.529.529 0 01-.336-.015 4.806 4.806 0 01-.574-.253l-.147-.086c-.758-.31-.924-.833-.496-1.567.222-.417.45-.82.687-1.206.236-.387.481-.78.735-1.178.473-.773.947-1.54 1.424-2.3.476-.761.942-1.533 1.398-2.316a23.91 23.91 0 001.128-2.047 19.19 19.19 0 011.152-2.032c.49-.764.98-1.522 1.472-2.273a14.212 14.212 0 011.717-2.13 4.795 4.795 0 011.537-1.005 5.817 5.817 0 011.742-.46c.68-.04 1.273.01 1.78.153.507.143 1.056.419 1.648.83.486.327.87.747 1.15 1.26.28.513.374 1.223.282 2.13.043.114.083.158.118.135.035-.023.068-.004.098.057.492-.543.913-.975 1.263-1.296.35-.32.697-.566 1.038-.739a2.84 2.84 0 01.73-.213c.278-.046.546-.064.804-.056.257.008.505.032.744.073.238.04.432.083.582.126.999.386 1.821.952 2.467 1.7.646.748 1.064 1.67 1.256 2.765a3.785 3.785 0 01-.028 1.623 166.31 166.31 0 01-.393 1.574c-.118.39-.214.705-.289.946-.074.24-.168.486-.282.737-.113.25-.252.536-.416.855-.165.32-.399.74-.703 1.262-.38.763-.77 1.507-1.172 2.235-.402.727-.8 1.467-1.196 2.22-.06.14-.136.281-.23.423a9.188 9.188 0 00-.269.433l-.049-.028zm.685-7.304a13.6 13.6 0 00.793-1.587c.225-.535.407-1.09.545-1.665.13-.559.043-1.123-.26-1.692-.387-.685-.816-1.148-1.287-1.39a1.963 1.963 0 00-1.469-.151c-.508.14-1.013.463-1.515.968-.502.505-.986 1.157-1.452 1.957-.37.636-.735 1.27-1.093 1.903a34.179 34.179 0 01-1.142 1.875c-.526.94-1.01 1.77-1.455 2.495a17.49 17.49 0 00-1.19 2.323c-.138.312-.198.49-.18.534.019.043.18.142.482.297.607.31 1.247.645 1.922 1.006.675.36 1.316.695 1.922 1.005.247.1.407.145.48.132.073-.012.208-.113.406-.303a2.93 2.93 0 00.335-.461c.468-.842.865-1.55 1.19-2.126.324-.575.636-1.12.936-1.634l2.032-3.486zm-15.467-.854c-.173.336-.351.67-.533 1-.182.331-.36.665-.534 1-.1.248-.145.408-.132.48.012.073.132.176.36.31a2536.588 2536.588 0 013.532 1.927c.238.116.393.169.466.156.072-.012.175-.132.308-.36.273-.431.534-.831.782-1.2.248-.37.5-.774.757-1.215a54.18 54.18 0 01.824-1.47 57.1 57.1 0 01.887-1.466c.19-.326.415-.73.674-1.213.26-.482.476-.891.65-1.227a4.47 4.47 0 00.465-1.303c.078-.435.048-.89-.09-1.364-.239-.903-.753-1.52-1.544-1.85-.313-.139-.66-.161-1.043-.067-.382.094-.7.264-.953.51a7.61 7.61 0 01-.515.519 8.079 8.079 0 00-1.08 1.206c-.204.274-.434.632-.691 1.072-.4.685-.852 1.416-1.36 2.191a12.984 12.984 0 00-1.23 2.364zm36.5-35.636c-.478.129-.924.245-1.34.35l-1.26.317a.8.8 0 00-.242.081.8.8 0 01-.242.081c-.26.063-.446.066-.56.01-.114-.057-.232-.213-.354-.47-.084-.21-.17-.414-.26-.613a15.324 15.324 0 01-.258-.613c-.077-.193-.001-.335.227-.425a32.374 32.374 0 012.698-.996c.91-.29 1.795-.658 2.655-1.101.477-.23.953-.44 1.427-.628l1.42-.565c.422-.167.844-.32 1.267-.457.423-.137.844-.29 1.266-.457l2.505-1.057c.835-.352 1.667-.713 2.495-1.083.14-.055.28-.14.416-.256.2-.161.334-.234.4-.22.067.014.142.126.226.337.08.252.169.502.266.747.098.246.187.495.267.748.06.2-.018.362-.233.488-.277.171-.544.343-.8.516s-.52.354-.79.543c-.08.052-.163.1-.248.144-.084.043-.163.1-.237.17-.109.084-.222.17-.34.257a.77.77 0 00-.255.315c-.021.05.025.127.139.234a3.642 3.642 0 01.508.59c.072.104.15.21.234.32.16.2.315.397.464.592.148.195.3.384.453.566.186.211.363.415.533.612.17.196.343.391.522.584.286.313.58.628.878.946.3.318.606.618.921.9a35.496 35.496 0 012.023 2.06c.635.703 1.232 1.45 1.79 2.244.161.2.325.395.491.583.166.188.33.382.49.582.298.39.693.517 1.188.381a91.213 91.213 0 001.042-.292c.253-.08.502-.169.747-.266a5.6 5.6 0 01.758-.24.46.46 0 01.274-.003c.112.027.187.063.226.109.153.182.296.375.427.577.13.201.23.411.296.629a.605.605 0 01-.028.544c-.095.17-.225.328-.39.475a.793.793 0 01-.256.162l-.276.11a91.937 91.937 0 01-3.043 1.392c-.291.136-.6.254-.926.353-.326.1-.639.208-.937.327l-1.585.69a51.17 51.17 0 00-1.547.707c-.397.177-.721.154-.973-.071a3.68 3.68 0 01-.36-.406 3.196 3.196 0 01-.29-.463c-.154-.285-.2-.505-.14-.66.06-.156.228-.32.505-.491a8.66 8.66 0 01.385-.26c.13-.082.258-.168.384-.259.19-.136.381-.268.574-.396.194-.127.394-.263.6-.406.11-.084.222-.159.338-.225a4.22 4.22 0 00.363-.236c.183-.154.282-.29.296-.407.014-.117-.052-.259-.2-.424a32.604 32.604 0 00-1.032-1.143c-.35-.37-.703-.747-1.06-1.133-.203-.204-.424-.249-.662-.133-.229.09-.45.183-.666.28-.216.095-.43.185-.64.269-.337.174-.68.336-1.027.484-.347.148-.69.31-1.026.484-1.004.44-2.004.837-3 1.192-.997.356-1.997.753-3 1.192a12.56 12.56 0 01-.767.335c-.254.101-.51.213-.766.335-.238.115-.361.316-.37.604.014.442.033.912.058 1.41.025.497.044.967.057 1.409.007.323.171.43.494.322a73.205 73.205 0 002.778-.677c.218-.067.374-.007.468.18l.272.531c.087.169.166.34.236.516.143.309.188.525.135.647-.053.123-.225.252-.516.388a26.066 26.066 0 01-1.532.67c-.955.46-2.009.94-3.161 1.439-1.153.499-2.3.924-3.44 1.275-.488.255-.872.184-1.151-.213a3.87 3.87 0 01-.275-.5 11.927 11.927 0 01-.233-.547c-.02-.053-.013-.122.024-.208s.075-.157.114-.213a2.42 2.42 0 01.619-.474l.679-.362c.226-.12.446-.258.658-.414.213-.155.403-.378.572-.669.362-.367.544-.805.545-1.313a44.16 44.16 0 00-.15-2.41 27.144 27.144 0 01-.113-2.392c-.009-.484-.017-.964-.023-1.439a32.473 32.473 0 00-.049-1.428c.008-.49-.006-1.013-.044-1.567a43.98 43.98 0 01-.08-1.66 50.198 50.198 0 01-.023-1.59c.001-.508.029-.976.082-1.404zm9.997 4.53a54.249 54.249 0 012.321-.983c.221-.109.251-.263.09-.463a2.083 2.083 0 01-.162-.18c-.727-.807-1.45-1.602-2.166-2.384-.717-.782-1.44-1.577-2.167-2.385a7.75 7.75 0 00-.205-.208 7.75 7.75 0 01-.204-.208c-.217-.239-.492-.292-.825-.16-.6.28-1.195.546-1.785.8l-1.795.775a.67.67 0 00-.412.651c.017.298.038.595.064.89.026.294.043.581.053.862.016.806.027 1.614.034 2.424.007.81.018 1.618.034 2.425-.004.245.002.466.02.662.024.214.082.348.175.403.093.055.24.031.444-.07a351.22 351.22 0 013.459-1.572 77.608 77.608 0 013.027-1.28zM107.1 29.653a674.425 674.425 0 00-9.88-4.122l-9.911-4.043c-.468-.153-.743-.44-.824-.862a1.698 1.698 0 01.207-1.202c.093-.125.2-.188.323-.188s.244.004.363.012a165.548 165.548 0 002.153.279c.094.019.178.038.251.058.074.02.161.031.263.032.28.014.471-.1.572-.345l1.43-3.454c.21-.506.418-.997.626-1.473.207-.476.407-.97.599-1.484.34-.921.707-1.893 1.1-2.916.393-1.022.763-2.003 1.111-2.942.106-.304.147-.501.123-.593-.023-.091-.177-.237-.463-.437-.257-.168-.512-.33-.764-.485-.252-.155-.516-.32-.79-.496a5.743 5.743 0 00-.42-.281c-.156-.095-.215-.237-.177-.426a2.85 2.85 0 01.187-.673c.09-.218.19-.437.302-.657.015-.034.098-.051.25-.05.153.003.277.013.371.032 1.344.454 2.606.936 3.785 1.444a93.4 93.4 0 003.674 1.491c.401.166.642.338.722.514.08.176.029.461-.155.855-.162.342-.307.558-.436.647-.13.09-.381.118-.756.086a13.06 13.06 0 00-.685-.085 5.679 5.679 0 01-.649-.1 11.316 11.316 0 00-.495-.098.487.487 0 00-.303.028.461.461 0 00-.195.21 6.199 6.199 0 00-.197.44c-.44 1.064-.862 2.07-1.265 3.017l-1.158 2.723c-.37.869-.726 1.717-1.07 2.546L93.906 19.1a13.719 13.719 0 00-.424 1.173c-.062.2-.074.327-.036.384.038.056.145.142.323.256 1.416.627 2.788 1.236 4.117 1.828a68.211 68.211 0 003.637 1.506c.331.137.579.23.743.277.164.047.296.05.394.01.099-.04.178-.146.238-.315.06-.17.151-.403.274-.7a251.702 251.702 0 014.096-9.89 7.41 7.41 0 00.555-1.487c.087-.31.117-.518.089-.622-.029-.103-.168-.248-.419-.433l-.667-.46a11.64 11.64 0 00-.679-.435c-.317-.172-.506-.332-.567-.48-.061-.148-.044-.386.05-.715.027-.112.059-.226.097-.343a1.75 1.75 0 01.16-.348c.157-.282.298-.438.423-.468.125-.03.31.005.554.106a70.462 70.462 0 004.158 1.692 35.65 35.65 0 013.905 1.709c.07.029.133.086.19.17.057.085.074.154.053.206-.085.353-.236.74-.451 1.162-.08.192-.264.269-.555.23-.48-.076-.956-.135-1.428-.177a48.447 48.447 0 01-1.44-.152c-.297-.021-.511.125-.641.44a213.73 213.73 0 00-2.37 5.5 631.953 631.953 0 00-2.255 5.52 8.597 8.597 0 00-.24.651 1.485 1.485 0 00-.075.628.379.379 0 00.14.288c.086.066.18.12.285.164.105.043.211.082.32.117.108.035.214.074.32.117a81.68 81.68 0 003.735 1.562c1.215.473 2.443.986 3.684 1.541.192.08.331.102.418.066.086-.036.172-.158.26-.368.183-.394.353-.793.51-1.198.158-.405.311-.811.46-1.22.25-.652.52-1.292.81-1.918.29-.625.554-1.277.793-1.954.156-.426.335-.894.535-1.403.201-.51.401-1.03.6-1.56.2-.53.4-1.05.6-1.56.201-.51.38-.977.536-1.403.057-.14.079-.253.064-.341-.015-.088-.084-.178-.21-.271a25.22 25.22 0 00-1.909-1.312c-.254-.126-.338-.293-.251-.502a11.309 11.309 0 01.392-1.095c.065-.157.124-.275.178-.355.053-.08.109-.129.167-.146a.516.516 0 01.242.009c.103.022.242.07.416.141.768.318 1.485.62 2.153.907.668.287 1.312.559 1.931.815l3.676 1.523c.192.08.305.152.34.217.034.065.029.2-.016.407a4.09 4.09 0 00-.117.32 4.09 4.09 0 01-.117.319 2.86 2.86 0 00-.14.448c-.034.16-.098.25-.19.274a1.34 1.34 0 01-.515.062 5.132 5.132 0 01-.526-.064 18.01 18.01 0 01-1.112-.2 73.902 73.902 0 00-1.102-.227c-.248-.041-.423.06-.524.304-.83 2.15-1.681 4.27-2.557 6.36a148.966 148.966 0 00-2.325 5.872c-.115.279-.065.504.15.675.16.107.312.221.456.342.144.121.308.23.493.327.432.24.775.546 1.03.917.162.25.196.49.102.716a1.344 1.344 0 00-.145.277c-.126.255-.23.446-.315.575a.71.71 0 01-.26.26c-.09.044-.209.046-.356.006a5.633 5.633 0 01-.612-.223 87.01 87.01 0 01-2.518-1.027c-.833-.355-1.669-.707-2.506-1.053a96.07 96.07 0 00-3.2-1.264 86.116 86.116 0 01-2.888-1.135zm32.328 29.672l2.436 4.957.108.23c.187.351.332.548.437.593.105.045.348.029.73-.047l1.196-.252c.399-.084.789-.164 1.17-.24.272-.045.458-.039.558.019.1.057.198.209.294.456.104.264.18.468.227.613a.566.566 0 01.017.368.635.635 0 01-.24.286 6.07 6.07 0 01-.56.342c-.53.292-1.113.594-1.749.905-.636.31-1.22.612-1.75.905l-.511.242a3.1 3.1 0 00-.501.299c-.163.119-.312.168-.447.148-.11-.01-.18-.05-.213-.118a1.313 1.313 0 01-.083-.243 3.103 3.103 0 01-.057-.286.897.897 0 00-.07-.249 36.879 36.879 0 01-1.51-3.03 45.024 45.024 0 00-1.484-3.041 60.617 60.617 0 01-1.438-2.845c-.448-.947-.906-1.895-1.375-2.842a13.554 13.554 0 01-.58-1.261c-.168-.422-.344-.85-.529-1.285-.312-.75-.64-1.488-.983-2.214a11.39 11.39 0 00-1.253-2.054c-.245-.344-.336-.624-.272-.843.064-.218.28-.424.647-.619l.384-.181a7 7 0 01.454-.199.557.557 0 01.311-.037.686.686 0 01.295.158c.103.087.225.212.365.376.272.31.546.624.821.943.276.318.55.633.822.943.206.216.347.337.422.364.076.027.242-.02.498-.141.495-.234.983-.47 1.466-.709a92.84 92.84 0 011.466-.708c.64-.324 1.292-.647 1.954-.97a54.875 54.875 0 001.941-.996c.581-.316 1.17-.63 1.763-.942.594-.312 1.181-.626 1.763-.943a.983.983 0 00.147-.085.349.349 0 01.16-.06c.663-.188.939-.62.827-1.299a1.307 1.307 0 01-.004-.405c.02-.135.028-.274.022-.418a6.19 6.19 0 01.01-.74 1.171 1.171 0 00-.205-.734.381.381 0 01.009-.38 1.997 1.997 0 011.288-.985c.043.001.103.02.183.055.08.036.119.075.118.117a37.29 37.29 0 001.928 4.413 102.34 102.34 0 012.108 4.329 122.482 122.482 0 002.25 4.763c.299.631.608 1.253.928 1.864.32.61.638 1.228.953 1.851a26.514 26.514 0 01.939 2.25c.128.316.156.553.085.712-.071.159-.269.315-.593.468a193.05 193.05 0 01-4.15 2.024l-.281.133a.802.802 0 01-.348-.008c-.097-.028-.156-.11-.179-.245a2.45 2.45 0 00-.543-1.215c-.033-.026-.038-.092-.014-.197a.435.435 0 01.1-.22c.378-.304.715-.64 1.01-1.01.295-.369.603-.723.923-1.062.225-.231.264-.48.118-.745a17.136 17.136 0 01-.425-.833 12.768 12.768 0 01-.337-.78 13.658 13.658 0 00-.362-.831 26.53 26.53 0 00-.51-1.013 13.714 13.714 0 01-.532-1.126c-.16-.384-.329-.763-.506-1.139-.372-.743-.738-1.484-1.097-2.222-.36-.739-.725-1.48-1.097-2.223a.737.737 0 01-.123-.192c-.179-.292-.308-.455-.388-.49-.08-.036-.269.027-.568.19l-1.755.892c-.581.295-1.162.6-1.744.917-.187.09-.293.175-.316.26-.023.083.01.22.099.407a58.005 58.005 0 001.152 2.306c.234.495.458.98.67 1.453.214.473.446.953.697 1.44.234.495.475.982.722 1.46l.746 1.449c.162.341.218.58.168.72-.05.137-.228.3-.536.488a49.33 49.33 0 00-.463.28c-.145.09-.295.193-.45.307-.283.197-.509.272-.676.226-.168-.046-.337-.227-.508-.543a119.81 119.81 0 01-1.374-2.875 119.81 119.81 0 00-1.374-2.875 19.984 19.984 0 01-.569-1.171 19.983 19.983 0 00-.57-1.172c-.161-.3-.287-.465-.375-.496-.088-.032-.277.021-.567.158a155.097 155.097 0 00-3.765 1.842 2.834 2.834 0 00-.41.225.37.37 0 00-.157.2.477.477 0 00.038.279c.044.115.11.266.199.454.412.828.81 1.659 1.192 2.49.383.833.772 1.667 1.167 2.503l-.025.012z"/><path d="M46.162 46.218L16.82 17.7m94.4 32.265L146.413 23.6M114.76 64.746l12.203-3.386m-82.249 5.457L33.34 63.72m62.54-21.979l5.729-7.521M65.69 42.996L60.48 35.4m18.88-4.701V0M42.58 76.386L1.48 74.34m118 2.828l39.208-1.648" stroke-width="1.18"/></g></symbol><symbol viewBox="0 0 17 10" id="vk" xmlns="http://www.w3.org/2000/svg"><path d="M14.63 6.358c.564.572 1.16 1.11 1.665 1.741.224.28.436.568.596.893.23.463.023.97-.376.998h-2.476c-.64.054-1.148-.214-1.577-.668-.343-.362-.66-.75-.99-1.124a2.347 2.347 0 00-.446-.412c-.338-.228-.631-.158-.824.208-.198.373-.243.786-.261 1.202-.027.606-.203.765-.79.794-1.25.06-2.439-.137-3.542-.793-.974-.579-1.728-1.395-2.385-2.32C1.945 5.075.966 3.097.086 1.062-.112.603.033.358.519.349A66.28 66.28 0 012.943.348c.33.005.547.2.673.523.437 1.117.972 2.18 1.643 3.165.179.263.361.524.621.71.287.204.506.137.641-.196a2.23 2.23 0 00.143-.665c.064-.776.072-1.552-.04-2.326-.069-.484-.33-.796-.795-.888-.236-.046-.202-.137-.087-.278.2-.242.387-.392.76-.392L9.3 0c.44.09.54.296.6.757l.002 3.232c-.005.178.086.708.395.825.247.085.41-.121.558-.284.671-.74 1.15-1.614 1.577-2.518.19-.398.352-.81.51-1.224.118-.306.301-.456.633-.451l2.694.003c.08 0 .16.001.238.015.454.08.579.284.438.744-.22.724-.65 1.326-1.07 1.93-.45.647-.93 1.271-1.376 1.92-.41.594-.377.893.132 1.409z"/></symbol></svg>