<?xml version="1.0" encoding="utf-8"?><svg xmlns="http://www.w3.org/2000/svg" xmlns:xlink="http://www.w3.org/1999/xlink" style="display:none"><symbol viewBox="0 0 12 14" id="bell" xmlns="http://www.w3.org/2000/svg"><path d="M6 13.667a1.987 1.987 0 001.879-1.334H4.12A1.986 1.986 0 006 13.667zm4.667-4.943V5.667a4.67 4.67 0 00-3.43-4.495A1.327 1.327 0 006 .333c-.564 0-1.041.347-1.237.839a4.671 4.671 0 00-3.43 4.495v3.057L.195 9.862a.664.664 0 00-.195.471V11a.666.666 0 00.667.667h10.666A.666.666 0 0012 11v-.667a.665.665 0 00-.195-.471l-1.138-1.138z"/></symbol><symbol viewBox="0 0 14 11" id="comment" xmlns="http://www.w3.org/2000/svg"><path d="M5 10.557a.767.767 0 01-.471-.154.476.476 0 01-.196-.37V8.455H1.667c-.354 0-.693-.11-.943-.308-.25-.197-.39-.464-.39-.743V1.101c0-.278.14-.546.39-.743.25-.197.59-.307.943-.307h10.666c.354 0 .693.11.943.307s.39.465.39.743v6.304c0 .279-.14.546-.39.743-.25.197-.589.308-.943.308H8.267L5.8 10.406a.787.787 0 01-.467.151H5zm.667-3.152v1.618L7.72 7.405h4.613V1.101H1.667v6.304h4z"/></symbol><symbol viewBox="0 0 14 15" id="dislike" xmlns="http://www.w3.org/2000/svg"><path fill-rule="evenodd" clip-rule="evenodd" d="M.24 2.594C2.51 1.544 5.204.958 7.86.958c.86 0 1.707.041 2.534.18.323.055.743.178.924.32.255.198.418.512.418.863a1.1 1.1 0 01-.361.818h.093c.591 0 1.07.488 1.07 1.09a1.08 1.08 0 01-1.07 1.09h.535c.59 0 1.07.488 1.07 1.09a1.08 1.08 0 01-1.07 1.091c.59 0 1.07.488 1.07 1.09a1.08 1.08 0 01-1.07 1.09H7.207a.675.675 0 00-.668.682l.336 2.265c.032.103.049.213.049.324a1.08 1.08 0 01-1.07 1.09c-.494 0-.911-.343-1.032-.806l-.045-.155C4.09 10.85 2.534 8.814.24 7.5V2.594z"/></symbol><symbol viewBox="0 0 15 14" id="exit" xmlns="http://www.w3.org/2000/svg"><path d="M6.818 13.636a6.818 6.818 0 115.455-10.909h-1.848a5.455 5.455 0 100 8.182h1.848a6.808 6.808 0 01-5.455 2.727zm4.773-4.09V7.5H6.136V6.136h5.455V4.091L15 6.818l-3.41 2.727z"/></symbol><symbol viewBox="0 0 15 9" id="eye" xmlns="http://www.w3.org/2000/svg"><path d="M9.844 4.91c0 .49-.247.96-.687 1.306-.44.346-1.035.541-1.657.541-.622 0-1.218-.195-1.657-.54-.44-.347-.687-.817-.687-1.307s.247-.96.687-1.306c.44-.346 1.035-.54 1.657-.54.622 0 1.218.194 1.657.54.44.347.687.816.687 1.306z"/><path fill-rule="evenodd" clip-rule="evenodd" d="M0 4.91S2.813.847 7.5.847C12.188.847 15 4.91 15 4.91s-2.813 4.063-7.5 4.063C2.812 8.973 0 4.91 0 4.91zm7.5 2.586c.87 0 1.705-.273 2.32-.758.615-.485.961-1.142.961-1.828 0-.686-.346-1.343-.96-1.828-.616-.485-1.45-.758-2.321-.758-.87 0-1.705.273-2.32.758-.616.485-.961 1.142-.961 1.828 0 .686.345 1.343.96 1.828.616.485 1.45.758 2.321.758z"/></symbol><symbol viewBox="0 0 10 10" id="hot" xmlns="http://www.w3.org/2000/svg"><path d="M3.18 10C1.131 8.845.592 7.752.9 6.26c.228-1.103.974-2 1.045-3.1.319.58.452.998.487 1.603C3.445 3.523 4.114 1.805 4.154 0c0 0 2.638 1.55 2.811 3.892.227-.483.342-1.25.115-1.746.68.496 4.669 4.907-.54 7.854.979-1.907.252-4.48-1.448-5.668.113.51-.086 2.416-.838 3.254.208-1.4-.199-1.991-.199-1.991s-.14.784-.68 1.575c-.496.723-.838 1.49-.195 2.83z"/></symbol><symbol viewBox="0 0 14 15" id="like" xmlns="http://www.w3.org/2000/svg"><path fill-rule="evenodd" clip-rule="evenodd" d="M13.343 12.406c-2.27 1.05-4.964 1.635-7.62 1.635-.86 0-1.707-.04-2.534-.18-.323-.054-.743-.177-.924-.318a1.095 1.095 0 01-.418-.864c0-.325.14-.619.361-.818h-.093a1.08 1.08 0 01-1.07-1.09c0-.603.479-1.09 1.07-1.09H1.58A1.08 1.08 0 01.51 8.59c0-.603.48-1.09 1.07-1.09A1.08 1.08 0 01.51 6.41c0-.603.48-1.09 1.07-1.09h4.796c.37 0 .668-.306.668-.682l-.336-2.265a1.09 1.09 0 01-.049-.324c0-.603.479-1.09 1.07-1.09.494 0 .911.343 1.032.806l.045.155c.687 2.23 2.243 4.266 4.537 5.58v4.906z"/></symbol><symbol viewBox="0 0 12 12" id="link" xmlns="http://www.w3.org/2000/svg"><g clip-path="url(#hclip0)"><path d="M9.128 0c-.766 0-1.488.299-2.03.841L4.862 3.077c.171-.024.342-.05.516-.05.482 0 .954.094 1.388.268l1.393-1.393a1.373 1.373 0 011.94 1.94L7.59 6.347c-.518.518-1.42.518-1.94 0L4.592 7.41c.543.542 1.264.84 2.03.84.767 0 1.488-.299 2.03-.841l2.508-2.507a2.853 2.853 0 00.84-2.03A2.875 2.875 0 009.13 0z"/><path d="M5.22 8.719l-1.379 1.38a1.373 1.373 0 01-1.94-1.94L4.41 5.652c.518-.518 1.42-.518 1.94 0L7.41 4.59c-1.085-1.083-2.976-1.083-4.06.001L.84 7.098A2.853 2.853 0 000 9.128 2.874 2.874 0 002.871 12c.767 0 1.488-.299 2.03-.841l2.207-2.207c-.161.022-.321.048-.487.048-.489 0-.962-.098-1.4-.281z"/></g><defs><clipPath id="hclip0"><path d="M0 0h12v12H0z"/></clipPath></defs></symbol><symbol viewBox="0 0 15 14" id="login" xmlns="http://www.w3.org/2000/svg"><path d="M6.667 6.333v-2L10 7 6.667 9.667v-2h-6V6.333h6zM1.639 9h1.416a5.335 5.335 0 0010.278-2A5.334 5.334 0 003.055 5H1.639a6.667 6.667 0 110 4z"/></symbol><symbol viewBox="0 0 12 12" id="phone" xmlns="http://www.w3.org/2000/svg"><path d="M4.97 7.031c-1.146-1.145-1.405-2.29-1.463-2.75a.411.411 0 01.118-.344l.927-.926a.414.414 0 00.058-.512L3.134.207a.414.414 0 00-.536-.15L.23 1.171a.412.412 0 00-.227.411C.127 2.762.641 5.66 3.49 8.51c2.849 2.849 5.747 3.363 6.927 3.487a.412.412 0 00.412-.228L11.944 9.4a.414.414 0 00-.15-.535L9.502 7.39a.414.414 0 00-.512.058l-.927.927a.411.411 0 01-.344.118c-.459-.058-1.604-.317-2.75-1.462z"/><path d="M9.517 6.414A.414.414 0 019.104 6 3.107 3.107 0 006 2.897a.414.414 0 010-.828A3.935 3.935 0 019.931 6a.414.414 0 01-.414.414z"/><path d="M11.586 6.414A.414.414 0 0111.173 6 5.178 5.178 0 006 .828.414.414 0 016 0a6.007 6.007 0 016 6 .414.414 0 01-.414.414z"/></symbol><symbol viewBox="0 0 12 12" id="question" xmlns="http://www.w3.org/2000/svg"><path d="M6 0C2.688 0 0 2.688 0 6s2.688 6 6 6 6-2.688 6-6-2.688-6-6-6zm0 10.8A4.806 4.806 0 011.2 6c0-2.646 2.154-4.8 4.8-4.8s4.8 2.154 4.8 4.8-2.154 4.8-4.8 4.8zm-.6-2.4h1.2v1.2H5.4V8.4zm.966-5.976a2.401 2.401 0 00-2.658 1.674.544.544 0 00.522.702h.12c.246 0 .444-.174.528-.402.192-.534.762-.9 1.38-.768.57.12.99.678.942 1.26-.06.804-.972.978-1.47 1.728 0 .006-.006.006-.006.012-.006.012-.012.018-.018.03-.054.09-.108.192-.15.3-.006.018-.018.03-.024.048-.006.012-.006.024-.012.042a2.23 2.23 0 00-.12.75h1.2c0-.252.066-.462.168-.642.012-.018.018-.036.03-.054.048-.084.108-.162.168-.234.006-.006.012-.018.018-.024.06-.072.126-.138.198-.204.576-.546 1.356-.99 1.194-2.136-.144-1.044-.966-1.926-2.01-2.082z"/></symbol><symbol viewBox="0 0 12 13" id="rub" xmlns="http://www.w3.org/2000/svg"><path d="M.818 10.59h1.91v1.637A.264.264 0 003 12.5h1.423a.269.269 0 00.273-.273v-1.636H9c.08 0 .145-.026.196-.077a.265.265 0 00.077-.196v-1.09a.265.265 0 00-.077-.197A.265.265 0 009 8.954H4.696V7.95h2.898c1.136 0 2.063-.347 2.782-1.04.719-.693 1.079-1.588 1.079-2.685 0-1.096-.36-1.99-1.079-2.684C9.657.847 8.73.5 7.594.5H3a.266.266 0 00-.196.077.266.266 0 00-.077.196v5.36H.818a.27.27 0 00-.273.273v1.27c0 .08.026.145.077.196a.265.265 0 00.196.077h1.91v1.005H.817a.265.265 0 00-.196.077.265.265 0 00-.077.196v1.091c0 .08.026.145.077.196a.265.265 0 00.196.077zm3.878-8.274h2.727c.602 0 1.088.176 1.458.528.369.352.553.813.553 1.38 0 .569-.184 1.03-.553 1.381-.37.353-.856.529-1.458.529H4.696V2.316z"/></symbol><symbol viewBox="0 0 16 16" id="search" xmlns="http://www.w3.org/2000/svg"><path fill-rule="evenodd" clip-rule="evenodd" d="M10.442 10.442a.998.998 0 011.415 0l3.85 3.85a1 1 0 01-1.414 1.415l-3.85-3.85a.998.998 0 010-1.415h-.001z"/><path fill-rule="evenodd" clip-rule="evenodd" d="M6.5 12a5.5 5.5 0 100-11 5.5 5.5 0 000 11zM13 6.5a6.5 6.5 0 11-13.001 0 6.5 6.5 0 0113 0z"/></symbol><symbol viewBox="0 0 12 12" id="settings" xmlns="http://www.w3.org/2000/svg"><path d="M6.038 3.375A2.609 2.609 0 003.413 6a2.609 2.609 0 002.625 2.625A2.609 2.609 0 008.663 6a2.609 2.609 0 00-2.625-2.625zm0 4.5A1.857 1.857 0 014.163 6c0-1.05.825-1.875 1.875-1.875S7.913 4.95 7.913 6s-.825 1.875-1.875 1.875z"/><path d="M11.55 4.763l-1.05-.338-.225-.563.525-.974a.63.63 0 00-.113-.713l-.9-.9a.63.63 0 00-.712-.112l-.975.524-.563-.225L7.2.412A.61.61 0 006.637 0H5.364a.526.526 0 00-.526.45L4.5 1.5a1.657 1.657 0 00-.6.225L2.925 1.2a.63.63 0 00-.712.113l-.9.9a.63.63 0 00-.113.712l.488.938c-.075.187-.15.412-.226.6L.412 4.8A.61.61 0 000 5.363v1.274c0 .263.188.488.45.563l1.05.337.225.563-.525.975a.63.63 0 00.113.713l.9.9a.63.63 0 00.712.112l.975-.525.563.225.337 1.088a.61.61 0 00.563.412h1.274a.61.61 0 00.563-.412l.337-1.088.563-.225.975.525a.63.63 0 00.713-.113l.9-.9a.63.63 0 00.112-.712l-.525-.975.225-.563 1.088-.337A.61.61 0 0012 6.637V5.364a.642.642 0 00-.45-.6zm-.3 1.762l-1.35.412-.037.188-.338.787-.113.188.675 1.238-.75.75L8.1 9.412l-.188.112a3.56 3.56 0 01-.787.338l-.188.037-.412 1.35h-1.05L5.063 9.9l-.188-.037-.787-.338-.188-.113-1.237.675-.75-.75.674-1.237-.112-.188a3.56 3.56 0 01-.337-.787L2.1 6.937.75 6.526v-1.05L2.025 5.1l.075-.188c.075-.3.188-.562.337-.824L2.55 3.9l-.637-1.237.75-.75 1.2.674.187-.112c.263-.15.525-.263.825-.337l.188-.075L5.474.75h1.05l.412 1.313.188.075c.263.075.525.187.787.337l.188.112 1.238-.675.75.75L9.412 3.9l.112.188c.15.262.262.524.338.787l.037.188 1.35.412v1.05z"/></symbol><symbol viewBox="0 0 16 26" id="sort" xmlns="http://www.w3.org/2000/svg"><path d="M15.5 10.833H.5l7.5-10 7.5 10zm-15 5h15l-7.5 10-7.5-10z"/></symbol></svg>