<?xml version="1.0" encoding="utf-8"?><svg xmlns="http://www.w3.org/2000/svg" xmlns:xlink="http://www.w3.org/1999/xlink" style="display:none"><symbol viewBox="0 0 12 14" id="bell" xmlns="http://www.w3.org/2000/svg"><path d="M6 13.667a1.987 1.987 0 001.879-1.334H4.12A1.986 1.986 0 006 13.667zm4.667-4.943V5.667a4.67 4.67 0 00-3.43-4.495A1.327 1.327 0 006 .333c-.564 0-1.041.347-1.237.839a4.671 4.671 0 00-3.43 4.495v3.057L.195 9.862a.664.664 0 00-.195.471V11a.666.666 0 00.667.667h10.666A.666.666 0 0012 11v-.667a.665.665 0 00-.195-.471l-1.138-1.138z"/></symbol><symbol viewBox="0 0 15 9" id="eye" xmlns="http://www.w3.org/2000/svg"><path d="M9.844 4.91c0 .49-.247.96-.687 1.306-.44.346-1.035.541-1.657.541-.622 0-1.218-.195-1.657-.54-.44-.347-.687-.817-.687-1.307s.247-.96.687-1.306c.44-.346 1.035-.54 1.657-.54.622 0 1.218.194 1.657.54.44.347.687.816.687 1.306z"/><path fill-rule="evenodd" clip-rule="evenodd" d="M0 4.91S2.813.847 7.5.847C12.188.847 15 4.91 15 4.91s-2.813 4.063-7.5 4.063C2.812 8.973 0 4.91 0 4.91zm7.5 2.586c.87 0 1.705-.273 2.32-.758.615-.485.961-1.142.961-1.828 0-.686-.346-1.343-.96-1.828-.616-.485-1.45-.758-2.321-.758-.87 0-1.705.273-2.32.758-.616.485-.961 1.142-.961 1.828 0 .686.345 1.343.96 1.828.616.485 1.45.758 2.321.758z"/></symbol><symbol viewBox="0 0 10 10" id="hot" xmlns="http://www.w3.org/2000/svg"><path d="M3.18 10C1.131 8.845.592 7.752.9 6.26c.228-1.103.974-2 1.045-3.1.319.58.452.998.487 1.603C3.445 3.523 4.114 1.805 4.154 0c0 0 2.638 1.55 2.811 3.892.227-.483.342-1.25.115-1.746.68.496 4.669 4.907-.54 7.854.979-1.907.252-4.48-1.448-5.668.113.51-.086 2.416-.838 3.254.208-1.4-.199-1.991-.199-1.991s-.14.784-.68 1.575c-.496.723-.838 1.49-.195 2.83z"/></symbol><symbol viewBox="0 0 15 14" id="login" xmlns="http://www.w3.org/2000/svg"><path d="M6.667 6.333v-2L10 7 6.667 9.667v-2h-6V6.333h6zM1.639 9h1.416a5.335 5.335 0 0010.278-2A5.334 5.334 0 003.055 5H1.639a6.667 6.667 0 110 4z"/></symbol><symbol viewBox="0 0 16 16" id="search" xmlns="http://www.w3.org/2000/svg"><path fill-rule="evenodd" clip-rule="evenodd" d="M10.442 10.442a.998.998 0 011.415 0l3.85 3.85a1 1 0 01-1.414 1.415l-3.85-3.85a.998.998 0 010-1.415h-.001z"/><path fill-rule="evenodd" clip-rule="evenodd" d="M6.5 12a5.5 5.5 0 100-11 5.5 5.5 0 000 11zM13 6.5a6.5 6.5 0 11-13.001 0 6.5 6.5 0 0113 0z"/></symbol></svg>