<?xml version="1.0" encoding="utf-8"?><svg xmlns="http://www.w3.org/2000/svg" xmlns:xlink="http://www.w3.org/1999/xlink"><symbol fill="none" viewBox="0 0 10 10" id="label-ok" xmlns="http://www.w3.org/2000/svg"><path d="M10 5L8.89 3.732l.155-1.677-1.64-.373-.86-1.454L5 .89 3.455.228l-.86 1.45-1.64.368.154 1.682L0 5l1.11 1.268L.954 7.95l1.64.373.86 1.45L5 9.105l1.545.663.86-1.45 1.64-.372-.154-1.678L10 5zM4.132 7.146L2.405 5.414l.672-.673 1.055 1.06L6.79 3.131l.673.673-3.332 3.34z" fill="#0BB526"/></symbol><symbol fill="none" viewBox="0 0 10 10" id="label-warning" xmlns="http://www.w3.org/2000/svg"><path d="M5 0a5 5 0 100 10A5 5 0 005 0zm0 7.902a.446.446 0 110-.893.446.446 0 010 .893zm.702-2.45a.54.54 0 00-.345.5v.253c0 .05-.04.09-.09.09h-.535a.09.09 0 01-.09-.09v-.24a1.247 1.247 0 01.804-1.18c.38-.147.625-.465.625-.812 0-.492-.48-.893-1.071-.893-.59 0-1.071.401-1.071.893v.085c0 .05-.04.09-.09.09h-.535a.09.09 0 01-.09-.09v-.085c0-.438.192-.848.54-1.153A1.882 1.882 0 015 2.366c.469 0 .91.162 1.246.454.348.305.54.715.54 1.153 0 .645-.426 1.226-1.084 1.479z" fill="#FF7A00"/></symbol></svg>