<?xml version="1.0" encoding="UTF-8"?><svg xmlns="http://www.w3.org/2000/svg" xmlns:xlink="http://www.w3.org/1999/xlink" style="display:none"><symbol viewBox="0 0 346 512" id="agreement" xmlns="http://www.w3.org/2000/svg"><g fill-rule="nonzero"><path d="M330.978 0H15.022c-8.284 0-15 6.716-15 15v421.273c0 8.284 6.716 15 15 15h112.853V497a15 15 0 0018.849 14.497L173 504.52l26.275 6.978A15 15 0 00218.125 497v-45.727h112.853c8.284 0 15-6.716 15-15V15c0-8.284-6.716-15-15-15zM176.85 474.502a14.998 14.998 0 00-7.7 0l-11.275 2.994v-27.754a57.978 57.978 0 0030.25 0v27.754l-11.275-2.994zm24.289-80.89c0 15.516-12.623 28.138-28.139 28.138s-28.139-12.623-28.139-28.138c0-15.515 12.623-28.138 28.139-28.138s28.139 12.622 28.139 28.138zm114.839 27.661h-91.852a57.78 57.78 0 007.013-27.661c0-32.058-26.081-58.138-58.139-58.138-32.058 0-58.139 26.081-58.139 58.138a57.778 57.778 0 007.013 27.661H30.022V30h285.956v391.273z"/><path d="M82.625 301.125h180.75c8.284 0 15-6.716 15-15 0-8.284-6.716-15-15-15H82.625c-8.284 0-15 6.716-15 15 0 8.284 6.716 15 15 15zM82.625 240.875h180.75c8.284 0 15-6.716 15-15 0-8.284-6.716-15-15-15H82.625c-8.284 0-15 6.716-15 15 0 8.284 6.716 15 15 15zM82.625 180.625h180.75c8.284 0 15-6.716 15-15 0-8.284-6.716-15-15-15H82.625c-8.284 0-15 6.716-15 15 0 8.284 6.716 15 15 15zM82.625 120.375h120.5c8.284 0 15-6.716 15-15 0-8.284-6.716-15-15-15h-120.5c-8.284 0-15 6.716-15 15 0 8.284 6.716 15 15 15z"/></g></symbol><symbol viewBox="0 0 322 475" id="avatar" xmlns="http://www.w3.org/2000/svg"><g fill-rule="nonzero"><path d="M176.21 206.855c0 8.45-6.873 15.322-15.323 15.322s-15.322-6.872-15.322-15.322h-15.323c0 16.9 13.744 30.645 30.645 30.645 16.9 0 30.645-13.744 30.645-30.645H176.21z"/><path d="M285.107 304.03l-78.252-26.086V262.07c7.868-5.149 14.794-11.584 20.547-18.985 30.753-25.795 48.404-63.566 48.404-103.726v-24.44C275.806 51.553 224.254 0 160.887 0 97.521 0 45.967 51.553 45.967 114.92v19.995c-22.769 9.286-38.306 31.68-38.306 56.617 0 33.794 27.497 61.29 61.29 61.29 9.784 0 19.246-2.351 27.819-6.734a84.831 84.831 0 0018.15 15.99v15.874L36.666 304.03A53.565 53.565 0 000 354.909V475h321.774V354.91a53.565 53.565 0 00-36.667-50.88zm-72.621-8.051l-16.648 49.92-24.118-24.125 29.542-29.542 11.224 3.747zm-16.464 71.763h-70.27l35.135-35.135 35.135 35.135zm-65.78-87.446v-10.343c9.515 3.731 19.827 5.853 30.645 5.853 10.818 0 21.13-2.122 30.645-5.853v10.343l-30.645 30.645-30.645-30.645zm99.597-127.07h-1.41c-3.172-8.895-11.6-15.323-21.574-15.323h-15.323c-9.975 0-18.402 6.428-21.574 15.323h-18.15c-3.171-8.895-11.599-15.323-21.574-15.323h-15.322c-9.975 0-18.403 6.428-21.575 15.323h-1.402v-15.323h7.662c23.198 0 45.485-9.745 61.29-26.447 15.805 16.702 38.092 26.447 61.29 26.447h7.662v15.323zm-15.323 7.661c0 4.221-3.432 7.661-7.661 7.661h-15.323c-4.229 0-7.661-3.44-7.661-7.66 0-4.222 3.432-7.662 7.661-7.662h15.323c4.229 0 7.661 3.44 7.661 7.661zm-76.613 0c0 4.221-3.432 7.661-7.661 7.661h-15.323c-4.229 0-7.66-3.44-7.66-7.66 0-4.222 3.431-7.662 7.66-7.662h15.323c4.229 0 7.661 3.44 7.661 7.661zM61.29 114.92c0-54.916 44.681-99.596 99.597-99.596s99.597 44.68 99.597 99.596v24.44c0 21.038-5.585 41.271-15.675 59.084.191-2.283.352-4.574.352-6.91v-76.614H229.84v7.662h-7.662c-21.581 0-42.206-10.312-55.16-27.581l-6.13-8.175L154.758 95c-12.955 17.269-33.58 27.58-55.161 27.58h-7.662v-7.66H76.613v76.612c0 2.337.16 4.628.352 6.91-10.09-17.812-15.675-38.045-15.675-59.083v-24.44zM68.952 237.5c-25.352 0-45.968-20.617-45.968-45.968 0-16.786 9.4-32.024 23.65-40.03 2.804 31.365 16.334 60.585 38.468 82.956-5.133 1.931-10.558 3.042-16.15 3.042zm22.983-45.968v-22.984h1.41c3.172 8.895 11.6 15.323 21.574 15.323h15.323c9.975 0 18.402-6.428 21.574-15.323h18.15c3.171 8.895 11.599 15.323 21.574 15.323h15.323c9.975 0 18.402-6.428 21.574-15.323h1.402v22.984c0 38.016-30.929 68.952-68.952 68.952-38.023 0-68.952-30.936-68.952-68.952zm28.577 100.7l29.542 29.542-24.118 24.126-16.648-49.921 11.224-3.747zM15.322 459.677V354.91a38.263 38.263 0 0126.195-36.345l53.238-17.743 22.302 66.92H76.613v61.291H61.29V352.42H45.968v91.936h61.29c9.975 0 18.402 6.428 21.574 15.322H15.322zm161.661 0h-32.192c-3.563-17.46-19.03-30.645-37.533-30.645H91.935v-45.967H229.84v45.967h-15.323c-18.494 0-33.97 13.185-37.533 30.645zm129.469 0h-113.51c3.172-8.894 11.6-15.322 21.574-15.322h61.29v-91.936h-15.322v76.613H245.16v-61.29h-40.444l22.302-66.921 53.239 17.743a38.263 38.263 0 0126.194 36.345v104.768z"/></g></symbol><symbol viewBox="0 0 511.998 511.998" id="consulting" xmlns="http://www.w3.org/2000/svg"><path d="M451.317 423.77c-1.138-69.583-72.282-90.141-124.23-105.152-6.061-1.751-11.89-3.436-17.352-5.118v-28.705a102.29 102.29 0 0027.433-25.217h31.644c15.485 0 28.084-12.599 28.084-28.084v-33.996a36.06 36.06 0 002.92-14.249v-10.573c0-5.052-1.043-9.865-2.92-14.238V140.9C396.896 63.208 333.69 0 255.999 0 178.323 0 115.13 63.208 115.13 140.901v17.036c0 .134.015.263.02.396a36.01 36.01 0 00-2.968 14.344v10.573c0 19.987 16.248 36.248 36.219 36.248h8.264c5.724 27.448 22.575 50.858 45.598 65.292v28.71c-5.463 1.682-11.291 3.366-17.352 5.118-51.948 15.011-123.092 35.57-124.23 105.152l-.001.164v78.064c0 5.523 4.478 10 10 10h29.648c5.522 0 10-4.477 10-10s-4.478-10-10-10H80.679v-67.981c.421-24.277 11.573-42.476 35.094-57.271 15.521-9.763 34.496-16.719 53.2-22.538l24.161 47.074c2.693 5.247 9.588 7.03 14.488 3.724l10.773-7.267 9.249 34.763-15.847 69.495h-21.672c-5.522 0-10 4.477-10 10s4.478 10 10 10h251.193c5.522 0 10-4.477 10-10v-78.064l-.001-.163zm-129.782-85.939l1.993.577-17.287 33.714-32.351-21.815 27.411-18.489c6.368 2.004 13.14 3.963 20.234 6.013zm-65.529 24.539l20.052 13.522-9.691 36.426h-20.736l-9.688-36.415zm-.002-24.123l-33.742-22.753v-21.052a100.983 100.983 0 0033.736 5.784c11.823 0 23.176-2.042 33.736-5.777v21.045zm81.464-195.517l-.41-.261c-20.519-13.062-38.241-24.343-66.009-16.398a10.21 10.21 0 00-.765.252c-5.887 2.211-11.24 4.272-16.418 6.265-31.623 12.173-48.889 18.821-79.337 17.965v-8.008c0-44.924 36.547-81.472 81.469-81.472s81.469 36.548 81.469 81.472v.185zm39.428 88.764c0 4.458-3.626 8.084-8.084 8.084h-19.928a100.624 100.624 0 006.45-20.081h8.264c4.695 0 9.178-.908 13.299-2.543v14.54zm2.92-48.245c0 8.959-7.275 16.248-16.219 16.248h-6.138c.002-.248.01-43.041.01-43.041h6.129c8.943 0 16.219 7.276 16.219 16.22v10.573zm-231.415 16.249c-8.943 0-16.219-7.289-16.219-16.248v-10.573c0-8.944 7.275-16.22 16.219-16.22h6.129s.008 42.793.01 43.041zm6.316-63.042H148.4c-4.675 0-9.14.9-13.246 2.52C136.187 73.196 189.995 20 255.999 20c66.023 0 119.846 53.202 120.872 118.987a36.005 36.005 0 00-13.274-2.531h-6.317c-3.16-53.128-47.376-95.383-101.281-95.383-53.906 0-98.122 42.256-101.282 95.383zm20.414 72.027l-.004-.03a81.929 81.929 0 01-.597-9.698v-28.203c34.213.834 54.622-7.018 86.521-19.298a2115.503 2115.503 0 0115.874-6.06c18.89-5.273 29.759 1.648 49.393 14.147 3.407 2.169 7.144 4.546 11.15 6.987v32.427c0 14.871-4.024 28.811-11.011 40.824h-70.458c-5.522 0-10 4.477-10 10s4.478 10 10 10h54.124c-14.402 12.831-33.364 20.648-54.124 20.648-41.629-.001-76.043-31.393-80.868-71.744zm30.65 163.64l-17.306-33.717 1.988-.575c7.094-2.05 13.866-4.01 20.236-6.014l27.422 18.492zm26.53 119.875l13.609-59.68h20.161l13.63 59.68zm199.007 0H300.226l-15.872-69.497 9.253-34.776 10.799 7.282c4.902 3.305 11.797 1.522 14.489-3.728l24.134-47.069c18.703 5.819 37.677 12.774 53.197 22.536 23.52 14.794 34.673 32.994 35.094 57.271v67.981z"/><path d="M391.828 441.995h-50.397c-5.522 0-10 4.477-10 10s4.478 10 10 10h50.397c5.522 0 10-4.477 10-10s-4.477-10-10-10zM145.227 491.998c-5.522 0-10 4.477-10 10s4.478 10 10 10h.028c5.522 0 9.985-4.477 9.985-10s-4.491-10-10.013-10z"/></symbol><symbol viewBox="0 0 512 512" id="contract" xmlns="http://www.w3.org/2000/svg"><path d="M448.004 93c5.523 0 10-4.477 10-10V30c0-16.542-13.458-30-30-30h-398c-16.542 0-30 13.458-30 30v452c0 16.542 13.458 30 30 30h398c16.542 0 30-13.458 30-30v-28c0-5.523-4.477-10-10-10s-10 4.477-10 10v28c0 5.514-4.486 10-10 10h-398c-5.514 0-10-4.486-10-10V30c0-5.514 4.486-10 10-10h398c5.514 0 10 4.486 10 10v53c0 5.523 4.477 10 10 10z"/><path d="M400.01 48H57.998c-5.523 0-10 4.477-10 10v209c0 5.523 4.477 10 10 10s10-4.477 10-10V68H390.01v16c0 5.523 4.478 10 10 10 5.523 0 10-4.477 10-10V58c0-5.523-4.477-10-10-10zM65.064 296.93a10.058 10.058 0 00-7.07-2.93c-2.63 0-5.21 1.07-7.07 2.93s-2.93 4.44-2.93 7.07 1.07 5.21 2.93 7.07c1.86 1.86 4.44 2.93 7.07 2.93 2.64 0 5.21-1.07 7.07-2.93 1.87-1.86 2.93-4.44 2.93-7.07s-1.06-5.21-2.93-7.07zM400.01 422c-5.523 0-10 4.477-10 10v12H67.998V342.5c0-5.523-4.477-10-10-10s-10 4.477-10 10V454c0 5.523 4.477 10 10 10H400.01c5.523 0 10-4.477 10-10v-22c0-5.523-4.477-10-10-10z"/><path d="M309.908 353.336c-3.905-3.906-10.236-3.906-14.142-.001L276.002 373.1l-12.285-12.286c-7.757-7.756-20.376-7.756-28.133 0l-7.994 7.994c-3.905 3.905-3.905 10.237 0 14.143 3.905 3.905 10.237 3.905 14.143 0l7.918-7.918 12.285 12.286c3.878 3.878 8.972 5.817 14.066 5.817s10.188-1.939 14.066-5.817l19.84-19.84c3.905-3.905 3.905-10.237 0-14.143z"/><path d="M507.4 209.782a29.155 29.155 0 003.609-23.231 29.152 29.152 0 00-14.741-18.313 9.115 9.115 0 01-4.907-8.499 29.157 29.157 0 00-8.489-21.923 29.133 29.133 0 00-21.923-8.489 9.087 9.087 0 01-8.499-4.907 29.155 29.155 0 00-18.313-14.741 29.146 29.146 0 00-23.23 3.609 9.113 9.113 0 01-9.813 0 29.148 29.148 0 00-23.23-3.609 29.155 29.155 0 00-18.313 14.741 9.132 9.132 0 01-8.499 4.907 29.142 29.142 0 00-21.922 8.489 29.154 29.154 0 00-8.49 21.922 9.117 9.117 0 01-4.907 8.5 29.153 29.153 0 00-14.741 18.313 29.05 29.05 0 00-.711 11.449h-174.5c-5.523 0-10 4.477-10 10s4.477 10 10 10H305.39a9.006 9.006 0 01-.79 1.596 29.155 29.155 0 00-3.609 23.231c.29 1.083.647 2.141 1.057 3.173h-176.27c-5.523 0-10 4.477-10 10s4.477 10 10 10h194.265a9.035 9.035 0 01.594 3.639 29.154 29.154 0 008.49 21.923 29.127 29.127 0 0021.922 8.489c3.533-.173 6.873 1.761 8.499 4.907a29.023 29.023 0 004.451 6.344v93.393a10 10 0 0017.053 7.089l24.947-24.817 24.947 24.817a9.997 9.997 0 0010.892 2.144 10 10 0 006.161-9.234v-93.393a28.999 28.999 0 004.451-6.344 9.126 9.126 0 018.499-4.907 29.112 29.112 0 0021.922-8.489 29.154 29.154 0 008.49-21.923 9.116 9.116 0 014.907-8.499 29.153 29.153 0 0014.741-18.313 29.157 29.157 0 00-3.609-23.232 9.11 9.11 0 010-9.812zm-79.401 170.86l-14.948-14.87c-3.901-3.881-10.204-3.881-14.105 0l-14.947 14.87V320.65a29.166 29.166 0 0017.094-4.56 9.113 9.113 0 019.813 0 29.147 29.147 0 0015.72 4.597c.458 0 .915-.023 1.373-.045v60zm63.691-142.991a8.991 8.991 0 01-4.607 5.723c-10.064 5.203-16.228 15.877-15.701 27.195a8.991 8.991 0 01-2.653 6.852 8.998 8.998 0 01-6.851 2.653c-11.324-.524-21.992 5.636-27.195 15.701a8.987 8.987 0 01-5.724 4.607c-2.5.669-5.08.27-7.259-1.128a29.075 29.075 0 00-15.702-4.586 29.082 29.082 0 00-15.701 4.586 8.998 8.998 0 01-7.26 1.128 8.993 8.993 0 01-5.724-4.607c-5.203-10.064-15.869-16.23-27.195-15.701a9.003 9.003 0 01-6.851-2.653 8.988 8.988 0 01-2.653-6.853c.371-7.988-2.602-15.646-7.915-21.295a9.882 9.882 0 00-.483-.499 28.922 28.922 0 00-7.303-5.4c-2.3-1.189-3.936-3.221-4.606-5.723s-.27-5.081 1.128-7.26c6.115-9.538 6.115-21.864 0-31.402a8.996 8.996 0 01-1.128-7.261 8.991 8.991 0 014.607-5.723c10.064-5.203 16.227-15.877 15.701-27.195a8.991 8.991 0 012.653-6.852 8.998 8.998 0 016.851-2.653c11.325.525 21.993-5.636 27.195-15.701a8.987 8.987 0 015.724-4.607 8.991 8.991 0 017.259 1.128c9.539 6.116 21.866 6.116 31.402 0a8.99 8.99 0 017.26-1.128 8.993 8.993 0 015.724 4.607c5.203 10.064 15.876 16.229 27.195 15.701a8.993 8.993 0 016.851 2.653 8.987 8.987 0 012.653 6.852c-.526 11.317 5.636 21.992 15.702 27.195a8.987 8.987 0 014.606 5.723 8.99 8.99 0 01-1.128 7.26c-6.115 9.538-6.115 21.864 0 31.402a8.988 8.988 0 011.128 7.261z"/><path d="M453.556 187.486c-3.905-3.905-10.237-3.905-14.142 0l-33.191 33.192-13.213-13.213c-3.905-3.905-10.237-3.905-14.143 0-3.905 3.905-3.905 10.237 0 14.143l20.284 20.284c1.953 1.953 4.512 2.929 7.071 2.929s5.119-.976 7.071-2.929l40.263-40.263c3.905-3.905 3.905-10.237 0-14.143zM122.074 120.93a10.076 10.076 0 00-7.07-2.93c-2.63 0-5.21 1.07-7.07 2.93-1.86 1.86-2.93 4.44-2.93 7.07s1.07 5.21 2.93 7.07c1.86 1.86 4.44 2.93 7.07 2.93s5.21-1.07 7.07-2.93c1.86-1.86 2.93-4.44 2.93-7.07s-1.07-5.21-2.93-7.07zM200.997 118H152.33c-5.523 0-10 4.477-10 10s4.477 10 10 10h48.667c5.523 0 10-4.477 10-10s-4.477-10-10-10zM302.838 294H188.516c-5.523 0-10 4.477-10 10s4.477 10 10 10h114.321c5.523 0 10-4.477 10-10s-4.476-10-9.999-10z"/></symbol><symbol viewBox="0 0 483.3 483.3" id="envelope" xmlns="http://www.w3.org/2000/svg"><path d="M424.3 57.75H59.1c-32.6 0-59.1 26.5-59.1 59.1v249.6c0 32.6 26.5 59.1 59.1 59.1h365.1c32.6 0 59.1-26.5 59.1-59.1v-249.5c.1-32.6-26.4-59.2-59-59.2zm32.1 308.7c0 17.7-14.4 32.1-32.1 32.1H59.1c-17.7 0-32.1-14.4-32.1-32.1v-249.5c0-17.7 14.4-32.1 32.1-32.1h365.1c17.7 0 32.1 14.4 32.1 32.1v249.5h.1z"/><path d="M304.8 238.55l118.2-106c5.5-5 6-13.5 1-19.1-5-5.5-13.5-6-19.1-1l-163 146.3-31.8-28.4c-.1-.1-.2-.2-.2-.3-.7-.7-1.4-1.3-2.2-1.9L78.3 112.35c-5.6-5-14.1-4.5-19.1 1.1-5 5.6-4.5 14.1 1.1 19.1l119.6 106.9-119.1 111.5c-5.4 5.1-5.7 13.6-.6 19.1 2.7 2.8 6.3 4.3 9.9 4.3 3.3 0 6.6-1.2 9.2-3.6l120.9-113.1 32.8 29.3c2.6 2.3 5.8 3.4 9 3.4s6.5-1.2 9-3.5l33.7-30.2 120.2 114.2c2.6 2.5 6 3.7 9.3 3.7 3.6 0 7.1-1.4 9.8-4.2 5.1-5.4 4.9-14-.5-19.1l-118.7-112.7z"/></symbol><symbol viewBox="0 0 512 512" id="gift" xmlns="http://www.w3.org/2000/svg"><path d="M480 143.686H378.752c7.264-4.96 13.504-9.888 17.856-14.304 25.792-25.952 25.792-68.192 0-94.144-25.056-25.216-68.768-25.248-93.856 0-13.856 13.92-50.688 70.592-45.6 108.448h-2.304c5.056-37.856-31.744-94.528-45.6-108.448-25.088-25.248-68.8-25.216-93.856 0C89.6 61.19 89.6 103.43 115.36 129.382c4.384 4.416 10.624 9.344 17.888 14.304H32c-17.632 0-32 14.368-32 32v80c0 8.832 7.168 16 16 16h16v192c0 17.632 14.368 32 32 32h384c17.632 0 32-14.368 32-32v-192h16c8.832 0 16-7.168 16-16v-80c0-17.632-14.368-32-32-32zM138.08 57.798c6.496-6.528 15.104-10.112 24.256-10.112 9.12 0 17.728 3.584 24.224 10.112 21.568 21.696 43.008 77.12 35.552 84.832 0 0-1.344 1.056-5.92 1.056-22.112 0-64.32-22.976-78.112-36.864-13.408-13.504-13.408-35.52 0-49.024zM240 463.686H64v-192h176v192zm0-224H32v-64h208v64zm85.44-181.888c12.992-13.024 35.52-12.992 48.48 0 13.408 13.504 13.408 35.52 0 49.024-13.792 13.888-56 36.864-78.112 36.864-4.576 0-5.92-1.024-5.952-1.056-7.424-7.712 14.016-63.136 35.584-84.832zM448 463.686H272v-192h176v192zm32-224H272v-64h208v64z"/></symbol><symbol viewBox="0 0 512 512" id="list" xmlns="http://www.w3.org/2000/svg"><path d="M362.937 0h-294c-16.542 0-30 13.458-30 30v102c0 5.523 4.478 10 10 10s10-4.477 10-10V30c0-5.514 4.486-10 10-10h294c5.514 0 10 4.486 10 10v372c0 5.514-4.486 10-10 10h-294c-5.514 0-10-4.486-10-10V216.333c0-5.523-4.478-10-10-10s-10 4.477-10 10V402c0 16.542 13.458 30 30 30h294c16.542 0 30-13.458 30-30V30c0-16.542-13.458-30-30-30z"/><path d="M56.006 169.7c-1.859-1.86-4.439-2.92-7.069-2.92s-5.21 1.06-7.07 2.92a10.107 10.107 0 00-2.93 7.07 10.1 10.1 0 002.93 7.08c1.86 1.86 4.44 2.93 7.07 2.93 2.629 0 5.209-1.07 7.069-2.93a10.078 10.078 0 002.931-7.08c0-2.63-1.071-5.2-2.931-7.07zM96.066 454.99a10.056 10.056 0 00-7.07-2.93c-2.63 0-5.21 1.07-7.069 2.93a10.072 10.072 0 00-2.931 7.07c0 2.64 1.071 5.21 2.931 7.07a10.029 10.029 0 007.069 2.93c2.641 0 5.21-1.06 7.07-2.93a10.054 10.054 0 002.93-7.07c0-2.63-1.07-5.21-2.93-7.07zM423 40.063c-5.522 0-10 4.477-10 10v392c0 5.514-4.486 10-10 10H129c-5.522 0-10 4.477-10 10s4.478 10 10 10h274c16.542 0 30-13.458 30-30v-392c0-5.523-4.478-10-10-10z"/><path d="M463.063 80c-5.522 0-10 4.477-10 10v392c0 5.514-4.486 10-10 10h-314c-5.522 0-10 4.477-10 10s4.478 10 10 10h314c16.542 0 30-13.458 30-30V90c0-5.523-4.478-10-10-10zM200.937 74h-96c-5.522 0-10 4.477-10 10v96c0 5.523 4.478 10 10 10h96c5.522 0 10-4.477 10-10V84c0-5.523-4.478-10-10-10zm-10 96h-76V94h76v76zM168.761 235.402c-3.906-3.904-10.236-3.905-14.143 0l-26.583 26.583-12.36-12.361c-3.905-3.905-10.235-3.904-14.143 0-3.905 3.905-3.905 10.237 0 14.142l19.432 19.432a10.003 10.003 0 0014.143 0l33.654-33.654c3.905-3.905 3.905-10.237 0-14.142z"/><path d="M332.604 249H215.937c-5.522 0-10 4.477-10 10s4.478 10 10 10h116.667c5.522 0 10-4.477 10-10s-4.478-10-10-10zM326.937 74h-70c-5.522 0-10 4.477-10 10s4.478 10 10 10h70c5.522 0 10-4.477 10-10s-4.478-10-10-10zM326.937 122h-70c-5.522 0-10 4.477-10 10s4.478 10 10 10h70c5.522 0 10-4.477 10-10s-4.478-10-10-10zM326.937 170h-70c-5.522 0-10 4.477-10 10s4.478 10 10 10h70c5.522 0 10-4.477 10-10s-4.478-10-10-10zM168.761 311.769c-3.906-3.904-10.236-3.905-14.143 0l-26.583 26.583-12.36-12.361c-3.905-3.905-10.235-3.904-14.143 0-3.905 3.905-3.905 10.237 0 14.142l19.432 19.432a10.003 10.003 0 0014.143 0l33.654-33.654c3.905-3.905 3.905-10.237 0-14.142zM332.604 325H215.937c-5.522 0-10 4.477-10 10s4.478 10 10 10h116.667c5.522 0 10-4.477 10-10s-4.478-10-10-10z"/></symbol><symbol viewBox="0 0 512 512" id="location" xmlns="http://www.w3.org/2000/svg"><path d="M256 0C156.748 0 76 80.748 76 180c0 33.534 9.289 66.26 26.869 94.652l142.885 230.257A15 15 0 00258.499 512h.119a14.997 14.997 0 0012.75-7.292L410.611 272.22C427.221 244.428 436 212.539 436 180 436 80.748 355.252 0 256 0zm128.866 256.818L258.272 468.186l-129.905-209.34C113.734 235.214 105.8 207.95 105.8 180c0-82.71 67.49-150.2 150.2-150.2S406.1 97.29 406.1 180c0 27.121-7.411 53.688-21.234 76.818z"/><path d="M256 90c-49.626 0-90 40.374-90 90 0 49.309 39.717 90 90 90 50.903 0 90-41.233 90-90 0-49.626-40.374-90-90-90zm0 150.2c-33.257 0-60.2-27.033-60.2-60.2 0-33.084 27.116-60.2 60.2-60.2s60.1 27.116 60.1 60.2c0 32.683-26.316 60.2-60.1 60.2z"/></symbol><symbol viewBox="0 0 512 512" id="notepad" xmlns="http://www.w3.org/2000/svg"><path d="M448 258.102c5.523 0 10-4.477 10-10V90c0-27.57-22.43-50-50-50h-67.779c-4.992-6.384-12.757-10.5-21.471-10.5h-16.266C294.525 11.806 276.742 0 256.877 0h-1.755c-19.865 0-37.647 11.806-45.606 29.5H193.25c-8.714 0-16.479 4.116-21.471 10.5H104c-27.57 0-50 22.43-50 50v372c0 27.57 22.43 50 50 50h304c27.57 0 50-22.43 50-50V331.937c0-5.523-4.477-10-10-10s-10 4.477-10 10V462c0 16.542-13.458 30-30 30H104c-16.542 0-30-13.458-30-30V90c0-16.542 13.458-30 30-30h62v20h-52c-11.028 0-20 8.972-20 20v352c0 11.028 8.972 20 20 20h284c11.028 0 20-8.972 20-20V100c0-11.028-8.972-20-20-20h-52V60h62c16.542 0 30 13.458 30 30v158.102c0 5.523 4.477 10 10 10zM186 56.75c0-3.998 3.252-7.25 7.25-7.25h23.275a10 10 0 009.651-7.38C229.711 29.096 241.614 20 255.123 20h1.755c13.508 0 25.412 9.096 28.947 22.12a10 10 0 009.651 7.38h23.275c3.998 0 7.25 3.252 7.25 7.25V80H186V56.75zM398 100l.013 352H114V100h284z"/><path d="M455.07 283.83c-1.86-1.86-4.44-2.93-7.07-2.93s-5.21 1.07-7.07 2.93a10.076 10.076 0 00-2.93 7.07c0 2.64 1.07 5.21 2.93 7.07 1.86 1.87 4.44 2.93 7.07 2.93s5.21-1.06 7.07-2.93c1.86-1.86 2.93-4.43 2.93-7.07 0-2.63-1.07-5.2-2.93-7.07zM270.07 178.93c-1.86-1.86-4.44-2.93-7.07-2.93s-5.21 1.07-7.07 2.93c-1.86 1.86-2.93 4.44-2.93 7.07s1.07 5.21 2.93 7.07c1.86 1.86 4.44 2.93 7.07 2.93s5.21-1.07 7.07-2.93c1.86-1.86 2.93-4.44 2.93-7.07s-1.07-5.21-2.93-7.07zM366.484 176H307c-5.523 0-10 4.477-10 10s4.477 10 10 10h59.484c5.523 0 10-4.477 10-10s-4.477-10-10-10zM366.484 284H263c-5.523 0-10 4.477-10 10s4.477 10 10 10h103.484c5.523 0 10-4.477 10-10s-4.477-10-10-10zM366.484 392H263c-5.523 0-10 4.477-10 10s4.477 10 10 10h103.484c5.523 0 10-4.477 10-10s-4.477-10-10-10zM200 176h-38v-38c0-5.523-4.477-10-10-10s-10 4.477-10 10v48c0 5.523 4.477 10 10 10h48c5.523 0 10-4.477 10-10s-4.477-10-10-10z"/><path d="M221.025 127.714c-3.904-3.905-10.236-3.905-14.141 0l-13.788 13.788-1.169-1.169c-3.905-3.905-10.237-3.905-14.143 0-3.906 3.905-3.905 10.237 0 14.143l8.24 8.24a9.968 9.968 0 007.071 2.929 9.966 9.966 0 007.071-2.929l20.859-20.859c3.905-3.905 3.905-10.237 0-14.143zM200 283.709h-38v-38c0-5.523-4.477-10-10-10s-10 4.477-10 10v48c0 5.523 4.477 10 10 10h48c5.523 0 10-4.477 10-10s-4.477-10-10-10z"/><path d="M221.025 235.423c-3.904-3.905-10.236-3.905-14.141 0l-13.788 13.788-1.169-1.169c-3.905-3.905-10.237-3.905-14.143 0-3.906 3.905-3.905 10.237 0 14.143l8.24 8.24a9.968 9.968 0 007.071 2.929 9.966 9.966 0 007.071-2.929l20.859-20.859c3.905-3.905 3.905-10.237 0-14.143zM200 392h-38v-38c0-5.523-4.477-10-10-10s-10 4.477-10 10v48c0 5.523 4.477 10 10 10h48c5.523 0 10-4.477 10-10s-4.477-10-10-10z"/><path d="M221.025 343.714c-3.904-3.905-10.236-3.905-14.141 0l-13.788 13.788-1.169-1.169c-3.905-3.905-10.237-3.905-14.143 0-3.906 3.905-3.905 10.237 0 14.143l8.24 8.24a9.968 9.968 0 007.071 2.929 9.966 9.966 0 007.071-2.929l20.859-20.859c3.905-3.905 3.905-10.237 0-14.143z"/></symbol><symbol viewBox="0 0 473.806 473.806" id="phone" xmlns="http://www.w3.org/2000/svg"><path d="M374.456 293.506c-9.7-10.1-21.4-15.5-33.8-15.5-12.3 0-24.1 5.3-34.2 15.4l-31.6 31.5c-2.6-1.4-5.2-2.7-7.7-4-3.6-1.8-7-3.5-9.9-5.3-29.6-18.8-56.5-43.3-82.3-75-12.5-15.8-20.9-29.1-27-42.6 8.2-7.5 15.8-15.3 23.2-22.8 2.8-2.8 5.6-5.7 8.4-8.5 21-21 21-48.2 0-69.2l-27.3-27.3c-3.1-3.1-6.3-6.3-9.3-9.5-6-6.2-12.3-12.6-18.8-18.6-9.7-9.6-21.3-14.7-33.5-14.7s-24 5.1-34 14.7l-.2.2-34 34.3c-12.8 12.8-20.1 28.4-21.7 46.5-2.4 29.2 6.2 56.4 12.8 74.2 16.2 43.7 40.4 84.2 76.5 127.6 43.8 52.3 96.5 93.6 156.7 122.7 23 10.9 53.7 23.8 88 26 2.1.1 4.3.2 6.3.2 23.1 0 42.5-8.3 57.7-24.8.1-.2.3-.3.4-.5 5.2-6.3 11.2-12 17.5-18.1 4.3-4.1 8.7-8.4 13-12.9 9.9-10.3 15.1-22.3 15.1-34.6 0-12.4-5.3-24.3-15.4-34.3l-54.9-55.1zm35.8 105.3c-.1 0-.1.1 0 0-3.9 4.2-7.9 8-12.2 12.2-6.5 6.2-13.1 12.7-19.3 20-10.1 10.8-22 15.9-37.6 15.9-1.5 0-3.1 0-4.6-.1-29.7-1.9-57.3-13.5-78-23.4-56.6-27.4-106.3-66.3-147.6-115.6-34.1-41.1-56.9-79.1-72-119.9-9.3-24.9-12.7-44.3-11.2-62.6 1-11.7 5.5-21.4 13.8-29.7l34.1-34.1c4.9-4.6 10.1-7.1 15.2-7.1 6.3 0 11.4 3.8 14.6 7l.3.3c6.1 5.7 11.9 11.6 18 17.9 3.1 3.2 6.3 6.4 9.5 9.7l27.3 27.3c10.6 10.6 10.6 20.4 0 31-2.9 2.9-5.7 5.8-8.6 8.6-8.4 8.6-16.4 16.6-25.1 24.4-.2.2-.4.3-.5.5-8.6 8.6-7 17-5.2 22.7l.3.9c7.1 17.2 17.1 33.4 32.3 52.7l.1.1c27.6 34 56.7 60.5 88.8 80.8 4.1 2.6 8.3 4.7 12.3 6.7 3.6 1.8 7 3.5 9.9 5.3.4.2.8.5 1.2.7 3.4 1.7 6.6 2.5 9.9 2.5 8.3 0 13.5-5.2 15.2-6.9l34.2-34.2c3.4-3.4 8.8-7.5 15.1-7.5 6.2 0 11.3 3.9 14.4 7.3l.2.2 55.1 55.1c10.3 10.2 10.3 20.7.1 31.3zM256.056 112.706c26.2 4.4 50 16.8 69 35.8s31.3 42.8 35.8 69c1.1 6.6 6.8 11.2 13.3 11.2.8 0 1.5-.1 2.3-.2 7.4-1.2 12.3-8.2 11.1-15.6-5.4-31.7-20.4-60.6-43.3-83.5s-51.8-37.9-83.5-43.3c-7.4-1.2-14.3 3.7-15.6 11s3.5 14.4 10.9 15.6zM473.256 209.006c-8.9-52.2-33.5-99.7-71.3-137.5s-85.3-62.4-137.5-71.3c-7.3-1.3-14.2 3.7-15.5 11-1.2 7.4 3.7 14.3 11.1 15.6 46.6 7.9 89.1 30 122.9 63.7 33.8 33.8 55.8 76.3 63.7 122.9 1.1 6.6 6.8 11.2 13.3 11.2.8 0 1.5-.1 2.3-.2 7.3-1.1 12.3-8.1 11-15.4z"/></symbol><symbol viewBox="0 0 512 512" id="portfolio" xmlns="http://www.w3.org/2000/svg"><path d="M414.007 148.75c5.522 0 10-4.477 10-10V30c0-16.542-13.458-30-30-30h-364c-16.542 0-30 13.458-30 30v452c0 16.542 13.458 30 30 30h364c16.542 0 30-13.458 30-30v-73.672c0-5.523-4.478-10-10-10s-10 4.477-10 10V482c0 5.514-4.486 10-10 10h-364c-5.514 0-10-4.486-10-10V30c0-5.514 4.486-10 10-10h364c5.514 0 10 4.486 10 10v108.75c0 5.523 4.478 10 10 10z"/><path d="M212.007 54c-50.729 0-92 41.271-92 92 0 26.317 11.11 50.085 28.882 66.869.333.356.687.693 1.074 1 16.371 14.979 38.158 24.13 62.043 24.13 23.885 0 45.672-9.152 62.043-24.13a9.993 9.993 0 001.074-1c17.774-16.784 28.884-40.552 28.884-66.869 0-50.729-41.271-92-92-92zm0 164c-16.329 0-31.399-5.472-43.491-14.668 8.789-15.585 25.19-25.332 43.491-25.332s34.702 9.747 43.491 25.332C243.405 212.528 228.336 218 212.007 218zm-16-76v-6.5c0-8.822 7.178-16 16-16s16 7.178 16 16v6.5c0 8.822-7.178 16-16 16s-16-7.178-16-16zm73.94 46.683a69.375 69.375 0 00-29.463-24.697c4.71-6.087 7.523-13.712 7.523-21.986v-6.5c0-19.851-16.149-36-36-36s-36 16.149-36 36v6.5c0 8.274 2.813 15.899 7.523 21.986a69.375 69.375 0 00-29.463 24.697c-8.829-11.953-14.06-26.716-14.06-42.683 0-39.701 32.299-72 72-72s72 32.299 72 72c0 15.967-5.231 30.73-14.06 42.683zM266.007 438h-54c-5.522 0-10 4.477-10 10s4.478 10 10 10h54c5.522 0 10-4.477 10-10s-4.478-10-10-10zM266.007 382h-142c-5.522 0-10 4.477-10 10s4.478 10 10 10h142c5.522 0 10-4.477 10-10s-4.478-10-10-10zM266.007 326h-142c-5.522 0-10 4.477-10 10s4.478 10 10 10h142c5.522 0 10-4.477 10-10s-4.478-10-10-10zM88.366 272.93a10.077 10.077 0 00-7.079-2.93c-2.631 0-5.211 1.07-7.07 2.93-1.86 1.86-2.93 4.44-2.93 7.07s1.069 5.21 2.93 7.07a10.092 10.092 0 007.07 2.93c2.64 0 5.21-1.07 7.079-2.93 1.86-1.86 2.931-4.44 2.931-7.07s-1.07-5.21-2.931-7.07zM88.366 328.93a10.095 10.095 0 00-7.079-2.93c-2.631 0-5.2 1.07-7.07 2.93-1.86 1.86-2.93 4.44-2.93 7.07s1.069 5.21 2.93 7.07a10.092 10.092 0 007.07 2.93c2.64 0 5.21-1.07 7.079-2.93 1.86-1.86 2.931-4.44 2.931-7.07s-1.07-5.21-2.931-7.07zM88.366 384.93a10.095 10.095 0 00-7.079-2.93c-2.631 0-5.2 1.07-7.07 2.93-1.86 1.86-2.93 4.44-2.93 7.07s1.069 5.21 2.93 7.07a10.072 10.072 0 007.07 2.93c2.64 0 5.22-1.07 7.079-2.93 1.86-1.86 2.931-4.44 2.931-7.07s-1.07-5.21-2.931-7.07zM266.007 270h-142c-5.522 0-10 4.477-10 10s4.478 10 10 10h142c5.522 0 10-4.477 10-10s-4.478-10-10-10zM491.002 130.32c-9.715-5.609-21.033-7.099-31.871-4.196-10.836 2.904-19.894 9.854-25.502 19.569L307.787 363.656a10.016 10.016 0 00-1.278 3.891l-8.858 79.344a10.004 10.004 0 009.937 11.11 9.99 9.99 0 005.931-1.948l64.284-47.344a9.983 9.983 0 002.73-3.052l125.841-217.963c11.58-20.056 4.684-45.794-15.372-57.374zM320.063 426.394l4.626-41.432 28.942 16.71-33.568 24.722zm48.15-39.398l-38.105-22 100.985-174.91 38.105 22-100.985 174.91zm120.841-209.303l-9.857 17.073-38.105-22 9.857-17.073a21.855 21.855 0 0113.358-10.25 21.85 21.85 0 0116.694 2.198 21.855 21.855 0 0110.25 13.358 21.856 21.856 0 01-2.197 16.694z"/></symbol><symbol viewBox="0 0 496 496" id="test" xmlns="http://www.w3.org/2000/svg"><path d="M352.504 256c4.754 0 9.351 1.39 13.312 4.031l55.871 37.25A39.954 39.954 0 00443.88 304H496v-16h-52.113c-4.75 0-9.36-1.39-13.32-4.031L408 268.922V0H104v48H0v448h304v-48h104v-67.305c.504-.12 1.023-.16 1.527-.28l37.215-9.302A104.13 104.13 0 01472 368h24v-16h-24c-9.809 0-19.617 1.207-29.137 3.586l-37.215 9.3c-19.128 4.778-39.488 4-58.175-2.23l-13.48-4.496A119.95 119.95 0 00296 352h-69.809c0-13.23 10.77-24 24-24h88c13.235 0 24-10.77 24-24 0-12.273-9.296-22.305-21.191-23.719L347.566 256zm-10.106 121.832A119.756 119.756 0 00380.391 384c3.882 0 7.754-.336 11.609-.71V432h-88v-26.168c2.809-3.238 4.984-7.07 6.152-11.406l6.551-24.266c4.121.84 8.207 1.84 12.219 3.184zm-41.726-9.648l-5.961 22.062A13.213 13.213 0 01281.977 400h-2.594c-7.27 0-13.184-5.91-13.184-13.184 0-1.168.153-2.32.457-3.441L270.81 368H296c1.559 0 3.113.121 4.672.184zM254.23 368l-3.023 11.191a29.13 29.13 0 00-1.008 7.625c0 10.817 5.985 20.168 14.746 25.207l-2.511 10.032 15.52 3.883L280.44 416h1.536c2.062 0 4.062-.29 6.023-.703V480H16V64h104V16h272v242.258l-17.305-11.54A39.936 39.936 0 00352.504 240h-.617l33.297-123.191a29.13 29.13 0 001.007-7.625C386.191 93.09 373.098 80 357.008 80h-2.594c-13.156 0-24.742 8.871-28.176 21.574L304 183.864V48H136v16h152v176h-16.55c-8.708 0-16.907 2.887-23.763 8H168v16h62.879l-16 16H168v16h30.887l-13.367 13.367c-4.72 4.711-7.32 10.985-7.32 17.664 0 13.77 11.198 24.969 24.976 24.969 2.465 0 4.84-.473 7.144-1.16-.008.39-.12.762-.12 1.16 0 8.824 7.175 16 16 16zm61.625-56h-29.91l33.782-124.992 27.441 9.144zm-61.375-48.977c4.473-4.464 10.657-7.023 16.97-7.023h13.054l-6.527 24.145c-10.122.367-19.61 4.367-26.809 11.566l-41.656 41.656a9.038 9.038 0 01-6.344 2.633c-4.953 0-8.977-4.023-8.977-8.969 0-2.398.938-4.648 2.633-6.343zm8 40c3.024-3.023 6.872-5.086 10.977-6.16L269.367 312h-15.855zm107.254-190.39l-9.796 36.246-27.442-9.145 9.184-33.98c1.558-5.746 6.793-9.754 12.734-9.754h2.594c7.273 0 13.183 5.91 13.183 13.184 0 1.168-.152 2.32-.457 3.449zm-41.414 42.574l27.442 9.145-4.418 16.328-27.442-9.145zM338.191 296c4.41 0 8 3.594 8 8s-3.59 8-8 8h-5.765l4.328-16zm0 0"/><path d="M240 80H32v80h208zm-16 64H48V96h176zm0 0"/><path d="M64 112h16v16H64zm0 0M96 112h16v16H96zm0 0M128 112h16v16h-16zm0 0M160 112h16v16h-16zm0 0M192 112h16v16h-16zm0 0M128 256h-16v32H48v-64h48v-16H32v96h96zm0 0"/><path d="M154.344 178.344L80 252.688l-10.344-10.344-11.312 11.312L80 275.312l85.656-85.656zm0 0M112 424H48v-64h48v-16H32v96h96v-48h-16zm0 0"/><path d="M69.656 378.344l-11.312 11.312L80 411.312l85.656-85.656-11.312-11.312L80 388.688zm0 0M256 440h16v16h-16zm0 0M152 440h88v16h-88zm0 0M168 216h104v16H168zm0 0"/></symbol><symbol viewBox="0 0 31 32" id="viber" xmlns="http://www.w3.org/2000/svg"><path d="M26.933 3.2c1.334 1.333 2.4 2.933 2.934 5.6.533 2.667.533 5.867.266 9.867-.266 2.933-1.6 5.333-3.466 6.933-1.067.8-2.4 1.333-4 1.867H22.4c-.533.266-1.6.266-2.933.533-2.134.267-4.267.267-6.4.267-.8 1.066-1.6 1.6-1.867 2.133l-.533.533L9.6 32H8c-.267 0-.533-.267-.533-.533 0-.267-.267-.534-.267-.8v-3.734c-2.4-.533-4-1.866-5.333-3.733-.8-1.333-1.6-3.2-1.867-5.333v-4.8c0-2.134.267-4 .8-5.6.533-1.6 1.333-3.2 2.4-4.267.8-.8 2.133-1.6 3.733-2.133C8.267.533 9.6.267 10.933 0h4.8c3.2 0 5.867.533 8 1.333 1.334.534 2.4 1.067 3.2 1.867zm.8 14.667c.534-3.2.267-6.134 0-8.267-.533-2.133-1.333-3.733-2.4-4.8-.533-.533-1.6-1.067-2.666-1.333-2.134-.8-4.534-1.067-7.2-1.334H14.4c-1.067 0-1.867 0-2.933.267-1.067.267-2.4.533-3.467.8-1.067.533-2.133 1.067-2.933 1.867-1.067.8-1.6 1.866-2.134 3.466-.266 1.334-.533 2.934-.533 4.534V17.6c.267 1.867.8 3.467 1.6 4.533 1.067 1.334 2.4 2.4 4.267 2.934V30.4c0 .267 0 .533.266.533.267 0 .267 0 .534-.266.533-.534 1.333-1.334 2.4-2.934l1.866-2.133c1.867 0 3.734 0 5.6-.267 1.334-.266 2.134-.266 2.667-.533h.267c1.333-.267 2.4-.8 3.2-1.6 1.333-.8 2.4-2.667 2.666-5.333zm-5.066 2.666c.266-.533.266-1.066-.267-1.6-.8-.533-1.867-1.333-2.933-1.866-.267-.267-.534-.267-.8-.267-.267 0-.534.267-.8.533l-.534.8c0 .267-.266.267-.533.267h-.267c-1.066-.267-1.866-.8-2.666-1.333-.8-.534-1.334-1.067-1.6-1.867-.534-.267-.8-.8-.8-1.333l-.267-.8V12.8c0-.267.267-.533.267-.533l.8-.534c.266-.266.266-.533.533-.8.267-.266 0-.533-.267-1.066-.533-.534-.8-1.067-1.066-1.334l-1.067-1.6c-.533-.266-1.067-.533-1.6 0-.533.267-1.333.8-1.6 1.334-.533.533-.533 1.333-.533 1.866l.266.8c.267.8.8 1.6 1.334 2.667.533 1.067 1.333 1.867 1.866 2.933A12.64 12.64 0 0012.8 19.2c1.067.8 2.133 1.333 3.733 2.133 1.067.534 2.134 1.067 2.934 1.334.533.266 1.333 0 1.866-.534.267-.266.8-.8 1.334-1.6zM23.2 14.4c0-2.667-.8-4.8-2.4-6.4-1.6-1.6-3.467-2.133-5.867-2.133-.266 0-.533.266-.533.533s.267.533.533.533c2.134 0 4 .534 5.334 2.134 1.6 1.333 2.133 3.466 2.133 5.866 0 .267.267.267.533.267.267 0 .267-.533.267-.8zm-2.933-.8c0 .267.266.533.533.533s.533 0 .533-.266c0-1.867-.533-3.2-1.6-4.267-1.066-1.067-2.4-1.6-4-1.867-.266 0-.533.267-.533.534 0 .266 0 .533.267.533 1.6 0 2.666.533 3.466 1.6.8 1.067 1.334 1.867 1.334 3.2zm-1.067-.8c0-1.867-1.067-2.667-2.933-2.933-.267.266-.267.266-.267.533s0 .533.267.533c1.333 0 1.866.8 2.133 2.134 0 0 0 .266.267.266.266 0 .533-.266.533-.533z"/></symbol><symbol viewBox="0 0 32 32" id="whatsapp" xmlns="http://www.w3.org/2000/svg"><path d="M27.124 4.571c1.524 1.524 2.743 3.353 3.657 5.181.914 1.829 1.219 3.962 1.219 6.096 0 2.742-.61 5.485-2.133 7.923-1.524 2.438-3.353 4.267-5.79 5.79-2.439 1.525-5.182 2.134-7.925 2.134-2.743 0-5.18-.61-7.619-1.828L0 32l2.438-8.229C.914 21.333 0 18.591 0 15.848c0-2.743.61-5.486 2.133-7.924 1.524-2.438 3.353-4.267 5.79-5.79C10.363.61 13.106 0 15.849 0c2.133 0 3.961.305 6.095 1.219 2.133.914 3.657 1.829 5.18 3.352zM15.848 28.952c2.438 0 4.876-.61 6.704-1.523 1.829-.915 3.657-3.048 4.877-4.877 1.219-1.828 1.828-4.266 1.828-6.704 0-1.829-.305-3.353-1.219-4.877-.914-1.523-1.829-3.047-3.047-4.266-1.22-1.22-2.439-2.438-3.962-3.048-1.524-.61-3.353-.914-5.181-.914-2.439 0-4.572.61-6.705 1.828C7.01 5.791 5.79 7.314 4.57 9.143c-1.219 1.828-1.828 4.266-1.828 6.705 0 2.438.61 4.876 2.133 7.01l.305.609-1.524 4.876 4.876-1.22h.61c2.133 1.22 4.571 1.83 6.705 1.83zm7.314-9.752c.61.305.61.305.914.61.305.304 0 .304 0 .609s0 .914-.305 1.22l-1.219 1.218c-.61.61-.914.61-1.523.61H19.2c-.914-.305-1.829-.61-3.048-.915-2.438-1.219-4.571-3.047-6.4-6.095-1.219-1.524-1.828-2.743-1.828-3.962 0-1.219.305-2.438 1.219-3.352.305-.305.61-.61 1.219-.61h1.524c.305 0 0 .305 0 .61l1.219 3.047c0 .305.304.61 0 .61 0 .61-.305.914-.61 1.219-.304.305-.304.61-.61.61-.304 0 0 .304 0 .304.61 1.22 1.524 2.134 2.439 3.048.61.61 1.524 1.219 3.047 1.828.61 0 .915 0 .915-.304.61-.61 1.219-1.22 1.219-1.524 0-.305.305-.305.305-.305h.609c.61.305 1.22.61 2.743 1.524z"/></symbol></svg>