<?xml version="1.0" encoding="utf-8"?><svg xmlns="http://www.w3.org/2000/svg" xmlns:xlink="http://www.w3.org/1999/xlink"><symbol viewBox="0 0 166 51" id="line-1" xmlns="http://www.w3.org/2000/svg"><defs><clipPath id="aa"><path fill="#fff" d="M.7.575c.083-.124 2.51 6.515 9.86 13.05 7.312 7.179 21.835 10.671 40.69 10.454 18.975-.785 37.32 4.764 53.338 17.33 8.646 5.67 17.849 10.15 28.721 8.068 10.646-1.747 22.303-9.84 33.059-18.78"/></clipPath></defs><path fill="none" stroke="#c6c6c6" stroke-dasharray="4 2" stroke-miterlimit="20" stroke-width="2" d="M.7.575c.083-.124 2.51 6.515 9.86 13.05 7.312 7.179 21.835 10.671 40.69 10.454 18.975-.785 37.32 4.764 53.338 17.33 8.646 5.67 17.849 10.15 28.721 8.068 10.646-1.747 22.303-9.84 33.059-18.78" clip-path="url(#aa)"/></symbol><symbol viewBox="0 0 239 96" id="line-2" xmlns="http://www.w3.org/2000/svg"><defs><clipPath id="ba"><path fill="#fff" d="M2.91 95.826c1.332 1.276-5.54-17.233.301-30.686 5.283-14.288 23.28-23.519 61.431-22.95 36.87.05 79.041-6.606 97.977-25.012C173.152 9.004 180.566 1.26 192.33.335c5.847-.557 12.836.484 21.043 2.67 4.09 1.08 8.459 2.421 12.981 3.87 4.519 1.449 9.19 3 13.788 4.476"/></clipPath></defs><path fill="none" stroke="#c6c6c6" stroke-dasharray="4 2" stroke-miterlimit="20" stroke-width="2" d="M2.91 95.826c1.332 1.276-5.54-17.233.301-30.686 5.283-14.288 23.28-23.519 61.431-22.95 36.87.05 79.041-6.606 97.977-25.012C173.152 9.004 180.566 1.26 192.33.335c5.847-.557 12.836.484 21.043 2.67 4.09 1.08 8.459 2.421 12.981 3.87 4.519 1.449 9.19 3 13.788 4.476" clip-path="url(#ba)"/></symbol><symbol viewBox="0 0 194 33" id="line-3" xmlns="http://www.w3.org/2000/svg"><defs><clipPath id="ca"><path fill="#fff" d="M193.035 31.877c-.428 1.352-5.206-8.559-17.765-11.492-12.295-3.77-32.37-.561-57.287 7.733-24.894 8.225-48.255 1.406-69.142-16.026C38.008 4.608 26.452-1.295 12.09 1.892 4.95 3.354-2.84 6.925-11.021 11.905c-8.167 4.934-16.71 11.227-24.964 16.896"/></clipPath></defs><path fill="none" stroke="#c6c6c6" stroke-dasharray="4 2" stroke-miterlimit="20" stroke-width="2" d="M193.035 31.877c-.428 1.352-5.206-8.559-17.765-11.492-12.295-3.77-32.37-.561-57.287 7.733-24.894 8.225-48.255 1.406-69.142-16.026C38.008 4.608 26.452-1.295 12.09 1.892 4.95 3.354-2.84 6.925-11.021 11.905c-8.167 4.934-16.71 11.227-24.964 16.896" clip-path="url(#ca)"/></symbol><symbol viewBox="0 0 85 118" id="line-4" xmlns="http://www.w3.org/2000/svg"><defs><clipPath id="da"><path fill="#fff" d="M0 .999s140.453 19.843 59 117"/></clipPath></defs><path fill="none" stroke="#7c7c7c" stroke-miterlimit="20" stroke-width="2" d="M0 .999s140.453 19.843 59 117" clip-path="url(#da)" opacity=".44"/></symbol></svg>