<?xml version="1.0" encoding="utf-8"?><svg xmlns="http://www.w3.org/2000/svg" xmlns:xlink="http://www.w3.org/1999/xlink"><symbol fill="none" viewBox="0 0 64 40" id="17" xmlns="http://www.w3.org/2000/svg"><path d="M.96 39v-8.28h8.16V11.04h-7.2V4.68c2.16-.44 4-.94 5.52-1.5 1.52-.56 3-1.3 4.44-2.22h7.56v29.76h6.84V39H.96zM38.822 39c.16-3 .44-5.76.84-8.28.4-2.52.96-4.94 1.68-7.26.76-2.32 1.72-4.6 2.88-6.84 1.2-2.24 2.68-4.58 4.44-7.02h-16.32V.96h27.24v6.36c-2.2 2.56-3.94 4.96-5.22 7.2a33.256 33.256 0 00-3 6.96c-.72 2.36-1.24 4.94-1.56 7.74-.28 2.8-.5 6.06-.66 9.78h-10.32z" fill="#fff"/><path d="M57 38.5c.167-4.167 0-11 2.5-16.5M62 16.49l.673-1.431" stroke="#fff" stroke-width="2" stroke-linecap="round"/></symbol><symbol fill="none" viewBox="0 0 28 49" id="1_orange" xmlns="http://www.w3.org/2000/svg"><path d="M0 43v-8.28h8.16V15.04H.96V8.68c2.16-.44 4-.94 5.52-1.5 1.52-.56 3-1.3 4.44-2.22h7.56v29.76h6.84V43H0z" fill="#F36639"/><path d="M26.04 1v18M26.04 23.5v1" stroke="#F36639" stroke-width="2" stroke-linecap="round"/></symbol><symbol fill="none" viewBox="0 0 35 50" id="2_orange" xmlns="http://www.w3.org/2000/svg"><path d="M1.16 47v-5.88c2.24-2.08 4.32-4.04 6.24-5.88 1.96-1.84 3.66-3.56 5.1-5.16 1.44-1.64 2.56-3.18 3.36-4.62.84-1.48 1.26-2.86 1.26-4.14 0-1.72-.44-2.98-1.32-3.78-.84-.84-1.96-1.26-3.36-1.26-1.28 0-2.42.38-3.42 1.14-.96.72-1.9 1.54-2.82 2.46L.68 14.36c1-1.04 1.98-1.94 2.94-2.7.96-.8 1.96-1.44 3-1.92 1.08-.52 2.2-.9 3.36-1.14 1.2-.24 2.5-.36 3.9-.36 1.92 0 3.68.3 5.28.9 1.6.6 2.98 1.44 4.14 2.52 1.16 1.08 2.06 2.4 2.7 3.96.64 1.52.96 3.22.96 5.1 0 1.52-.34 3.08-1.02 4.68-.64 1.56-1.48 3.12-2.52 4.68a41.15 41.15 0 01-3.54 4.56 99.986 99.986 0 01-3.84 4.2c.96-.12 2.04-.22 3.24-.3 1.24-.12 2.28-.18 3.12-.18h6.36V47H1.16z" fill="#F36639"/><path d="M32.5 24.92c1-4.5 1.5-12-3-16.5M25 4.678s-2-1.257-4-1.757" stroke="#F36639" stroke-width="2" stroke-linecap="round"/></symbol><symbol fill="none" viewBox="0 0 40 50" id="3_orange" xmlns="http://www.w3.org/2000/svg"><path d="M13.76 39.72c-3.12 0-5.8-.48-8.04-1.44C3.48 37.32 1.64 36 .2 34.32l4.68-6.48c1.16 1.08 2.4 1.96 3.72 2.64 1.36.64 2.72.96 4.08.96 1.68 0 3.02-.3 4.02-.9 1-.6 1.5-1.5 1.5-2.7 0-.72-.12-1.36-.36-1.92-.24-.56-.7-1.04-1.38-1.44-.68-.4-1.64-.7-2.88-.9-1.24-.2-2.86-.3-4.86-.3v-7.2c1.6 0 2.92-.1 3.96-.3 1.08-.2 1.94-.48 2.58-.84.64-.4 1.08-.86 1.32-1.38.28-.52.42-1.12.42-1.8 0-2.32-1.32-3.48-3.96-3.48-1.28 0-2.42.26-3.42.78s-2.1 1.3-3.3 2.34L1.16 5.16C3.04 3.6 4.98 2.4 6.98 1.56c2-.88 4.18-1.32 6.54-1.32 4.2 0 7.54.94 10.02 2.82 2.52 1.84 3.78 4.48 3.78 7.92 0 3.68-2.04 6.42-6.12 8.22v.24c2.16.68 3.92 1.78 5.28 3.3 1.36 1.48 2.04 3.42 2.04 5.82 0 1.8-.4 3.4-1.2 4.8-.8 1.36-1.88 2.52-3.24 3.48-1.32.96-2.88 1.68-4.68 2.16-1.8.48-3.68.72-5.64.72z" fill="#F36639"/><path d="M22.5 45.501C27 44.5 36 40 35.085 29.813M34.311 23.755s-.034-.978-1.311-2.596" stroke="#F36639" stroke-width="2" stroke-linecap="round"/></symbol><symbol fill="none" viewBox="0 0 34 47" id="4_orange" xmlns="http://www.w3.org/2000/svg"><path d="M16.4 47v-8.52H.2v-7.2L13.16 8.96H26v21.72h4.08v7.8H26V47h-9.6zM9.92 30.68h6.48v-4.32-2.1l.12-2.4c.04-.8.08-1.58.12-2.34.04-.8.08-1.52.12-2.16h-.24c-.48 1.16-.98 2.3-1.5 3.42s-1.06 2.26-1.62 3.42l-3.48 6.48z" fill="#F36639"/><path d="M15 1h1M20.5 1h12" stroke="#F36639" stroke-width="2" stroke-linecap="round"/></symbol><symbol fill="none" viewBox="0 0 38 55" id="5" xmlns="http://www.w3.org/2000/svg"><path d="M14.12 46.72c-3.12 0-5.82-.5-8.1-1.5-2.24-1.04-4.14-2.34-5.7-3.9l4.56-6.48c1.16 1.04 2.38 1.9 3.66 2.58 1.28.68 2.62 1.02 4.02 1.02 1.8 0 3.18-.4 4.14-1.2 1-.8 1.5-2.04 1.5-3.72 0-1.64-.48-2.86-1.44-3.66-.96-.84-2.2-1.26-3.72-1.26-.52 0-.98.04-1.38.12-.4.04-.8.12-1.2.24-.36.12-.76.3-1.2.54-.44.24-.94.54-1.5.9l-4.44-2.88.96-19.56h22.56v8.64H13.16l-.48 5.52c.68-.24 1.28-.4 1.8-.48.56-.08 1.16-.12 1.8-.12 1.64 0 3.2.24 4.68.72 1.48.48 2.78 1.2 3.9 2.16 1.12.96 2 2.18 2.64 3.66.68 1.48 1.02 3.22 1.02 5.22 0 2.12-.4 4.02-1.2 5.7-.76 1.68-1.8 3.1-3.12 4.26-1.32 1.12-2.86 1.98-4.62 2.58-1.72.6-3.54.9-5.46.9z" fill="#fff"/><path d="M3 1h6M21 50.915c4.5-1 13.5-5.501 12.585-15.688" stroke="#fff" stroke-width="2" stroke-linecap="round"/></symbol><symbol fill="none" viewBox="0 0 38 55" id="5-white" xmlns="http://www.w3.org/2000/svg"><path d="M14.12 46.72c-3.12 0-5.82-.5-8.1-1.5-2.24-1.04-4.14-2.34-5.7-3.9l4.56-6.48c1.16 1.04 2.38 1.9 3.66 2.58 1.28.68 2.62 1.02 4.02 1.02 1.8 0 3.18-.4 4.14-1.2 1-.8 1.5-2.04 1.5-3.72 0-1.64-.48-2.86-1.44-3.66-.96-.84-2.2-1.26-3.72-1.26-.52 0-.98.04-1.38.12-.4.04-.8.12-1.2.24-.36.12-.76.3-1.2.54-.44.24-.94.54-1.5.9l-4.44-2.88.96-19.56h22.56v8.64H13.16l-.48 5.52c.68-.24 1.28-.4 1.8-.48.56-.08 1.16-.12 1.8-.12 1.64 0 3.2.24 4.68.72 1.48.48 2.78 1.2 3.9 2.16 1.12.96 2 2.18 2.64 3.66.68 1.48 1.02 3.22 1.02 5.22 0 2.12-.4 4.02-1.2 5.7-.76 1.68-1.8 3.1-3.12 4.26-1.32 1.12-2.86 1.98-4.62 2.58-1.72.6-3.54.9-5.46.9z" fill="#fff"/><path d="M3 1h6M21 50.915c4.5-1 13.5-5.501 12.585-15.688" stroke="#fff" stroke-width="2" stroke-linecap="round"/></symbol><symbol fill="none" viewBox="0 0 38 55" id="5_orange" xmlns="http://www.w3.org/2000/svg"><path d="M14.12 46.72c-3.12 0-5.82-.5-8.1-1.5-2.24-1.04-4.14-2.34-5.7-3.9l4.56-6.48c1.16 1.04 2.38 1.9 3.66 2.58 1.28.68 2.62 1.02 4.02 1.02 1.8 0 3.18-.4 4.14-1.2 1-.8 1.5-2.04 1.5-3.72 0-1.64-.48-2.86-1.44-3.66-.96-.84-2.2-1.26-3.72-1.26-.52 0-.98.04-1.38.12-.4.04-.8.12-1.2.24-.36.12-.76.3-1.2.54-.44.24-.94.54-1.5.9l-4.44-2.88.96-19.56h22.56v8.64H13.16l-.48 5.52c.68-.24 1.28-.4 1.8-.48.56-.08 1.16-.12 1.8-.12 1.64 0 3.2.24 4.68.72 1.48.48 2.78 1.2 3.9 2.16 1.12.96 2 2.18 2.64 3.66.68 1.48 1.02 3.22 1.02 5.22 0 2.12-.4 4.02-1.2 5.7-.76 1.68-1.8 3.1-3.12 4.26-1.32 1.12-2.86 1.98-4.62 2.58-1.72.6-3.54.9-5.46.9z" fill="#F36639"/><path d="M3 1h6M21 50.915c4.5-1 13.5-5.501 12.585-15.688" stroke="#F36639" stroke-width="2" stroke-linecap="round"/></symbol><symbol fill="none" viewBox="0 0 42 49" id="6_orange" xmlns="http://www.w3.org/2000/svg"><path d="M28.16 48.72c-1.84 0-3.66-.34-5.46-1.02-1.76-.72-3.34-1.84-4.74-3.36-1.4-1.52-2.54-3.48-3.42-5.88-.84-2.44-1.26-5.38-1.26-8.82 0-3.44.44-6.44 1.32-9 .88-2.56 2.04-4.68 3.48-6.36 1.44-1.68 3.1-2.94 4.98-3.78 1.92-.84 3.9-1.26 5.94-1.26 2.72 0 5.06.48 7.02 1.44s3.58 2.08 4.86 3.36l-5.4 6.12c-.6-.68-1.44-1.28-2.52-1.8-1.08-.56-2.16-.84-3.24-.84-.92 0-1.8.18-2.64.54-.8.32-1.52.9-2.16 1.74-.6.8-1.1 1.86-1.5 3.18-.36 1.28-.6 2.88-.72 4.8.48-.6 1.02-1.14 1.62-1.62.6-.48 1.22-.88 1.86-1.2.68-.32 1.32-.56 1.92-.72.64-.16 1.22-.24 1.74-.24 1.6 0 3.1.24 4.5.72 1.44.44 2.66 1.14 3.66 2.1 1.04.96 1.86 2.18 2.46 3.66.6 1.48.9 3.24.9 5.28s-.36 3.86-1.08 5.46c-.68 1.6-1.62 2.96-2.82 4.08-1.2 1.12-2.6 1.98-4.2 2.58-1.6.56-3.3.84-5.1.84zm-.24-7.68c1.08 0 2.02-.38 2.82-1.14.84-.76 1.26-2.14 1.26-4.14 0-.92-.12-1.66-.36-2.22-.24-.6-.56-1.06-.96-1.38-.36-.36-.8-.6-1.32-.72a5.28 5.28 0 00-1.56-.24c-.92 0-1.82.26-2.7.78-.84.48-1.56 1.3-2.16 2.46.2 1.32.48 2.42.84 3.3.4.84.82 1.52 1.26 2.04.44.48.9.82 1.38 1.02.52.16 1.02.24 1.5.24z" fill="#F36639"/><path d="M7 31.005C6.217 26.462 6 10.5 21 4" stroke="#F36639" stroke-width="2" stroke-linecap="round"/></symbol><symbol fill="none" viewBox="0 0 31 40" id="7_orange" xmlns="http://www.w3.org/2000/svg"><path d="M7.12 39c.16-3 .44-5.76.84-8.28.4-2.52.96-4.94 1.68-7.26.76-2.32 1.72-4.6 2.88-6.84 1.2-2.24 2.68-4.58 4.44-7.02H.64V.96h27.24v6.36c-2.2 2.56-3.94 4.96-5.22 7.2a33.256 33.256 0 00-3 6.96c-.72 2.36-1.24 4.94-1.56 7.74-.28 2.8-.5 6.06-.66 9.78H7.12z" fill="#F36639"/><path d="M24 38.5c.167-4.167 0-11 2.5-16.5M29 16.49l.673-1.431" stroke="#F36639" stroke-width="2" stroke-linecap="round"/></symbol><symbol fill="none" viewBox="0 0 35 48" id="8" xmlns="http://www.w3.org/2000/svg"><path d="M14.08 47.72c-1.92 0-3.72-.24-5.4-.72-1.64-.52-3.08-1.24-4.32-2.16a10.1 10.1 0 01-2.82-3.3C.86 40.26.52 38.84.52 37.28c0-2.24.58-4.06 1.74-5.46 1.2-1.4 2.7-2.58 4.5-3.54v-.24C5.24 26.88 4.02 25.6 3.1 24.2c-.92-1.44-1.38-3.16-1.38-5.16 0-1.68.3-3.18.9-4.5a9.71 9.71 0 012.64-3.42c1.16-.92 2.5-1.62 4.02-2.1 1.56-.52 3.28-.78 5.16-.78 1.76 0 3.36.26 4.8.78 1.48.48 2.74 1.18 3.78 2.1 1.04.88 1.84 1.98 2.4 3.3.6 1.32.9 2.78.9 4.38 0 1.76-.48 3.32-1.44 4.68-.92 1.32-2.06 2.42-3.42 3.3v.24c1.88 1 3.44 2.3 4.68 3.9 1.24 1.56 1.86 3.6 1.86 6.12 0 1.52-.34 2.94-1.02 4.26-.64 1.28-1.58 2.4-2.82 3.36-1.2.96-2.66 1.72-4.38 2.28-1.72.52-3.62.78-5.7.78zm2.28-23.4c1.12-1.6 1.68-3.2 1.68-4.8 0-1.32-.34-2.34-1.02-3.06-.68-.76-1.62-1.14-2.82-1.14-.92 0-1.74.3-2.46.9-.68.56-1.02 1.5-1.02 2.82 0 1.28.48 2.3 1.44 3.06 1 .76 2.4 1.5 4.2 2.22zm-2.04 16.32c1.16 0 2.14-.3 2.94-.9.8-.6 1.2-1.62 1.2-3.06 0-.68-.16-1.28-.48-1.8-.32-.52-.8-.98-1.44-1.38-.6-.44-1.34-.86-2.22-1.26-.88-.4-1.88-.84-3-1.32-.56.68-1.04 1.48-1.44 2.4-.36.88-.54 1.8-.54 2.76 0 1.52.5 2.66 1.5 3.42 1 .76 2.16 1.14 3.48 1.14z" fill="#fff"/><path fill-rule="evenodd" clip-rule="evenodd" d="M29.435 7.675a1 1 0 011.39.26c3.421 5 3.697 9.773 3.098 13.295a18.067 18.067 0 01-1.25 4.195c-.22.502-.422.898-.573 1.172a9.764 9.764 0 01-.236.407l-.016.026-.005.008-.002.003v.001c-.001 0-.001.001-.837-.54l.836.541a1 1 0 01-1.68-1.084v-.002l.84.543-.84-.542v-.001l.007-.01.035-.059c.033-.054.083-.139.145-.253.125-.227.301-.57.495-1.013.388-.887.845-2.167 1.11-3.727.527-3.103.302-7.33-2.777-11.83a1 1 0 01.26-1.39zM17.5 2.5a1 1 0 011-1c3.13 0 5.248.6 6.616 1.242a7.58 7.58 0 011.5.911 4.618 4.618 0 01.483.443l.034.038.012.015.005.006.002.002.001.002-.772.635.773-.634a1 1 0 01-1.537 1.28" fill="#fff"/></symbol><symbol fill="none" viewBox="0 0 39 48" id="9" xmlns="http://www.w3.org/2000/svg"><path d="M35 17S31.5 1.5 15 1.5M36.5 24.5v-2" stroke="#fff" stroke-width="2" stroke-linecap="round"/><path d="M14.48 25.76c.92 0 1.8-.24 2.64-.72.88-.52 1.62-1.36 2.22-2.52-.2-1.32-.5-2.4-.9-3.24-.36-.88-.76-1.56-1.2-2.04-.44-.52-.92-.86-1.44-1.02-.48-.2-.96-.3-1.44-.3-1.08 0-2.04.38-2.88 1.14-.8.76-1.2 2.14-1.2 4.14 0 .92.12 1.68.36 2.28.24.56.54 1.02.9 1.38.4.32.84.56 1.32.72.52.12 1.06.18 1.62.18zm-1.2 21.96c-2.72 0-5.06-.48-7.02-1.44S2.68 44.2 1.4 42.92l5.4-6.12c.6.68 1.44 1.3 2.52 1.86 1.08.52 2.16.78 3.24.78.96 0 1.84-.16 2.64-.48.8-.36 1.5-.94 2.1-1.74.64-.84 1.16-1.9 1.56-3.18.4-1.32.64-2.94.72-4.86-.48.6-1.02 1.14-1.62 1.62-.6.48-1.24.88-1.92 1.2-.64.32-1.28.56-1.92.72-.6.16-1.16.24-1.68.24-1.64 0-3.16-.22-4.56-.66-1.4-.48-2.62-1.2-3.66-2.16-1-.96-1.8-2.18-2.4-3.66-.6-1.48-.9-3.24-.9-5.28s.34-3.86 1.02-5.46c.72-1.6 1.68-2.96 2.88-4.08s2.6-1.96 4.2-2.52c1.6-.6 3.3-.9 5.1-.9 1.84 0 3.64.36 5.4 1.08 1.8.68 3.4 1.78 4.8 3.3 1.4 1.52 2.52 3.5 3.36 5.94.88 2.4 1.32 5.32 1.32 8.76 0 3.44-.44 6.44-1.32 9-.88 2.56-2.04 4.68-3.48 6.36-1.44 1.68-3.12 2.94-5.04 3.78a14.26 14.26 0 01-5.88 1.26z" fill="#fff"/></symbol><symbol fill="none" viewBox="0 0 147 61" id="95procent" xmlns="http://www.w3.org/2000/svg"><path d="M26.203 29.76c.92 0 1.8-.24 2.64-.72.88-.52 1.62-1.36 2.22-2.52-.2-1.32-.5-2.4-.9-3.24-.36-.88-.76-1.56-1.2-2.04-.44-.52-.92-.86-1.44-1.02-.48-.2-.96-.3-1.44-.3-1.08 0-2.04.38-2.88 1.14-.8.76-1.2 2.14-1.2 4.14 0 .92.12 1.68.36 2.28.24.56.54 1.02.9 1.38.4.32.84.56 1.32.72.52.12 1.06.18 1.62.18zm-1.2 21.96c-2.72 0-5.06-.48-7.02-1.44s-3.58-2.08-4.86-3.36l5.4-6.12c.6.68 1.44 1.3 2.52 1.86 1.08.52 2.16.78 3.24.78.96 0 1.84-.16 2.64-.48.8-.36 1.5-.94 2.1-1.74.64-.84 1.16-1.9 1.56-3.18.4-1.32.64-2.94.72-4.86-.48.6-1.02 1.14-1.62 1.62-.6.48-1.24.88-1.92 1.2-.64.32-1.28.56-1.92.72-.6.16-1.16.24-1.68.24-1.64 0-3.16-.22-4.56-.66-1.4-.48-2.62-1.2-3.66-2.16-1-.96-1.8-2.18-2.4-3.66-.6-1.48-.9-3.24-.9-5.28s.34-3.86 1.02-5.46c.72-1.6 1.68-2.96 2.88-4.08s2.6-1.96 4.2-2.52c1.6-.6 3.3-.9 5.1-.9 1.84 0 3.64.36 5.4 1.08 1.8.68 3.4 1.78 4.8 3.3 1.4 1.52 2.52 3.5 3.36 5.94.88 2.4 1.32 5.32 1.32 8.76 0 3.44-.44 6.44-1.32 9-.88 2.56-2.04 4.68-3.48 6.36-1.44 1.68-3.12 2.94-5.04 3.78a14.26 14.26 0 01-5.88 1.26zm33.543 0c-3.12 0-5.82-.5-8.1-1.5-2.24-1.04-4.14-2.34-5.7-3.9l4.56-6.48c1.16 1.04 2.38 1.9 3.66 2.58 1.28.68 2.62 1.02 4.02 1.02 1.8 0 3.18-.4 4.14-1.2 1-.8 1.5-2.04 1.5-3.72 0-1.64-.48-2.86-1.44-3.66-.96-.84-2.2-1.26-3.72-1.26-.52 0-.98.04-1.38.12-.4.04-.8.12-1.2.24-.36.12-.76.3-1.2.54-.44.24-.94.54-1.5.9l-4.44-2.88.96-19.56h22.56v8.64h-13.68l-.48 5.52c.68-.24 1.28-.4 1.8-.48.56-.08 1.16-.12 1.8-.12 1.64 0 3.2.24 4.68.72 1.48.48 2.78 1.2 3.9 2.16 1.12.96 2 2.18 2.64 3.66.68 1.48 1.02 3.22 1.02 5.22 0 2.12-.4 4.02-1.2 5.7-.76 1.68-1.8 3.1-3.12 4.26-1.32 1.12-2.86 1.98-4.62 2.58-1.72.6-3.54.9-5.46.9zm28.982-15.6c-1.44 0-2.78-.28-4.02-.84a9.191 9.191 0 01-3.24-2.46c-.88-1.08-1.58-2.38-2.1-3.9-.48-1.56-.72-3.32-.72-5.28 0-1.96.24-3.7.72-5.22.52-1.52 1.22-2.8 2.1-3.84.92-1.08 2-1.9 3.24-2.46 1.24-.56 2.58-.84 4.02-.84 1.44 0 2.76.28 3.96.84a8.65 8.65 0 013.18 2.46c.92 1.04 1.64 2.32 2.16 3.84.52 1.52.78 3.26.78 5.22s-.26 3.72-.78 5.28c-.52 1.52-1.24 2.82-2.16 3.9a8.65 8.65 0 01-3.18 2.46c-1.2.56-2.52.84-3.96.84zm0-5.64c.8 0 1.5-.48 2.1-1.44.6-.96.9-2.76.9-5.4 0-1.32-.08-2.4-.24-3.24-.16-.88-.38-1.58-.66-2.1s-.6-.88-.96-1.08a2.313 2.313 0 00-2.28 0c-.36.2-.68.56-.96 1.08-.28.52-.5 1.22-.66 2.1-.16.84-.24 1.92-.24 3.24 0 2.64.3 4.44.9 5.4.6.96 1.3 1.44 2.1 1.44zm1.44 21.24l20.88-40.44h5.76l-20.88 40.44h-5.76zm27.96 0c-1.44 0-2.78-.28-4.02-.84a9.191 9.191 0 01-3.24-2.46c-.88-1.08-1.58-2.38-2.1-3.9-.48-1.56-.72-3.32-.72-5.28 0-1.96.24-3.7.72-5.22.52-1.52 1.22-2.8 2.1-3.84.92-1.08 2-1.9 3.24-2.46 1.24-.56 2.58-.84 4.02-.84 1.44 0 2.76.28 3.96.84a8.65 8.65 0 013.18 2.46c.92 1.04 1.64 2.32 2.16 3.84.52 1.52.78 3.26.78 5.22s-.26 3.72-.78 5.28c-.52 1.52-1.24 2.82-2.16 3.9a8.65 8.65 0 01-3.18 2.46c-1.2.56-2.52.84-3.96.84zm0-5.64c.8 0 1.5-.48 2.1-1.44.6-.96.9-2.76.9-5.4 0-1.32-.08-2.4-.24-3.24-.16-.88-.38-1.58-.66-2.1s-.6-.88-.96-1.08a2.313 2.313 0 00-2.28 0c-.36.2-.68.56-.96 1.08-.28.52-.5 1.22-.66 2.1-.16.84-.24 1.92-.24 3.24 0 2.64.3 4.44.9 5.4.6.96 1.3 1.44 2.1 1.44z" fill="#fff"/><path d="M123.723 57.5c4.5-1.001 13-10 9.5-21.5" stroke="#fff" stroke-width="2"/><path d="M16.223 8c-10.5 4.5-9.91 15.768-9.91 15.768M6.723 29c0 2.5 1.5 4.5 1.5 4.5" stroke="#fff" stroke-width="2" stroke-linecap="round"/></symbol><symbol fill="none" viewBox="0 0 48 48" id="check-round" xmlns="http://www.w3.org/2000/svg"><path d="M20.586 32.56a42.837 42.837 0 00-.924-2.24 24.064 24.064 0 00-.98-2.1 30.378 30.378 0 00-1.148-1.988 30.13 30.13 0 00-1.372-2.044l2.632-1.708a34.15 34.15 0 011.932 3.5 44.649 44.649 0 011.568 3.5h.112a52.437 52.437 0 011.736-4.9 51.001 51.001 0 012.184-4.536 39.52 39.52 0 012.492-4.004 29.421 29.421 0 012.772-3.304l2.52 2.184a29.864 29.864 0 00-2.8 3.052 31.71 31.71 0 00-2.632 3.864 42.496 42.496 0 00-2.324 4.704 47.387 47.387 0 00-1.904 5.572l-3.864.448z" fill="#F36639"/><ellipse opacity=".5" cx="23.887" cy="24" rx="22.771" ry="23" stroke="#C4C4C4" stroke-width="2"/><path d="M46.658 24c0 3.782-.924 7.506-2.689 10.842a22.92 22.92 0 01-7.431 8.282 22.627 22.627 0 01-10.42 3.765 22.565 22.565 0 01-10.946-1.64 22.79 22.79 0 01-8.888-6.658 23.1 23.1 0 01-4.731-10.104c-.73-3.71-.544-7.544.543-11.164a23.046 23.046 0 015.689-9.587" stroke="#303030" stroke-width="2"/></symbol><symbol id="icon_doc" viewBox="0 0 15 19" xmlns="http://www.w3.org/2000/svg"><defs><style>.ocls-1{fill:#fff}</style></defs><path class="ocls-1" d="M14 4h-3V1a1 1 0 00-1-1H1a1 1 0 00-1 1v13a1 1 0 001 1h3v3a1 1 0 001 1h9a1 1 0 001-1V5a1 1 0 00-1-1zM4 5v9H1V1h9v3H5a1 1 0 00-1 1zm8 11H7v-1h5zm0-3H7V7h5z"/></symbol></svg>