<?xml version="1.0" encoding="utf-8"?><svg xmlns="http://www.w3.org/2000/svg" xmlns:xlink="http://www.w3.org/1999/xlink" style="display:none"><symbol viewBox="0 0 496 496" id="approval" xmlns="http://www.w3.org/2000/svg"><path d="M496 184c0-63.473-49.559-115.45-112-119.594V0H0v432h336v24c0 22.055 17.945 40 40 40s40-17.945 40-40V336h-16v-34.414c54.703-11.152 96-59.633 96-117.586zm-16 0c0 57.344-46.656 104-104 104s-104-46.656-104-104S318.656 80 376 80s104 46.656 104 104zM336 336v80H16V16h352v48.406C305.559 68.551 256 120.527 256 184c0 57.953 41.297 106.434 96 117.586V336zm64 120c0 13.23-10.77 24-24 24s-24-10.77-24-24V352h48zm-16-120h-16v-32.406c2.656.176 5.297.406 8 .406s5.344-.23 8-.406zm0 0"/><path d="M288 184c0 48.52 39.48 88 88 88s88-39.48 88-88-39.48-88-88-88-88 39.48-88 88zm160 0c0 39.703-32.305 72-72 72s-72-32.297-72-72 32.305-72 72-72 72 32.297 72 72zm-64 272a8 8 0 11-16 0 8 8 0 0116 0zm0 0"/><path d="M348.441 201.344l-8.882 13.312 31.546 21.024 44.055-88.106-14.32-7.148-35.945 71.894zm-205.058 65.734l-14.766-6.156L117.336 288H32v112h128V288h-25.336zM144 304v80H48v-80h62.672l-17.457 41.895-15.55-15.551-11.313 11.312 32.449 32.45L128 304zm-.617-188.922l-14.766-6.156L117.336 136H32v112h128V136h-25.336zM144 152v80H48v-80h62.672l-17.457 41.895-15.55-15.551-11.313 11.312 32.449 32.45L128 152zm80-88h16v16h-16zM32 64h176v16H32zm144 224h96v16h-96zm0 32h96v16h-96zm0 32h96v16h-96zm0 32h96v16h-96zm0-248h64v16h-64zm0 32h64v16h-64zm0 32h64v16h-64zm0 32h64v16h-64zM32 32h208v16H32zm0 0"/></symbol><symbol viewBox="0 0 512 512" id="book" xmlns="http://www.w3.org/2000/svg"><path d="M501.743 136.77c-15.531-5.177-32.568-9.947-50.743-14.239V61c0-8.284-6.716-15-15-15-107.588 0-175.176 54.646-180 56.972C251.198 100.657 183.535 46 76 46c-8.284 0-15 6.716-15 15v61.532c-18.251 4.314-35.289 9.086-50.743 14.238A14.998 14.998 0 000 151v300a15.002 15.002 0 0019.743 14.231c57.368-19.123 120-29.23 181.125-29.23h110.264c61.125 0 123.757 10.108 181.125 29.23A15 15 0 00512 451V151a14.998 14.998 0 00-10.257-14.23zM200.868 406C142.615 406 85.234 414.257 30 430.566V161.945c9.759-3.005 20.128-5.86 31-8.551V361c0 8.284 6.716 15 15 15 44.297 0 87.479 10.3 126.644 30h-1.776zM241 393.153c-45.333-28.239-96.733-44.261-150-46.797V76.394c90.03 4.745 144.498 49.868 150 52.633v264.126zm90-296.922a280.52 280.52 0 0130-10.122v58.677l-4.394-4.393c-5.857-5.858-15.355-5.858-21.213 0L331 144.787V96.231zm-60 32.797c5.776-3.734 14.88-10.403 30-18.651V181a15 15 0 0025.607 10.606L346 172.213l19.394 19.393A15.001 15.001 0 00391.001 181V79.594a282.774 282.774 0 0130-3.2v269.962c-53.267 2.535-104.667 18.558-150 46.797V129.028H271zm211 301.538C426.766 414.257 369.385 406 311.132 406h-1.776c39.165-19.7 82.347-30 126.644-30 8.284 0 15-6.716 15-15V153.386c10.844 2.683 21.209 5.541 31 8.558v268.622z"/></symbol><symbol viewBox="0 0 512.127 512.127" id="box" xmlns="http://www.w3.org/2000/svg"><path d="M497.127 355.406h-43.315V195.562c0-8.284-6.716-15-15-15h-75.953V20.718c0-8.284-6.716-15-15-15h-181.9c-8.284 0-15 6.716-15 15v159.844H75.012c-8.284 0-15 6.716-15 15v159.844H15c-8.284 0-15 6.716-15 15v60.679c0 8.284 6.716 15 15 15h13.688v45.324c0 8.284 6.716 15 15 15h86.61c8.284 0 15-6.716 15-15v-45.324h53.245v45.324c0 8.284 6.716 15 15 15h86.61c8.284 0 15-6.716 15-15v-45.324h49.563v45.324c0 8.284 6.716 15 15 15h86.61c8.284 0 15-6.716 15-15v-45.324h15.801c8.284 0 15-6.716 15-15v-60.679c0-8.284-6.715-15-15-15zm-73.315 0h-151.9V210.563h30.268v40.35c0 8.284 6.716 15 15 15h61.364c8.284 0 15-6.716 15-15v-40.35h30.268zm-60.268-119.494H332.18v-25.35h31.364zM272.591 35.718v25.35h-31.364v-25.35zm-91.632 0h30.268v40.35c0 8.284 6.716 15 15 15h61.364c8.284 0 15-6.716 15-15v-40.35h30.268v144.844h-151.9zm.685 174.845v25.35H150.28v-25.35zm-91.632-.001h30.268v40.35c0 8.284 6.716 15 15 15h61.364c8.284 0 15-6.716 15-15v-40.35h30.268v144.844h-151.9zm25.286 265.847h-56.61v-30.324h56.61zm169.855 0h-56.61v-30.324h56.61zm166.174 0h-56.61v-30.324h56.61zm30.8-60.323c-146.13-.04-306.147-.041-452.127 0v-30.679h452.127z"/></symbol><symbol viewBox="0 -46 417.813 417" id="check" xmlns="http://www.w3.org/2000/svg"><path d="M159.988 318.582c-3.988 4.012-9.43 6.25-15.082 6.25s-11.094-2.238-15.082-6.25L9.375 198.113c-12.5-12.5-12.5-32.77 0-45.246l15.082-15.086c12.504-12.5 32.75-12.5 45.25 0l75.2 75.203L348.104 9.781c12.504-12.5 32.77-12.5 45.25 0l15.082 15.086c12.5 12.5 12.5 32.766 0 45.246zm0 0"/></symbol><symbol viewBox="0 0 24 24" id="facebook" xmlns="http://www.w3.org/2000/svg"><path d="M15.997 3.985h2.191V.169C17.81.117 16.51 0 14.996 0c-3.159 0-5.323 1.987-5.323 5.639V9H6.187v4.266h3.486V24h4.274V13.267h3.345l.531-4.266h-3.877V6.062c.001-1.233.333-2.077 2.051-2.077z"/></symbol><symbol viewBox="0 0 492.068 492.068" id="file" xmlns="http://www.w3.org/2000/svg"><path d="M350.713 362.601l120.643-120.643-81.317-81.317-39.325 39.325v-91.179L241.926 0H20.713v445h132.955l-13.74 47.068 114.843-33.525L268.314 445h82.399v-82.399zm78.217-120.643l-28.055 28.055-38.891-38.891 28.054-28.054 38.892 38.89zM250.713 51.213L299.5 100h-48.787V51.213zM50.713 415V30h170v100h100v99.966l-35 35V262.5h-200v30h172.466l-40 40H85.713v30h102.466l-14.726 14.726L162.426 415H50.713zm188.276 16.898l-54.925 16.034 16.033-54.924L340.77 252.335l38.891 38.891-140.672 140.672z"/><path d="M85.713 192.5h200v30h-200z"/></symbol><symbol viewBox="0 0 512 512" id="gift" xmlns="http://www.w3.org/2000/svg"><path d="M467.692 83.692h-105.37a56.272 56.272 0 006.908-27.077C369.231 25.397 343.834 0 312.615 0h-14.769C281.285 0 266.362 7.149 256 18.523 245.638 7.149 230.715 0 214.154 0h-14.769c-31.218 0-56.615 25.397-56.615 56.615a56.272 56.272 0 006.908 27.077H44.308C19.876 83.692 0 103.569 0 128v39.385c0 24.431 19.876 44.308 44.308 44.308v256c0 24.431 19.876 44.308 44.308 44.308h334.769c24.431 0 44.308-19.876 44.308-44.308v-256c24.431 0 44.308-19.876 44.308-44.308V128c-.001-24.431-19.877-44.308-44.309-44.308zM270.769 56.615c0-14.931 12.146-27.077 27.077-27.077h14.769c14.931 0 27.077 12.146 27.077 27.077 0 14.931-12.146 27.077-27.077 27.077h-41.846V56.615zm-71.384-27.077h14.769c14.931 0 27.077 12.146 27.077 27.077v27.077h-41.846c-14.931 0-27.077-12.146-27.077-27.077 0-14.93 12.146-27.077 27.077-27.077zm2.461 452.924H88.615c-8.144 0-14.769-6.625-14.769-14.769v-66.462h128v81.231zm0-110.77h-128v-49.231h128v49.231zm0-78.769h-128v-81.231h128v81.231zm78.769 189.539h-49.231v-270.77h49.231v270.77zm157.539-14.77c0 8.144-6.625 14.769-14.769 14.769H310.154V401.23h128v66.462zm0-96h-128v-49.231h128v49.231zm0-78.769h-128v-81.231h128v81.231zm44.308-125.538c0 8.144-6.625 14.769-14.769 14.769H44.308c-8.144 0-14.769-6.625-14.769-14.769V128c0-8.144 6.625-14.769 14.769-14.769h423.385c8.144 0 14.769 6.625 14.769 14.769v39.385z"/></symbol><symbol viewBox="0 0 21 22" id="instagram" xmlns="http://www.w3.org/2000/svg"><path d="M10.5 5.61c.938 0 1.828.28 2.672.75a4.972 4.972 0 011.969 1.968c.468.844.75 1.735.75 2.672 0 .984-.282 1.875-.75 2.719a4.972 4.972 0 01-1.97 1.969 5.422 5.422 0 01-2.671.703 5.467 5.467 0 01-2.719-.703 4.972 4.972 0 01-1.968-1.97A5.467 5.467 0 015.109 11c0-.938.235-1.828.704-2.672A4.972 4.972 0 017.78 6.36c.844-.468 1.735-.75 2.719-.75zm0 8.906a3.4 3.4 0 002.484-1.032A3.432 3.432 0 0014.016 11c0-.938-.375-1.781-1.032-2.484-.703-.657-1.546-1.032-2.484-1.032-.984 0-1.828.375-2.484 1.032A3.4 3.4 0 006.984 11c0 .984.329 1.828 1.032 2.484.656.704 1.5 1.032 2.484 1.032zm6.89-9.141c0-.328-.14-.61-.374-.89-.282-.235-.563-.376-.891-.376a1.2 1.2 0 00-.89.375 1.171 1.171 0 00-.376.891c0 .375.094.656.375.89.235.282.516.376.891.376.328 0 .61-.094.844-.375a1.45 1.45 0 00.422-.891zm3.563 1.266c0 .89.047 2.343.047 4.359 0 2.063-.047 3.516-.094 4.406-.047.89-.187 1.64-.375 2.297a5.56 5.56 0 01-1.312 2.063c-.563.562-1.266.984-2.016 1.265-.656.235-1.453.375-2.344.422-.89.047-2.343.047-4.359.047-2.063 0-3.516 0-4.406-.047-.89-.047-1.64-.187-2.297-.469a4.837 4.837 0 01-2.063-1.218C1.172 19.203.75 18.5.47 17.703c-.235-.656-.375-1.406-.422-2.297C0 14.516 0 13.062 0 11c0-2.016 0-3.469.047-4.36.047-.89.187-1.687.422-2.343.281-.75.703-1.453 1.265-2.016A5.553 5.553 0 013.797.97 10.213 10.213 0 016.094.594C6.984.547 8.437.5 10.5.5c2.016 0 3.469.047 4.36.094.89.047 1.687.187 2.343.375A5.77 5.77 0 0119.22 2.28a5.77 5.77 0 011.312 2.016c.188.656.328 1.453.422 2.344zm-2.25 10.546c.188-.515.281-1.359.375-2.53 0-.657.047-1.641.047-2.907v-1.5c0-1.266-.047-2.25-.047-2.906-.094-1.172-.187-2.016-.375-2.532a3.554 3.554 0 00-2.015-2.015c-.516-.188-1.36-.281-2.532-.375-.703 0-1.687-.047-2.906-.047h-1.5c-1.266 0-2.25.047-2.906.047-1.172.094-2.016.187-2.532.375-.984.375-1.64 1.078-2.015 2.015-.188.516-.328 1.36-.375 2.532-.047.703-.047 1.687-.047 2.906v1.5c0 1.266 0 2.25.047 2.906.047 1.172.187 2.016.375 2.531.375.985 1.078 1.641 2.015 2.016.516.188 1.36.328 2.532.375.656.047 1.64.047 2.906.047h1.5c1.266 0 2.25 0 2.906-.047 1.172-.047 2.016-.187 2.531-.375a3.554 3.554 0 002.016-2.015z"/></symbol><symbol viewBox="0 0 26.349 26.35" id="loading" xmlns="http://www.w3.org/2000/svg"><circle cx="13.792" cy="3.082" r="3.082"/><circle cx="13.792" cy="24.501" r="1.849"/><circle cx="6.219" cy="6.218" r="2.774"/><circle cx="21.365" cy="21.363" r="1.541"/><circle cx="3.082" cy="13.792" r="2.465"/><circle cx="24.501" cy="13.791" r="1.232"/><path d="M4.694 19.84a2.155 2.155 0 000 3.05 2.155 2.155 0 003.05 0 2.155 2.155 0 000-3.05 2.146 2.146 0 00-3.05 0z"/><circle cx="21.364" cy="6.218" r=".924"/></symbol><symbol viewBox="0 0 40.23 40.23" id="logo" xmlns="http://www.w3.org/2000/svg"><defs><style>.jcls-1{fill:#2a318a;fill-rule:evenodd}</style></defs><g id="j&#x421;&#x43B;&#x43E;&#x439;_2" data-name="&#x421;&#x43B;&#x43E;&#x439; 2"><g id="j&#x421;&#x43B;&#x43E;&#x439;_1-2" data-name="&#x421;&#x43B;&#x43E;&#x439; 1"><path class="jcls-1" d="M14.37 0h11.49a.45.45 0 01.45.45v2.2a.45.45 0 01-.45.45H14.37a.45.45 0 01-.44-.45V.45a.45.45 0 01.44-.45"/><path class="jcls-1" d="M18.57 13.48V2a.44.44 0 01.43-.45h2.21a.44.44 0 01.44.44v11.49a.45.45 0 01-.44.45H19a.45.45 0 01-.44-.45m21.67.89v11.49a.45.45 0 01-.44.45h-2.21a.45.45 0 01-.44-.45V14.37a.44.44 0 01.44-.44h2.21a.44.44 0 01.44.44"/><path class="jcls-1" d="M26.75 18.57h11.49a.45.45 0 01.45.44v2.21a.45.45 0 01-.45.44H26.75a.44.44 0 01-.44-.44V19a.44.44 0 01.44-.44M14.37 40.23h11.49a.45.45 0 00.45-.44v-2.21a.45.45 0 00-.45-.44H14.37a.44.44 0 00-.44.44v2.21a.44.44 0 00.44.44"/><path class="jcls-1" d="M18.57 26.75v11.49a.45.45 0 00.44.45h2.21a.45.45 0 00.44-.45V26.75a.44.44 0 00-.44-.44H19a.44.44 0 00-.44.44M0 14.37v11.49a.45.45 0 00.44.45h2.21a.45.45 0 00.44-.45V14.37a.44.44 0 00-.44-.44H.44a.44.44 0 00-.44.44"/><path class="jcls-1" d="M13.48 18.57H2a.44.44 0 00-.44.44v2.21a.44.44 0 00.44.44h11.48a.45.45 0 00.45-.44V19a.45.45 0 00-.45-.44M25.47 6.64l8.13 8.12a.44.44 0 00.62 0l1.56-1.56a.43.43 0 000-.63l-3-3 7.1-7.1a.45.45 0 000-.63L38.36.31a.45.45 0 00-.63 0l-7.1 7.11-3-3a.45.45 0 00-.63 0L25.47 6a.45.45 0 000 .63m-10.71.01l-8.12 8.12a.45.45 0 01-.63 0L4.45 13.2a.45.45 0 010-.63l3-3L.32 2.5a.43.43 0 010-.63L1.87.31a.45.45 0 01.63 0l7.11 7.11 3-3a.45.45 0 01.63 0L14.76 6a.45.45 0 010 .63M25.47 33.6l8.13-8.13a.44.44 0 01.62 0L35.78 27a.43.43 0 010 .63l-3 3 7.1 7.1a.45.45 0 010 .63l-1.56 1.56a.45.45 0 01-.63 0l-7.1-7.1-3 3a.44.44 0 01-.63 0l-1.56-1.55a.45.45 0 010-.63m-10.64-.04l-8.12-8.13a.45.45 0 00-.63 0L4.45 27a.45.45 0 000 .63l3 3-7.1 7.1a.44.44 0 000 .63l1.55 1.56a.45.45 0 00.63 0l7.11-7.1 3 3a.43.43 0 00.63 0l1.56-1.55a.45.45 0 000-.63"/></g></g></symbol><symbol viewBox="0 0 24 24" id="ok" xmlns="http://www.w3.org/2000/svg"><path d="M4.721 12.881c-.613 1.205.083 1.781 1.671 2.765 1.35.834 3.215 1.139 4.413 1.261l-4.721 4.541c-1.374 1.317.838 3.43 2.211 2.141l3.717-3.585c1.423 1.369 2.787 2.681 3.717 3.59 1.374 1.294 3.585-.801 2.226-2.141-.102-.097-5.037-4.831-4.736-4.541 1.213-.122 3.05-.445 4.384-1.261l-.001-.001c1.588-.989 2.284-1.564 1.68-2.769-.365-.684-1.349-1.256-2.659-.267 0 0-1.769 1.355-4.622 1.355-2.854 0-4.622-1.355-4.622-1.355-1.309-.994-2.297-.417-2.658.267z"/><path d="M11.999 12.142c3.478 0 6.318-2.718 6.318-6.064 0-3.36-2.84-6.078-6.318-6.078C8.52 0 5.68 2.718 5.68 6.078c0 3.346 2.84 6.064 6.319 6.064zm0-9.063c1.709 0 3.103 1.341 3.103 2.999 0 1.644-1.394 2.985-3.103 2.985S8.896 7.722 8.896 6.078c-.001-1.659 1.393-2.999 3.103-2.999z"/></symbol><symbol viewBox="0 0 473.806 473.806" id="phone" xmlns="http://www.w3.org/2000/svg"><path d="M374.456 293.506c-9.7-10.1-21.4-15.5-33.8-15.5-12.3 0-24.1 5.3-34.2 15.4l-31.6 31.5c-2.6-1.4-5.2-2.7-7.7-4-3.6-1.8-7-3.5-9.9-5.3-29.6-18.8-56.5-43.3-82.3-75-12.5-15.8-20.9-29.1-27-42.6 8.2-7.5 15.8-15.3 23.2-22.8 2.8-2.8 5.6-5.7 8.4-8.5 21-21 21-48.2 0-69.2l-27.3-27.3c-3.1-3.1-6.3-6.3-9.3-9.5-6-6.2-12.3-12.6-18.8-18.6-9.7-9.6-21.3-14.7-33.5-14.7s-24 5.1-34 14.7l-.2.2-34 34.3c-12.8 12.8-20.1 28.4-21.7 46.5-2.4 29.2 6.2 56.4 12.8 74.2 16.2 43.7 40.4 84.2 76.5 127.6 43.8 52.3 96.5 93.6 156.7 122.7 23 10.9 53.7 23.8 88 26 2.1.1 4.3.2 6.3.2 23.1 0 42.5-8.3 57.7-24.8.1-.2.3-.3.4-.5 5.2-6.3 11.2-12 17.5-18.1 4.3-4.1 8.7-8.4 13-12.9 9.9-10.3 15.1-22.3 15.1-34.6 0-12.4-5.3-24.3-15.4-34.3l-54.9-55.1zm35.8 105.3c-.1 0-.1.1 0 0-3.9 4.2-7.9 8-12.2 12.2-6.5 6.2-13.1 12.7-19.3 20-10.1 10.8-22 15.9-37.6 15.9-1.5 0-3.1 0-4.6-.1-29.7-1.9-57.3-13.5-78-23.4-56.6-27.4-106.3-66.3-147.6-115.6-34.1-41.1-56.9-79.1-72-119.9-9.3-24.9-12.7-44.3-11.2-62.6 1-11.7 5.5-21.4 13.8-29.7l34.1-34.1c4.9-4.6 10.1-7.1 15.2-7.1 6.3 0 11.4 3.8 14.6 7l.3.3c6.1 5.7 11.9 11.6 18 17.9 3.1 3.2 6.3 6.4 9.5 9.7l27.3 27.3c10.6 10.6 10.6 20.4 0 31-2.9 2.9-5.7 5.8-8.6 8.6-8.4 8.6-16.4 16.6-25.1 24.4-.2.2-.4.3-.5.5-8.6 8.6-7 17-5.2 22.7l.3.9c7.1 17.2 17.1 33.4 32.3 52.7l.1.1c27.6 34 56.7 60.5 88.8 80.8 4.1 2.6 8.3 4.7 12.3 6.7 3.6 1.8 7 3.5 9.9 5.3.4.2.8.5 1.2.7 3.4 1.7 6.6 2.5 9.9 2.5 8.3 0 13.5-5.2 15.2-6.9l34.2-34.2c3.4-3.4 8.8-7.5 15.1-7.5 6.2 0 11.3 3.9 14.4 7.3l.2.2 55.1 55.1c10.3 10.2 10.3 20.7.1 31.3zm-154.2-286.1c26.2 4.4 50 16.8 69 35.8s31.3 42.8 35.8 69c1.1 6.6 6.8 11.2 13.3 11.2.8 0 1.5-.1 2.3-.2 7.4-1.2 12.3-8.2 11.1-15.6-5.4-31.7-20.4-60.6-43.3-83.5s-51.8-37.9-83.5-43.3c-7.4-1.2-14.3 3.7-15.6 11s3.5 14.4 10.9 15.6zm217.2 96.3c-8.9-52.2-33.5-99.7-71.3-137.5s-85.3-62.4-137.5-71.3c-7.3-1.3-14.2 3.7-15.5 11-1.2 7.4 3.7 14.3 11.1 15.6 46.6 7.9 89.1 30 122.9 63.7 33.8 33.8 55.8 76.3 63.7 122.9 1.1 6.6 6.8 11.2 13.3 11.2.8 0 1.5-.1 2.3-.2 7.3-1.1 12.3-8.1 11-15.4z"/></symbol><symbol viewBox="0 0 24 36" id="play" xmlns="http://www.w3.org/2000/svg"><defs><filter id="ma" width="200%" height="200%" x="-50%" y="-50%"><feGaussianBlur in="SourceGraphic" result="FeGaussianBlur1076Out" stdDeviation="0 0"/></filter><mask id="mb"><path d="M.784.738L23.91 17.947.784 35.157z"/></mask></defs><path d="M.784.738L23.91 17.947.784 35.157z"/><path d="M0 38V-2h24v40zm.784-.843l23.125-17.21L.784 2.738z" filter="url(#ma)" mask="url(#mb)"/></symbol><symbol viewBox="0 0 512 512" id="rub" xmlns="http://www.w3.org/2000/svg"><path d="M256 0C114.497 0 0 114.518 0 256c0 141.504 114.518 256 256 256 141.503 0 256-114.518 256-256C512 114.496 397.482 0 256 0zm0 482C131.079 482 30 380.903 30 256 30 131.078 131.097 30 256 30c124.921 0 226 101.097 226 226 0 124.922-101.097 226-226 226z"/><path d="M256 60C147.925 60 60 147.925 60 256s87.925 196 196 196 196-87.925 196-196S364.075 60 256 60zm0 362c-91.533 0-166-74.467-166-166S164.467 90 256 90s166 74.467 166 166-74.467 166-166 166z"/><path d="M301 151h-90v90h-30v30h30v30h-30v30h30v30h30v-30h30v-30h-30v-30h60c33.084 0 60-26.916 60-60s-26.916-60-60-60zm0 90h-60v-60h60c16.542 0 30 13.458 30 30s-13.458 30-30 30z"/></symbol><symbol viewBox="0 0 512.003 512.003" id="sale" xmlns="http://www.w3.org/2000/svg"><path d="M477.958 262.633a15.004 15.004 0 010-13.263l19.096-39.065c10.632-21.751 2.208-47.676-19.178-59.023l-38.41-20.38a15.005 15.005 0 01-7.796-10.729l-7.512-42.829c-4.183-23.846-26.241-39.87-50.208-36.479l-43.053 6.09a15.004 15.004 0 01-12.613-4.099l-31.251-30.232c-17.401-16.834-44.661-16.835-62.061 0L193.72 42.859a15.01 15.01 0 01-12.613 4.099l-43.053-6.09c-23.975-3.393-46.025 12.633-50.208 36.479l-7.512 42.827a15.008 15.008 0 01-7.795 10.73l-38.41 20.38c-21.386 11.346-29.81 37.273-19.178 59.024l19.095 39.064a15.004 15.004 0 010 13.263L14.95 301.699c-10.632 21.751-2.208 47.676 19.178 59.023l38.41 20.38a15.005 15.005 0 017.796 10.729l7.512 42.829c3.808 21.708 22.422 36.932 43.815 36.93 2.107 0 4.245-.148 6.394-.452l43.053-6.09a15 15 0 0112.613 4.099l31.251 30.232c8.702 8.418 19.864 12.626 31.03 12.625 11.163-.001 22.332-4.209 31.03-12.625l31.252-30.232c3.372-3.261 7.968-4.751 12.613-4.099l43.053 6.09c23.978 3.392 46.025-12.633 50.208-36.479l7.513-42.827a15.008 15.008 0 017.795-10.73l38.41-20.38c21.386-11.346 29.81-37.273 19.178-59.024l-19.096-39.065zm-13.923 72.002l-38.41 20.38c-12.246 6.499-20.645 18.057-23.04 31.713l-7.512 42.828a15.038 15.038 0 01-16.987 12.342l-43.053-6.09c-13.73-1.945-27.316 2.474-37.281 12.113L266.5 478.152a15.04 15.04 0 01-20.997 0l-31.251-30.232c-8.422-8.147-19.432-12.562-30.926-12.562-2.106 0-4.229.148-6.355.449l-43.053 6.09a15.042 15.042 0 01-16.987-12.342l-7.513-42.829c-2.396-13.656-10.794-25.215-23.041-31.712l-38.41-20.38a15.037 15.037 0 01-6.489-19.969L60.574 275.6c6.088-12.456 6.088-26.742 0-39.198l-19.096-39.065a15.037 15.037 0 016.489-19.969l38.41-20.38c12.246-6.499 20.645-18.057 23.04-31.713l7.512-42.828a15.038 15.038 0 0116.987-12.342l43.053 6.09c13.725 1.943 27.316-2.474 37.281-12.113l31.252-30.232a15.04 15.04 0 0120.997 0l31.251 30.232c9.965 9.64 23.554 14.056 37.281 12.113l43.053-6.09a15.04 15.04 0 0116.987 12.342l7.512 42.829c2.396 13.656 10.794 25.215 23.041 31.712l38.41 20.38a15.037 15.037 0 016.489 19.969l-19.096 39.064c-6.088 12.455-6.088 26.743 0 39.198l19.096 39.064a15.039 15.039 0 01-6.488 19.972z"/><path d="M363.886 148.116c-5.765-5.766-15.115-5.766-20.881 0l-194.889 194.89c-5.766 5.766-5.766 15.115 0 20.881a14.72 14.72 0 0010.44 4.325c3.778 0 7.558-1.441 10.44-4.325l194.889-194.889c5.768-5.767 5.768-15.115.001-20.882zm-166.945-25c-29.852 0-54.139 24.287-54.139 54.139s24.287 54.139 54.139 54.139 54.139-24.287 54.139-54.139-24.287-54.139-54.139-54.139zm0 78.747c-13.569 0-24.608-11.039-24.608-24.609 0-13.569 11.039-24.608 24.608-24.608s24.609 11.039 24.609 24.608c-.001 13.57-11.04 24.609-24.609 24.609zm118.12 78.747c-29.852 0-54.139 24.287-54.139 54.139s24.287 54.139 54.139 54.139c29.852 0 54.139-24.287 54.139-54.139s-24.287-54.139-54.139-54.139zm0 78.747c-13.569 0-24.609-11.039-24.609-24.608s11.039-24.608 24.609-24.608c13.569 0 24.608 11.039 24.608 24.608s-11.039 24.608-24.608 24.608z"/></symbol><symbol viewBox="0 0 24 24" id="skype" xmlns="http://www.w3.org/2000/svg"><path d="M23.309 14.547C25.047 6.737 18.205-.358 10.17 1.004 5.808-1.703 0 1.356 0 6.546c0 1.207.333 2.337.912 3.311-1.615 7.828 5.283 14.821 13.311 13.366a6.695 6.695 0 003.139.777c4.949 0 8.118-5.133 5.947-9.453zm-11.213 5.332c-2.342 0-4.63-.565-5.984-2.499-2.018-2.854.643-4.282 1.949-3.194 1.09.919.748 3.142 3.949 3.142 1.411 0 3.153-.602 3.153-2.001 0-2.815-6.245-1.483-8.728-4.552-.912-1.124-1.084-3.107.036-4.545 1.952-2.512 7.68-2.665 10.143-.768 2.274 1.76 1.66 4.096-.175 4.096-2.207 0-1.047-2.888-4.61-2.888-2.583 0-3.599 1.837-1.78 2.731 2.421 1.202 8.75.827 8.75 5.603-.008 3.357-3.247 4.875-6.703 4.875z"/></symbol><symbol viewBox="0 0 496 496" id="team" xmlns="http://www.w3.org/2000/svg"><path d="M496 208h-17.977l-26.793 14.098c-3.015-1.664-6.152-3.075-9.535-3.922l-33.703-8.434v-3.832C422.902 195.504 432 178.313 432 160v-13.984c0-31.078-24.352-57.086-54.281-57.993-1.52-.039-3.016.016-4.52.09l8.738-20.457-42.363-42.351-24.972 16.254a135.318 135.318 0 00-29.946-12.422L278.488 0H217.52l-6.168 29.145a135.164 135.164 0 00-29.946 12.421l-24.972-16.254-42.329 42.329 8.59 20.472c-.328-.015-.64-.074-.968-.082-15.32-.445-29.75 5.145-40.711 15.785C70.039 114.45 64 128.72 64 144v16c0 18.313 9.09 35.496 24 45.902v3.84l-21.984 5.496L26.168 192H0v165.77L78.703 384h15.328l1.914-6.703 24.125 14.48c.395 13.118 10.914 23.672 24.02 24.133.46 13.05 10.95 23.54 24 24 .46 13.05 10.95 23.54 24 24 .476 13.356 11.414 24.09 24.879 24.09 5 0 9.902-1.559 14.023-4.336l7.086 6.258A24.359 24.359 0 00254.176 496h1.48c13.313 0 24.145-10.762 24.313-24.031 13.168-.168 23.832-10.832 24-24 13.176-.168 23.847-10.848 24-24.024C341.266 423.633 352 412.77 352 399.398c0-.804-.04-1.597-.121-2.398L496 324.945zm-80-61.984V160c0 14.2-7.672 27.465-20.023 34.617l-4 2.313.03 25.316 39.97 9.984L344 278.535v-21.55c0-10.755-4.344-20.602-11.457-27.88L360 222.246V196.91l-3.992-2.308C343.664 187.465 336 174.199 336 160v-16c0-10.91 4.313-21.113 12.152-28.71 7.832-7.595 18.223-11.688 29.086-11.267 21.371.641 38.762 19.48 38.762 41.993zm-155.938 126.23l-36.214-11.574c-16.504-5.29-34.368-6.078-51.262-2.336L168 259.352v-2.368c0-11.03 7.48-20.609 18.176-23.289L232 222.246V196.91l-3.992-2.308C215.664 187.465 208 174.199 208 160v-16c0-10.91 4.313-21.113 12.152-28.71 7.832-7.595 18.29-11.688 29.086-11.267 21.371.641 38.762 19.48 38.762 41.993V160c0 14.2-7.672 27.465-20.023 34.617l-4 2.313.03 25.316 45.817 11.45A23.983 23.983 0 01328 256.983v29.977l-1.977 1.04h-4.902l-49.184-14.055c-3.875-1.097-7.867-1.547-11.875-1.699zm-90.269-152.512C184.816 90.625 215.055 72 248 72c32.633 0 62.742 18.375 77.879 47.09A55.638 55.638 0 00320 144v16c0 18.312 9.09 35.496 24 45.902v3.84l-32 8.012-32.008-8.012v-3.832C294.902 195.504 304 178.312 304 160v-13.984c0-31.079-24.352-57.086-54.281-57.993-15.313-.449-29.75 5.145-40.711 15.786C198.039 114.449 192 128.719 192 144v16c0 18.312 9.09 35.496 24 45.902v3.84l-32 8.012-32.008-8.012v-3.832C166.902 195.504 176 178.312 176 160v-13.984c0-9.414-2.266-18.352-6.207-26.282zM133 71.352l25.559-25.559 22.496 14.64 4.304-2.64c10.786-6.61 22.442-11.45 34.641-14.367l4.922-1.18L230.488 16h35.032l5.55 26.238 4.922 1.176c12.2 2.922 23.856 7.762 34.64 14.371l4.305 2.64 22.497-14.64L362.96 71.32l-9.074 21.246c-6.176 2.657-11.903 6.395-16.887 11.227-.328.32-.61.664-.93.992C317.223 74.825 283.902 56 248 56c-36.16 0-69.574 19-88.375 49.266-5.031-5.266-11.016-9.532-17.648-12.512zm-29 150.894V196.91l-3.992-2.308C87.664 187.465 80 174.199 80 160v-16c0-10.91 4.313-21.113 12.152-28.71 7.832-7.595 18.246-11.688 29.086-11.267 21.371.641 38.762 19.48 38.762 41.993V160c0 14.2-7.672 27.465-20.023 34.617l-4 2.313.03 25.316 27.45 6.86C156.344 236.382 152 246.23 152 256.983v5.926l-24.953 5.547.648-2.266.305-14.785-42.191-24.613zM16 208h5.832l57.535 33.559-29.031 116.12L16 346.23zm65.297 160l-15.746-5.246 28.203-112.8L112 260.593v2.285L81.969 368zM136 391.031a9.03 9.03 0 012.625-6.344l14.063-14.062A9.03 9.03 0 01159.03 368c4.946 0 8.969 4.023 8.969 8.969a9.03 9.03 0 01-2.625 6.344l-14.063 14.062A9.03 9.03 0 01144.97 400c-4.946 0-8.969-4.023-8.969-8.969zm24 24a9.03 9.03 0 012.625-6.344l14.063-14.062A9.03 9.03 0 01183.03 392c4.946 0 8.969 4.023 8.969 8.969a9.03 9.03 0 01-2.625 6.344l-14.063 14.062A9.03 9.03 0 01168.97 424c-4.946 0-8.969-4.023-8.969-8.969zm24 24a9.03 9.03 0 012.625-6.344l14.063-14.062A9.03 9.03 0 01207.03 416c4.946 0 8.969 4.023 8.969 8.969a9.03 9.03 0 01-2.625 6.344l-14.063 14.062A9.03 9.03 0 01192.97 448c-4.946 0-8.969-4.023-8.969-8.969zM216.969 472c-4.946 0-8.969-4.023-8.969-8.969a9.03 9.03 0 012.625-6.344l14.063-14.062A9.03 9.03 0 01231.03 440c4.946 0 8.969 4.023 8.969 8.969a9.03 9.03 0 01-2.625 6.344l-14.063 14.062A9.03 9.03 0 01216.97 472zm38.687 8h-1.48a8.29 8.29 0 01-5.512-2.09l-5.984-5.277 6.007-6.008c2.145-2.145 3.81-4.695 5.04-7.434l7.273 6.055a8.325 8.325 0 013 6.41c0 4.602-3.742 8.344-8.344 8.344zm71.742-72h-1.382a8.583 8.583 0 01-5.504-2l-43.383-36.152-10.25 12.297 42.129 35.101a8.343 8.343 0 012.992 6.41c0 4.602-3.742 8.344-8.344 8.344h-1.746a8.344 8.344 0 01-5.336-1.938l-43.453-36.207-10.25 12.297L285 441.258a8.283 8.283 0 013 6.398c0 4.602-3.742 8.344-8.344 8.344-3.07 0-6.062-1.09-8.418-3.047l-17.855-14.883c-3.934-8.039-12.016-13.644-21.48-13.98-.462-13.05-10.95-23.54-24-24-.462-13.05-10.95-23.54-24-24-.47-13.356-11.407-24.09-24.872-24.09-6.574 0-13.008 2.664-17.656 7.313l-14.062 14.062c-.84.84-1.536 1.793-2.243 2.738l-24.574-14.746 21.543-75.398 54.008-12.008c14.168-3.168 29.105-2.48 42.922 1.941l11.785 3.77-39.953 19.976c-9.13 4.575-14.801 13.758-14.801 23.97v1.581C176 339.977 188.023 352 202.8 352c4.856 0 9.634-1.32 13.786-3.824l29.789-17.864c5.984-3.585 14.016-2.8 19.184 1.848l67.593 60.832a8.66 8.66 0 012.848 6.406c0 4.747-3.855 8.602-8.602 8.602zM480 315.055l-134.777 67.394a22.222 22.222 0 00-1.375-1.336l-67.582-60.832A32.117 32.117 0 00254.71 312a32.222 32.222 0 00-16.574 4.594l-29.801 17.87A10.708 10.708 0 01202.8 336c-5.96 0-10.8-4.84-10.8-10.8v-1.583c0-4.12 2.29-7.816 5.969-9.656l44.625-22.313c7.636-3.824 16.703-4.68 24.933-2.312l50.274 14.36 12.176.304L480 225.04zm0 0"/></symbol><symbol viewBox="0 0 24 24" id="telegram" xmlns="http://www.w3.org/2000/svg"><path d="M9.417 15.181l-.397 5.584c.568 0 .814-.244 1.109-.537l2.663-2.545 5.518 4.041c1.012.564 1.725.267 1.998-.931L23.93 3.821l.001-.001c.321-1.496-.541-2.081-1.527-1.714l-21.29 8.151c-1.453.564-1.431 1.374-.247 1.741l5.443 1.693L18.953 5.78c.595-.394 1.136-.176.691.218z"/></symbol><symbol viewBox="0 0 496 496" id="test" xmlns="http://www.w3.org/2000/svg"><path d="M352.504 256c4.754 0 9.351 1.39 13.312 4.031l55.871 37.25A39.954 39.954 0 00443.88 304H496v-16h-52.113c-4.75 0-9.36-1.39-13.32-4.031L408 268.922V0H104v48H0v448h304v-48h104v-67.305c.504-.12 1.023-.16 1.527-.28l37.215-9.302A104.13 104.13 0 01472 368h24v-16h-24c-9.809 0-19.617 1.207-29.137 3.586l-37.215 9.3c-19.128 4.778-39.488 4-58.175-2.23l-13.48-4.496A119.95 119.95 0 00296 352h-69.809c0-13.23 10.77-24 24-24h88c13.235 0 24-10.77 24-24 0-12.273-9.296-22.305-21.191-23.719L347.566 256zm-10.106 121.832A119.756 119.756 0 00380.391 384c3.882 0 7.754-.336 11.609-.71V432h-88v-26.168c2.809-3.238 4.984-7.07 6.152-11.406l6.551-24.266c4.121.84 8.207 1.84 12.219 3.184zm-41.726-9.648l-5.961 22.062A13.213 13.213 0 01281.977 400h-2.594c-7.27 0-13.184-5.91-13.184-13.184 0-1.168.153-2.32.457-3.441L270.81 368H296c1.559 0 3.113.121 4.672.184zM254.23 368l-3.023 11.191a29.13 29.13 0 00-1.008 7.625c0 10.817 5.985 20.168 14.746 25.207l-2.511 10.032 15.52 3.883L280.44 416h1.536c2.062 0 4.062-.29 6.023-.703V480H16V64h104V16h272v242.258l-17.305-11.54A39.936 39.936 0 00352.504 240h-.617l33.297-123.191a29.13 29.13 0 001.007-7.625C386.191 93.09 373.098 80 357.008 80h-2.594c-13.156 0-24.742 8.871-28.176 21.574L304 183.864V48H136v16h152v176h-16.55c-8.708 0-16.907 2.887-23.763 8H168v16h62.879l-16 16H168v16h30.887l-13.367 13.367c-4.72 4.711-7.32 10.985-7.32 17.664 0 13.77 11.198 24.969 24.976 24.969 2.465 0 4.84-.473 7.144-1.16-.008.39-.12.762-.12 1.16 0 8.824 7.175 16 16 16zm61.625-56h-29.91l33.782-124.992 27.441 9.144zm-61.375-48.977c4.473-4.464 10.657-7.023 16.97-7.023h13.054l-6.527 24.145c-10.122.367-19.61 4.367-26.809 11.566l-41.656 41.656a9.038 9.038 0 01-6.344 2.633c-4.953 0-8.977-4.023-8.977-8.969 0-2.398.938-4.648 2.633-6.343zm8 40c3.024-3.023 6.872-5.086 10.977-6.16L269.367 312h-15.855zm107.254-190.39l-9.796 36.246-27.442-9.145 9.184-33.98c1.558-5.746 6.793-9.754 12.734-9.754h2.594c7.273 0 13.183 5.91 13.183 13.184 0 1.168-.152 2.32-.457 3.449zm-41.414 42.574l27.442 9.145-4.418 16.328-27.442-9.145zM338.191 296c4.41 0 8 3.594 8 8s-3.59 8-8 8h-5.765l4.328-16zm0 0"/><path d="M240 80H32v80h208zm-16 64H48V96h176zm0 0"/><path d="M64 112h16v16H64zm32 0h16v16H96zm32 0h16v16h-16zm32 0h16v16h-16zm32 0h16v16h-16zm-64 144h-16v32H48v-64h48v-16H32v96h96zm0 0"/><path d="M154.344 178.344L80 252.688l-10.344-10.344-11.312 11.312L80 275.312l85.656-85.656zM112 424H48v-64h48v-16H32v96h96v-48h-16zm0 0"/><path d="M69.656 378.344l-11.312 11.312L80 411.312l85.656-85.656-11.312-11.312L80 388.688zM256 440h16v16h-16zm-104 0h88v16h-88zm16-224h104v16H168zm0 0"/></symbol><symbol viewBox="0 0 31 32" id="viber" xmlns="http://www.w3.org/2000/svg"><path d="M26.933 3.2c1.334 1.333 2.4 2.933 2.934 5.6.533 2.667.533 5.867.266 9.867-.266 2.933-1.6 5.333-3.466 6.933-1.067.8-2.4 1.333-4 1.867H22.4c-.533.266-1.6.266-2.933.533-2.134.267-4.267.267-6.4.267-.8 1.066-1.6 1.6-1.867 2.133l-.533.533L9.6 32H8c-.267 0-.533-.267-.533-.533 0-.267-.267-.534-.267-.8v-3.734c-2.4-.533-4-1.866-5.333-3.733-.8-1.333-1.6-3.2-1.867-5.333v-4.8c0-2.134.267-4 .8-5.6.533-1.6 1.333-3.2 2.4-4.267.8-.8 2.133-1.6 3.733-2.133C8.267.533 9.6.267 10.933 0h4.8c3.2 0 5.867.533 8 1.333 1.334.534 2.4 1.067 3.2 1.867zm.8 14.667c.534-3.2.267-6.134 0-8.267-.533-2.133-1.333-3.733-2.4-4.8-.533-.533-1.6-1.067-2.666-1.333-2.134-.8-4.534-1.067-7.2-1.334H14.4c-1.067 0-1.867 0-2.933.267-1.067.267-2.4.533-3.467.8-1.067.533-2.133 1.067-2.933 1.867-1.067.8-1.6 1.866-2.134 3.466-.266 1.334-.533 2.934-.533 4.534V17.6c.267 1.867.8 3.467 1.6 4.533 1.067 1.334 2.4 2.4 4.267 2.934V30.4c0 .267 0 .533.266.533.267 0 .267 0 .534-.266.533-.534 1.333-1.334 2.4-2.934l1.866-2.133c1.867 0 3.734 0 5.6-.267 1.334-.266 2.134-.266 2.667-.533h.267c1.333-.267 2.4-.8 3.2-1.6 1.333-.8 2.4-2.667 2.666-5.333zm-5.066 2.666c.266-.533.266-1.066-.267-1.6-.8-.533-1.867-1.333-2.933-1.866-.267-.267-.534-.267-.8-.267-.267 0-.534.267-.8.533l-.534.8c0 .267-.266.267-.533.267h-.267c-1.066-.267-1.866-.8-2.666-1.333-.8-.534-1.334-1.067-1.6-1.867-.534-.267-.8-.8-.8-1.333l-.267-.8V12.8c0-.267.267-.533.267-.533l.8-.534c.266-.266.266-.533.533-.8.267-.266 0-.533-.267-1.066-.533-.534-.8-1.067-1.066-1.334l-1.067-1.6c-.533-.266-1.067-.533-1.6 0-.533.267-1.333.8-1.6 1.334-.533.533-.533 1.333-.533 1.866l.266.8c.267.8.8 1.6 1.334 2.667.533 1.067 1.333 1.867 1.866 2.933A12.64 12.64 0 0012.8 19.2c1.067.8 2.133 1.333 3.733 2.133 1.067.534 2.134 1.067 2.934 1.334.533.266 1.333 0 1.866-.534.267-.266.8-.8 1.334-1.6zM23.2 14.4c0-2.667-.8-4.8-2.4-6.4-1.6-1.6-3.467-2.133-5.867-2.133-.266 0-.533.266-.533.533s.267.533.533.533c2.134 0 4 .534 5.334 2.134 1.6 1.333 2.133 3.466 2.133 5.866 0 .267.267.267.533.267.267 0 .267-.533.267-.8zm-2.933-.8c0 .267.266.533.533.533s.533 0 .533-.266c0-1.867-.533-3.2-1.6-4.267-1.066-1.067-2.4-1.6-4-1.867-.266 0-.533.267-.533.534 0 .266 0 .533.267.533 1.6 0 2.666.533 3.466 1.6.8 1.067 1.334 1.867 1.334 3.2zm-1.067-.8c0-1.867-1.067-2.667-2.933-2.933-.267.266-.267.266-.267.533s0 .533.267.533c1.333 0 1.866.8 2.133 2.134 0 0 0 .266.267.266.266 0 .533-.266.533-.533z"/></symbol><symbol viewBox="0 0 24 24" id="vimeo" xmlns="http://www.w3.org/2000/svg"><path d="M20.497 1.505c-3.328-.121-5.576 1.787-6.762 5.694a4.312 4.312 0 011.777-.395c1.219 0 1.758.697 1.614 2.082-.072.839-.608 2.059-1.612 3.664-1.009 1.605-1.763 2.409-2.265 2.409-1.522 0-2.437-7.284-2.747-9.273-.431-2.765-1.58-4.058-3.447-3.877C5.341 1.972 2.35 5.058 0 7.15l1.129 1.472C2.204 7.86 2.831 7.478 3.01 7.478c1.871 0 2.777 6.367 4.23 11.102.975 2.613 2.144 3.92 3.553 3.92 2.264 0 5.022-2.144 8.29-6.434 3.155-4.107 4.789-7.344 4.894-9.705l.013-.01c.134-3.165-1.021-4.785-3.493-4.846z"/></symbol><symbol viewBox="0 0 24 24" id="vk" xmlns="http://www.w3.org/2000/svg"><path d="M19.915 13.028c-.388-.49-.277-.708 0-1.146.005-.005 3.208-4.431 3.538-5.932l.002-.001c.164-.547 0-.949-.793-.949h-2.624c-.668 0-.976.345-1.141.731 0 0-1.336 3.198-3.226 5.271-.61.599-.892.791-1.225.791-.164 0-.419-.192-.419-.739V5.949c0-.656-.187-.949-.74-.949H9.161c-.419 0-.668.306-.668.591 0 .622.945.765 1.043 2.515v3.797c0 .832-.151.985-.486.985-.892 0-3.057-3.211-4.34-6.886-.259-.713-.512-1.001-1.185-1.001H.9c-.749 0-.9.345-.9.731 0 .682.892 4.073 4.148 8.553C6.318 17.343 9.374 19 12.154 19c1.671 0 1.875-.368 1.875-1.001 0-2.922-.151-3.198.686-3.198.388 0 1.056.192 2.616 1.667C19.114 18.217 19.407 19 20.405 19h2.624c.748 0 1.127-.368.909-1.094-.499-1.527-3.871-4.668-4.023-4.878z"/></symbol><symbol viewBox="0 0 32 32" id="warning" xmlns="http://www.w3.org/2000/svg"><path d="M16 3c-3.472 0-6.737 1.352-9.192 3.808S3 12.528 3 16c0 3.472 1.352 6.737 3.808 9.192S12.528 29 16 29c3.472 0 6.737-1.352 9.192-3.808S29 19.472 29 16c0-3.472-1.352-6.737-3.808-9.192S19.472 3 16 3zm0-3c8.837 0 16 7.163 16 16s-7.163 16-16 16S0 24.837 0 16 7.163 0 16 0zm-2 22h4v4h-4zm0-16h4v12h-4z"/></symbol><symbol viewBox="0 0 32 32" id="whatsapp" xmlns="http://www.w3.org/2000/svg"><path d="M27.124 4.571c1.524 1.524 2.743 3.353 3.657 5.181.914 1.829 1.219 3.962 1.219 6.096 0 2.742-.61 5.485-2.133 7.923-1.524 2.438-3.353 4.267-5.79 5.79-2.439 1.525-5.182 2.134-7.925 2.134-2.743 0-5.18-.61-7.619-1.828L0 32l2.438-8.229C.914 21.333 0 18.591 0 15.848c0-2.743.61-5.486 2.133-7.924 1.524-2.438 3.353-4.267 5.79-5.79C10.363.61 13.106 0 15.849 0c2.133 0 3.961.305 6.095 1.219 2.133.914 3.657 1.829 5.18 3.352zM15.848 28.952c2.438 0 4.876-.61 6.704-1.523 1.829-.915 3.657-3.048 4.877-4.877 1.219-1.828 1.828-4.266 1.828-6.704 0-1.829-.305-3.353-1.219-4.877-.914-1.523-1.829-3.047-3.047-4.266-1.22-1.22-2.439-2.438-3.962-3.048-1.524-.61-3.353-.914-5.181-.914-2.439 0-4.572.61-6.705 1.828C7.01 5.791 5.79 7.314 4.57 9.143c-1.219 1.828-1.828 4.266-1.828 6.705 0 2.438.61 4.876 2.133 7.01l.305.609-1.524 4.876 4.876-1.22h.61c2.133 1.22 4.571 1.83 6.705 1.83zm7.314-9.752c.61.305.61.305.914.61.305.304 0 .304 0 .609s0 .914-.305 1.22l-1.219 1.218c-.61.61-.914.61-1.523.61H19.2c-.914-.305-1.829-.61-3.048-.915-2.438-1.219-4.571-3.047-6.4-6.095-1.219-1.524-1.828-2.743-1.828-3.962 0-1.219.305-2.438 1.219-3.352.305-.305.61-.61 1.219-.61h1.524c.305 0 0 .305 0 .61l1.219 3.047c0 .305.304.61 0 .61 0 .61-.305.914-.61 1.219-.304.305-.304.61-.61.61-.304 0 0 .304 0 .304.61 1.22 1.524 2.134 2.439 3.048.61.61 1.524 1.219 3.047 1.828.61 0 .915 0 .915-.304.61-.61 1.219-1.22 1.219-1.524 0-.305.305-.305.305-.305h.609c.61.305 1.22.61 2.743 1.524z"/></symbol></svg>