<?xml version="1.0" encoding="utf-8"?><!DOCTYPE svg PUBLIC "-//W3C//DTD SVG 1.1//EN" "http://www.w3.org/Graphics/SVG/1.1/DTD/svg11.dtd"><svg xmlns="http://www.w3.org/2000/svg" xmlns:xlink="http://www.w3.org/1999/xlink"><symbol viewBox="0 0 352.75 352.59" id="circles-1" xmlns="http://www.w3.org/2000/svg"><defs><style/></defs><g id="aСлой_2" data-name="Слой 2"><g id="aLayer_1" data-name="Layer 1"><path fill="#ffc100" d="M112.12 12.06A173.63 173.63 0 01172.64 0c0 .81 0 2.44-.06 3.25s-.07 2.09-.09 2.79a170.32 170.32 0 00-166 161.77c-.16 3.09 0 6.23-.71 9.27l-1.78.64c-1.34-.11-2.69-.21-4-.26v-7.19c1.48-30.78 10.31-61.36 26.91-87.42a177.17 177.17 0 0185.21-70.79z"/><path fill="#ffc100" d="M82.47 73.42c5.77-8 18.74-8.77 25.39-1.44.67.77 1.33 1.55 2 2.36a17.3 17.3 0 012.42 12.5 16.78 16.78 0 01-27.37 9.54 32.75 32.75 0 01-2.62-2.78 17 17 0 01.18-20.18zM102.38 75c-5.38-4.18-14.2-1.9-16.59 4.59-3.08 6.73 2.83 15.24 10.21 14.79 6.39.13 11.71-6.4 10.43-12.62-.37-1.69-1.51-5-4-6.78M243.05 271.81a13.16 13.16 0 0117.47-1.16c.81.72 1.58 1.49 2.33 2.29a13.13 13.13 0 11-21.05 15.7c-.55-.86-1.06-1.72-1.54-2.6a13.41 13.41 0 012.79-14.23zm6.5 2.65c-3.74 1.54-5.52 6.57-3 9.91 2.09 5.38 10.64 4.58 12.47-.64 2.7-5.51-4.02-12.11-9.47-9.27z"/><path fill="#dcdcdb" d="M172.64 0c37-.67 74.2 10.3 104.51 31.65A176.24 176.24 0 111 192.78c-.54-4.89-.43-9.78-1-14.71v-.61c1.34 0 2.69.15 4 .26l1.73-.61a2 2 0 01-2.45 1.09 171.85 171.85 0 0029.1 94.21A173.11 173.11 0 00201 347.85a173.12 173.12 0 0088.5-302.66C257.58 17.36 215 1.87 172.58 3.28c.01-.81.05-2.44.06-3.28z"/><path fill="#dcdcdb" d="M107.86 72a127.38 127.38 0 01155 201c-.75-.8-1.52-1.57-2.33-2.29 13.53-11.82 23.86-27.13 30.85-43.63A124.38 124.38 0 00109.82 74.34c-.63-.81-1.29-1.59-1.96-2.34z"/><path fill="#dcdcdb" d="M165.12 80.81a122.27 122.27 0 0117.88-.52c-.05 1-.11 2.08-.17 3.12a101.14 101.14 0 00-17.4.33zM195 81.86a101.51 101.51 0 0117.26 4.94c-.24.68-.73 2.06-1 2.74a117.91 117.91 0 00-16.82-4.72c.13-.74.4-2.22.56-2.96zM136.29 88.64a88.89 88.89 0 0117.1-5.64c.14.71.43 2.13.57 2.84a101.59 101.59 0 00-16.45 5.61zM223.15 91.8a94.14 94.14 0 0115 10l-2 2.22a93.44 93.44 0 00-14.41-9.5c.48-.94.94-1.83 1.41-2.72zM82.25 93.6a32.75 32.75 0 002.62 2.78l-.65-.48a126 126 0 00-25.86 44.47 124.48 124.48 0 00137.5 161.81c.26 1 .55 1.95.87 2.92A127.37 127.37 0 0182.25 93.6zM111.06 104.85a113.45 113.45 0 0114.48-10.67l1.65 2.58A87.18 87.18 0 00113.37 107a23 23 0 01-2.31-2.15zM244.94 111.75a9 9 0 012.49-1.87 132.53 132.53 0 0111.08 13.71c-.63.42-1.87 1.27-2.49 1.7a109 109 0 00-11.08-13.54z"/><path fill="#dcdcdb" d="M91.85 127.72a94.16 94.16 0 0110.84-14.49l2.12 2.08a84.7 84.7 0 00-10.21 13.85zM262 135.2l2.55-1.21c3 5.19 5 10.93 6.87 16.62l-2.75.78A150.08 150.08 0 00262 135.2zM86.18 138.32L89 139.5a126.86 126.86 0 00-5.87 16.5l-2.79-.79a113.53 113.53 0 015.84-16.89zM271.18 162.73l3-.4a109.89 109.89 0 011.44 17.84h-3a112.06 112.06 0 00-1.44-17.44zM78.15 167l3 .57a82.45 82.45 0 00-.54 17.13l-3.07.37a108 108 0 01.61-18.07zM268 208.73a104.08 104.08 0 003.82-17l2.8.33a79.35 79.35 0 01-3.79 17.62zM79 196.92l3-.54a103.91 103.91 0 004.61 16.8l-2.79 1.06A103.13 103.13 0 0179 196.92zM263.14 220.86c.42-1.86 2.23-.43 3.29-.18-2.24 5.57-5.55 10.61-8.74 15.66l-2.69-1.62a95.63 95.63 0 008.14-13.86zM88.6 225.11c1-.41 1.9-.81 2.86-1.2a79.31 79.31 0 009.28 14.4l-2.37 2a104.93 104.93 0 01-9.77-15.2zM247.63 243.82c.82.62 1.62 1.28 2.4 2a110.91 110.91 0 01-13.12 12.15 10.17 10.17 0 01-1.84-2.54 78.26 78.26 0 0012.56-11.61zM106.27 249.23l2.44-1.73a126.13 126.13 0 0013.13 10.95l-1.76 2.37a103.39 103.39 0 01-13.81-11.59zM209.6 269.59a102.24 102.24 0 0015.71-7.47l1.57 2.56a99.32 99.32 0 01-16.24 7.71zM130.36 267.05l1.4-2.65a103.88 103.88 0 0016.09 6.71l-.91 2.83a98.44 98.44 0 01-16.58-6.89zM181.22 275.32a113.73 113.73 0 0017.32-2.32c.15.71.43 2.15.58 2.86a107.68 107.68 0 01-17.78 2.51zM159.12 273.86a103.71 103.71 0 0017.41 1.59v3a118.48 118.48 0 01-17.83-1.57c.1-.74.3-2.26.42-3.02zM229.74 291.71c3.55-1.81 7.11-3.61 10.52-5.67.48.88 1 1.74 1.54 2.6q-5.4 3.25-11.09 5.95z"/><path fill="#ef6145" d="M208.19 282c8.34-2.77 18.07 1.74 21.55 9.76l1 2.88A17.93 17.93 0 01219 315.89c-8.75 3.11-19.28-2-22.25-10.79-.32-1-.61-2-.87-2.92-1.63-8.61 3.85-17.81 12.31-20.18zm2.33 5.57a11.72 11.72 0 00-6.44 4.29c-5 6-1.6 16.53 6 18.48 7.26 2.49 15.72-3.92 15.09-11.6-.93-2.45-.81-5.4-2.74-7.36a11.82 11.82 0 00-11.91-3.86z"/></g></g></symbol><symbol viewBox="0 0 353 353" id="circles-2" xmlns="http://www.w3.org/2000/svg"><g fill="#ffc100"><path d="M168.1 0h7.65l.79.06c0 .79-.01 2.38-.01 3.17-.01 1.01-.01 2.01-.01 3.01-35.11-.06-70.16 11.1-98.66 31.62-28.16 20-50.04 48.73-61.65 81.27-6.62 18.34-9.92 37.84-9.98 57.32-1 .01-2 .01-3.01.02-.79.02-2.38.04-3.18.05l-.04-.59v-7.18c.97-9.61 1.78-19.26 3.89-28.7 7.06-34.19 24.79-66.01 49.88-90.25C82.05 22.33 119.75 4.61 159.05.99c3.03-.22 6.04-.57 9.05-.99zM176.54 80.33c2.26.04 4.52.08 6.79.19 11.03.89 22.1 2.97 32.15 7.78a90.094 90.094 0 0129.06 19.11c9.55 8.22 16.27 19.08 21.98 30.17 4.68 10.15 7.54 21.16 8.69 32.26.2 3.2.31 6.4.39 9.61l-3.42.04c-.86 0-1.71-.01-2.57-.03.08-24.18-9.77-48.16-26.81-65.31-17.2-17.66-41.63-27.92-66.27-27.84v-3.03c0-.74.01-2.21.01-2.95z"/></g><g fill="#dcdcdc"><path d="M176.54.06c18.95.45 37.94 3.12 55.92 9.27 36.61 12.2 68.89 36.86 90.35 68.91 17.55 25.91 27.83 56.61 29.63 87.84 1.85 30.9-4.56 62.27-18.58 89.88-15.73 31.14-40.91 57.43-71.41 74.41-30.3 17.12-65.82 24.67-100.47 21.78-29.6-2.37-58.52-12.44-83.2-28.96-30.47-20.31-54.41-50.27-67.26-84.57C3.93 218.83.53 197.65.04 176.52c.8-.01 2.39-.03 3.18-.05.03 32.55 9.31 65.1 26.88 92.53 19.37 30.7 48.63 55.08 82.38 68.48 27.91 11.15 58.73 14.8 88.48 10.54 32.6-4.61 63.8-18.78 88.63-40.42 26.23-22.53 45.51-53.08 54.32-86.54 8.29-30.87 7.74-64.06-1.57-94.64-9.5-31.75-28.51-60.52-53.8-81.92C257.7 17.97 217.18 3.18 176.53 3.23c0-.79.01-2.38.01-3.17z"/><path d="M225.23 61.8c28.17 11.45 51.74 33.62 65.29 60.81 11.19 22.22 15.46 47.77 12.41 72.44-3.2 27.02-15.52 52.83-34.38 72.42-19.14 20.18-45.12 33.69-72.62 37.86-28.07 4.37-57.57-.96-82.24-15.07-25.69-14.46-46-38.17-56.37-65.76-9.85-25.87-10.83-54.99-2.92-81.5 5.94-19.93 16.88-38.33 31.53-53.09l2.16 2.16c-18.92 19-31.4 44.28-34.89 70.87-3.64 26.92 1.81 55.02 15.51 78.5 15.86 27.68 42.76 48.83 73.47 57.54 22.28 6.42 46.36 6.42 68.65 0 30.93-8.77 58-30.17 73.81-58.15 13.8-23.94 19.03-52.62 14.86-79.92-3.85-26.36-16.66-51.21-35.6-69.9.41-.42 1.24-1.27 1.65-1.7C254.9 78.82 242.51 70 228.88 63.82c-1.26-.61-2.46-1.32-3.65-2.02z"/><path d="M165.11 80.97c6.05-.29 12.19-1.38 18.22-.45-2.27-.11-4.53-.15-6.79-.19 0 .74-.01 2.21-.01 2.95-3.71.12-7.42.25-11.11.64-.08-.74-.23-2.21-.31-2.95zM136.27 88.82c5.53-2.37 11.21-4.5 17.11-5.71.15.72.44 2.14.58 2.85-5.63 1.42-11.15 3.26-16.46 5.6-.31-.69-.92-2.06-1.23-2.74zM111.12 104.96c4.52-3.94 9.36-7.48 14.47-10.61.53.85 1.06 1.71 1.59 2.57-5 3.01-9.66 6.52-14.13 10.26-.49-.56-1.45-1.67-1.93-2.22zM91.89 127.83c3.16-5.1 6.69-9.97 10.71-14.42.56.49 1.67 1.49 2.23 1.98-3.87 4.36-7.31 9.08-10.42 14.01-.63-.39-1.89-1.18-2.52-1.57zM86.14 138.51c.72.28 2.14.85 2.85 1.13a105.57 105.57 0 00-5.75 16.49c-.72-.19-2.17-.56-2.9-.74 1.42-5.8 3.53-11.38 5.8-16.88zM78.16 167.18l2.95.39c-.65 5.78-.88 11.6-.56 17.41-.75.04-2.25.14-3 .18-.33-6-.08-12.01.61-17.98zM275.21 169.84c.47 3.46.93 7.04.33 10.51l-2.12-.06-1.24-.8 3.42-.04c-.08-3.21-.19-6.41-.39-9.61zM268 208.9c1.77-5.55 3.01-11.24 3.81-17 .75.1 2.24.31 2.99.42-.86 5.93-2.1 11.82-3.96 17.52-.95-.31-1.9-.63-2.84-.94zM78.96 197.08c.74-.13 2.22-.4 2.95-.54 1.07 5.72 2.62 11.34 4.62 16.8-.7.26-2.09.79-2.79 1.06-2.08-5.63-3.71-11.42-4.78-17.32zM255.07 234.83c3.32-4.77 6.24-9.81 8.72-15.08.67.31 2.01.92 2.68 1.23-2.5 5.46-5.49 10.7-8.98 15.6-.6-.44-1.82-1.31-2.42-1.75zM88.61 225.29c.93-.42 1.87-.84 2.82-1.25 2.58 5.12 5.71 9.98 9.31 14.44-.79.67-1.57 1.34-2.36 2-3.67-4.78-6.97-9.85-9.77-15.19zM247.71 243.95l2.31 1.98c-4.03 4.43-8.45 8.48-13.15 12.18-.65-.8-1.27-1.61-1.86-2.45 4.61-3.46 8.85-7.41 12.7-11.71zM106.31 249.46c.53-.53 1.58-1.6 2.11-2.13 4.15 4.07 8.6 7.85 13.38 11.17-.57.82-1.13 1.66-1.69 2.49-4.93-3.43-9.53-7.31-13.8-11.53zM209.61 269.75c5.44-2.05 10.71-4.55 15.74-7.47.5.85 1.01 1.7 1.52 2.55-5.15 3.09-10.61 5.63-16.23 7.72-.26-.7-.78-2.1-1.03-2.8zM130.36 267.21l1.4-2.64c5.16 2.68 10.55 4.92 16.09 6.7-.31.94-.61 1.88-.91 2.83a98.442 98.442 0 01-16.58-6.89zM181.2 275.49c5.82-.29 11.59-1.15 17.28-2.4.16.72.49 2.17.66 2.9-5.86 1.29-11.8 2.22-17.8 2.5-.03-.75-.1-2.25-.14-3zM159.12 274.03c5.75 1.03 11.58 1.51 17.41 1.58 0 .76-.01 2.26-.01 3.02-5.99-.18-12.06-.37-17.9-1.77.13-.71.38-2.13.5-2.83z"/></g><path fill="#ef6145" d="M85.38 89.35c23.89-24.02 57.68-38.01 91.6-37.35 16.49-.03 33.1 3.24 48.25 9.8 1.19.7 2.39 1.41 3.65 2.02 13.63 6.18 26.02 15 36.67 25.49-.41.43-1.24 1.28-1.65 1.7-.85.87-1.71 1.73-2.56 2.58-22.32-22.45-53.65-35.62-85.35-35.52-32.03-.38-63.81 12.81-86.37 35.51-.38-.37-1.15-1.13-1.53-1.51l-2.16-2.16-.55-.56z"/></symbol><symbol viewBox="0 0 167 167" id="label" xmlns="http://www.w3.org/2000/svg"><defs><clipPath id="ca"><path fill="#fff" d="M130.696 141.004c-7.108.076-12.239 3.274-15.392 9.594-3.153 6.319-7.949 7.983-14.387 4.993-6.437-2.99-12.458-2.317-18.064 2.018-5.605 4.337-10.654 3.774-15.146-1.692-4.492-5.465-10.211-7.45-17.158-5.955-6.947 1.494-11.249-1.187-12.906-8.043-1.656-6.857-5.94-11.108-12.854-12.75-6.913-1.644-9.616-5.911-8.109-12.803 1.507-6.89-.494-12.563-6.004-17.019-5.51-4.455-6.078-9.463-1.706-15.023 4.372-5.56 5.05-11.533 2.035-17.918-3.015-6.386-1.337-11.142 5.034-14.27 6.371-3.128 9.595-8.218 9.672-15.269.076-7.05 3.669-10.614 10.777-10.69 7.108-.076 12.239-3.274 15.392-9.593 3.154-6.319 7.95-7.984 14.387-4.993 6.437 2.99 12.459 2.317 18.064-2.019 5.605-4.337 10.654-3.773 15.146 1.692 4.492 5.466 10.211 7.451 17.158 5.956 6.947-1.494 11.25 1.186 12.906 8.043 1.656 6.857 5.941 11.107 12.854 12.75 6.913 1.644 9.616 5.91 8.109 12.802-1.507 6.89.494 12.564 6.004 17.02 5.51 4.455 6.078 9.463 1.706 15.023-4.371 5.56-5.05 11.532-2.035 17.918 3.015 6.385 1.337 11.142-5.034 14.27-6.37 3.128-9.595 8.218-9.672 15.268-.076 7.05-3.669 10.614-10.777 10.69z"/></clipPath></defs><path fill="#ffc100" d="M134.121 145.678c-7.625.083-13.128 3.541-16.51 10.375-3.383 6.834-8.527 8.634-15.433 5.4-6.906-3.234-13.365-2.506-19.378 2.183-6.012 4.69-11.428 4.08-16.246-1.83-4.819-5.91-10.954-8.057-18.406-6.441-7.452 1.616-12.067-1.283-13.844-8.698-1.777-7.416-6.373-12.012-13.788-13.789-7.416-1.776-10.315-6.391-8.699-13.844 1.617-7.452-.53-13.587-6.44-18.406-5.91-4.817-6.52-10.233-1.83-16.246C8.235 78.37 8.963 71.91 5.728 65.004c-3.234-6.905-1.434-12.05 5.4-15.432 6.834-3.382 10.293-8.885 10.375-16.511.082-7.625 3.936-11.479 11.561-11.56 7.625-.083 13.129-3.541 16.511-10.375 3.383-6.835 8.527-8.634 15.432-5.4 6.906 3.234 13.365 2.507 19.378-2.183 6.012-4.69 11.428-4.08 16.247 1.83 4.818 5.91 10.953 8.056 18.405 6.44 7.452-1.616 12.067 1.283 13.844 8.7 1.777 7.414 6.373 12.01 13.788 13.788 7.416 1.777 10.315 6.391 8.699 13.843-1.616 7.452.53 13.587 6.44 18.406 5.91 4.819 6.52 10.233 1.831 16.247-4.69 6.013-5.417 12.472-2.183 19.377 3.234 6.905 1.434 12.05-5.4 15.433-6.834 3.382-10.293 8.886-10.375 16.51-.082 7.625-3.936 11.479-11.56 11.56z"/><path fill="none" stroke="#2a2a2a" stroke-miterlimit="20" stroke-width="2" d="M130.696 141.004c-7.108.076-12.239 3.274-15.392 9.594-3.153 6.319-7.949 7.983-14.387 4.993-6.437-2.99-12.458-2.317-18.064 2.018-5.605 4.337-10.654 3.774-15.146-1.692-4.492-5.465-10.211-7.45-17.158-5.955-6.947 1.494-11.249-1.187-12.906-8.043-1.656-6.857-5.94-11.108-12.854-12.75-6.913-1.644-9.616-5.911-8.109-12.803 1.507-6.89-.494-12.563-6.004-17.019-5.51-4.455-6.078-9.463-1.706-15.023 4.372-5.56 5.05-11.533 2.035-17.918-3.015-6.386-1.337-11.142 5.034-14.27 6.371-3.128 9.595-8.218 9.672-15.269.076-7.05 3.669-10.614 10.777-10.69 7.108-.076 12.239-3.274 15.392-9.593 3.154-6.319 7.95-7.984 14.387-4.993 6.437 2.99 12.459 2.317 18.064-2.019 5.605-4.337 10.654-3.773 15.146 1.692 4.492 5.466 10.211 7.451 17.158 5.956 6.947-1.494 11.25 1.186 12.906 8.043 1.656 6.857 5.941 11.107 12.854 12.75 6.913 1.644 9.616 5.91 8.109 12.802-1.507 6.89.494 12.564 6.004 17.02 5.51 4.455 6.078 9.463 1.706 15.023-4.371 5.56-5.05 11.532-2.035 17.918 3.015 6.385 1.337 11.142-5.034 14.27-6.37 3.128-9.595 8.218-9.672 15.268-.076 7.05-3.669 10.614-10.777 10.69z" clip-path="url(#ca)" opacity=".17"/></symbol><symbol viewBox="0 0 512 512" id="xls" xmlns="http://www.w3.org/2000/svg"><path d="M128 0c-17.6 0-32 14.4-32 32v448c0 17.6 14.4 32 32 32h320c17.6 0 32-14.4 32-32V128L352 0H128z" fill="#e2e5e7"/><path d="M384 128h96L352 0v96c0 17.6 14.4 32 32 32z" fill="#b0b7bd"/><path fill="#cad1d8" d="M480 224l-96-96h96z"/><path d="M416 416c0 8.8-7.2 16-16 16H48c-8.8 0-16-7.2-16-16V256c0-8.8 7.2-16 16-16h352c8.8 0 16 7.2 16 16v160z" fill="#84bd5a"/><g fill="#fff"><path d="M144.336 326.192l22.256-27.888c6.656-8.704 19.584 2.416 12.288 10.736-7.664 9.088-15.728 18.944-23.408 29.04l26.096 32.496c7.04 9.6-7.024 18.8-13.936 9.328l-23.552-30.192-23.152 30.848c-6.528 9.328-20.992-1.152-13.696-9.856l25.712-32.624c-8.064-10.112-15.872-19.952-23.664-29.04-8.048-9.6 6.912-19.44 12.8-10.464l22.256 27.616zM197.36 303.152c0-4.224 3.584-7.808 8.064-7.808 4.096 0 7.552 3.6 7.552 7.808v64.096h34.8c12.528 0 12.8 16.752 0 16.752H205.44c-4.48 0-8.064-3.184-8.064-7.792v-73.056h-.016zM272.032 314.672c2.944-24.832 40.416-29.296 58.08-15.728 8.704 7.024-.512 18.16-8.192 12.528-9.472-6-30.96-8.816-33.648 4.464-3.456 20.992 52.192 8.976 51.296 43.008-.896 32.496-47.968 33.248-65.632 18.672-4.24-3.456-4.096-9.072-1.792-12.544 3.328-3.312 7.024-4.464 11.392-.88 10.48 7.152 37.488 12.528 39.392-5.648-1.648-18.912-54.864-7.536-50.896-43.872z"/></g><path d="M400 432H96v16h304c8.8 0 16-7.2 16-16v-16c0 8.8-7.2 16-16 16z" fill="#cad1d8"/></symbol></svg>