<svg xmlns="http://www.w3.org/2000/svg" width="30" height="30" viewBox="0 0 30 30"><g><g><path fill="#3f444a" d="M29.796 27.187a2.803 2.803 0 0 1-2.793 2.812c-.772 0-1.47-.314-1.976-.824l-8.186-8.242a11.05 11.05 0 0 1-5.668 1.566C5.003 22.499 0 17.462 0 11.249S5.003 0 11.173 0c6.171 0 11.174 5.037 11.174 11.25a11.24 11.24 0 0 1-1.556 5.707l8.187 8.242c.505.51.818 1.212.818 1.989zM11.173 2.812c-4.628 0-8.38 3.777-8.38 8.437 0 4.66 3.752 8.437 8.38 8.437 4.629 0 8.38-3.777 8.38-8.437 0-4.66-3.751-8.437-8.38-8.437z"/></g></g></svg>