<svg xmlns="http://www.w3.org/2000/svg" width="88" height="88" viewBox="0 0 88 88"><g><g><path fill="#3f444a" d="M75.823 52.47a32.937 32.937 0 0 1-3.164 7.544c.198.247 7.275 9.14 2.926 13.487l-2.168 2.168c-3.258 3.257-11.42-1.849-13.368-3.146a33.069 33.069 0 0 1-7.992 3.201l.572.018s-1.547 11.633-7.784 11.633h-2.14c-4.755 0-7.404-9.966-7.862-11.846a33.055 33.055 0 0 1-7.886-3.373l.429.456s-9.215 7.242-13.625 2.834l-1.95-1.622c-3.351-3.35 2.05-12.227 3.13-13.92a33 33 0 0 1-3.08-7.363c-1.83-.445-11.87-3.094-11.87-7.864v-2.139c0-5.504 9.573-7.351 11.815-7.708a32.95 32.95 0 0 1 3.06-7.423c-1.027-1.561-6.646-10.476-3.265-13.856l2.06-1.732c3.88-3.878 11.83 1.616 13.687 2.993a33.011 33.011 0 0 1 7.542-3.168C35.48 9.308 38.114-.01 42.705-.01h2.14c5.347 0 7.242 9.012 7.675 11.59a33.01 33.01 0 0 1 7.65 3.154c2.016-1.313 10.316-6.386 13.566-3.138l1.95 2.058c3.8 3.8-1.472 11.497-3.004 13.554a32.954 32.954 0 0 1 3.155 7.56c.681.096 11.573 1.73 11.573 7.77v2.14c0 4.55-9.155 7.175-11.587 7.792zm-32.11-33.353c-13.58 0-24.589 11.004-24.589 24.578s11.009 24.579 24.589 24.579c13.58 0 24.588-11.005 24.588-24.58 0-13.573-11.008-24.577-24.588-24.577zm0 40.964c-9.053 0-16.392-7.337-16.392-16.386 0-9.05 7.339-16.386 16.392-16.386 9.053 0 16.392 7.337 16.392 16.386 0 9.05-7.339 16.386-16.392 16.386zm0-24.579a8.194 8.194 0 0 0-8.196 8.193 8.194 8.194 0 0 0 8.196 8.192 8.194 8.194 0 0 0 8.196-8.192 8.194 8.194 0 0 0-8.196-8.193z"/></g></g></svg>