<svg xmlns="http://www.w3.org/2000/svg" xmlns:xlink="http://www.w3.org/1999/xlink" width="50" height="56" viewBox="0 0 50 56">
    <defs>
        <path id="b" d="M20.75.061c4.192-.397 8.446 1.13 12.761 4.581 6.67 5.333 5.716 15.599 5.716 20.017 0 2.946.692 5.998 2.075 9.156-.704.44-2.044 1.059-4.019 1.854-1.975.796-4.454 1.727-7.437 2.795.89.904 1.72 2.244 2.49 4.02.77 1.775.77 3.614 0 5.516-3.206 0-5.851-.54-7.937-1.618-1.33-.687-2.579-1.719-3.748-3.095-1.169 1.376-2.418 2.408-3.748 3.095C14.818 47.461 12.173 48 8.967 48c-.771-1.902-.771-3.74 0-5.516.77-1.776 1.6-3.116 2.49-4.02-2.984-1.068-5.463-2-7.438-2.795C2.044 34.874.704 34.256 0 33.815c1.383-3.158 2.075-6.21 2.075-9.156 0-4.418-.953-14.684 5.716-20.017 4.35-3.478 8.636-5.002 12.86-4.57z"/>
        <filter id="a" width="131.5%" height="125%" x="-15.8%" y="-8.3%" filterUnits="objectBoundingBox">
            <feMorphology in="SourceAlpha" operator="dilate" radius="2" result="shadowSpreadOuter1"/>
            <feOffset dy="2" in="shadowSpreadOuter1" result="shadowOffsetOuter1"/>
            <feGaussianBlur in="shadowOffsetOuter1" result="shadowBlurOuter1" stdDeviation="1"/>
            <feComposite in="shadowBlurOuter1" in2="SourceAlpha" operator="out" result="shadowBlurOuter1"/>
            <feColorMatrix in="shadowBlurOuter1" values="0 0 0 0 0 0 0 0 0 0 0 0 0 0 0 0 0 0 0.5 0"/>
        </filter>
    </defs>
    <g fill="none" fill-rule="evenodd" transform="translate(4 2)">
        <use fill="#000" filter="url(#a)" xlink:href="#b"/>
        <path fill="#C3151C" stroke="#EAD7B6" stroke-width="2" d="M31.523 38.923c.614.86 1.189 1.915 1.73 3.162.88 2.026.88 4.144.01 6.29L33.01 49h-.674c-3.355 0-6.156-.57-8.396-1.73-1.161-.6-2.257-1.433-3.289-2.495-1.031 1.062-2.127 1.895-3.288 2.496C15.123 48.429 12.32 49 8.967 49h-.674l-.253-.625c-.87-2.146-.87-4.264.01-6.29.54-1.247 1.116-2.301 1.73-3.162a191.689 191.689 0 0 1-6.135-2.326C1.62 35.781.238 35.144-.53 34.663l-.732-.458.346-.79c1.33-3.038 1.991-5.954 1.991-8.756 0-.39-.003-.591-.023-1.657-.076-3.976.024-6.388.569-9.166.827-4.216 2.576-7.6 5.545-9.975 4.507-3.604 9.012-5.22 13.485-4.795h.005c4.472-.424 8.975 1.192 13.48 4.795 2.97 2.375 4.718 5.76 5.545 9.975.545 2.778.645 5.19.57 9.166a77.604 77.604 0 0 0-.024 1.657c0 2.802.661 5.718 1.991 8.755l.347.791-.732.458c-.769.48-2.15 1.118-4.176 1.934a191.689 191.689 0 0 1-6.134 2.326z"/>
        <path fill="#F6F5F4" d="M20.697 10.047l.035.247c.384.717.934 1.444 1.65 2.183 1.196 1.236 4.147 1.506 6.134 1.937 1.986.43 4.451 1.075 5.495 2.569 1.044 1.493.634 4.462-.633 7.939-1.267 3.476-7.545 7.134-10.997 7.387-.628.046-1.206.067-1.731.063-.523.004-1.1-.017-1.729-.063-3.452-.253-9.73-3.91-10.997-7.387-1.267-3.477-1.677-6.446-.633-7.94 1.044-1.493 3.51-2.138 5.496-2.568 1.986-.43 4.937-.701 6.134-1.937.715-.739 1.265-1.466 1.65-2.183l.034-.247.045.09.047-.09z"/>
        <circle cx="27.907" cy="22.326" r="2.233" fill="#C3151C"/>
        <circle cx="12.279" cy="22.326" r="2.233" fill="#C3151C"/>
        <path fill="#F7941F" fill-rule="nonzero" d="M23.482 27.185c.413-.32.985-.214 1.279.237.293.451.196 1.077-.217 1.397-2.626 2.038-5.408 2.038-8.142.012-.419-.31-.528-.933-.244-1.391.285-.458.855-.578 1.274-.267 2.106 1.56 4.054 1.56 6.05.012z"/>
    </g>
</svg>
