<svg width="38" height="43" viewBox="0 0 38 43" fill="none" xmlns="http://www.w3.org/2000/svg">
<path fill-rule="evenodd" clip-rule="evenodd" d="M32.5315 30.9982C35.5852 27.7059 37.4522 23.2973 37.4522 18.4527C37.4522 8.26154 29.1907 0 18.9995 0C8.80841 0 0.546875 8.26154 0.546875 18.4527C0.546875 23.2973 2.41385 27.7059 5.46758 30.9982C8.33014 34.0844 16.093 40.6275 18.3661 42.5282C18.735 42.8366 19.2641 42.8366 19.633 42.5282C21.9061 40.6275 29.6689 34.0844 32.5315 30.9982ZM18.9995 23.0658C21.5473 23.0658 23.6127 21.0004 23.6127 18.4527C23.6127 15.9049 21.5473 13.8395 18.9995 13.8395C16.4518 13.8395 14.3864 15.9049 14.3864 18.4527C14.3864 21.0004 16.4518 23.0658 18.9995 23.0658Z" fill="#261E23"/>
</svg>
