<svg xmlns="http://www.w3.org/2000/svg" width="18" height="17" viewBox="0 0 18 17"><g><g><path fill="#fff" d="M18.104 8.49a8.373 8.373 0 0 1-.679 3.303 8.404 8.404 0 0 1-.796 1.442 8.559 8.559 0 0 1-2.33 2.29A8.653 8.653 0 0 1 11.21 16.8a8.735 8.735 0 0 1-1.738.173 8.74 8.74 0 0 1-4.827-1.45 8.557 8.557 0 0 1-2.33-2.29 8.404 8.404 0 0 1-1.3-3.035 8.4 8.4 0 0 1 .503-5.01 8.39 8.39 0 0 1 .796-1.442 8.577 8.577 0 0 1 2.33-2.29c.462-.307.956-.57 1.467-.783a8.8 8.8 0 0 1 6.72 0 8.713 8.713 0 0 1 2.745 1.818c.39.384.744.806 1.053 1.255a8.39 8.39 0 0 1 1.3 3.036c.116.558.175 1.133.175 1.707zm-2.939-4.602c-.014.02-1.196 1.7-4.107 2.868a22.035 22.035 0 0 1 .649 1.425c2.533-.313 5.028.214 5.135.238a7.14 7.14 0 0 0-1.677-4.53zM9.472 1.246c-.6 0-1.18.072-1.737.204.11.144 1.495 1.952 2.755 4.226 2.783-1.024 3.833-2.594 3.85-2.623a7.417 7.417 0 0 0-4.868-1.807zm-1.79.216l.023-.005h.001l-.023.005zM2.259 6.998c.194.003 3.266.038 6.806-.885a43.584 43.584 0 0 0-2.737-4.175c-2.056.955-3.59 2.815-4.07 5.06zm1.73 6.334c0-.002-.002-.003-.002-.003S6.004 9.81 9.982 8.547c.096-.031.193-.06.29-.087a23.859 23.859 0 0 0-.598-1.231C5.88 8.345 2.236 8.264 2.106 8.26c-.003.076-.006.152-.006.229 0 1.861.715 3.558 1.889 4.842zm8.362 1.83c-.11-.634-.537-2.852-1.575-5.501a.708.708 0 0 0-.049.015c-4.372 1.497-5.785 4.526-5.785 4.526s-.068-.05-.165-.127a7.419 7.419 0 0 0 4.696 1.66c1.02 0 1.994-.204 2.878-.573zm4.4-5.521c-.152-.05-2.214-.69-4.594-.316.967 2.611 1.36 4.737 1.435 5.175a7.238 7.238 0 0 0 3.16-4.86z"/></g></g></svg>