<svg xmlns="http://www.w3.org/2000/svg" width="18" height="11" viewBox="0 0 18 11"><g><g><path fill="#fff" d="M12.068 1.247h4.3v1.08h-4.3zM18 7.641h-5.6c.06 1.335.72 1.826 1.906 1.826.857 0 1.548-.268 1.683-.743h1.707c-.6 1.809-1.707 2.33-3.464 2.33-2.447 0-3.963-1.66-3.963-4.033 0-2.299 1.607-4.048 3.963-4.048 2.641 0 3.918 2.31 3.768 4.668zm-5.6-1.567h3.469c-.196-1.068-.662-1.514-1.698-1.514-1.35 0-1.74.921-1.77 1.514zM9.71 7.776c0 2.15-1.848 3.07-3.785 3.07H.731V.193h5.046c2.04 0 3.422.72 3.422 2.691 0 1.04-.526 1.765-1.457 2.21 1.307.371 1.967 1.364 1.967 2.683zM5.092 1.984H2.887V4.46h2.386c.825 0 1.441-.37 1.441-1.259 0-1.008-.78-1.217-1.62-1.217zm.36 4.063H2.887v2.907h2.521c.93 0 1.74-.296 1.74-1.394 0-1.083-.689-1.513-1.695-1.513z"/></g></g></svg>