<svg xmlns="http://www.w3.org/2000/svg" width="14" height="17" viewBox="0 0 14 17"><g><g><path fill="#fff" d="M6.314 11.044c-.14.553-.283 1.132-.43 1.697-.145.558-.272 1.125-.484 1.637-.35.85-.794 1.67-1.378 2.334-.387.442-.305.265-.422.242-.089-.018-.096-.104-.114-.228-.095-.676-.03-1.455.005-2.214.04-.864.225-1.582.397-2.3.327-1.368.638-2.709.968-4.085.022-.091.08-.243.06-.295a4.198 4.198 0 0 1-.289-1.127 3.525 3.525 0 0 1 .094-1.288c.187-.7.616-1.323 1.278-1.549.42-.144.886-.079 1.17.087.29.171.49.442.584.825.1.409.026.896-.054 1.254-.18.808-.417 1.414-.632 2.194-.106.386-.227.783-.127 1.2.091.384.294.648.571.845.287.206.627.318 1.096.302.828-.028 1.403-.548 1.788-1.04.615-.784.988-1.844 1.129-3.105.046-.406.079-.874.047-1.334-.059-.852-.33-1.536-.76-2.066a3.564 3.564 0 0 0-1.693-1.134c-.7-.224-1.668-.298-2.528-.154-1.562.263-2.665 1.136-3.314 2.34a4.63 4.63 0 0 0-.565 2.26c0 .697.175 1.238.458 1.657.09.134.22.244.309.396.124.216-.02.538-.081.772-.074.282-.082.67-.417.677-.138.003-.312-.097-.43-.16-.88-.479-1.414-1.348-1.633-2.476a5.818 5.818 0 0 1 0-2.145c.128-.64.367-1.232.632-1.711A6.17 6.17 0 0 1 3.88.99C4.634.554 5.483.246 6.516.099c.343-.05.698-.07 1.082-.087a6.59 6.59 0 0 1 2.918.536 5.971 5.971 0 0 1 2.01 1.422 5.358 5.358 0 0 1 1.237 2.193c.135.459.268.95.268 1.516 0 .568-.123 1.069-.208 1.57-.32 1.874-1.227 3.407-2.588 4.278-.33.212-.73.407-1.183.537-.45.13-.963.226-1.513.188a3.149 3.149 0 0 1-1.337-.382c-.364-.202-.67-.45-.888-.826z"/></g></g></svg>