<svg xmlns="http://www.w3.org/2000/svg" width="18" height="15" viewBox="0 0 18 15"><g><g><path fill="#fff" d="M11.954.472c1.372-.023 2.102.467 2.8 1.093.591-.05 1.36-.376 1.814-.602l.44-.237c-.258.687-.61 1.225-1.149 1.634-.12.09-.238.213-.388.27v.01c.768-.008 1.402-.35 2.004-.534v.009a5.661 5.661 0 0 1-1.2 1.354l-.554.432c.01.8-.012 1.563-.164 2.235-.885 3.907-3.228 6.559-6.938 7.696-1.333.407-3.486.575-5.012.202-.757-.184-1.44-.392-2.082-.668a8.47 8.47 0 0 1-1.003-.508l-.31-.187c.344.01.746.104 1.131.043.348-.056.69-.041 1.011-.11.801-.173 1.513-.402 2.126-.754.297-.17.748-.371.959-.618a3.057 3.057 0 0 1-1.054-.186c-1.146-.398-1.813-1.128-2.247-2.226.347.036 1.347.126 1.581-.069-.437-.023-.857-.272-1.157-.457C1.64 7.728.888 6.777.894 5.314l.363.17c.231.095.467.147.743.203.117.024.35.09.484.042h-.018c-.178-.204-.468-.34-.648-.558-.59-.723-1.145-1.835-.794-3.158.088-.336.23-.632.38-.906l.017.008c.069.142.222.246.32.364.302.368.674.7 1.054.991 1.293.994 2.458 1.605 4.329 2.057a6.894 6.894 0 0 0 1.59.203c-.16-.455-.108-1.193.017-1.634.315-1.109 1-1.908 2.005-2.336.24-.102.506-.177.786-.237l.432-.051z"/></g></g></svg>