<svg xmlns="http://www.w3.org/2000/svg" viewBox="0 0 56.74 63.04"><defs><style>.cls-1{fill:#0049c5}.cls-2{fill:#fff;fill-rule:evenodd}</style></defs><g id="Слой_2" data-name="Слой 2"><g id="Layer_1" data-name="Layer 1"><path class="cls-1" d="M26.43 3h4.95c13.46 1.07 21.9 8.43 23.16 21.86v5c-.9 8.79-2.8 17.13-10.39 21.76-2.73 1.88-6 2.7-9 3.9a79.7 79.7 0 00-6 7.46h-.27a64.48 64.48 0 00-5.88-7.4c-5.64-1.73-11.14-4.41-15.06-9-3.94-4.17-4.11-9.66-5.4-15.2V25.2C3.6 11.72 13 4.3 26.43 3z"/><circle class="cls-1" cx="28.37" cy="28.37" r="28.37"/><path class="cls-2" d="M24.36 13.75h8.74a.34.34 0 01.34.34v1.68a.34.34 0 01-.34.34h-8.74a.34.34 0 01-.34-.34v-1.68a.34.34 0 01.34-.34"/><path class="cls-2" d="M27.55 24v-8.73a.34.34 0 01.34-.34h1.68a.34.34 0 01.34.34V24a.35.35 0 01-.34.34h-1.68a.34.34 0 01-.34-.34M44 24.7v8.74a.34.34 0 01-.34.34H42a.34.34 0 01-.33-.34V24.7a.34.34 0 01.33-.34h1.7a.34.34 0 01.34.34"/><path class="cls-2" d="M33.78 27.89h8.74a.34.34 0 01.34.34v1.68a.34.34 0 01-.34.34h-8.74a.34.34 0 01-.34-.34v-1.68a.34.34 0 01.34-.34M24.36 44.38h8.74a.34.34 0 00.34-.34v-1.67a.34.34 0 00-.34-.37h-8.74a.34.34 0 00-.34.34V44a.34.34 0 00.34.34"/><path class="cls-2" d="M27.55 34.12v8.75a.34.34 0 00.34.33h1.68a.34.34 0 00.34-.33v-8.75a.34.34 0 00-.34-.34h-1.68a.34.34 0 00-.34.34M13.41 24.7v8.74a.34.34 0 00.34.34h1.68a.34.34 0 00.34-.34V24.7a.34.34 0 00-.34-.34h-1.68a.34.34 0 00-.34.34"/><path class="cls-2" d="M23.68 27.89h-8.75a.34.34 0 00-.34.34v1.68a.34.34 0 00.34.34h8.75a.35.35 0 00.34-.34v-1.68a.34.34 0 00-.34-.34M32.8 18.81L39 25a.34.34 0 00.48 0l1.18-1.19a.32.32 0 000-.47l-2.26-2.27 5.4-5.41a.34.34 0 000-.48L42.62 14a.34.34 0 00-.48 0l-5.41 5.4-2.26-2.26a.34.34 0 00-.48 0l-1.19 1.19a.34.34 0 000 .48M24.65 18.81L18.47 25a.34.34 0 01-.47 0l-1.2-1.2a.33.33 0 010-.47l2.26-2.26-5.41-5.41a.34.34 0 010-.48L14.84 14a.34.34 0 01.48 0l5.41 5.41L23 17.14a.33.33 0 01.47 0l1.19 1.19a.34.34 0 010 .48M32.8 39.33l6.2-6.18a.33.33 0 01.48 0l1.18 1.18a.33.33 0 010 .48l-2.26 2.26 5.4 5.41a.34.34 0 010 .48l-1.18 1.18a.34.34 0 01-.48 0l-5.41-5.4L34.47 41a.33.33 0 01-.47 0l-1.2-1.19a.34.34 0 010-.48M24.65 39.33l-6.18-6.18a.33.33 0 00-.48 0l-1.19 1.18a.34.34 0 000 .48l2.26 2.26-5.41 5.41a.34.34 0 000 .48l1.19 1.18a.34.34 0 00.48 0l5.41-5.4L23 41a.32.32 0 00.47 0l1.19-1.18a.34.34 0 000-.48"/></g></g></svg>